<svg xmlns="http://www.w3.org/2000/svg" viewBox="10.873001098632812 -41 1013.7960205078125 1106" width="1024" height="1024" class="colorable-icon reset-top-left-margin" data-export-recolorable-svg="true" overflow="visible" xmlns:xlink="http://www.w3.org/1999/xlink" fill="rgb(0, 0, 0)" stroke="none"><g id="skeleton-paths" stroke-width="45.0" fill="rgb(0, 0, 0)" stroke="none"><path id="path-0-0" d="M65.134 4.104L67.251 4.048L69.443 4.026L72.066 4L74.547 4L76.701 4L79.125 4L81.278 4L83.702 4L85.855 4L88.279 4.001L90.432 4.001L92.856 4.001L95.010 4.002L97.434 4.002L99.587 4.002L102.011 4.002L104.164 4.002L106.588 4.002L108.741 4.003L111.165 4.003L113.319 4.003L115.743 4.003L117.896 4.003L120.320 4.003L122.473 4.004L124.897 4.004L127.050 4.004L129.474 4.004L131.628 4.004L134.051 4.004L136.205 4.005L138.629 4.005L140.782 4.005L143.206 4.005L145.359 4.005L147.783 4.005L149.937 4.006L152.360 4.006L154.514 4.006L156.938 4.006L159.091 4.006L161.515 4.006L163.668 4.007L166.092 4.007L168.246 4.007L170.669 4.007L172.823 4.007L175.247 4.008L177.400 4.008L179.824 4.008L181.977 4.008L184.401 4.008L186.555 4.008L188.978 4.009L191.132 4.009L193.556 4.009L195.709 4.009L198.133 4.009L200.286 4.009L202.710 4.010L204.864 4.010L207.287 4.010L209.441 4.010L211.865 4.010L214.018 4.010L216.442 4.011L218.595 4.011L221.019 4.011L223.173 4.011L225.596 4.011L227.750 4.011L230.174 4.012L232.327 4.012L234.751 4.012L236.904 4.012L239.328 4.012L241.482 4.012L243.905 4.013L246.059 4.013L248.483 4.013L250.636 4.013L253.060 4.013L255.213 4.013L257.637 4.014L259.791 4.014L262.214 4.014L264.368 4.014L266.792 4.014L268.945 4.015L271.369 4.015L273.522 4.015L275.946 4.015L278.100 4.015L280.523 4.015L282.677 4.016L285.101 4.016L287.254 4.016L289.678 4.016L291.831 4.016L294.255 4.016L296.409 4.017L298.832 4.017L300.986 4.017L303.410 4.017L305.563 4.017L307.987 4.017L310.140 4.018L312.564 4.018L314.718 4.018L317.141 4.018L319.295 4.018L321.719 4.018L323.872 4.019L326.296 4.019L328.449 4.019L330.873 4.019L333.027 4.019L335.450 4.019L337.604 4.020L340.028 4.020L342.181 4.020L344.605 4.020L346.758 4.020L349.182 4.021L351.336 4.021L353.759 4.021L355.913 4.021L358.337 4.021L360.490 4.021L362.914 4.022L365.067 4.022L367.491 4.022L369.645 4.022L372.068 4.022L374.222 4.022L376.646 4.023L378.799 4.023L381.223 4.023L383.376 4.023L385.800 4.023L387.954 4.023L390.377 4.024L392.531 4.024L394.955 4.024L397.108 4.024L399.532 4.024L401.685 4.024L404.109 4.025L406.263 4.025L408.686 4.025L410.840 4.025L413.264 4.025L415.417 4.025L417.841 4.026L419.994 4.026L422.418 4.026L424.572 4.026L426.995 4.026L429.149 4.026L431.573 4.027L433.726 4.027L436.150 4.027L438.303 4.027L440.727 4.027L442.881 4.028L445.304 4.028L447.458 4.028L449.882 4.028L452.035 4.028L454.459 4.028L456.612 4.029L459.036 4.029L461.189 4.029L463.613 4.029L465.767 4.029L468.191 4.029L470.344 4.030L472.768 4.030L474.921 4.030L477.345 4.030L479.498 4.030L481.922 4.030L484.076 4.031L486.500 4.031L488.653 4.031L491.077 4.031L493.230 4.031L495.654 4.031L497.807 4.032L500.231 4.032L502.385 4.032L504.809 4.032L506.962 4.032L509.386 4.032L511.539 4.033L513.963 4.033L516.116 4.033L518.540 4.033L520.694 4.033L523.118 4.033L525.271 4.034L527.695 4.034L529.848 4.034L532.272 4.034L534.425 4.034L536.849 4.035L539.003 4.035L541.427 4.035L543.580 4.035L546.004 4.035L548.157 4.035L550.581 4.036L552.734 4.036L555.158 4.036L557.312 4.036L559.736 4.036L561.889 4.036L564.313 4.037L566.466 4.037L568.890 4.037L571.043 4.037L573.467 4.037L575.621 4.037L578.045 4.038L580.198 4.038L582.622 4.038L584.775 4.038L587.199 4.038L589.352 4.038L591.776 4.039L593.930 4.039L596.354 4.039L598.507 4.039L600.931 4.039L603.084 4.039L605.508 4.040L607.661 4.040L610.085 4.040L612.239 4.040L614.663 4.040L616.816 4.040L619.240 4.041L621.393 4.041L623.817 4.041L625.970 4.041L628.394 4.041L630.548 4.042L632.972 4.042L635.125 4.042L637.549 4.042L639.702 4.042L642.126 4.042L644.279 4.043L646.703 4.043L648.857 4.043L651.281 4.043L653.434 4.043L655.858 4.043L658.011 4.044L660.435 4.044L662.588 4.044L665.012 4.044L667.166 4.044L669.590 4.044L671.743 4.045L674.167 4.045L676.320 4.045L678.744 4.045L680.897 4.045L683.321 4.045L685.475 4.046L687.898 4.046L690.052 4.046L692.476 4.046L694.629 4.046L697.053 4.046L699.206 4.047L701.630 4.047L703.784 4.047L706.207 4.047L708.361 4.047L710.785 4.048L712.938 4.048L715.362 4.048L717.515 4.048L719.939 4.048L722.093 4.048L724.516 4.049L726.670 4.049L729.094 4.049L731.247 4.049L733.671 4.049L735.824 4.049L738.248 4.050L740.402 4.050L742.825 4.050L744.979 4.050L747.403 4.050L749.556 4.050L751.980 4.051L754.133 4.051L756.557 4.051L758.711 4.051L761.134 4.051L763.288 4.051L765.712 4.052L767.865 4.052L770.289 4.052L772.442 4.052L774.866 4.052L777.020 4.052L779.443 4.053L781.597 4.053L784.021 4.053L786.174 4.053L788.598 4.053L790.751 4.053L793.175 4.054L795.329 4.054L797.752 4.054L799.906 4.054L802.330 4.054L804.483 4.055L806.907 4.055L809.060 4.055L811.484 4.055L813.638 4.055L816.061 4.055L818.215 4.056L820.639 4.056L822.792 4.056L825.216 4.056L827.369 4.056L829.793 4.056L831.947 4.057L834.370 4.057L836.524 4.057L838.948 4.057L841.101 4.057L843.525 4.057L845.678 4.058L848.102 4.058L850.256 4.058L852.679 4.058L854.833 4.058L857.257 4.058L859.410 4.059L861.834 4.059L863.987 4.059L866.411 4.059L868.565 4.059L871.012 4.059L873.175 4.060L875.597 4.060L877.741 4.060L880.357 4.091L882.136 4.119L884.123 4.187" stroke="url(&quot;#theme-accent-gradient-linear&quot;) rgb(90, 110, 216)" stroke-width="45" fill="none" stroke-linecap="round" stroke-linejoin="round"/><path id="path-1-0" d="M55.873 13.880L55.873 15.179L55.873 16.853L55.873 18.974L55.873 21.364L55.873 23.524L55.873 25.969L55.873 28.123L55.873 30.546L55.873 32.700L55.873 35.124L55.874 37.277L55.874 39.701L55.874 41.854L55.874 44.278L55.874 46.432L55.874 48.855L55.874 51.009L55.874 53.433L55.874 55.586L55.874 58.010L55.874 60.163L55.874 62.587L55.874 64.741L55.874 67.164L55.874 69.318L55.874 71.742L55.874 73.895L55.874 76.319L55.874 78.472L55.874 80.896L55.874 83.050L55.874 85.473L55.874 87.627L55.874 90.051L55.874 92.204L55.874 94.628L55.874 96.781L55.875 99.205L55.875 101.359L55.875 103.782L55.875 105.936L55.875 108.360L55.875 110.513L55.875 112.937L55.875 115.090L55.875 117.514L55.875 119.667L55.875 122.091L55.875 124.245L55.875 126.669L55.875 128.822L55.875 131.246L55.875 133.399L55.875 135.823L55.875 137.976L55.875 140.400L55.875 142.554L55.875 144.978L55.875 147.131L55.875 149.555L55.875 151.708L55.875 154.132L55.875 156.285L55.875 158.709L55.876 160.863L55.876 163.287L55.876 165.440L55.876 167.864L55.876 170.017L55.876 172.441L55.876 174.594L55.876 177.018L55.876 179.172L55.876 181.596L55.876 183.749L55.876 186.173L55.876 188.326L55.876 190.750L55.876 192.903L55.876 195.327L55.876 197.481L55.876 199.905L55.876 202.058L55.876 204.482L55.876 206.635L55.876 209.059L55.876 211.212L55.876 213.636L55.876 215.790L55.876 218.214L55.877 220.367L55.877 222.791L55.877 224.944L55.877 227.368L55.877 229.521L55.877 231.945L55.877 234.099L55.877 236.523L55.877 238.676L55.877 241.100L55.877 243.253L55.877 245.677L55.877 247.830L55.877 250.254L55.877 252.408L55.877 254.832L55.877 256.985L55.877 259.409L55.877 261.562L55.877 263.986L55.877 266.139L55.877 268.563L55.877 270.717L55.877 273.141L55.877 275.294L55.877 277.718L55.877 279.871L55.878 282.295L55.878 284.448L55.878 286.872L55.878 289.026L55.878 291.450L55.878 293.603L55.878 296.027L55.878 298.180L55.878 300.604L55.878 302.757L55.878 305.181L55.878 307.335L55.878 309.759L55.878 311.912L55.878 314.336L55.878 316.489L55.878 318.913L55.878 321.066L55.878 323.490L55.878 325.644L55.878 328.068L55.878 330.221L55.878 332.645L55.878 334.798L55.878 337.222L55.878 339.375L55.878 341.799L55.879 343.953L55.879 346.376L55.879 348.530L55.879 350.954L55.879 353.107L55.879 355.531L55.879 357.684L55.879 360.108L55.879 362.262L55.879 364.685L55.879 366.839L55.879 369.263L55.879 371.416L55.879 373.840L55.879 375.993L55.879 378.417L55.879 380.571L55.879 382.994L55.879 385.148L55.879 387.572L55.879 389.725L55.879 392.149L55.879 394.302L55.879 396.726L55.879 398.880L55.879 401.303L55.880 403.457L55.880 405.881L55.880 408.034L55.880 410.458L55.880 412.611L55.880 415.035L55.880 417.189L55.880 419.612L55.880 421.766L55.880 424.190L55.880 426.343L55.880 428.767L55.880 430.920L55.880 433.344L55.880 435.498L55.880 437.921L55.880 440.075L55.880 442.499L55.880 444.652L55.880 447.076L55.880 449.229L55.880 451.653L55.880 453.807L55.880 456.230L55.880 458.384L55.880 460.808L55.880 462.961L55.881 465.385L55.881 467.538L55.881 469.962L55.881 472.116L55.881 474.539L55.881 476.693L55.881 479.117L55.881 481.270L55.881 483.694L55.881 485.847L55.881 488.271L55.881 490.425L55.881 492.848L55.881 495.002L55.881 497.426L55.881 499.579L55.881 502.003L55.881 504.156L55.881 506.580L55.881 508.734L55.881 511.157L55.881 513.311L55.881 515.735L55.881 517.888L55.881 520.312L55.881 522.465L55.881 524.889L55.882 527.043L55.882 529.466L55.882 531.620L55.882 534.044L55.882 536.197L55.882 538.621L55.882 540.774L55.882 543.198L55.882 545.352L55.882 547.775L55.882 549.929L55.882 552.353L55.882 554.506L55.882 556.930L55.882 559.083L55.882 561.507L55.882 563.661L55.882 566.084L55.882 568.238L55.882 570.662L55.882 572.815L55.882 575.239L55.882 577.392L55.882 579.816L55.882 581.970L55.882 584.393L55.882 586.547L55.883 588.971L55.883 591.124L55.883 593.548L55.883 595.701L55.883 598.125L55.883 600.279L55.883 602.702L55.883 604.856L55.883 607.280L55.883 609.433L55.883 611.857L55.883 614.010L55.883 616.434L55.883 618.588L55.883 621.011L55.883 623.165L55.883 625.589L55.883 627.742L55.883 630.166L55.883 632.319L55.883 634.743L55.883 636.897L55.883 639.320L55.883 641.474L55.883 643.898L55.883 646.051L55.884 648.475L55.884 650.628L55.884 653.052L55.884 655.206L55.884 657.629L55.884 659.783L55.884 662.207L55.884 664.360L55.884 666.784L55.884 668.937L55.884 671.361L55.884 673.514L55.884 675.938L55.884 678.092L55.884 680.516L55.884 682.669L55.884 685.093L55.884 687.246L55.884 689.670L55.884 691.823L55.884 694.247L55.884 696.401L55.884 698.825L55.884 700.978L55.884 703.402L55.884 705.555L55.884 707.979L55.885 710.132L55.885 712.556L55.885 714.710L55.885 717.134L55.885 719.287L55.885 721.711L55.885 723.864L55.885 726.288L55.885 728.441L55.885 730.865L55.885 733.019L55.885 735.443L55.885 737.596L55.885 740.020L55.885 742.173L55.885 744.597L55.885 746.750L55.885 749.174L55.885 751.328L55.885 753.752L55.885 755.905L55.885 758.329L55.885 760.482L55.885 762.906L55.885 765.059L55.885 767.483L55.885 769.637L55.886 772.061L55.886 774.214L55.886 776.638L55.886 778.791L55.886 781.215L55.886 783.368L55.886 785.792L55.886 787.946L55.886 790.370L55.886 792.523L55.886 794.947L55.886 797.100L55.886 799.524L55.886 801.677L55.886 804.101L55.886 806.255L55.886 808.679L55.886 810.832L55.886 813.256L55.886 815.409L55.886 817.833L55.886 819.986L55.886 822.410L55.886 824.564L55.886 826.988L55.886 829.141L55.887 831.565L55.887 833.718L55.887 836.142L55.887 838.295L55.887 840.719L55.887 842.873L55.887 845.297L55.887 847.450L55.887 849.874L55.887 852.027L55.887 854.451L55.887 856.604L55.887 859.028L55.887 861.182L55.887 863.606L55.887 865.759L55.887 868.183L55.887 870.336L55.887 872.760L55.887 874.913L55.887 877.337L55.887 879.491L55.887 881.915L55.887 884.068L55.887 886.492L55.887 888.645L55.887 891.069L55.888 893.222L55.888 895.646L55.888 897.800L55.888 900.223L55.888 902.377L55.888 904.801L55.888 906.954L55.888 909.378L55.888 911.531L55.888 913.955L55.888 916.109L55.888 918.532L55.888 920.686L55.888 923.110L55.888 925.263L55.888 927.687L55.888 929.840L55.888 932.264L55.888 934.418L55.888 936.863L55.888 939.023L55.888 941.447L55.888 943.587L55.908 946.152L55.925 947.868L55.967 949.739" stroke="url(&quot;#theme-accent-gradient-linear&quot;) rgb(90, 110, 216)" stroke-width="45" fill="none" stroke-linecap="round" stroke-linejoin="round"/><path id="path-2-0" d="M66.461 958.889L67.569 958.894L69.505 958.895L71.715 958.898L74.392 958.898L76.611 958.898L79.125 958.898L81.278 958.898L83.702 958.898L85.855 958.898L88.279 958.899L90.432 958.899L92.856 958.899L95.010 958.899L97.434 958.899L99.587 958.899L102.011 958.899L104.164 958.899L106.588 958.900L108.741 958.900L111.165 958.900L113.319 958.900L115.743 958.900L117.896 958.900L120.320 958.900L122.473 958.900L124.897 958.901L127.050 958.901L129.474 958.901L131.628 958.901L134.051 958.901L136.205 958.901L138.629 958.901L140.782 958.901L143.206 958.902L145.359 958.902L147.783 958.902L149.937 958.902L152.360 958.902L154.514 958.902L156.938 958.902L159.091 958.902L161.515 958.903L163.668 958.903L166.092 958.903L168.246 958.903L170.669 958.903L172.823 958.903L175.247 958.903L177.400 958.903L179.824 958.904L181.977 958.904L184.401 958.904L186.555 958.904L188.978 958.904L191.132 958.904L193.556 958.904L195.709 958.905L198.133 958.905L200.286 958.905L202.710 958.905L204.864 958.905L207.287 958.905L209.441 958.905L211.865 958.905L214.018 958.906L216.442 958.906L218.595 958.906L221.019 958.906L223.173 958.906L225.596 958.906L227.750 958.906L230.174 958.906L232.327 958.907L234.751 958.907L236.904 958.907L239.328 958.907L241.482 958.907L243.905 958.907L246.059 958.907L248.483 958.907L250.636 958.908L253.060 958.908L255.213 958.908L257.637 958.908L259.791 958.908L262.214 958.908L264.368 958.908L266.792 958.908L268.945 958.909L271.369 958.909L273.522 958.909L275.946 958.909L278.100 958.909L280.523 958.909L282.677 958.909L285.101 958.909L287.254 958.910L289.678 958.910L291.831 958.910L294.255 958.910L296.409 958.910L298.832 958.910L300.986 958.910L303.410 958.911L305.563 958.911L307.987 958.911L310.140 958.911L312.564 958.911L314.718 958.911L317.141 958.911L319.295 958.911L321.719 958.912L323.872 958.912L326.296 958.912L328.449 958.912L330.873 958.912L333.027 958.912L335.450 958.912L337.604 958.912L340.028 958.913L342.181 958.913L344.605 958.913L346.758 958.913L349.182 958.913L351.336 958.913L353.759 958.913L355.913 958.913L358.337 958.914L360.490 958.914L362.914 958.914L365.067 958.914L367.491 958.914L369.645 958.914L372.068 958.914L374.222 958.914L376.646 958.915L378.799 958.915L381.223 958.915L383.376 958.915L385.800 958.915L387.954 958.915L390.377 958.915L392.531 958.915L394.955 958.916L397.108 958.916L399.532 958.916L401.685 958.916L404.109 958.916L406.263 958.916L408.686 958.916L410.840 958.917L413.264 958.917L415.417 958.917L417.841 958.917L419.994 958.917L422.418 958.917L424.572 958.917L426.995 958.917L429.149 958.918L431.573 958.918L433.726 958.918L436.150 958.918L438.303 958.918L440.727 958.918L442.881 958.918L445.304 958.918L447.458 958.919L449.882 958.919L452.035 958.919L454.459 958.919L456.612 958.919L459.036 958.919L461.189 958.919L463.613 958.919L465.767 958.920L468.191 958.920L470.344 958.920L472.768 958.920L474.921 958.920L477.345 958.920L479.498 958.920L481.922 958.920L484.076 958.921L486.500 958.921L488.653 958.921L491.077 958.921L493.230 958.921L495.654 958.921L497.807 958.921L500.231 958.922L502.385 958.922L504.809 958.922L506.962 958.922L509.386 958.922L511.539 958.922L513.963 958.922L516.116 958.922L518.540 958.923L520.694 958.923L523.118 958.923L525.271 958.923L527.695 958.923L529.848 958.923L532.272 958.923L534.425 958.923L536.849 958.924L539.003 958.924L541.427 958.924L543.580 958.924L546.004 958.924L548.157 958.924L550.581 958.924L552.734 958.924L555.158 958.925L557.312 958.925L559.736 958.925L561.889 958.925L564.313 958.925L566.466 958.925L568.890 958.925L571.043 958.925L573.467 958.926L575.621 958.926L578.045 958.926L580.198 958.926L582.622 958.926L584.775 958.926L587.199 958.926L589.352 958.926L591.776 958.927L593.930 958.927L596.354 958.927L598.507 958.927L600.931 958.927L603.084 958.927L605.508 958.927L607.661 958.928L609.388 958.928L610.603 958.928" stroke="url(&quot;#theme-accent-gradient-linear&quot;) rgb(90, 110, 216)" stroke-width="45" fill="none" stroke-linecap="round" stroke-linejoin="round"/><path id="path-3-0" d="M893.873 508.624L893.871 507.409L893.874 505.682L893.875 503.529L893.877 501.105L893.877 498.951L893.878 496.528L893.878 494.374L893.879 491.950L893.879 489.797L893.879 487.373L893.880 485.220L893.880 482.796L893.880 480.642L893.881 478.219L893.881 476.065L893.882 473.641L893.882 471.488L893.882 469.064L893.883 466.911L893.883 464.487L893.884 462.333L893.884 459.910L893.884 457.756L893.885 455.332L893.885 453.179L893.886 450.755L893.886 448.602L893.886 446.178L893.887 444.024L893.887 441.601L893.887 439.447L893.888 437.023L893.888 434.870L893.889 432.446L893.889 430.293L893.889 427.869L893.890 425.715L893.890 423.292L893.891 421.138L893.891 418.714L893.891 416.561L893.892 414.137L893.892 411.984L893.892 409.560L893.893 407.406L893.893 404.983L893.894 402.829L893.894 400.405L893.894 398.252L893.895 395.828L893.895 393.675L893.896 391.251L893.896 389.097L893.896 386.674L893.897 384.520L893.897 382.096L893.898 379.943L893.898 377.519L893.898 375.366L893.899 372.942L893.899 370.788L893.899 368.365L893.900 366.211L893.900 363.787L893.901 361.634L893.901 359.210L893.901 357.057L893.902 354.633L893.902 352.479L893.903 350.056L893.903 347.902L893.903 345.478L893.904 343.325L893.904 340.901L893.905 338.748L893.905 336.324L893.905 334.171L893.906 331.747L893.906 329.593L893.906 327.169L893.907 325.016L893.907 322.592L893.908 320.439L893.908 318.015L893.908 315.862L893.909 313.438L893.909 311.284L893.910 308.860L893.910 306.707L893.910 304.283L893.911 302.130L893.911 299.706L893.911 297.553L893.912 295.129L893.912 292.975L893.913 290.551L893.913 288.398L893.913 285.974L893.914 283.821L893.914 281.397L893.915 279.244L893.915 276.820L893.915 274.666L893.916 272.242L893.916 270.089L893.917 267.665L893.917 265.512L893.917 263.088L893.918 260.935L893.918 258.511L893.918 256.357L893.919 253.933L893.919 251.780L893.920 249.356L893.920 247.203L893.920 244.779L893.921 242.626L893.921 240.202L893.922 238.048L893.922 235.624L893.922 233.471L893.923 231.047L893.923 228.894L893.924 226.470L893.924 224.317L893.924 221.893L893.925 219.739L893.925 217.315L893.925 215.162L893.926 212.738L893.926 210.585L893.927 208.161L893.927 206.008L893.927 203.584L893.928 201.430L893.928 199.006L893.929 196.853L893.929 194.429L893.929 192.276L893.930 189.852L893.930 187.699L893.931 185.275L893.931 183.121L893.931 180.697L893.932 178.544L893.932 176.120L893.932 173.967L893.933 171.543L893.933 169.390L893.934 166.966L893.934 164.812L893.934 162.388L893.935 160.235L893.935 157.811L893.936 155.658L893.936 153.234L893.936 151.081L893.937 148.657L893.937 146.503L893.938 144.079L893.938 141.926L893.938 139.502L893.939 137.349L893.939 134.925L893.939 132.772L893.940 130.348L893.940 128.194L893.941 125.770L893.941 123.617L893.941 121.193L893.942 119.040L893.942 116.616L893.943 114.463L893.943 112.039L893.943 109.885L893.944 107.462L893.944 105.308L893.945 102.884L893.945 100.731L893.945 98.307L893.946 96.154L893.946 93.730L893.946 91.576L893.947 89.153L893.947 87L893.948 84.575L893.948 82.422L893.948 79.998L893.949 77.845L893.949 75.421L893.950 73.267L893.950 70.844L893.950 68.690L893.951 66.266L893.951 64.113L893.951 61.689L893.952 59.536L893.952 57.112L893.953 54.958L893.953 52.535L893.953 50.381L893.954 47.957L893.954 45.804L893.955 43.380L893.955 41.227L893.955 38.803L893.956 36.649L893.956 34.226L893.957 32.072L893.957 29.648L893.957 27.495L893.958 25.071L893.958 22.918L893.960 20.466L893.960 18.270L893.961 16.481L893.957 15.229" stroke="url(&quot;#theme-accent-gradient-linear&quot;) rgb(90, 110, 216)" stroke-width="45" fill="none" stroke-linecap="round" stroke-linejoin="round"/><path id="path-extension-1" d="M65.134 4.104L55.874 4.347" stroke="url(&quot;#theme-accent-gradient-linear&quot;) rgb(90, 110, 216)" stroke-width="45" fill="none" stroke-linecap="round" stroke-linejoin="round"/><path id="path-extension-2" d="M884.123 4.187L893.925 4.525" stroke="url(&quot;#theme-accent-gradient-linear&quot;) rgb(90, 110, 216)" stroke-width="45" fill="none" stroke-linecap="round" stroke-linejoin="round"/><path id="path-extension-3" d="M55.873 13.880L55.874 4.347" stroke="url(&quot;#theme-accent-gradient-linear&quot;) rgb(90, 110, 216)" stroke-width="45" fill="none" stroke-linecap="round" stroke-linejoin="round"/><path id="path-extension-4" d="M55.967 949.739L56.173 958.846" stroke="url(&quot;#theme-accent-gradient-linear&quot;) rgb(90, 110, 216)" stroke-width="45" fill="none" stroke-linecap="round" stroke-linejoin="round"/><path id="path-extension-5" d="M66.461 958.889L56.173 958.846" stroke="url(&quot;#theme-accent-gradient-linear&quot;) rgb(90, 110, 216)" stroke-width="45" fill="none" stroke-linecap="round" stroke-linejoin="round"/><path id="path-extension-6" d="M893.957 15.229L893.925 4.525" stroke="url(&quot;#theme-accent-gradient-linear&quot;) rgb(90, 110, 216)" stroke-width="45" fill="none" stroke-linecap="round" stroke-linejoin="round"/><path id="path-connection-1" d="M55.874 4.347L55.874 4.347" stroke="url(&quot;#theme-accent-gradient-linear&quot;) rgb(90, 110, 216)" stroke-width="45" fill="none" stroke-linecap="round" stroke-linejoin="round"/><path id="path-connection-2" d="M893.925 4.525L893.925 4.525" stroke="url(&quot;#theme-accent-gradient-linear&quot;) rgb(90, 110, 216)" stroke-width="45" fill="none" stroke-linecap="round" stroke-linejoin="round"/><path id="path-connection-3" d="M56.173 958.846L56.173 958.846" stroke="url(&quot;#theme-accent-gradient-linear&quot;) rgb(90, 110, 216)" stroke-width="45" fill="none" stroke-linecap="round" stroke-linejoin="round"/></g><g id="skeleton-paths" stroke-width="45.0" fill="rgb(0, 0, 0)" stroke="none"><path id="path-0-0" d="M553.278 341.373L550.421 343.804L547.112 346.436L542.355 350.026L537.631 353.242L532.910 356.152L528.215 358.744L523.588 361.035L518.914 363.098L514.313 364.890L509.688 366.466L505.113 367.805L500.524 368.946L495.962 369.893L491.392 370.656L486.820 371.234L482.257 371.625L477.651 371.831L473.087 371.855L468.475 371.700L463.934 371.365L459.371 370.846L454.822 370.137L450.220 369.234L445.626 368.139L441.100 366.870L436.593 365.399L432.115 363.731L427.503 361.782L422.893 359.586L418.196 357.084L413.561 354.324L408.986 351.301L404.477 347.970L400.095 344.384L395.806 340.531L391.730 336.507L387.848 332.309L384.155 327.903L380.740 323.416L377.585 318.821L374.767 314.256L372.204 309.626L369.934 305.055L367.889 300.437L366.107 295.898L364.527 291.303L363.173 286.745L362.015 282.173L361.064 277.634L360.307 273.140L359.728 268.642L359.319 264.185L359.073 259.672L358.994 255.145L359.078 250.619L359.330 246.107L359.743 241.652L360.322 237.154L361.073 232.658L362.022 228.092L363.177 223.505L364.500 218.996L365.993 214.581L367.691 210.199L369.665 205.689L371.920 201.076L374.400 196.501L377.110 191.994L380.123 187.499L383.518 182.945L387.378 178.289L391.624 173.681L396.101 169.286L400.655 165.263L405.237 161.643L409.792 158.393L414.352 155.458L418.796 152.870L423.266 150.521L427.778 148.403L432.360 146.485L436.942 144.790L441.497 143.322L445.962 142.073L450.479 141.009L454.965 140.143L459.409 139.456L463.323 138.972L466.650 138.661L469.509 138.481L472.615 138.380L476.315 138.362L480.576 138.466L485.119 138.729L489.669 139.168L494.196 139.787L498.740 140.601L503.337 141.621L507.973 142.842L512.587 144.257L517.120 145.853L521.633 147.662L526.163 149.716L530.803 152.076L535.394 154.671L539.972 157.548L544.473 160.701L549.128 164.317L553.820 168.361L558.466 172.802L562.798 177.415L566.740 182.093L570.225 186.701L573.316 191.244L576.082 195.777L578.562 200.279L580.816 204.846L582.805 209.360L584.580 213.918L586.126 218.475L587.475 223.058L588.628 227.656L589.584 232.229L590.357 236.805L590.948 241.381L591.366 245.955L591.606 250.550L591.673 255.141L591.564 259.733L591.282 264.325L590.822 268.905L590.175 273.505L589.342 278.098L588.325 282.671L587.096 287.281L585.660 291.906L583.988 296.592L582.105 301.230L579.952 305.897L577.512 310.602L574.778 315.326L571.714 320.072L568.371 324.724L565.814 328.088L563.596 330.820" stroke="url(&quot;#theme-accent-gradient-linear&quot;) rgb(90, 110, 216)" stroke-width="45" fill="none" stroke-linecap="round" stroke-linejoin="round"/><path id="path-extension-1" d="M553.278 341.373L558.943 336.551" stroke="url(&quot;#theme-accent-gradient-linear&quot;) rgb(90, 110, 216)" stroke-width="45" fill="none" stroke-linecap="round" stroke-linejoin="round"/><path id="path-extension-2" d="M563.596 330.820L558.943 336.551" stroke="url(&quot;#theme-accent-gradient-linear&quot;) rgb(90, 110, 216)" stroke-width="45" fill="none" stroke-linecap="round" stroke-linejoin="round"/><path id="path-connection-1" d="M558.943 336.551L558.943 336.551" stroke="url(&quot;#theme-accent-gradient-linear&quot;) rgb(90, 110, 216)" stroke-width="45" fill="none" stroke-linecap="round" stroke-linejoin="round"/></g><g id="skeleton-paths" stroke-width="45.0" fill="rgb(0, 0, 0)" stroke="none"><path id="path-0-0" d="M205.871 510.106L207.087 510.086L208.813 510.097L210.967 510.118L213.390 510.165L215.544 510.211L217.968 510.263L220.121 510.310L222.545 510.358L224.698 510.393L227.122 510.419L229.276 510.429L231.699 510.433L233.853 510.433L236.277 510.433L238.430 510.433L240.854 510.433L243.007 510.433L245.431 510.433L247.585 510.433L250.008 510.433L252.162 510.433L254.586 510.433L256.739 510.433L259.163 510.434L261.316 510.434L263.740 510.434L265.894 510.434L268.317 510.434L270.471 510.434L272.895 510.434L275.048 510.434L277.472 510.434L279.625 510.434L282.049 510.434L284.203 510.434L286.626 510.434L288.780 510.434L291.204 510.434L293.357 510.434L295.781 510.434L297.934 510.434L300.358 510.434L302.512 510.434L304.935 510.434L307.089 510.434L309.513 510.434L311.666 510.434L314.090 510.434L316.243 510.434L318.667 510.434L320.821 510.434L323.244 510.434L325.398 510.434L327.822 510.434L329.975 510.434L332.399 510.434L334.552 510.434L336.976 510.434L339.130 510.434L341.553 510.434L343.707 510.434L346.131 510.434L348.284 510.434L350.708 510.434L352.861 510.434L355.285 510.434L357.439 510.434L359.862 510.434L362.016 510.434L364.440 510.434L366.593 510.434L369.017 510.434L371.170 510.434L373.594 510.434L375.748 510.434L378.171 510.434L380.325 510.434L382.749 510.434L384.902 510.434L387.326 510.434L389.479 510.434L391.903 510.434L394.057 510.434L396.480 510.434L398.634 510.434L401.058 510.434L403.211 510.434L405.635 510.434L407.788 510.434L410.212 510.434L412.366 510.434L414.789 510.434L416.943 510.434L419.367 510.434L421.520 510.434L423.944 510.434L426.097 510.434L428.521 510.434L430.675 510.434L433.098 510.434L435.252 510.434L437.676 510.434L439.829 510.434L442.253 510.434L444.406 510.434L446.830 510.434L448.984 510.434L451.407 510.434L453.561 510.434L455.985 510.434L458.138 510.434L460.562 510.434L462.715 510.434L465.139 510.434L467.292 510.434L469.716 510.434L471.870 510.434L474.294 510.434L476.447 510.434L478.871 510.434L481.024 510.434L483.448 510.434L485.601 510.434L488.025 510.434L490.179 510.434L492.603 510.434L494.756 510.434L497.180 510.434L499.333 510.434L501.757 510.434L503.910 510.434L506.334 510.434L508.488 510.434L510.912 510.434L513.065 510.434L515.489 510.434L517.642 510.434L520.066 510.434L522.219 510.434L524.643 510.434L526.797 510.434L529.221 510.434L531.374 510.434L533.798 510.434L535.951 510.434L538.375 510.434L540.528 510.434L542.952 510.434L545.106 510.434L547.530 510.434L549.683 510.434L552.107 510.434L554.260 510.434L556.684 510.434L558.837 510.434L561.261 510.434L563.415 510.434L565.839 510.434L567.992 510.434L570.416 510.434L572.569 510.434L574.993 510.434L577.146 510.434L579.570 510.434L581.724 510.434L584.148 510.434L586.301 510.434L588.725 510.434L590.878 510.434L593.302 510.434L595.455 510.434L597.879 510.434L600.033 510.434L602.457 510.434L604.610 510.434L607.034 510.434L609.187 510.434L611.611 510.434L613.764 510.434L616.188 510.434L618.342 510.434L620.766 510.434L622.919 510.434L625.343 510.434L627.496 510.434L629.920 510.434L632.073 510.434L634.497 510.434L636.651 510.434L639.075 510.434L641.228 510.434L643.652 510.434L645.805 510.434L648.229 510.434L650.382 510.434L652.806 510.434L654.960 510.434L657.384 510.434L659.537 510.434L661.961 510.434L664.114 510.434L666.538 510.434L668.691 510.434L671.115 510.434L673.269 510.434L675.693 510.434L677.846 510.434L680.270 510.434L682.423 510.434L684.847 510.434L687 510.434L689.424 510.434L691.578 510.434L694.001 510.434L696.155 510.434L698.579 510.434L700.732 510.434L703.156 510.434L705.309 510.434L707.733 510.434L709.887 510.434L712.310 510.434L714.464 510.434L716.888 510.434L719.041 510.434L721.465 510.434L723.618 510.434L726.042 510.434L728.196 510.434L730.619 510.434L732.773 510.434L735.197 510.434L737.350 510.436L739.774 510.444L741.927 510.456L743.654 510.467L744.869 510.471" stroke="url(&quot;#theme-accent-gradient-linear&quot;) rgb(90, 110, 216)" stroke-width="45" fill="none" stroke-linecap="round" stroke-linejoin="round"/></g><g id="skeleton-paths" stroke-width="45.0" fill="rgb(0, 0, 0)" stroke="none"><path id="path-0-0" d="M751.710 837.035L753.632 838.274L756.348 839.969L759.961 842.169L763.488 844.208L766.723 845.953L770.147 847.668L773.596 849.302L777.073 850.853L780.291 852.188L783.470 853.414L786.591 854.541L789.277 855.457L791.925 856.297L794.537 857.040L797.942 857.933L801.425 858.771L804.858 859.533L807.458 860.053L809.917 860.481L812.049 860.809L814.531 861.154L816.720 861.426L819.274 861.703L821.818 861.925L824.783 862.142L827.717 862.299L830.330 862.403L832.907 862.438L835.099 862.427L837.708 862.365L840.253 862.253L843.204 862.081L846.079 861.858L848.660 861.619L851.208 861.321L853.387 861.024L855.971 860.627L858.625 860.146L862.032 859.462L865.532 858.682L868.943 857.862L871.700 857.148L874.358 856.387L877.167 855.515L880.698 854.320L884.256 853.044L887.706 851.719L890.344 850.642L892.980 849.480L895.586 848.251L898.575 846.780L901.607 845.200L904.587 843.556L907.560 841.830L910.425 840.071L912.997 838.435L914.787 837.257L916.054 836.405" stroke="url(&quot;#theme-accent-gradient-linear&quot;) rgb(90, 110, 216)" stroke-width="45" fill="none" stroke-linecap="round" stroke-linejoin="round"/><path id="path-1-0" d="M936.090 843.619L936.680 846.566L937.359 849.956L938.301 854.663L939.225 859.279L940.146 863.879L941.067 868.476L941.981 873.041L942.897 877.615L943.810 882.174L944.729 886.764L945.650 891.364L946.571 895.959L947.492 900.559L948.411 905.150L949.324 909.711L950.240 914.285L951.154 918.848L952.075 923.444L952.994 928.035L953.907 932.596L954.823 937.170L955.737 941.733L956.657 946.329L957.578 950.928L958.499 955.523L959.420 960.124L960.337 964.709L961.249 969.266L962.163 973.841L963.076 978.408L963.996 983.010L964.651 986.288L965.203 989.049" stroke="url(&quot;#theme-accent-gradient-linear&quot;) rgb(90, 110, 216)" stroke-width="45" fill="none" stroke-linecap="round" stroke-linejoin="round"/><path id="path-2-0" d="M842.413 946.064L844.364 947.246L846.130 948.322L848.800 949.941L851.407 951.519L854.246 953.245L857.145 954.984L859.616 956.451L862.227 957.956L864.869 959.462L867.823 961.141L870.772 962.817L873.264 964.233L875.886 965.723L878.529 967.226L881.483 968.904L884.431 970.580L886.922 971.996L889.546 973.487L892.190 974.990L895.142 976.668L898.090 978.343L900.588 979.763L903.150 981.219L905.388 982.491L907.982 983.965L910.584 985.444L913.480 987.090L916.385 988.741L919.011 990.233L921.637 991.726L924.243 993.207L927.140 994.854L930.044 996.504L932.665 997.994L935.292 999.487L937.902 1000.970L940.801 1002.617L943.916 1004.388L946.071 1005.613L948.189 1006.816" stroke="url(&quot;#theme-accent-gradient-linear&quot;) rgb(90, 110, 216)" stroke-width="45" fill="none" stroke-linecap="round" stroke-linejoin="round"/><path id="path-3-0" d="M723.342 1002.013L725.089 1001.037L726.796 1000.082L729.431 998.608L732.044 997.146L734.952 995.520L737.869 993.889L740.504 992.415L743.140 990.941L745.755 989.479L748.663 987.852L751.580 986.221L754.214 984.748L756.850 983.274L759.465 981.811L762.374 980.184L765.290 978.553L767.923 977.081L770.559 975.606L773.175 974.143L776.085 972.515L779 970.885L781.632 969.413L784.273 967.937L786.967 966.430L789.883 964.799L792.838 963.146L795.337 961.748L797.972 960.274L800.626 958.790L803.590 957.133L806.548 955.476L809.054 954.069L811.621 952.622L813.861 951.351L816.454 949.858L819.040 948.327L821.155 947.062L823.028 945.916" stroke="url(&quot;#theme-accent-gradient-linear&quot;) rgb(90, 110, 216)" stroke-width="45" fill="none" stroke-linecap="round" stroke-linejoin="round"/><path id="path-4-0" d="M703.137 989.015L703.330 988.022L703.660 986.324L704.058 984.269L704.547 981.752L704.952 979.665L705.433 977.189L705.834 975.121L706.319 972.621L706.720 970.556L707.206 968.058L707.695 965.539L708.272 962.564L708.862 959.527L709.364 956.940L709.864 954.365L710.274 952.252L710.763 949.735L711.168 947.646L711.649 945.171L712.050 943.101L712.536 940.603L712.937 938.536L713.422 936.039L713.911 933.521L714.488 930.547L715.078 927.511L715.580 924.924L716.080 922.351L716.490 920.235L716.979 917.718L717.385 915.626L717.870 913.127L718.359 910.609L718.937 907.634L719.531 904.572L720.036 901.969L720.537 899.388L720.940 897.314L721.416 894.862L721.818 892.794L722.295 890.336L722.706 888.217L723.195 885.700L723.601 883.606L724.081 881.133L724.483 879.062L724.968 876.565L725.370 874.496L725.855 872.003L726.346 869.485L726.927 866.514L727.521 863.483L728.029 860.896L728.535 858.328L728.951 856.206L729.445 853.691L729.857 851.594L730.341 849.139L730.813 846.749L731.386 843.861L731.816 841.700L732.180 839.862" stroke="url(&quot;#theme-accent-gradient-linear&quot;) rgb(90, 110, 216)" stroke-width="45" fill="none" stroke-linecap="round" stroke-linejoin="round"/><path id="path-5-0" d="M727.080 816.104L724.601 813.345L721.824 810.075L718.041 805.452L714.568 800.867L711.415 796.380L708.469 791.824L705.714 787.197L703.129 782.504L700.792 777.879L698.684 773.299L696.761 768.703L695.012 764.088L693.472 759.585L692.116 755.105L690.930 750.646L689.869 746.083L688.958 741.520L688.195 736.992L687.579 732.455L687.107 727.910L686.773 723.320L686.585 718.820L686.532 714.398L686.625 709.977L686.854 705.480L687.228 700.894L687.736 696.357L688.398 691.797L689.161 687.446L689.959 683.498L690.761 680.038L691.574 676.926L692.450 673.854L693.395 670.794L694.460 667.644L695.794 664.034L697.406 660.018L699.313 655.641L701.440 651.191L703.773 646.728L706.375 642.150L709.170 637.619L712.243 633.007L715.545 628.447L719.071 623.929L722.874 619.438L726.862 615.083L731.082 610.804L735.472 606.703L739.896 602.865L744.342 599.285L748.656 596.068L753 593.064L757.391 590.255L761.910 587.582L766.504 585.075L771.161 582.744L775.787 580.624L780.338 578.725L784.860 577.024L789.364 575.506L793.887 574.144L798.386 572.960L802.875 571.936L807.298 571.080L811.295 570.422L814.707 569.971L817.434 569.691L819.816 569.502L822.149 569.338L824.353 569.206L826.742 569.088L828.895 569.009L831.319 568.941L833.472 568.901L835.896 568.880L838.050 568.884L840.473 568.915L842.627 568.981L845.067 569.116L847.193 569.301L849.679 569.576L852.171 569.908L855.050 570.316L858.013 570.793L860.624 571.250L863.248 571.772L865.312 572.220L867.691 572.780L869.694 573.293L872.114 573.944L874.242 574.558L876.681 575.293L878.868 576.006L881.405 576.880L884.176 577.916L887.575 579.268L891.092 580.747L894.530 582.287L897.221 583.552L899.733 584.814L901.729 585.864L904.111 587.174L906.268 588.409L908.743 589.886L910.962 591.268L913.501 592.933L916.211 594.810L919.282 597.021L922.304 599.301L924.895 601.332L927.320 603.352L929.454 605.212L931.889 607.428L934.099 609.512L936.542 611.907L938.670 614.078L940.940 616.479L942.848 618.587L944.803 620.829L946.484 622.851L948.325 625.158L950.038 627.401L951.967 630.042L953.612 632.383L955.317 634.920L956.658 637.003L958.184 639.491L959.658 642.033L961.307 644.979L962.910 648L964.441 651.041L965.913 654.129L967.250 657.096L968.382 659.721L969.383 662.217L970.207 664.383L971.060 666.758L971.789 668.857L972.587 671.307L973.272 673.491L973.996 675.971L974.583 678.090L975.229 680.614L975.843 683.236L976.491 686.180L977.079 689.122L977.543 691.633L977.964 694.242L978.277 696.430L978.596 698.928L978.831 701.003L979.064 703.394L979.239 705.475L979.400 707.883L979.511 709.982L979.602 712.461L979.651 714.649L979.669 717.134L979.645 719.287L979.576 721.765L979.479 723.945L979.329 726.438L979.175 728.503L978.949 730.965L978.721 733.092L978.405 735.665L978.120 737.753L977.759 740.124L977.424 742.114L976.981 744.519L976.544 746.689L975.991 749.193L975.468 751.412L974.840 753.867L974.267 755.992L973.550 758.445L972.883 760.602L972.078 763.059L971.339 765.165L970.398 767.713L969.331 770.373L968.050 773.443L966.650 776.563L965.185 779.631L963.625 782.690L962.027 785.644L960.526 788.304L959.010 790.854L957.615 793.103L956.064 795.511L954.594 797.701L952.950 800.054L951.390 802.201L949.565 804.603L947.779 806.858L945.640 809.436L943.634 811.754L941.345 814.270L939.290 816.430L937.650 818.112L936.474 819.284" stroke="url(&quot;#theme-accent-gradient-linear&quot;) rgb(90, 110, 216)" stroke-width="45" fill="none" stroke-linecap="round" stroke-linejoin="round"/><path id="path-extension-1" d="M916.054 836.405L926.042 829.690" stroke="url(&quot;#theme-accent-gradient-linear&quot;) rgb(90, 110, 216)" stroke-width="45" fill="none" stroke-linecap="round" stroke-linejoin="round"/><path id="path-extension-2" d="M936.090 843.619L932.441 825.388" stroke="url(&quot;#theme-accent-gradient-linear&quot;) rgb(90, 110, 216)" stroke-width="45" fill="none" stroke-linecap="round" stroke-linejoin="round"/><path id="path-extension-3" d="M965.203 989.049L971.390 1020" stroke="url(&quot;#theme-accent-gradient-linear&quot;) rgb(90, 110, 216)" stroke-width="45" fill="none" stroke-linecap="round" stroke-linejoin="round"/><path id="path-extension-4" d="M842.413 946.064L832.551 940.089" stroke="url(&quot;#theme-accent-gradient-linear&quot;) rgb(90, 110, 216)" stroke-width="45" fill="none" stroke-linecap="round" stroke-linejoin="round"/><path id="path-extension-5" d="M948.189 1006.816L971.390 1020" stroke="url(&quot;#theme-accent-gradient-linear&quot;) rgb(90, 110, 216)" stroke-width="45" fill="none" stroke-linecap="round" stroke-linejoin="round"/><path id="path-extension-6" d="M723.342 1002.013L697.841 1016.275" stroke="url(&quot;#theme-accent-gradient-linear&quot;) rgb(90, 110, 216)" stroke-width="45" fill="none" stroke-linecap="round" stroke-linejoin="round"/><path id="path-extension-7" d="M823.028 945.916L832.551 940.089" stroke="url(&quot;#theme-accent-gradient-linear&quot;) rgb(90, 110, 216)" stroke-width="45" fill="none" stroke-linecap="round" stroke-linejoin="round"/><path id="path-extension-8" d="M703.137 989.015L697.841 1016.275" stroke="url(&quot;#theme-accent-gradient-linear&quot;) rgb(90, 110, 216)" stroke-width="45" fill="none" stroke-linecap="round" stroke-linejoin="round"/><path id="path-extension-9" d="M936.474 819.284L932.094 823.653" stroke="url(&quot;#theme-accent-gradient-linear&quot;) rgb(90, 110, 216)" stroke-width="45" fill="none" stroke-linecap="round" stroke-linejoin="round"/><path id="path-connection-1" d="M971.390 1020L971.390 1020" stroke="url(&quot;#theme-accent-gradient-linear&quot;) rgb(90, 110, 216)" stroke-width="45" fill="none" stroke-linecap="round" stroke-linejoin="round"/><path id="path-connection-2" d="M832.551 940.089L832.551 940.089" stroke="url(&quot;#theme-accent-gradient-linear&quot;) rgb(90, 110, 216)" stroke-width="45" fill="none" stroke-linecap="round" stroke-linejoin="round"/><path id="path-connection-3" d="M697.841 1016.275L697.841 1016.275" stroke="url(&quot;#theme-accent-gradient-linear&quot;) rgb(90, 110, 216)" stroke-width="45" fill="none" stroke-linecap="round" stroke-linejoin="round"/><path id="path-connection-4" d="M751.710 837.035L735.006 825.621" stroke="url(&quot;#theme-accent-gradient-linear&quot;) rgb(90, 110, 216)" stroke-width="45" fill="none" stroke-linecap="round" stroke-linejoin="round"/><path id="path-connection-5" d="M732.180 839.862L735.006 825.621" stroke="url(&quot;#theme-accent-gradient-linear&quot;) rgb(90, 110, 216)" stroke-width="45" fill="none" stroke-linecap="round" stroke-linejoin="round"/><path id="path-connection-6" d="M727.080 816.104L735.006 825.621" stroke="url(&quot;#theme-accent-gradient-linear&quot;) rgb(90, 110, 216)" stroke-width="45" fill="none" stroke-linecap="round" stroke-linejoin="round"/></g><g id="skeleton-paths" stroke-width="45.0" fill="rgb(0, 0, 0)" stroke="none"><path id="path-0-0" d="M207.866 639.177L209.421 639.128L210.967 639.107L213.390 639.084L215.544 639.084L217.968 639.083L220.121 639.083L222.545 639.083L224.698 639.082L227.122 639.082L229.276 639.082L231.699 639.081L233.853 639.081L236.277 639.081L238.430 639.080L240.854 639.080L243.007 639.080L245.431 639.079L247.585 639.079L250.008 639.079L252.162 639.078L254.586 639.078L256.739 639.078L259.163 639.077L261.316 639.077L263.740 639.077L265.894 639.076L268.317 639.076L270.471 639.076L272.895 639.075L275.048 639.075L277.472 639.075L279.625 639.074L282.049 639.074L284.203 639.074L286.626 639.073L288.780 639.073L291.204 639.073L293.357 639.072L295.781 639.072L297.934 639.072L300.358 639.071L302.512 639.071L304.935 639.071L307.089 639.070L309.513 639.070L311.666 639.070L314.090 639.069L316.243 639.069L318.667 639.069L320.821 639.068L323.244 639.068L325.398 639.068L327.822 639.067L329.975 639.067L332.399 639.067L334.552 639.066L336.976 639.066L339.130 639.066L341.553 639.065L343.707 639.065L346.131 639.065L348.284 639.064L350.708 639.064L352.861 639.064L355.285 639.063L357.439 639.063L359.862 639.063L362.016 639.062L364.440 639.062L366.593 639.062L369.017 639.061L371.170 639.061L373.594 639.061L375.748 639.060L378.171 639.060L380.325 639.060L382.749 639.059L384.902 639.059L387.326 639.059L389.479 639.058L391.903 639.058L394.057 639.058L396.480 639.057L398.634 639.057L401.058 639.057L403.211 639.056L405.635 639.056L407.788 639.056L410.212 639.055L412.366 639.055L414.789 639.055L416.943 639.054L419.367 639.054L421.520 639.054L423.944 639.053L426.097 639.053L428.521 639.053L430.675 639.053L433.098 639.052L435.252 639.052L437.676 639.051L439.829 639.051L442.253 639.051L444.406 639.051L446.830 639.050L448.984 639.050L451.407 639.050L453.561 639.049L455.985 639.049L458.138 639.049L460.562 639.048L462.715 639.048L465.139 639.048L467.292 639.047L469.716 639.047L471.870 639.047L474.294 639.046L476.447 639.046L478.871 639.046L481.024 639.045L483.448 639.045L485.601 639.045L488.025 639.044L490.179 639.044L492.603 639.044L494.756 639.043L497.180 639.043L499.333 639.043L501.757 639.042L503.910 639.042L506.334 639.042L508.488 639.041L510.912 639.041L513.065 639.041L515.489 639.040L517.642 639.040L520.066 639.040L522.219 639.039L524.643 639.039L526.797 639.039L529.221 639.038L531.374 639.038L533.798 639.038L535.951 639.037L538.375 639.037L540.528 639.037L542.952 639.036L545.106 639.036L547.530 639.036L549.683 639.035L552.107 639.035L554.260 639.035L556.684 639.034L558.837 639.034L561.261 639.034L563.415 639.033L565.839 639.033L567.992 639.033L569.719 639.032L570.934 639.032" stroke="url(&quot;#theme-accent-gradient-linear&quot;) rgb(90, 110, 216)" stroke-width="45" fill="none" stroke-linecap="round" stroke-linejoin="round"/></g></svg>