<svg xmlns="http://www.w3.org/2000/svg" width="1024" height="1024" viewBox="-45 -45 1114 1114" class="colorable-icon reset-top-left-margin" data-export-recolorable-svg="true" overflow="visible" xmlns:xlink="http://www.w3.org/1999/xlink" fill="rgb(0, 0, 0)" stroke="none"><g id="main-icon-clipped" stroke="url(&quot;#theme-accent-gradient-linear&quot;) rgb(90, 110, 216)" stroke-width="45" fill="none" stroke-linecap="round" stroke-linejoin="round"><path d="M 373.37,675.67 L 375.65,675.67 378.51,675.67 382.45,675.67 386.49,675.67 390.52,675.67 394.58,675.67 398.64,675.67 402.70,675.67 406.75,675.68 410.81,675.68 414.87,675.68 418.93,675.68 422.99,675.68 427.04,675.68 431.10,675.68 435.16,675.68 439.22,675.68 443.28,675.68 447.33,675.68 451.36,675.68 455.40,675.68 459.43,675.68 461.47,675.68 M 332.47,861.03 L 334.95,861.03 337.81,861.02 341.85,861.02 345.88,861.02 349.94,861.02 354.00,861.02 358.06,861.02 362.12,861.02 366.17,861.02 370.23,861.03 374.29,861.03 378.35,861.03 382.41,861.03 386.46,861.03 390.52,861.03 394.58,861.03 398.64,861.03 402.70,861.03 406.75,861.03 410.81,861.03 414.87,861.03 418.93,861.03 422.99,861.03 427.04,861.03 431.10,861.03 435.16,861.03 439.22,861.03 443.28,861.03 447.31,861.03 451.35,861.03 455.38,861.03 459.46,861.03 462.79,861.03 M 318.94,844.85 L 319.35,843.36 320.00,841.07 320.96,837.66 322.03,833.89 323.03,830.34 323.91,827.23 324.61,824.75 325.27,822.44 325.94,820.10 326.78,817.11 327.80,813.55 328.94,809.55 330.08,805.55 331.12,801.93 332.01,798.82 332.71,796.34 333.37,794.03 334.04,791.69 334.89,788.70 335.91,785.14 337.04,781.17 338.10,777.45 339.02,774.22 339.70,771.85 340.34,769.63 340.98,767.38 341.83,764.41 342.84,760.85 343.98,756.85 345.13,752.84 346.16,749.22 347.05,746.11 347.76,743.63 348.42,741.32 349.09,738.97 349.93,736.00 350.95,732.44 352.09,728.44 353.24,724.43 354.27,720.81 355.15,717.70 355.86,715.21 356.51,712.91 357.18,710.56 358.02,707.58 359.03,704.02 360.16,700.04 361.01,697.08 361.71,694.62 M 18.35,547.17 L 19.43,547.17 20.96,547.17 22.87,547.17 25.02,547.17 26.93,547.17 29.07,547.17 30.98,547.17 33.13,547.17 35.04,547.17 37.19,547.17 39.10,547.17 41.25,547.17 43.16,547.17 45.31,547.17 47.22,547.17 49.36,547.17 51.27,547.17 53.42,547.17 55.33,547.17 57.48,547.17 59.39,547.17 61.54,547.17 63.45,547.17 65.60,547.17 67.51,547.17 69.66,547.17 71.56,547.17 73.71,547.17 75.62,547.17 77.77,547.17 79.68,547.17 81.83,547.17 83.74,547.17 85.89,547.17 87.80,547.17 89.95,547.17 91.86,547.17 94.00,547.17 95.91,547.17 98.06,547.17 99.97,547.17 102.12,547.17 104.03,547.17 106.18,547.17 108.09,547.17 110.24,547.17 112.14,547.17 114.29,547.17 116.20,547.17 118.35,547.17 120.26,547.17 122.41,547.17 124.32,547.17 126.47,547.17 128.38,547.17 130.53,547.17 132.44,547.17 134.58,547.17 136.49,547.17 138.64,547.17 140.55,547.17 142.70,547.17 144.61,547.17 146.76,547.17 148.67,547.17 150.82,547.17 152.73,547.17 154.88,547.17 156.78,547.17 158.93,547.17 160.84,547.17 162.99,547.17 164.90,547.17 167.05,547.17 168.96,547.17 171.11,547.17 173.02,547.17 175.17,547.17 177.07,547.17 179.22,547.17 181.13,547.17 183.28,547.17 185.19,547.17 187.34,547.17 189.25,547.17 191.40,547.17 193.31,547.17 195.46,547.17 197.36,547.17 199.51,547.17 201.42,547.17 203.57,547.17 205.48,547.17 207.63,547.17 209.54,547.17 211.69,547.17 213.60,547.17 215.75,547.17 217.66,547.17 219.80,547.17 221.71,547.17 223.86,547.17 225.77,547.17 227.92,547.17 229.83,547.17 231.98,547.17 233.89,547.17 236.04,547.17 237.95,547.17 240.09,547.17 242.00,547.17 244.15,547.17 246.06,547.17 248.21,547.17 250.12,547.17 252.27,547.17 254.18,547.17 256.33,547.17 258.24,547.17 260.38,547.17 262.29,547.17 264.44,547.17 266.35,547.17 268.50,547.17 270.41,547.17 272.56,547.17 274.47,547.17 276.62,547.17 278.53,547.17 280.68,547.17 282.58,547.17 284.73,547.17 286.64,547.17 288.79,547.17 290.70,547.17 292.85,547.17 294.76,547.17 296.91,547.17 298.82,547.17 300.97,547.17 302.87,547.17 305.02,547.17 306.93,547.17 309.08,547.17 310.99,547.17 313.14,547.17 315.05,547.17 317.20,547.17 319.11,547.17 321.26,547.17 323.17,547.17 325.31,547.17 327.22,547.17 329.37,547.17 331.28,547.17 333.43,547.17 335.34,547.17 337.49,547.17 339.40,547.17 341.55,547.17 343.46,547.17 345.60,547.17 347.51,547.17 349.66,547.17 351.57,547.17 353.72,547.17 355.63,547.17 357.78,547.17 359.69,547.17 361.84,547.17 363.75,547.17 365.90,547.17 367.80,547.17 369.95,547.17 371.86,547.17 374.01,547.17 375.92,547.17 378.07,547.17 379.98,547.17 382.13,547.17 384.04,547.17 386.18,547.17 388.09,547.17 390.24,547.17 392.15,547.17 394.30,547.17 396.21,547.17 398.36,547.17 400.27,547.17 402.42,547.17 404.33,547.17 406.48,547.17 408.38,547.17 410.53,547.17 412.44,547.17 414.59,547.17 416.50,547.17 418.65,547.17 420.56,547.17 422.71,547.17 424.62,547.17 426.77,547.17 428.68,547.17 430.82,547.17 432.73,547.17 434.88,547.17 436.79,547.17 438.94,547.17 440.85,547.17 443.00,547.17 444.91,547.17 447.06,547.17 448.97,547.17 451.11,547.17 453.02,547.17 455.17,547.17 457.45,547.17 460.34,547.17 463.81,547.17 467.67,547.17 471.71,547.17 475.74,547.17 479.80,547.17 483.86,547.17 487.92,547.17 491.97,547.17 496.03,547.17 500.09,547.17 504.15,547.17 508.21,547.17 512.26,547.17 516.32,547.17 520.38,547.17 524.44,547.17 528.50,547.17 532.55,547.17 535.49,547.17 M 0.00,560.92 L 0.00,563.36 0.01,566.19 0.02,570.21 0.03,574.23 0.04,578.29 0.05,582.35 0.07,586.41 0.08,590.46 0.09,594.52 0.10,598.58 0.12,602.64 0.17,606.65 0.31,610.62 0.64,614.57 1.14,618.58 1.88,622.60 2.79,626.66 3.93,630.69 5.37,634.85 7.14,638.90 9.32,643.01 11.81,646.95 14.68,650.93 17.90,654.72 21.46,658.33 25.36,661.64 29.34,664.53 33.46,667.03 37.51,669.11 41.64,670.87 45.68,672.31 49.74,673.45 53.74,674.31 57.79,674.93 61.83,675.34 65.89,675.57 69.93,675.67 73.99,675.70 78.05,675.71 82.11,675.71 86.17,675.71 90.22,675.71 94.28,675.71 98.34,675.71 102.40,675.71 106.46,675.71 110.51,675.71 114.57,675.71 118.63,675.71 122.69,675.71 126.75,675.71 130.80,675.70 134.86,675.70 138.92,675.70 142.98,675.70 147.04,675.70 151.10,675.70 155.15,675.70 159.21,675.70 163.27,675.70 167.33,675.70 171.39,675.70 175.44,675.70 179.50,675.70 183.56,675.70 187.62,675.70 191.68,675.70 195.73,675.70 199.79,675.70 203.85,675.70 207.91,675.70 211.97,675.70 216.02,675.70 220.08,675.70 224.14,675.70 228.20,675.70 232.26,675.70 236.31,675.70 240.37,675.70 244.43,675.69 248.49,675.69 252.55,675.69 256.60,675.69 260.66,675.69 264.72,675.69 268.78,675.69 272.84,675.69 276.90,675.69 280.95,675.69 285.01,675.69 289.07,675.69 293.13,675.69 297.19,675.69 301.24,675.69 305.30,675.69 309.36,675.69 313.42,675.69 317.48,675.69 321.53,675.69 325.59,675.69 329.65,675.69 333.71,675.69 337.77,675.69 341.94,675.69 344.94,675.69 347.64,675.69 M 0.06,526.83 L 0.06,524.38 0.06,521.48 0.06,517.42 0.06,513.36 0.06,509.30 0.06,505.24 0.06,501.19 0.06,497.13 0.06,493.07 0.06,489.01 0.06,484.95 0.06,480.90 0.06,476.84 0.06,472.78 0.06,468.72 0.06,464.66 0.06,460.60 0.06,456.55 0.06,452.49 0.06,448.43 0.07,444.37 0.07,440.31 0.07,436.26 0.07,432.20 0.07,428.14 0.07,424.08 0.07,420.02 0.07,415.97 0.07,411.91 0.07,407.85 0.07,403.79 0.07,399.73 0.07,395.68 0.07,391.62 0.07,387.56 0.07,383.50 0.07,379.44 0.07,375.39 0.07,371.33 0.07,367.27 0.07,363.21 0.08,359.15 0.08,355.10 0.08,351.04 0.08,346.98 0.08,342.92 0.08,338.86 0.08,334.80 0.08,330.75 0.08,326.69 0.08,322.63 0.08,318.57 0.08,314.51 0.08,310.46 0.08,306.40 0.08,302.34 0.08,298.28 0.08,294.22 0.08,290.17 0.08,286.11 0.08,282.05 0.09,277.99 0.09,273.93 0.09,269.88 0.09,265.82 0.09,261.76 0.09,257.70 0.09,253.64 0.09,249.58 0.09,245.53 0.09,241.47 0.09,237.41 0.09,233.35 0.09,229.30 0.09,225.24 0.09,221.18 0.09,217.12 0.09,213.06 0.09,209.00 0.09,204.95 0.09,200.89 0.10,196.83 0.10,192.77 0.10,188.71 0.10,184.66 0.10,180.60 0.10,176.54 0.10,172.48 0.10,168.42 0.10,164.37 0.10,160.31 0.10,156.25 0.10,152.19 0.10,148.13 0.10,144.08 0.10,140.02 0.10,135.96 0.10,131.90 0.10,127.84 0.10,123.78 0.10,119.73 0.10,115.67 0.11,111.61 0.11,107.55 0.11,103.49 0.11,99.44 0.12,95.38 0.13,91.32 0.13,87.26 0.12,83.20 0.10,79.15 0.09,75.09 0.11,71.08 0.22,67.08 0.48,63.12 0.90,59.11 1.50,55.10 2.30,51.05 3.39,47.01 4.72,43.01 6.32,39.03 8.13,35.07 10.29,31.07 12.87,27.06 15.88,23.18 19.37,19.40 23.13,15.92 27.18,12.70 31.20,9.95 35.24,7.61 39.24,5.70 43.25,4.15 47.16,2.91 50.55,2.00 53.43,1.37 55.90,0.93 58.70,0.58 62.04,0.28 65.89,0.10 69.93,0.01 73.99,0.00 78.05,0.00 82.11,0.00 86.17,0.00 90.22,0.00 94.28,0.00 98.34,0.00 102.40,0.00 106.46,0.00 110.51,0.00 114.57,0.00 118.63,0.00 122.69,0.00 126.75,0.00 130.80,0.00 134.86,0.00 138.92,0.00 142.98,0.00 147.04,0.00 151.10,0.00 155.15,0.00 159.21,0.00 163.27,0.00 167.33,0.00 171.39,0.00 175.44,0.00 179.50,0.00 183.56,0.00 187.62,0.00 191.68,0.00 195.73,0.00 199.79,0.00 203.85,0.00 207.91,0.00 211.97,0.00 216.02,0.00 220.08,0.00 224.14,0.00 228.20,0.00 232.26,0.00 236.31,0.00 240.37,0.00 244.43,0.00 248.49,0.00 252.55,0.00 256.60,0.00 260.66,0.00 264.72,0.00 268.78,0.00 272.84,0.00 276.90,0.00 280.95,0.00 285.01,0.00 289.07,0.00 293.13,0.00 297.19,0.00 301.24,0.00 305.30,0.00 309.36,0.00 313.42,0.00 317.48,0.00 321.53,0.00 325.59,0.00 329.65,0.00 333.71,0.00 337.77,0.00 341.82,0.00 345.88,0.00 349.94,0.00 354.00,0.00 358.06,0.01 362.12,0.01 366.17,0.01 370.23,0.01 374.29,0.01 378.35,0.01 382.41,0.01 386.46,0.01 390.52,0.01 394.58,0.01 398.64,0.01 402.70,0.01 406.75,0.01 410.81,0.01 414.87,0.01 418.93,0.01 422.99,0.01 427.04,0.01 431.10,0.01 435.16,0.01 439.22,0.01 443.28,0.01 447.33,0.01 451.39,0.01 455.45,0.01 459.51,0.01 463.57,0.01 467.62,0.01 471.68,0.01 475.74,0.01 479.80,0.01 483.86,0.01 487.92,0.01 491.97,0.01 496.03,0.01 500.09,0.01 504.15,0.01 508.21,0.01 512.26,0.01 516.32,0.01 520.38,0.01 524.44,0.01 528.50,0.01 532.55,0.01 536.61,0.01 540.67,0.01 544.73,0.01 548.79,0.01 552.84,0.01 556.90,0.01 560.96,0.01 565.02,0.01 569.08,0.01 573.14,0.01 577.19,0.01 581.25,0.01 585.31,0.01 589.37,0.01 593.43,0.01 597.48,0.01 601.54,0.01 605.60,0.01 609.66,0.01 613.72,0.01 617.77,0.01 621.83,0.01 625.89,0.01 629.95,0.01 634.01,0.01 638.06,0.01 642.12,0.01 646.18,0.01 650.24,0.01 654.30,0.01 658.35,0.01 662.41,0.01 666.47,0.01 670.53,0.01 674.59,0.01 678.65,0.01 682.70,0.01 686.76,0.01 690.82,0.01 694.88,0.01 698.94,0.01 702.99,0.01 707.05,0.01 711.11,0.01 715.17,0.01 719.23,0.01 723.28,0.01 727.34,0.01 731.40,0.01 735.46,0.01 739.52,0.01 743.57,0.01 747.63,0.01 751.69,0.01 755.75,0.01 759.81,0.01 763.86,0.01 767.92,0.01 771.98,0.01 776.04,0.01 780.10,0.01 784.15,0.01 788.21,0.01 792.27,0.01 796.33,0.01 800.39,0.01 804.45,0.01 808.50,0.01 812.56,0.01 816.62,0.01 820.68,0.01 824.74,0.01 828.79,0.01 832.85,0.01 836.91,0.01 840.97,0.02 845.03,0.02 849.08,0.02 853.14,0.03 857.17,0.11 861.19,0.34 865.20,0.77 869.26,1.44 873.31,2.38 877.33,3.60 881.32,5.11 885.39,6.95 889.52,9.13 893.67,11.76 897.69,14.78 901.59,18.28 905.19,22.04 908.50,26.12 911.33,30.21 913.73,34.34 915.71,38.41 917.35,42.48 918.70,46.62 919.74,50.72 920.51,54.85 921.02,58.92 921.35,62.96 921.49,67.00 921.55,71.03 921.55,75.09 921.55,79.15 921.55,83.20 921.55,87.26 921.55,91.32 921.56,95.38 921.56,99.44 921.56,103.49 921.56,107.55 921.56,111.61 921.56,115.67 921.56,119.73 921.56,123.78 921.56,127.84 921.56,131.90 921.56,135.96 921.56,140.02 921.56,144.08 921.56,148.13 921.56,152.19 921.56,156.25 921.56,160.31 921.56,164.37 921.56,168.42 921.56,172.48 921.56,176.54 921.56,180.60 921.56,184.66 921.56,188.71 921.56,192.77 921.56,196.83 921.56,200.89 921.56,204.95 921.56,209.00 921.56,213.06 921.56,217.12 921.56,221.18 921.56,225.24 921.56,229.30 921.56,233.35 921.56,237.41 921.56,241.47 921.56,245.53 921.56,249.58 921.56,253.64 921.56,257.70 921.56,261.76 921.56,265.82 921.56,269.88 921.56,273.93 921.56,277.99 921.56,282.05 921.56,286.11 921.56,290.17 921.56,294.22 921.56,298.28 921.56,302.34 921.56,306.40 921.56,310.46 921.56,314.51 921.56,318.57 921.56,322.63 921.56,326.69 921.56,330.75 921.56,334.80 921.56,338.86 921.56,342.92 921.56,346.98 921.56,351.04 921.56,355.10 921.56,359.15 921.56,363.21 921.56,367.27 921.56,371.33 921.56,375.39 921.56,379.44 921.56,383.50 921.56,387.56 921.56,391.62 921.56,395.68 921.56,399.73 921.56,403.79 921.56,407.85 921.56,411.91 921.56,415.97 921.56,420.02 921.56,424.08 921.56,428.14 921.56,432.20 921.56,436.26 921.56,440.31 921.56,444.37 921.56,448.43 921.56,452.49 921.56,456.55 921.56,460.60 921.56,464.66 921.56,468.72 921.56,472.78 921.56,476.84 921.56,480.90 921.56,484.95 921.56,486.89 M 250.10,861.01 L 251.49,861.00 252.80,861.01 254.96,861.01 256.86,861.01 259.03,861.01 260.94,861.01 263.09,861.01 265.00,861.01 267.15,861.01 269.06,861.01 271.21,861.01 273.12,861.01 275.26,861.01 277.17,861.01 279.32,861.01 281.23,861.01 283.38,861.01 285.29,861.01 287.44,861.01 289.35,861.01 291.50,861.01 293.41,861.01 295.63,861.01 297.59,861.01 299.94,861.01 301.85,861.01 304.25,861.01 305.59,861.01 307.29,861.01 M 318.94,844.85 L 314.40,861.01 M 361.71,694.62 L 367.11,675.68 M 373.37,675.67 L 347.64,675.69 M 332.47,861.03 L 307.29,861.01 M 18.35,547.17 L 0.02,547.17 M 0.00,560.92 L 0.02,547.17 M 0.06,526.83 L 0.02,547.17 M 373.37,675.67 L 375.65,675.67 378.51,675.67 382.45,675.67 386.49,675.67 390.52,675.67 394.58,675.67 398.64,675.67 402.70,675.67 406.75,675.68 410.81,675.68 414.87,675.68 418.93,675.68 422.99,675.68 427.04,675.68 431.10,675.68 435.16,675.68 439.22,675.68 443.28,675.68 447.33,675.68 451.36,675.68 455.40,675.68 459.43,675.68 461.47,675.68 M 332.47,861.03 L 334.95,861.03 337.81,861.02 341.85,861.02 345.88,861.02 349.94,861.02 354.00,861.02 358.06,861.02 362.12,861.02 366.17,861.02 370.23,861.03 374.29,861.03 378.35,861.03 382.41,861.03 386.46,861.03 390.52,861.03 394.58,861.03 398.64,861.03 402.70,861.03 406.75,861.03 410.81,861.03 414.87,861.03 418.93,861.03 422.99,861.03 427.04,861.03 431.10,861.03 435.16,861.03 439.22,861.03 443.28,861.03 447.31,861.03 451.35,861.03 455.38,861.03 459.46,861.03 462.79,861.03 M 318.94,844.85 L 319.35,843.36 320.00,841.07 320.96,837.66 322.03,833.89 323.03,830.34 323.91,827.23 324.61,824.75 325.27,822.44 325.94,820.10 326.78,817.11 327.80,813.55 328.94,809.55 330.08,805.55 331.12,801.93 332.01,798.82 332.71,796.34 333.37,794.03 334.04,791.69 334.89,788.70 335.91,785.14 337.04,781.17 338.10,777.45 339.02,774.22 339.70,771.85 340.34,769.63 340.98,767.38 341.83,764.41 342.84,760.85 343.98,756.85 345.13,752.84 346.16,749.22 347.05,746.11 347.76,743.63 348.42,741.32 349.09,738.97 349.93,736.00 350.95,732.44 352.09,728.44 353.24,724.43 354.27,720.81 355.15,717.70 355.86,715.21 356.51,712.91 357.18,710.56 358.02,707.58 359.03,704.02 360.16,700.04 361.01,697.08 361.71,694.62 M 18.35,547.17 L 19.43,547.17 20.96,547.17 22.87,547.17 25.02,547.17 26.93,547.17 29.07,547.17 30.98,547.17 33.13,547.17 35.04,547.17 37.19,547.17 39.10,547.17 41.25,547.17 43.16,547.17 45.31,547.17 47.22,547.17 49.36,547.17 51.27,547.17 53.42,547.17 55.33,547.17 57.48,547.17 59.39,547.17 61.54,547.17 63.45,547.17 65.60,547.17 67.51,547.17 69.66,547.17 71.56,547.17 73.71,547.17 75.62,547.17 77.77,547.17 79.68,547.17 81.83,547.17 83.74,547.17 85.89,547.17 87.80,547.17 89.95,547.17 91.86,547.17 94.00,547.17 95.91,547.17 98.06,547.17 99.97,547.17 102.12,547.17 104.03,547.17 106.18,547.17 108.09,547.17 110.24,547.17 112.14,547.17 114.29,547.17 116.20,547.17 118.35,547.17 120.26,547.17 122.41,547.17 124.32,547.17 126.47,547.17 128.38,547.17 130.53,547.17 132.44,547.17 134.58,547.17 136.49,547.17 138.64,547.17 140.55,547.17 142.70,547.17 144.61,547.17 146.76,547.17 148.67,547.17 150.82,547.17 152.73,547.17 154.88,547.17 156.78,547.17 158.93,547.17 160.84,547.17 162.99,547.17 164.90,547.17 167.05,547.17 168.96,547.17 171.11,547.17 173.02,547.17 175.17,547.17 177.07,547.17 179.22,547.17 181.13,547.17 183.28,547.17 185.19,547.17 187.34,547.17 189.25,547.17 191.40,547.17 193.31,547.17 195.46,547.17 197.36,547.17 199.51,547.17 201.42,547.17 203.57,547.17 205.48,547.17 207.63,547.17 209.54,547.17 211.69,547.17 213.60,547.17 215.75,547.17 217.66,547.17 219.80,547.17 221.71,547.17 223.86,547.17 225.77,547.17 227.92,547.17 229.83,547.17 231.98,547.17 233.89,547.17 236.04,547.17 237.95,547.17 240.09,547.17 242.00,547.17 244.15,547.17 246.06,547.17 248.21,547.17 250.12,547.17 252.27,547.17 254.18,547.17 256.33,547.17 258.24,547.17 260.38,547.17 262.29,547.17 264.44,547.17 266.35,547.17 268.50,547.17 270.41,547.17 272.56,547.17 274.47,547.17 276.62,547.17 278.53,547.17 280.68,547.17 282.58,547.17 284.73,547.17 286.64,547.17 288.79,547.17 290.70,547.17 292.85,547.17 294.76,547.17 296.91,547.17 298.82,547.17 300.97,547.17 302.87,547.17 305.02,547.17 306.93,547.17 309.08,547.17 310.99,547.17 313.14,547.17 315.05,547.17 317.20,547.17 319.11,547.17 321.26,547.17 323.17,547.17 325.31,547.17 327.22,547.17 329.37,547.17 331.28,547.17 333.43,547.17 335.34,547.17 337.49,547.17 339.40,547.17 341.55,547.17 343.46,547.17 345.60,547.17 347.51,547.17 349.66,547.17 351.57,547.17 353.72,547.17 355.63,547.17 357.78,547.17 359.69,547.17 361.84,547.17 363.75,547.17 365.90,547.17 367.80,547.17 369.95,547.17 371.86,547.17 374.01,547.17 375.92,547.17 378.07,547.17 379.98,547.17 382.13,547.17 384.04,547.17 386.18,547.17 388.09,547.17 390.24,547.17 392.15,547.17 394.30,547.17 396.21,547.17 398.36,547.17 400.27,547.17 402.42,547.17 404.33,547.17 406.48,547.17 408.38,547.17 410.53,547.17 412.44,547.17 414.59,547.17 416.50,547.17 418.65,547.17 420.56,547.17 422.71,547.17 424.62,547.17 426.77,547.17 428.68,547.17 430.82,547.17 432.73,547.17 434.88,547.17 436.79,547.17 438.94,547.17 440.85,547.17 443.00,547.17 444.91,547.17 447.06,547.17 448.97,547.17 451.11,547.17 453.02,547.17 455.17,547.17 457.45,547.17 460.34,547.17 463.81,547.17 467.67,547.17 471.71,547.17 475.74,547.17 479.80,547.17 483.86,547.17 487.92,547.17 491.97,547.17 496.03,547.17 500.09,547.17 504.15,547.17 508.21,547.17 512.26,547.17 516.32,547.17 520.38,547.17 524.44,547.17 528.50,547.17 532.55,547.17 535.49,547.17 M 0.00,560.92 L 0.00,563.36 0.01,566.19 0.02,570.21 0.03,574.23 0.04,578.29 0.05,582.35 0.07,586.41 0.08,590.46 0.09,594.52 0.10,598.58 0.12,602.64 0.17,606.65 0.31,610.62 0.64,614.57 1.14,618.58 1.88,622.60 2.79,626.66 3.93,630.69 5.37,634.85 7.14,638.90 9.32,643.01 11.81,646.95 14.68,650.93 17.90,654.72 21.46,658.33 25.36,661.64 29.34,664.53 33.46,667.03 37.51,669.11 41.64,670.87 45.68,672.31 49.74,673.45 53.74,674.31 57.79,674.93 61.83,675.34 65.89,675.57 69.93,675.67 73.99,675.70 78.05,675.71 82.11,675.71 86.17,675.71 90.22,675.71 94.28,675.71 98.34,675.71 102.40,675.71 106.46,675.71 110.51,675.71 114.57,675.71 118.63,675.71 122.69,675.71 126.75,675.71 130.80,675.70 134.86,675.70 138.92,675.70 142.98,675.70 147.04,675.70 151.10,675.70 155.15,675.70 159.21,675.70 163.27,675.70 167.33,675.70 171.39,675.70 175.44,675.70 179.50,675.70 183.56,675.70 187.62,675.70 191.68,675.70 195.73,675.70 199.79,675.70 203.85,675.70 207.91,675.70 211.97,675.70 216.02,675.70 220.08,675.70 224.14,675.70 228.20,675.70 232.26,675.70 236.31,675.70 240.37,675.70 244.43,675.69 248.49,675.69 252.55,675.69 256.60,675.69 260.66,675.69 264.72,675.69 268.78,675.69 272.84,675.69 276.90,675.69 280.95,675.69 285.01,675.69 289.07,675.69 293.13,675.69 297.19,675.69 301.24,675.69 305.30,675.69 309.36,675.69 313.42,675.69 317.48,675.69 321.53,675.69 325.59,675.69 329.65,675.69 333.71,675.69 337.77,675.69 341.94,675.69 344.94,675.69 347.64,675.69 M 0.06,526.83 L 0.06,524.38 0.06,521.48 0.06,517.42 0.06,513.36 0.06,509.30 0.06,505.24 0.06,501.19 0.06,497.13 0.06,493.07 0.06,489.01 0.06,484.95 0.06,480.90 0.06,476.84 0.06,472.78 0.06,468.72 0.06,464.66 0.06,460.60 0.06,456.55 0.06,452.49 0.06,448.43 0.07,444.37 0.07,440.31 0.07,436.26 0.07,432.20 0.07,428.14 0.07,424.08 0.07,420.02 0.07,415.97 0.07,411.91 0.07,407.85 0.07,403.79 0.07,399.73 0.07,395.68 0.07,391.62 0.07,387.56 0.07,383.50 0.07,379.44 0.07,375.39 0.07,371.33 0.07,367.27 0.07,363.21 0.08,359.15 0.08,355.10 0.08,351.04 0.08,346.98 0.08,342.92 0.08,338.86 0.08,334.80 0.08,330.75 0.08,326.69 0.08,322.63 0.08,318.57 0.08,314.51 0.08,310.46 0.08,306.40 0.08,302.34 0.08,298.28 0.08,294.22 0.08,290.17 0.08,286.11 0.08,282.05 0.09,277.99 0.09,273.93 0.09,269.88 0.09,265.82 0.09,261.76 0.09,257.70 0.09,253.64 0.09,249.58 0.09,245.53 0.09,241.47 0.09,237.41 0.09,233.35 0.09,229.30 0.09,225.24 0.09,221.18 0.09,217.12 0.09,213.06 0.09,209.00 0.09,204.95 0.09,200.89 0.10,196.83 0.10,192.77 0.10,188.71 0.10,184.66 0.10,180.60 0.10,176.54 0.10,172.48 0.10,168.42 0.10,164.37 0.10,160.31 0.10,156.25 0.10,152.19 0.10,148.13 0.10,144.08 0.10,140.02 0.10,135.96 0.10,131.90 0.10,127.84 0.10,123.78 0.10,119.73 0.10,115.67 0.11,111.61 0.11,107.55 0.11,103.49 0.11,99.44 0.12,95.38 0.13,91.32 0.13,87.26 0.12,83.20 0.10,79.15 0.09,75.09 0.11,71.08 0.22,67.08 0.48,63.12 0.90,59.11 1.50,55.10 2.30,51.05 3.39,47.01 4.72,43.01 6.32,39.03 8.13,35.07 10.29,31.07 12.87,27.06 15.88,23.18 19.37,19.40 23.13,15.92 27.18,12.70 31.20,9.95 35.24,7.61 39.24,5.70 43.25,4.15 47.16,2.91 50.55,2.00 53.43,1.37 55.90,0.93 58.70,0.58 62.04,0.28 65.89,0.10 69.93,0.01 73.99,0.00 78.05,0.00 82.11,0.00 86.17,0.00 90.22,0.00 94.28,0.00 98.34,0.00 102.40,0.00 106.46,0.00 110.51,0.00 114.57,0.00 118.63,0.00 122.69,0.00 126.75,0.00 130.80,0.00 134.86,0.00 138.92,0.00 142.98,0.00 147.04,0.00 151.10,0.00 155.15,0.00 159.21,0.00 163.27,0.00 167.33,0.00 171.39,0.00 175.44,0.00 179.50,0.00 183.56,0.00 187.62,0.00 191.68,0.00 195.73,0.00 199.79,0.00 203.85,0.00 207.91,0.00 211.97,0.00 216.02,0.00 220.08,0.00 224.14,0.00 228.20,0.00 232.26,0.00 236.31,0.00 240.37,0.00 244.43,0.00 248.49,0.00 252.55,0.00 256.60,0.00 260.66,0.00 264.72,0.00 268.78,0.00 272.84,0.00 276.90,0.00 280.95,0.00 285.01,0.00 289.07,0.00 293.13,0.00 297.19,0.00 301.24,0.00 305.30,0.00 309.36,0.00 313.42,0.00 317.48,0.00 321.53,0.00 325.59,0.00 329.65,0.00 333.71,0.00 337.77,0.00 341.82,0.00 345.88,0.00 349.94,0.00 354.00,0.00 358.06,0.01 362.12,0.01 366.17,0.01 370.23,0.01 374.29,0.01 378.35,0.01 382.41,0.01 386.46,0.01 390.52,0.01 394.58,0.01 398.64,0.01 402.70,0.01 406.75,0.01 410.81,0.01 414.87,0.01 418.93,0.01 422.99,0.01 427.04,0.01 431.10,0.01 435.16,0.01 439.22,0.01 443.28,0.01 447.33,0.01 451.39,0.01 455.45,0.01 459.51,0.01 463.57,0.01 467.62,0.01 471.68,0.01 475.74,0.01 479.80,0.01 483.86,0.01 487.92,0.01 491.97,0.01 496.03,0.01 500.09,0.01 504.15,0.01 508.21,0.01 512.26,0.01 516.32,0.01 520.38,0.01 524.44,0.01 528.50,0.01 532.55,0.01 536.61,0.01 540.67,0.01 544.73,0.01 548.79,0.01 552.84,0.01 556.90,0.01 560.96,0.01 565.02,0.01 569.08,0.01 573.14,0.01 577.19,0.01 581.25,0.01 585.31,0.01 589.37,0.01 593.43,0.01 597.48,0.01 601.54,0.01 605.60,0.01 609.66,0.01 613.72,0.01 617.77,0.01 621.83,0.01 625.89,0.01 629.95,0.01 634.01,0.01 638.06,0.01 642.12,0.01 646.18,0.01 650.24,0.01 654.30,0.01 658.35,0.01 662.41,0.01 666.47,0.01 670.53,0.01 674.59,0.01 678.65,0.01 682.70,0.01 686.76,0.01 690.82,0.01 694.88,0.01 698.94,0.01 702.99,0.01 707.05,0.01 711.11,0.01 715.17,0.01 719.23,0.01 723.28,0.01 727.34,0.01 731.40,0.01 735.46,0.01 739.52,0.01 743.57,0.01 747.63,0.01 751.69,0.01 755.75,0.01 759.81,0.01 763.86,0.01 767.92,0.01 771.98,0.01 776.04,0.01 780.10,0.01 784.15,0.01 788.21,0.01 792.27,0.01 796.33,0.01 800.39,0.01 804.45,0.01 808.50,0.01 812.56,0.01 816.62,0.01 820.68,0.01 824.74,0.01 828.79,0.01 832.85,0.01 836.91,0.01 840.97,0.02 845.03,0.02 849.08,0.02 853.14,0.03 857.17,0.11 861.19,0.34 865.20,0.77 869.26,1.44 873.31,2.38 877.33,3.60 881.32,5.11 885.39,6.95 889.52,9.13 893.67,11.76 897.69,14.78 901.59,18.28 905.19,22.04 908.50,26.12 911.33,30.21 913.73,34.34 915.71,38.41 917.35,42.48 918.70,46.62 919.74,50.72 920.51,54.85 921.02,58.92 921.35,62.96 921.49,67.00 921.55,71.03 921.55,75.09 921.55,79.15 921.55,83.20 921.55,87.26 921.55,91.32 921.56,95.38 921.56,99.44 921.56,103.49 921.56,107.55 921.56,111.61 921.56,115.67 921.56,119.73 921.56,123.78 921.56,127.84 921.56,131.90 921.56,135.96 921.56,140.02 921.56,144.08 921.56,148.13 921.56,152.19 921.56,156.25 921.56,160.31 921.56,164.37 921.56,168.42 921.56,172.48 921.56,176.54 921.56,180.60 921.56,184.66 921.56,188.71 921.56,192.77 921.56,196.83 921.56,200.89 921.56,204.95 921.56,209.00 921.56,213.06 921.56,217.12 921.56,221.18 921.56,225.24 921.56,229.30 921.56,233.35 921.56,237.41 921.56,241.47 921.56,245.53 921.56,249.58 921.56,253.64 921.56,257.70 921.56,261.76 921.56,265.82 921.56,269.88 921.56,273.93 921.56,277.99 921.56,282.05 921.56,286.11 921.56,290.17 921.56,294.22 921.56,298.28 921.56,302.34 921.56,306.40 921.56,310.46 921.56,314.51 921.56,318.57 921.56,322.63 921.56,326.69 921.56,330.75 921.56,334.80 921.56,338.86 921.56,342.92 921.56,346.98 921.56,351.04 921.56,355.10 921.56,359.15 921.56,363.21 921.56,367.27 921.56,371.33 921.56,375.39 921.56,379.44 921.56,383.50 921.56,387.56 921.56,391.62 921.56,395.68 921.56,399.73 921.56,403.79 921.56,407.85 921.56,411.91 921.56,415.97 921.56,420.02 921.56,424.08 921.56,428.14 921.56,432.20 921.56,436.26 921.56,440.31 921.56,444.37 921.56,448.43 921.56,452.49 921.56,456.55 921.56,460.60 921.56,464.66 921.56,468.72 921.56,472.78 921.56,476.84 921.56,480.90 921.56,484.95 921.56,486.89 M 250.10,861.01 L 251.49,861.00 252.80,861.01 254.96,861.01 256.86,861.01 259.03,861.01 260.94,861.01 263.09,861.01 265.00,861.01 267.15,861.01 269.06,861.01 271.21,861.01 273.12,861.01 275.26,861.01 277.17,861.01 279.32,861.01 281.23,861.01 283.38,861.01 285.29,861.01 287.44,861.01 289.35,861.01 291.50,861.01 293.41,861.01 295.63,861.01 297.59,861.01 299.94,861.01 301.85,861.01 304.25,861.01 305.59,861.01 307.29,861.01 M 318.94,844.85 L 314.40,861.01 M 361.71,694.62 L 367.11,675.68 M 373.37,675.67 L 347.64,675.69 M 332.47,861.03 L 307.29,861.01 M 18.35,547.17 L 0.02,547.17 M 0.00,560.92 L 0.02,547.17 M 0.06,526.83 L 0.02,547.17" stroke-width="45.0" fill="none" stroke="url(&quot;#theme-accent-gradient-linear&quot;) rgb(90, 110, 216)"/></g><g id="state-icon" stroke="url(&quot;#theme-accent-gradient-linear&quot;) rgb(90, 110, 216)" stroke-width="45" fill="none" stroke-linecap="round" stroke-linejoin="round"><path d="M 629.71,552.07 L 628.59,552.79 627.53,553.48 625.90,554.54 624.45,555.50 622.88,556.56 621.43,557.54 619.78,558.69 617.98,559.97 615.95,561.45 613.90,562.96 612.13,564.27 610.50,565.50 609.12,566.57 607.59,567.78 606.14,568.94 604.41,570.35 602.60,571.84 600.61,573.52 598.63,575.23 596.88,576.76 595.19,578.27 593.79,579.55 592.27,580.95 590.90,582.22 589.33,583.72 587.91,585.11 586.28,586.74 584.67,588.38 582.85,590.24 581.04,592.14 579.42,593.86 577.84,595.60 576.47,597.13 574.96,598.83 573.64,600.35 572.24,601.98 571.05,603.40 569.82,604.90 568.71,606.27 567.46,607.83 566.28,609.34 564.97,611.02 563.83,612.52 562.58,614.20 561.27,615.99 559.60,618.34 557.73,621.03 555.74,623.96 553.99,626.61 552.53,628.88 551.45,630.59 550.41,632.26 549.55,633.65 548.59,635.24 547.81,636.56 546.88,638.15 546.01,639.63 545.04,641.33 544.16,642.88 543.22,644.60 542.39,646.16 541.48,647.88 540.74,649.29 539.91,650.90 539.23,652.23 538.38,653.95 537.56,655.66 536.62,657.62 535.73,659.53 534.95,661.21 534.17,662.95 533.39,664.76 532.42,667.05 531.45,669.36 530.53,671.62 529.82,673.39 529.18,675.06 528.63,676.52 528.05,678.09 527.52,679.53 526.96,681.09 526.44,682.57 525.86,684.27 525.25,686.13 524.51,688.42 523.79,690.72 523.13,692.89 522.60,694.64 522.11,696.34 521.68,697.87 521.22,699.58 520.75,701.36 520.18,703.60 519.60,705.92 519.06,708.19 518.65,709.98 518.26,711.74 517.90,713.47 517.49,715.43 517.12,717.32 516.79,718.98 516.49,720.64 516.23,722.14 515.94,723.83 515.72,725.23 515.47,726.77 515.27,728.07 515.02,729.73 514.78,731.48 514.52,733.51 514.29,735.50 514.09,737.19 513.90,738.93 513.72,740.68 513.52,742.70 513.32,744.69 513.16,746.38 513.01,748.04 512.91,749.45 512.80,751.15 512.72,752.93 512.64,754.96 512.56,756.97 512.50,758.66 512.45,760.29 512.40,761.69 512.35,763.31 512.33,764.75 512.32,766.37 512.34,767.81 512.37,769.42 512.41,770.82 512.45,772.44 512.49,773.84 512.54,775.51 512.60,776.94 512.66,778.60 512.73,780.03 512.81,781.69 512.89,783.12 513.00,784.71 513.11,786.03 513.25,787.58 513.38,788.98 513.55,790.71 513.70,792.22 513.88,793.89 514.02,795.22 514.19,796.77 514.35,798.17 514.56,799.88 514.77,801.37 515.02,803.06 515.24,804.47 515.51,806.14 515.73,807.53 516.02,809.19 516.26,810.58 516.56,812.26 516.81,813.64 517.12,815.31 517.44,816.95 517.84,818.87 518.27,820.82 518.66,822.54 519.08,824.32 519.51,826.11 520.09,828.45 520.78,831.15 521.59,834.19 522.45,837.22 523.25,839.90 523.95,842.19 524.49,843.94 525.02,845.61 525.49,847.10 526.03,848.77 526.52,850.27 527.08,851.93 527.70,853.65 528.50,855.81 529.36,858.07 530.21,860.31 530.91,862.12 531.59,863.85 532.35,865.70 533.32,868.03 534.45,870.62 535.56,873.12 536.62,875.43 537.58,877.47 538.55,879.53 539.52,881.55 540.38,883.30 541.31,885.12 542.22,886.85 543.31,888.89 544.40,890.89 545.37,892.67 546.33,894.42 547.33,896.17 548.70,898.52 550.35,901.24 552.24,904.31 554.21,907.41 556.21,910.49 558.26,913.54 560.32,916.50 562.23,919.18 564.01,921.61 565.61,923.77 567.22,925.89 568.77,927.89 570.14,929.61 571.48,931.24 572.69,932.69 574.05,934.31 575.27,935.76 576.60,937.32 577.83,938.75 579.28,940.39 580.64,941.89 582.20,943.56 583.59,945.04 585.18,946.70 586.59,948.16 588.19,949.80 589.62,951.25 591.24,952.87 592.71,954.28 594.38,955.85 595.88,957.22 597.58,958.77 599.08,960.13 600.81,961.68 602.55,963.20 604.52,964.89 606.46,966.49 608.16,967.89 609.85,969.24 611.58,970.59 613.58,972.15 615.58,973.69 617.34,975.02 618.97,976.21 620.40,977.23 621.97,978.31 623.43,979.31 625.01,980.39 626.46,981.38 628.05,982.44 629.52,983.41 631.13,984.46 632.61,985.39 634.28,986.41 635.99,987.43 637.91,988.55 639.85,989.67 641.60,990.68 643.35,991.67 645.10,992.64 647.05,993.70 649.08,994.75 651.11,995.78 653.15,996.79 655.21,997.79 657.26,998.77 659.32,999.75 661.39,1000.71 663.50,1001.68 665.82,1002.72 668.16,1003.75 670.50,1004.77 672.70,1005.70 675.11,1006.68 677.78,1007.72 680.72,1008.84 683.75,1009.93 686.79,1010.99 689.85,1012.01 692.92,1012.99 696.01,1013.93 699.03,1014.80 701.72,1015.55 704.07,1016.17 705.85,1016.62 707.64,1017.07 709.36,1017.48 711.30,1017.92 713.28,1018.35 715.26,1018.76 717.28,1019.17 719.32,1019.57 721.34,1019.95 723.39,1020.31 725.36,1020.65 727.08,1020.93 728.77,1021.19 730.22,1021.40 731.88,1021.64 733.31,1021.83 734.96,1022.04 736.66,1022.24 738.65,1022.46 740.65,1022.67 742.38,1022.85 744.07,1023.01 745.51,1023.13 747.21,1023.26 748.97,1023.38 750.94,1023.51 752.93,1023.62 754.63,1023.71 756.32,1023.78 757.75,1023.84 759.39,1023.90 760.83,1023.94 762.45,1023.97 763.89,1023.99 765.51,1024.00 766.95,1024.00 768.56,1023.99 770.00,1023.97 771.65,1023.94 773.09,1023.91 774.73,1023.86 776.09,1023.82 777.69,1023.76 779.07,1023.69 780.74,1023.61 782.20,1023.53 783.89,1023.43 785.34,1023.32 787.00,1023.19 788.37,1023.07 789.97,1022.93 791.33,1022.80 793.03,1022.63 794.49,1022.48 796.18,1022.29 797.55,1022.14 799.14,1021.94 800.51,1021.76 802.20,1021.53 803.66,1021.32 805.38,1021.07 806.76,1020.86 808.42,1020.60 809.76,1020.38 811.49,1020.09 813.15,1019.79 815.16,1019.42 817.15,1019.04 818.93,1018.68 820.72,1018.31 822.43,1017.93 824.37,1017.50 826.34,1017.06 828.05,1016.67 829.84,1016.23 831.61,1015.78 833.97,1015.15 836.67,1014.40 839.71,1013.54 842.80,1012.63 845.89,1011.67 848.95,1010.68 852.01,1009.64 855.05,1008.57 858.08,1007.47 861.04,1006.36 863.74,1005.31 866.07,1004.37 867.89,1003.61 869.60,1002.87 871.36,1002.11 873.35,1001.24 875.42,1000.32 877.19,999.52 878.90,998.72 880.26,998.06 881.95,997.22 883.68,996.34 885.69,995.32 887.72,994.27 889.74,993.22 891.76,992.14 893.72,991.07 895.48,990.07 897.19,989.08 898.70,988.18 900.35,987.19 901.86,986.28 903.50,985.29 905.00,984.37 906.62,983.35 908.11,982.40 909.70,981.34 911.16,980.35 912.73,979.26 914.18,978.25 915.75,977.15 917.20,976.14 918.88,974.96 920.69,973.62 922.96,971.89 925.28,970.07 927.59,968.24 929.46,966.74 931.20,965.33 932.65,964.13 934.23,962.79 935.66,961.53 937.32,960.04 938.83,958.65 940.50,957.10 941.98,955.72 943.56,954.24 944.93,952.95 946.41,951.51 947.76,950.16 949.35,948.53 950.99,946.82 952.81,944.93 954.61,943.05 956.20,941.35 957.80,939.59 959.36,937.82 961.10,935.83 962.77,933.90 964.19,932.24 965.55,930.63 966.74,929.18 968.08,927.53 969.26,926.04 970.56,924.36 971.93,922.54 973.62,920.25 975.36,917.87 977.03,915.57 978.32,913.73 979.48,912.03 980.45,910.55 981.49,908.94 982.45,907.46 983.48,905.85 984.43,904.36 985.44,902.73 986.36,901.23 987.38,899.53 988.41,897.77 989.52,895.82 990.64,893.81 991.73,891.82 992.82,889.82 993.86,887.87 994.79,886.12 995.72,884.33 996.61,882.51 997.58,880.48 998.56,878.40 999.55,876.28 1000.64,873.89 1001.80,871.31 1002.92,868.73 1003.92,866.34 1004.78,864.18 1005.61,862.05 1006.41,859.97 1007.09,858.18 1007.72,856.50 1008.23,855.11 1008.82,853.48 1009.32,852.04 1009.89,850.36 1010.44,848.69 1011.07,846.73 1011.69,844.75 1012.26,842.95 1012.80,841.22 1013.24,839.74 1013.74,838.06 1014.21,836.36 1014.73,834.44 1015.23,832.51 1015.66,830.82 1016.10,829.06 1016.46,827.57 1016.87,825.85 1017.21,824.42 1017.60,822.75 1017.91,821.38 1018.27,819.73 1018.56,818.35 1018.88,816.68 1019.14,815.30 1019.45,813.62 1019.74,811.98 1020.08,810.05 1020.42,808.08 1020.71,806.33 1021.00,804.55 1021.21,803.14 1021.45,801.47 1021.64,800.08 1021.85,798.37 1022.02,796.98 1022.21,795.34 1022.36,793.98 1022.54,792.29 1022.70,790.82 1022.86,789.12 1023.00,787.75 1023.14,786.15 1023.25,784.79 1023.36,783.14 1023.45,781.69 1023.54,780.04 1023.61,778.60 1023.68,776.98 1023.75,775.54 1023.82,773.92 1023.89,772.49 1023.95,770.86 1023.98,769.43 1024.00,767.81 1024.00,766.37 1023.99,764.75 1023.98,763.31 1023.96,761.69 1023.94,760.25 1023.91,758.63 1023.88,757.19 1023.83,755.57 1023.79,754.13 1023.73,752.51 1023.67,751.07 1023.58,749.41 1023.48,747.96 1023.34,746.32 1023.22,744.93 1023.08,743.33 1022.95,741.94 1022.80,740.30 1022.67,738.88 1022.50,737.18 1022.34,735.79 1022.14,734.12 1021.95,732.73 1021.70,731.02 1021.50,729.64 1021.24,727.95 1020.98,726.29 1020.67,724.29 1020.33,722.26 1020.03,720.49 1019.70,718.66 1019.36,716.92 1018.96,714.97 1018.53,712.99 1018.08,710.95 1017.53,708.58 1016.99,706.24 1016.45,703.95 1016.02,702.18 1015.55,700.45 1015.14,698.98 1014.64,697.24 1014.13,695.49 1013.44,693.17 1012.62,690.49 1011.67,687.48 1010.65,684.42 1009.58,681.38 1008.47,678.35 1007.36,675.39 1006.32,672.70 1005.35,670.27 1004.46,668.12 1003.55,666.02 1002.62,663.94 1001.65,661.82 1000.59,659.51 999.50,657.20 998.40,654.89 997.36,652.80 996.32,650.77 995.24,648.75 994.10,646.65 992.82,644.33 991.51,641.97 990.23,639.71 989.16,637.86 988.16,636.16 987.25,634.65 986.26,633.01 985.34,631.51 984.34,629.88 983.40,628.38 982.37,626.77 981.42,625.30 980.33,623.67 979.16,621.97 977.82,620.04 976.42,618.06 975.18,616.31 973.99,614.67 972.95,613.25 971.74,611.66 970.57,610.16 969.17,608.39 967.71,606.58 966.07,604.55 964.47,602.61 963.06,600.92 961.64,599.29 960.17,597.64 958.48,595.76 956.71,593.83 955.12,592.11 953.52,590.41 952.10,588.95 950.49,587.32 949.04,585.90 947.39,584.30 945.92,582.89 944.27,581.31 942.78,579.92 941.06,578.35 939.31,576.81 937.35,575.10 935.43,573.46 933.75,572.02 932.09,570.64 930.38,569.26 928.39,567.69 926.29,566.07 924.25,564.51 922.23,562.99 920.25,561.53 918.22,560.05 916.10,558.57 914.02,557.14 912.20,555.91 910.47,554.76 908.70,553.60 906.42,552.15 903.81,550.53 901.19,548.93 898.86,547.55 897.02,546.48 895.27,545.48 893.52,544.50 891.56,543.43 889.59,542.38 887.80,541.44 886.03,540.53 884.54,539.77 882.92,538.95 881.56,538.28 879.89,537.47 878.44,536.78 876.75,536.00 875.37,535.37 873.66,534.61 871.84,533.82 869.49,532.80 866.85,531.69 863.98,530.53 861.28,529.48 858.82,528.54 856.58,527.71 854.15,526.83 851.45,525.90 848.47,524.91 845.49,523.96 842.83,523.13 840.53,522.43 838.77,521.91 837.01,521.41 835.30,520.95 833.37,520.45 831.40,519.95 829.43,519.46 827.42,518.96 825.45,518.50 823.73,518.10 821.96,517.71 820.18,517.34 818.20,516.95 816.16,516.56 814.18,516.19 812.14,515.82 810.10,515.46 808.07,515.13 806.02,514.81 804.04,514.53 802.32,514.29 800.61,514.07 799.15,513.89 797.49,513.69 796.06,513.52 794.47,513.34 793.09,513.19 791.46,513.04 790.01,512.91 788.36,512.79 786.91,512.68 785.26,512.57 783.83,512.48 782.23,512.38 780.85,512.30 779.22,512.21 777.77,512.15 776.12,512.09 774.68,512.06 773.06,512.03 771.62,512.01 770.00,512.00 768.56,512.00 766.95,512.00 765.51,512.00 763.89,512.01 762.45,512.03 760.83,512.08 759.39,512.13 757.77,512.21 756.33,512.29 754.71,512.37 753.27,512.46 751.68,512.56 750.20,512.66 748.64,512.77 747.11,512.89 745.70,513.00 744.25,513.13 742.97,513.25 741.42,513.39 740.03,513.53 738.37,513.71 736.96,513.88 735.28,514.10 733.89,514.28 732.21,514.51 730.82,514.71 729.13,514.95 727.75,515.16 726.07,515.42 724.69,515.66 723.01,515.95 721.63,516.21 719.97,516.52 718.59,516.78 716.92,517.11 715.54,517.38 713.88,517.73 712.18,518.11 709.94,518.62 707.64,519.17 705.35,519.72 703.56,520.17 701.77,520.63 700.00,521.11 697.67,521.77 695.06,522.54 692.44,523.32 690.10,524.04 688.33,524.60 686.60,525.17 684.93,525.73 683.02,526.39 681.07,527.08 679.31,527.70 677.65,528.30 676.20,528.85 674.57,529.48 672.73,530.21 670.48,531.12 668.13,532.09 665.80,533.07 663.61,534.03 661.28,535.08 658.96,536.14 656.67,537.22 654.58,538.22 652.54,539.22 650.50,540.25 648.48,541.29 646.50,542.33 644.55,543.38 642.87,544.29 641.09,545.27 639.32,546.29 637.77,547.19 636.31,548.05 M 629.71,552.07 L 631.71,550.77 M 636.31,548.05 L 631.71,550.77 631.71,550.77 M 782.99,763.43 L 784.80,763.82 786.94,764.31 790.00,765.04 793.06,765.85 796.15,766.74 799.22,767.72 802.27,768.77 805.31,769.91 808.34,771.16 811.42,772.53 814.56,774.07 817.72,775.77 820.83,777.59 823.88,779.55 826.90,781.68 829.96,784.05 832.95,786.59 835.80,789.28 838.42,792.04 840.85,794.91 843.08,797.84 845.14,800.87 847.05,804.04 848.73,807.17 850.22,810.33 851.46,813.40 852.51,816.48 853.36,819.53 854.06,822.59 854.60,825.67 854.99,828.76 855.23,831.83 855.31,834.91 855.25,837.98 855.04,841.08 854.70,844.15 854.20,847.24 853.56,850.30 852.75,853.39 851.77,856.51 850.60,859.63 849.24,862.79 847.70,865.90 845.94,869.05 843.99,872.12 841.78,875.20 839.32,878.25 836.54,881.32 833.51,884.33 830.34,887.17 827.13,889.75 824.01,892.01 820.95,894.01 817.93,895.78 814.84,897.43 811.73,898.93 808.64,900.27 805.58,901.45 802.53,902.50 799.44,903.42 796.35,904.23 793.26,904.92 790.19,905.49 787.12,905.94 784.94,906.23 783.08,906.42 M 768.16,773.69 L 768.16,774.44 768.17,775.57 768.18,776.98 768.18,778.60 768.19,780.04 768.20,781.66 768.21,783.10 768.21,784.72 768.22,786.16 768.23,787.78 768.23,789.22 768.24,790.84 768.25,792.28 768.26,793.90 768.26,795.34 768.27,796.96 768.28,798.40 768.29,800.02 768.29,801.46 768.30,803.08 768.31,804.52 768.31,806.14 768.32,807.57 768.33,809.19 768.34,810.63 768.34,812.25 768.35,813.69 768.36,815.31 768.36,816.75 768.37,818.37 768.38,819.81 768.39,821.43 768.39,822.87 768.40,824.49 768.41,825.93 768.42,827.58 768.43,829.31 768.44,831.25 768.45,833.29 768.46,835.01 768.46,836.73 768.47,838.15 768.47,839.79 768.48,841.23 768.49,842.85 768.50,844.28 768.50,845.90 768.51,847.34 768.52,848.96 768.52,850.40 768.53,852.02 768.54,853.46 768.55,855.08 768.55,856.52 768.56,858.14 768.57,859.58 768.58,861.20 768.58,862.64 768.59,864.26 768.60,865.70 768.60,867.32 768.61,868.76 768.62,870.38 768.63,871.82 768.63,873.44 768.64,874.88 768.65,876.50 768.65,877.94 768.66,879.56 768.67,880.99 768.68,882.61 768.68,884.05 768.69,885.67 768.70,887.11 768.71,888.73 768.71,890.19 768.72,891.82 768.73,893.29 768.73,894.42 768.74,895.23 M 756.86,618.28 L 755.94,618.40 754.82,618.56 752.99,618.83 751.37,619.09 749.64,619.40 748.22,619.67 746.58,620.01 744.87,620.41 742.61,620.98 739.94,621.72 736.95,622.63 733.97,623.63 731.29,624.60 728.88,625.56 726.69,626.51 724.40,627.59 722.14,628.72 719.89,629.93 717.79,631.13 715.71,632.41 713.76,633.68 712.07,634.83 710.47,636.01 709.01,637.14 707.37,638.48 705.94,639.71 704.44,641.08 703.11,642.36 701.68,643.81 700.42,645.16 699.08,646.69 697.87,648.15 696.57,649.80 695.46,651.30 694.33,652.89 693.37,654.34 692.38,655.92 691.51,657.41 690.64,658.97 689.91,660.38 689.14,661.96 688.37,663.72 687.48,665.93 686.64,668.19 685.90,670.39 685.36,672.13 684.89,673.90 684.48,675.62 684.06,677.57 683.71,679.48 683.43,681.15 683.22,682.85 683.06,684.36 682.92,686.08 682.83,687.49 682.77,689.04 682.75,690.35 682.77,691.92 682.82,693.29 682.92,694.91 683.08,696.61 683.31,698.59 683.60,700.69 683.88,702.43 684.24,704.18 684.65,705.86 685.29,708.07 685.99,710.29 686.80,712.53 687.51,714.31 688.31,716.13 689.06,717.66 689.90,719.30 690.71,720.73 691.66,722.28 692.61,723.74 693.75,725.34 694.90,726.83 696.30,728.52 697.65,730.04 699.23,731.69 700.69,733.10 702.32,734.58 703.78,735.80 705.34,737.03 706.75,738.08 708.30,739.19 709.76,740.19 711.36,741.23 712.86,742.16 714.51,743.14 716.04,744.00 717.75,744.92 719.24,745.68 720.88,746.48 722.24,747.13 723.96,747.90 725.78,748.67 728.16,749.64 730.84,750.65 733.73,751.69 736.36,752.58 738.67,753.33 740.40,753.86 742.18,754.38 743.94,754.86 746.24,755.48 748.53,756.07 750.80,756.64 752.55,757.06 754.24,757.46 755.28,757.70 756.36,757.94 M 767.74,630.82 L 767.74,631.63 767.74,632.78 767.74,634.22 767.74,635.84 767.74,637.28 767.74,638.90 767.74,640.34 767.74,641.96 767.75,643.40 767.75,645.02 767.75,646.46 767.75,648.08 767.75,649.52 767.75,651.14 767.75,652.58 767.75,654.20 767.75,655.64 767.75,657.26 767.75,658.70 767.75,660.32 767.75,661.75 767.75,663.38 767.75,664.81 767.75,666.43 767.75,667.87 767.75,669.49 767.75,670.93 767.75,672.55 767.76,673.99 767.76,675.61 767.76,677.05 767.76,678.67 767.76,680.11 767.76,681.73 767.76,683.17 767.76,684.79 767.76,686.23 767.76,687.85 767.76,689.29 767.76,690.91 767.76,692.35 767.76,693.97 767.76,695.41 767.76,697.03 767.76,698.46 767.76,700.08 767.76,701.52 767.77,703.14 767.77,704.58 767.77,706.20 767.77,707.64 767.77,709.26 767.77,710.70 767.77,712.32 767.77,713.76 767.77,715.38 767.77,716.82 767.77,718.44 767.77,719.88 767.77,721.50 767.77,722.94 767.77,724.56 767.77,726.00 767.77,727.62 767.77,729.06 767.77,730.68 767.77,732.12 767.78,733.74 767.78,735.17 767.78,736.79 767.78,738.23 767.78,739.85 767.78,741.29 767.78,742.91 767.78,744.31 767.78,745.43 767.78,746.15 M 767.65,605.60 L 767.67,604.79 767.70,603.63 767.74,602.19 767.79,600.57 767.83,599.13 767.88,597.51 767.91,596.07 767.94,594.45 767.94,593.42 767.94,592.38 M 681.27,836.75 L 681.48,837.91 681.67,839.37 681.98,841.40 682.31,843.51 682.76,845.83 683.27,848.15 683.83,850.34 684.32,852.09 684.85,853.75 685.36,855.20 685.95,856.77 686.52,858.17 687.19,859.72 687.88,861.21 688.75,862.96 689.75,864.81 690.94,866.85 692.19,868.87 693.34,870.64 694.59,872.39 695.95,874.14 697.56,876.10 699.25,878.07 700.81,879.79 702.47,881.48 704.17,883.08 706.12,884.82 708.09,886.49 709.79,887.86 711.43,889.11 712.76,890.08 714.35,891.19 715.80,892.16 717.51,893.24 719.25,894.27 721.20,895.37 723.21,896.45 725.24,897.48 727.31,898.46 729.34,899.36 731.10,900.11 732.76,900.77 734.15,901.29 735.77,901.86 737.22,902.35 738.87,902.88 740.29,903.30 742.00,903.77 743.84,904.23 746.14,904.77 748.50,905.27 750.79,905.70 752.63,906.01 754.34,906.25 755.37,906.38 756.39,906.50 M 768.04,934.10 L 768.09,933.19 768.10,931.98 768.12,930.52 768.12,928.91 768.13,927.48 768.14,925.86 768.14,924.42 768.15,922.80 768.16,921.36 768.20,919.74 768.24,918.71 768.33,917.67 M 779.16,618.27 L 780.20,618.37 781.23,618.46 782.87,618.64 784.32,618.82 785.96,619.05 787.33,619.27 788.94,619.57 790.32,619.84 792.05,620.22 793.82,620.65 796.16,621.29 798.77,622.09 801.44,622.97 803.83,623.83 805.65,624.53 807.38,625.26 809.03,626.00 811.01,626.95 812.98,627.95 814.80,628.93 816.51,629.90 818.03,630.82 819.70,631.89 821.17,632.88 822.83,634.06 824.26,635.11 825.94,636.40 827.38,637.56 828.98,638.93 830.39,640.22 831.94,641.71 833.29,643.07 834.70,644.58 835.94,645.99 837.31,647.62 838.49,649.11 839.75,650.82 840.97,652.63 842.25,654.63 843.49,656.69 844.61,658.69 845.68,660.72 846.63,662.67 847.41,664.35 848.15,666.12 848.82,667.97 849.54,670.09 850.13,672.14 850.57,673.80 850.92,675.45 851.18,676.82 851.48,678.50 851.72,679.87 851.92,681.01 852.03,681.69 M 783.08,906.42 L 768.55,907.94 M 756.86,618.28 L 765.65,617.07 M 756.39,906.50 L 768.50,907.93 M 779.16,618.27 L 767.69,617.25 M 768.74,895.23 L 768.33,917.67 M 767.74,630.82 L 767.65,605.60 M 782.99,763.43 L 767.93,760.39 M 768.16,773.69 L 767.93,760.39 M 756.36,757.94 L 767.93,760.39 M 767.78,746.15 L 767.93,760.39 M 629.71,552.07 L 628.59,552.79 627.53,553.48 625.90,554.54 624.45,555.50 622.88,556.56 621.43,557.54 619.78,558.69 617.98,559.97 615.95,561.45 613.90,562.96 612.13,564.27 610.50,565.50 609.12,566.57 607.59,567.78 606.14,568.94 604.41,570.35 602.60,571.84 600.61,573.52 598.63,575.23 596.88,576.76 595.19,578.27 593.79,579.55 592.27,580.95 590.90,582.22 589.33,583.72 587.91,585.11 586.28,586.74 584.67,588.38 582.85,590.24 581.04,592.14 579.42,593.86 577.84,595.60 576.47,597.13 574.96,598.83 573.64,600.35 572.24,601.98 571.05,603.40 569.82,604.90 568.71,606.27 567.46,607.83 566.28,609.34 564.97,611.02 563.83,612.52 562.58,614.20 561.27,615.99 559.60,618.34 557.73,621.03 555.74,623.96 553.99,626.61 552.53,628.88 551.45,630.59 550.41,632.26 549.55,633.65 548.59,635.24 547.81,636.56 546.88,638.15 546.01,639.63 545.04,641.33 544.16,642.88 543.22,644.60 542.39,646.16 541.48,647.88 540.74,649.29 539.91,650.90 539.23,652.23 538.38,653.95 537.56,655.66 536.62,657.62 535.73,659.53 534.95,661.21 534.17,662.95 533.39,664.76 532.42,667.05 531.45,669.36 530.53,671.62 529.82,673.39 529.18,675.06 528.63,676.52 528.05,678.09 527.52,679.53 526.96,681.09 526.44,682.57 525.86,684.27 525.25,686.13 524.51,688.42 523.79,690.72 523.13,692.89 522.60,694.64 522.11,696.34 521.68,697.87 521.22,699.58 520.75,701.36 520.18,703.60 519.60,705.92 519.06,708.19 518.65,709.98 518.26,711.74 517.90,713.47 517.49,715.43 517.12,717.32 516.79,718.98 516.49,720.64 516.23,722.14 515.94,723.83 515.72,725.23 515.47,726.77 515.27,728.07 515.02,729.73 514.78,731.48 514.52,733.51 514.29,735.50 514.09,737.19 513.90,738.93 513.72,740.68 513.52,742.70 513.32,744.69 513.16,746.38 513.01,748.04 512.91,749.45 512.80,751.15 512.72,752.93 512.64,754.96 512.56,756.97 512.50,758.66 512.45,760.29 512.40,761.69 512.35,763.31 512.33,764.75 512.32,766.37 512.34,767.81 512.37,769.42 512.41,770.82 512.45,772.44 512.49,773.84 512.54,775.51 512.60,776.94 512.66,778.60 512.73,780.03 512.81,781.69 512.89,783.12 513.00,784.71 513.11,786.03 513.25,787.58 513.38,788.98 513.55,790.71 513.70,792.22 513.88,793.89 514.02,795.22 514.19,796.77 514.35,798.17 514.56,799.88 514.77,801.37 515.02,803.06 515.24,804.47 515.51,806.14 515.73,807.53 516.02,809.19 516.26,810.58 516.56,812.26 516.81,813.64 517.12,815.31 517.44,816.95 517.84,818.87 518.27,820.82 518.66,822.54 519.08,824.32 519.51,826.11 520.09,828.45 520.78,831.15 521.59,834.19 522.45,837.22 523.25,839.90 523.95,842.19 524.49,843.94 525.02,845.61 525.49,847.10 526.03,848.77 526.52,850.27 527.08,851.93 527.70,853.65 528.50,855.81 529.36,858.07 530.21,860.31 530.91,862.12 531.59,863.85 532.35,865.70 533.32,868.03 534.45,870.62 535.56,873.12 536.62,875.43 537.58,877.47 538.55,879.53 539.52,881.55 540.38,883.30 541.31,885.12 542.22,886.85 543.31,888.89 544.40,890.89 545.37,892.67 546.33,894.42 547.33,896.17 548.70,898.52 550.35,901.24 552.24,904.31 554.21,907.41 556.21,910.49 558.26,913.54 560.32,916.50 562.23,919.18 564.01,921.61 565.61,923.77 567.22,925.89 568.77,927.89 570.14,929.61 571.48,931.24 572.69,932.69 574.05,934.31 575.27,935.76 576.60,937.32 577.83,938.75 579.28,940.39 580.64,941.89 582.20,943.56 583.59,945.04 585.18,946.70 586.59,948.16 588.19,949.80 589.62,951.25 591.24,952.87 592.71,954.28 594.38,955.85 595.88,957.22 597.58,958.77 599.08,960.13 600.81,961.68 602.55,963.20 604.52,964.89 606.46,966.49 608.16,967.89 609.85,969.24 611.58,970.59 613.58,972.15 615.58,973.69 617.34,975.02 618.97,976.21 620.40,977.23 621.97,978.31 623.43,979.31 625.01,980.39 626.46,981.38 628.05,982.44 629.52,983.41 631.13,984.46 632.61,985.39 634.28,986.41 635.99,987.43 637.91,988.55 639.85,989.67 641.60,990.68 643.35,991.67 645.10,992.64 647.05,993.70 649.08,994.75 651.11,995.78 653.15,996.79 655.21,997.79 657.26,998.77 659.32,999.75 661.39,1000.71 663.50,1001.68 665.82,1002.72 668.16,1003.75 670.50,1004.77 672.70,1005.70 675.11,1006.68 677.78,1007.72 680.72,1008.84 683.75,1009.93 686.79,1010.99 689.85,1012.01 692.92,1012.99 696.01,1013.93 699.03,1014.80 701.72,1015.55 704.07,1016.17 705.85,1016.62 707.64,1017.07 709.36,1017.48 711.30,1017.92 713.28,1018.35 715.26,1018.76 717.28,1019.17 719.32,1019.57 721.34,1019.95 723.39,1020.31 725.36,1020.65 727.08,1020.93 728.77,1021.19 730.22,1021.40 731.88,1021.64 733.31,1021.83 734.96,1022.04 736.66,1022.24 738.65,1022.46 740.65,1022.67 742.38,1022.85 744.07,1023.01 745.51,1023.13 747.21,1023.26 748.97,1023.38 750.94,1023.51 752.93,1023.62 754.63,1023.71 756.32,1023.78 757.75,1023.84 759.39,1023.90 760.83,1023.94 762.45,1023.97 763.89,1023.99 765.51,1024.00 766.95,1024.00 768.56,1023.99 770.00,1023.97 771.65,1023.94 773.09,1023.91 774.73,1023.86 776.09,1023.82 777.69,1023.76 779.07,1023.69 780.74,1023.61 782.20,1023.53 783.89,1023.43 785.34,1023.32 787.00,1023.19 788.37,1023.07 789.97,1022.93 791.33,1022.80 793.03,1022.63 794.49,1022.48 796.18,1022.29 797.55,1022.14 799.14,1021.94 800.51,1021.76 802.20,1021.53 803.66,1021.32 805.38,1021.07 806.76,1020.86 808.42,1020.60 809.76,1020.38 811.49,1020.09 813.15,1019.79 815.16,1019.42 817.15,1019.04 818.93,1018.68 820.72,1018.31 822.43,1017.93 824.37,1017.50 826.34,1017.06 828.05,1016.67 829.84,1016.23 831.61,1015.78 833.97,1015.15 836.67,1014.40 839.71,1013.54 842.80,1012.63 845.89,1011.67 848.95,1010.68 852.01,1009.64 855.05,1008.57 858.08,1007.47 861.04,1006.36 863.74,1005.31 866.07,1004.37 867.89,1003.61 869.60,1002.87 871.36,1002.11 873.35,1001.24 875.42,1000.32 877.19,999.52 878.90,998.72 880.26,998.06 881.95,997.22 883.68,996.34 885.69,995.32 887.72,994.27 889.74,993.22 891.76,992.14 893.72,991.07 895.48,990.07 897.19,989.08 898.70,988.18 900.35,987.19 901.86,986.28 903.50,985.29 905.00,984.37 906.62,983.35 908.11,982.40 909.70,981.34 911.16,980.35 912.73,979.26 914.18,978.25 915.75,977.15 917.20,976.14 918.88,974.96 920.69,973.62 922.96,971.89 925.28,970.07 927.59,968.24 929.46,966.74 931.20,965.33 932.65,964.13 934.23,962.79 935.66,961.53 937.32,960.04 938.83,958.65 940.50,957.10 941.98,955.72 943.56,954.24 944.93,952.95 946.41,951.51 947.76,950.16 949.35,948.53 950.99,946.82 952.81,944.93 954.61,943.05 956.20,941.35 957.80,939.59 959.36,937.82 961.10,935.83 962.77,933.90 964.19,932.24 965.55,930.63 966.74,929.18 968.08,927.53 969.26,926.04 970.56,924.36 971.93,922.54 973.62,920.25 975.36,917.87 977.03,915.57 978.32,913.73 979.48,912.03 980.45,910.55 981.49,908.94 982.45,907.46 983.48,905.85 984.43,904.36 985.44,902.73 986.36,901.23 987.38,899.53 988.41,897.77 989.52,895.82 990.64,893.81 991.73,891.82 992.82,889.82 993.86,887.87 994.79,886.12 995.72,884.33 996.61,882.51 997.58,880.48 998.56,878.40 999.55,876.28 1000.64,873.89 1001.80,871.31 1002.92,868.73 1003.92,866.34 1004.78,864.18 1005.61,862.05 1006.41,859.97 1007.09,858.18 1007.72,856.50 1008.23,855.11 1008.82,853.48 1009.32,852.04 1009.89,850.36 1010.44,848.69 1011.07,846.73 1011.69,844.75 1012.26,842.95 1012.80,841.22 1013.24,839.74 1013.74,838.06 1014.21,836.36 1014.73,834.44 1015.23,832.51 1015.66,830.82 1016.10,829.06 1016.46,827.57 1016.87,825.85 1017.21,824.42 1017.60,822.75 1017.91,821.38 1018.27,819.73 1018.56,818.35 1018.88,816.68 1019.14,815.30 1019.45,813.62 1019.74,811.98 1020.08,810.05 1020.42,808.08 1020.71,806.33 1021.00,804.55 1021.21,803.14 1021.45,801.47 1021.64,800.08 1021.85,798.37 1022.02,796.98 1022.21,795.34 1022.36,793.98 1022.54,792.29 1022.70,790.82 1022.86,789.12 1023.00,787.75 1023.14,786.15 1023.25,784.79 1023.36,783.14 1023.45,781.69 1023.54,780.04 1023.61,778.60 1023.68,776.98 1023.75,775.54 1023.82,773.92 1023.89,772.49 1023.95,770.86 1023.98,769.43 1024.00,767.81 1024.00,766.37 1023.99,764.75 1023.98,763.31 1023.96,761.69 1023.94,760.25 1023.91,758.63 1023.88,757.19 1023.83,755.57 1023.79,754.13 1023.73,752.51 1023.67,751.07 1023.58,749.41 1023.48,747.96 1023.34,746.32 1023.22,744.93 1023.08,743.33 1022.95,741.94 1022.80,740.30 1022.67,738.88 1022.50,737.18 1022.34,735.79 1022.14,734.12 1021.95,732.73 1021.70,731.02 1021.50,729.64 1021.24,727.95 1020.98,726.29 1020.67,724.29 1020.33,722.26 1020.03,720.49 1019.70,718.66 1019.36,716.92 1018.96,714.97 1018.53,712.99 1018.08,710.95 1017.53,708.58 1016.99,706.24 1016.45,703.95 1016.02,702.18 1015.55,700.45 1015.14,698.98 1014.64,697.24 1014.13,695.49 1013.44,693.17 1012.62,690.49 1011.67,687.48 1010.65,684.42 1009.58,681.38 1008.47,678.35 1007.36,675.39 1006.32,672.70 1005.35,670.27 1004.46,668.12 1003.55,666.02 1002.62,663.94 1001.65,661.82 1000.59,659.51 999.50,657.20 998.40,654.89 997.36,652.80 996.32,650.77 995.24,648.75 994.10,646.65 992.82,644.33 991.51,641.97 990.23,639.71 989.16,637.86 988.16,636.16 987.25,634.65 986.26,633.01 985.34,631.51 984.34,629.88 983.40,628.38 982.37,626.77 981.42,625.30 980.33,623.67 979.16,621.97 977.82,620.04 976.42,618.06 975.18,616.31 973.99,614.67 972.95,613.25 971.74,611.66 970.57,610.16 969.17,608.39 967.71,606.58 966.07,604.55 964.47,602.61 963.06,600.92 961.64,599.29 960.17,597.64 958.48,595.76 956.71,593.83 955.12,592.11 953.52,590.41 952.10,588.95 950.49,587.32 949.04,585.90 947.39,584.30 945.92,582.89 944.27,581.31 942.78,579.92 941.06,578.35 939.31,576.81 937.35,575.10 935.43,573.46 933.75,572.02 932.09,570.64 930.38,569.26 928.39,567.69 926.29,566.07 924.25,564.51 922.23,562.99 920.25,561.53 918.22,560.05 916.10,558.57 914.02,557.14 912.20,555.91 910.47,554.76 908.70,553.60 906.42,552.15 903.81,550.53 901.19,548.93 898.86,547.55 897.02,546.48 895.27,545.48 893.52,544.50 891.56,543.43 889.59,542.38 887.80,541.44 886.03,540.53 884.54,539.77 882.92,538.95 881.56,538.28 879.89,537.47 878.44,536.78 876.75,536.00 875.37,535.37 873.66,534.61 871.84,533.82 869.49,532.80 866.85,531.69 863.98,530.53 861.28,529.48 858.82,528.54 856.58,527.71 854.15,526.83 851.45,525.90 848.47,524.91 845.49,523.96 842.83,523.13 840.53,522.43 838.77,521.91 837.01,521.41 835.30,520.95 833.37,520.45 831.40,519.95 829.43,519.46 827.42,518.96 825.45,518.50 823.73,518.10 821.96,517.71 820.18,517.34 818.20,516.95 816.16,516.56 814.18,516.19 812.14,515.82 810.10,515.46 808.07,515.13 806.02,514.81 804.04,514.53 802.32,514.29 800.61,514.07 799.15,513.89 797.49,513.69 796.06,513.52 794.47,513.34 793.09,513.19 791.46,513.04 790.01,512.91 788.36,512.79 786.91,512.68 785.26,512.57 783.83,512.48 782.23,512.38 780.85,512.30 779.22,512.21 777.77,512.15 776.12,512.09 774.68,512.06 773.06,512.03 771.62,512.01 770.00,512.00 768.56,512.00 766.95,512.00 765.51,512.00 763.89,512.01 762.45,512.03 760.83,512.08 759.39,512.13 757.77,512.21 756.33,512.29 754.71,512.37 753.27,512.46 751.68,512.56 750.20,512.66 748.64,512.77 747.11,512.89 745.70,513.00 744.25,513.13 742.97,513.25 741.42,513.39 740.03,513.53 738.37,513.71 736.96,513.88 735.28,514.10 733.89,514.28 732.21,514.51 730.82,514.71 729.13,514.95 727.75,515.16 726.07,515.42 724.69,515.66 723.01,515.95 721.63,516.21 719.97,516.52 718.59,516.78 716.92,517.11 715.54,517.38 713.88,517.73 712.18,518.11 709.94,518.62 707.64,519.17 705.35,519.72 703.56,520.17 701.77,520.63 700.00,521.11 697.67,521.77 695.06,522.54 692.44,523.32 690.10,524.04 688.33,524.60 686.60,525.17 684.93,525.73 683.02,526.39 681.07,527.08 679.31,527.70 677.65,528.30 676.20,528.85 674.57,529.48 672.73,530.21 670.48,531.12 668.13,532.09 665.80,533.07 663.61,534.03 661.28,535.08 658.96,536.14 656.67,537.22 654.58,538.22 652.54,539.22 650.50,540.25 648.48,541.29 646.50,542.33 644.55,543.38 642.87,544.29 641.09,545.27 639.32,546.29 637.77,547.19 636.31,548.05 M 629.71,552.07 L 631.71,550.77 M 636.31,548.05 L 631.71,550.77 631.71,550.77 M 782.99,763.43 L 784.80,763.82 786.94,764.31 790.00,765.04 793.06,765.85 796.15,766.74 799.22,767.72 802.27,768.77 805.31,769.91 808.34,771.16 811.42,772.53 814.56,774.07 817.72,775.77 820.83,777.59 823.88,779.55 826.90,781.68 829.96,784.05 832.95,786.59 835.80,789.28 838.42,792.04 840.85,794.91 843.08,797.84 845.14,800.87 847.05,804.04 848.73,807.17 850.22,810.33 851.46,813.40 852.51,816.48 853.36,819.53 854.06,822.59 854.60,825.67 854.99,828.76 855.23,831.83 855.31,834.91 855.25,837.98 855.04,841.08 854.70,844.15 854.20,847.24 853.56,850.30 852.75,853.39 851.77,856.51 850.60,859.63 849.24,862.79 847.70,865.90 845.94,869.05 843.99,872.12 841.78,875.20 839.32,878.25 836.54,881.32 833.51,884.33 830.34,887.17 827.13,889.75 824.01,892.01 820.95,894.01 817.93,895.78 814.84,897.43 811.73,898.93 808.64,900.27 805.58,901.45 802.53,902.50 799.44,903.42 796.35,904.23 793.26,904.92 790.19,905.49 787.12,905.94 784.94,906.23 783.08,906.42 M 768.16,773.69 L 768.16,774.44 768.17,775.57 768.18,776.98 768.18,778.60 768.19,780.04 768.20,781.66 768.21,783.10 768.21,784.72 768.22,786.16 768.23,787.78 768.23,789.22 768.24,790.84 768.25,792.28 768.26,793.90 768.26,795.34 768.27,796.96 768.28,798.40 768.29,800.02 768.29,801.46 768.30,803.08 768.31,804.52 768.31,806.14 768.32,807.57 768.33,809.19 768.34,810.63 768.34,812.25 768.35,813.69 768.36,815.31 768.36,816.75 768.37,818.37 768.38,819.81 768.39,821.43 768.39,822.87 768.40,824.49 768.41,825.93 768.42,827.58 768.43,829.31 768.44,831.25 768.45,833.29 768.46,835.01 768.46,836.73 768.47,838.15 768.47,839.79 768.48,841.23 768.49,842.85 768.50,844.28 768.50,845.90 768.51,847.34 768.52,848.96 768.52,850.40 768.53,852.02 768.54,853.46 768.55,855.08 768.55,856.52 768.56,858.14 768.57,859.58 768.58,861.20 768.58,862.64 768.59,864.26 768.60,865.70 768.60,867.32 768.61,868.76 768.62,870.38 768.63,871.82 768.63,873.44 768.64,874.88 768.65,876.50 768.65,877.94 768.66,879.56 768.67,880.99 768.68,882.61 768.68,884.05 768.69,885.67 768.70,887.11 768.71,888.73 768.71,890.19 768.72,891.82 768.73,893.29 768.73,894.42 768.74,895.23 M 756.86,618.28 L 755.94,618.40 754.82,618.56 752.99,618.83 751.37,619.09 749.64,619.40 748.22,619.67 746.58,620.01 744.87,620.41 742.61,620.98 739.94,621.72 736.95,622.63 733.97,623.63 731.29,624.60 728.88,625.56 726.69,626.51 724.40,627.59 722.14,628.72 719.89,629.93 717.79,631.13 715.71,632.41 713.76,633.68 712.07,634.83 710.47,636.01 709.01,637.14 707.37,638.48 705.94,639.71 704.44,641.08 703.11,642.36 701.68,643.81 700.42,645.16 699.08,646.69 697.87,648.15 696.57,649.80 695.46,651.30 694.33,652.89 693.37,654.34 692.38,655.92 691.51,657.41 690.64,658.97 689.91,660.38 689.14,661.96 688.37,663.72 687.48,665.93 686.64,668.19 685.90,670.39 685.36,672.13 684.89,673.90 684.48,675.62 684.06,677.57 683.71,679.48 683.43,681.15 683.22,682.85 683.06,684.36 682.92,686.08 682.83,687.49 682.77,689.04 682.75,690.35 682.77,691.92 682.82,693.29 682.92,694.91 683.08,696.61 683.31,698.59 683.60,700.69 683.88,702.43 684.24,704.18 684.65,705.86 685.29,708.07 685.99,710.29 686.80,712.53 687.51,714.31 688.31,716.13 689.06,717.66 689.90,719.30 690.71,720.73 691.66,722.28 692.61,723.74 693.75,725.34 694.90,726.83 696.30,728.52 697.65,730.04 699.23,731.69 700.69,733.10 702.32,734.58 703.78,735.80 705.34,737.03 706.75,738.08 708.30,739.19 709.76,740.19 711.36,741.23 712.86,742.16 714.51,743.14 716.04,744.00 717.75,744.92 719.24,745.68 720.88,746.48 722.24,747.13 723.96,747.90 725.78,748.67 728.16,749.64 730.84,750.65 733.73,751.69 736.36,752.58 738.67,753.33 740.40,753.86 742.18,754.38 743.94,754.86 746.24,755.48 748.53,756.07 750.80,756.64 752.55,757.06 754.24,757.46 755.28,757.70 756.36,757.94 M 767.74,630.82 L 767.74,631.63 767.74,632.78 767.74,634.22 767.74,635.84 767.74,637.28 767.74,638.90 767.74,640.34 767.74,641.96 767.75,643.40 767.75,645.02 767.75,646.46 767.75,648.08 767.75,649.52 767.75,651.14 767.75,652.58 767.75,654.20 767.75,655.64 767.75,657.26 767.75,658.70 767.75,660.32 767.75,661.75 767.75,663.38 767.75,664.81 767.75,666.43 767.75,667.87 767.75,669.49 767.75,670.93 767.75,672.55 767.76,673.99 767.76,675.61 767.76,677.05 767.76,678.67 767.76,680.11 767.76,681.73 767.76,683.17 767.76,684.79 767.76,686.23 767.76,687.85 767.76,689.29 767.76,690.91 767.76,692.35 767.76,693.97 767.76,695.41 767.76,697.03 767.76,698.46 767.76,700.08 767.76,701.52 767.77,703.14 767.77,704.58 767.77,706.20 767.77,707.64 767.77,709.26 767.77,710.70 767.77,712.32 767.77,713.76 767.77,715.38 767.77,716.82 767.77,718.44 767.77,719.88 767.77,721.50 767.77,722.94 767.77,724.56 767.77,726.00 767.77,727.62 767.77,729.06 767.77,730.68 767.77,732.12 767.78,733.74 767.78,735.17 767.78,736.79 767.78,738.23 767.78,739.85 767.78,741.29 767.78,742.91 767.78,744.31 767.78,745.43 767.78,746.15 M 767.65,605.60 L 767.67,604.79 767.70,603.63 767.74,602.19 767.79,600.57 767.83,599.13 767.88,597.51 767.91,596.07 767.94,594.45 767.94,593.42 767.94,592.38 M 681.27,836.75 L 681.48,837.91 681.67,839.37 681.98,841.40 682.31,843.51 682.76,845.83 683.27,848.15 683.83,850.34 684.32,852.09 684.85,853.75 685.36,855.20 685.95,856.77 686.52,858.17 687.19,859.72 687.88,861.21 688.75,862.96 689.75,864.81 690.94,866.85 692.19,868.87 693.34,870.64 694.59,872.39 695.95,874.14 697.56,876.10 699.25,878.07 700.81,879.79 702.47,881.48 704.17,883.08 706.12,884.82 708.09,886.49 709.79,887.86 711.43,889.11 712.76,890.08 714.35,891.19 715.80,892.16 717.51,893.24 719.25,894.27 721.20,895.37 723.21,896.45 725.24,897.48 727.31,898.46 729.34,899.36 731.10,900.11 732.76,900.77 734.15,901.29 735.77,901.86 737.22,902.35 738.87,902.88 740.29,903.30 742.00,903.77 743.84,904.23 746.14,904.77 748.50,905.27 750.79,905.70 752.63,906.01 754.34,906.25 755.37,906.38 756.39,906.50 M 768.04,934.10 L 768.09,933.19 768.10,931.98 768.12,930.52 768.12,928.91 768.13,927.48 768.14,925.86 768.14,924.42 768.15,922.80 768.16,921.36 768.20,919.74 768.24,918.71 768.33,917.67 M 779.16,618.27 L 780.20,618.37 781.23,618.46 782.87,618.64 784.32,618.82 785.96,619.05 787.33,619.27 788.94,619.57 790.32,619.84 792.05,620.22 793.82,620.65 796.16,621.29 798.77,622.09 801.44,622.97 803.83,623.83 805.65,624.53 807.38,625.26 809.03,626.00 811.01,626.95 812.98,627.95 814.80,628.93 816.51,629.90 818.03,630.82 819.70,631.89 821.17,632.88 822.83,634.06 824.26,635.11 825.94,636.40 827.38,637.56 828.98,638.93 830.39,640.22 831.94,641.71 833.29,643.07 834.70,644.58 835.94,645.99 837.31,647.62 838.49,649.11 839.75,650.82 840.97,652.63 842.25,654.63 843.49,656.69 844.61,658.69 845.68,660.72 846.63,662.67 847.41,664.35 848.15,666.12 848.82,667.97 849.54,670.09 850.13,672.14 850.57,673.80 850.92,675.45 851.18,676.82 851.48,678.50 851.72,679.87 851.92,681.01 852.03,681.69 M 783.08,906.42 L 768.55,907.94 M 756.86,618.28 L 765.65,617.07 M 756.39,906.50 L 768.50,907.93 M 779.16,618.27 L 767.69,617.25 M 768.74,895.23 L 768.33,917.67 M 767.74,630.82 L 767.65,605.60 M 782.99,763.43 L 767.93,760.39 M 768.16,773.69 L 767.93,760.39 M 756.36,757.94 L 767.93,760.39 M 767.78,746.15 L 767.93,760.39" stroke-width="45.0" fill="none" stroke="url(&quot;#theme-accent-gradient-linear&quot;) rgb(90, 110, 216)"/></g></svg>