<svg xmlns="http://www.w3.org/2000/svg" viewBox="69.09100341796875 -41 885.8179931640625 1106" width="1024" height="1024" class="colorable-icon reset-top-left-margin" data-export-recolorable-svg="true" overflow="visible" xmlns:xlink="http://www.w3.org/1999/xlink" fill="rgb(0, 0, 0)" stroke="none"><g id="skeleton-paths" stroke-width="45.0" fill="rgb(0, 0, 0)" stroke="none"><path id="path-0-0" d="M739.412 544.055L740.023 545.487L740.650 546.983L741.551 549.190L742.334 551.152L743.169 553.296L744.071 555.624L745.218 558.579L746.546 561.979L747.979 565.633L749.313 569.030L750.476 571.988L751.388 574.311L752.203 576.383L752.919 578.204L753.732 580.274L754.648 582.600L755.808 585.553L757.120 588.886L758.426 592.213L759.588 595.168L760.501 597.490L761.316 599.563L762.032 601.384L762.845 603.453L763.760 605.780L764.923 608.738L766.262 612.140L767.698 615.793L769.030 619.184L770.186 622.127L771.092 624.436L771.956 626.633L772.871 628.961L774.029 631.913L775.337 635.252L776.638 638.577L777.790 641.524L778.694 643.837L779.554 646.036L780.465 648.362L781.620 651.314L782.926 654.650L784.227 657.978L785.380 660.926L786.286 663.244L787.146 665.442L788.061 667.759L789.210 670.629L790.429 673.621L791.666 676.605L792.843 679.388L794.193 682.479L795.728 685.829L797.362 689.231L798.897 692.219L800.202 694.605L801.477 696.757L802.658 698.636L804.032 700.697L805.546 702.828L807.306 705.222L809.158 707.656L810.817 709.805L812.462 711.910L813.938 713.798L815.586 715.910L817.052 717.795L818.579 719.774L819.925 721.541L821.467 723.602L823.154 725.901L825.304 728.866L827.705 732.206L830.103 735.556L832.228 738.536L833.883 740.861L835.372 742.959L836.659 744.775L838.053 746.746L839.340 748.568L840.735 750.546L842.020 752.369L843.411 754.345L844.693 756.166L846.174 758.273L847.777 760.550L849.615 763.160L851.492 765.822L853.322 768.416L855.117 770.958L856.876 773.447L858.434 775.650L859.921 777.745L861.211 779.560L862.613 781.526L863.909 783.342L865.317 785.311L866.614 787.127L868.019 789.098L869.310 790.917L870.704 792.887L871.989 794.704L873.471 796.805L875.108 799.139L877.163 802.089L879.286 805.148L881.332 808.105L882.953 810.450L884.415 812.568L885.680 814.400L887.052 816.387L888.320 818.221L889.696 820.212L890.965 822.047L892.343 824.031L893.618 825.858L895.110 827.958L896.765 830.281L898.878 833.269L901.152 836.599L903.322 839.920L905.108 842.919L906.456 845.570L907.544 848.136L908.380 850.668L908.981 852.884L909.394 855.045L909.637 856.831L909.822 858.933L909.909 861.203L909.863 863.992L909.672 866.890L909.423 868.934L909.194 870.484" stroke="url(&quot;#theme-accent-gradient-linear&quot;) rgb(90, 110, 216)" stroke-width="45" fill="none" stroke-linecap="round" stroke-linejoin="round"/><path id="path-1-0" d="M681.694 639.388L682.637 640.993L683.516 642.486L684.857 644.769L686.226 647.096L687.891 649.924L689.630 652.877L691.293 655.698L692.656 658.011L693.954 660.216L695.249 662.416L696.681 664.848L698.110 667.273L699.393 669.448L700.650 671.579L701.775 673.489L703.042 675.642L704.343 677.854L705.776 680.288L707.204 682.712L708.488 684.888L709.783 687.087L711.152 689.411L712.820 692.243L714.560 695.195L716.223 698.009L717.588 700.312L718.893 702.512L720.269 704.831L722.017 707.774L724.001 711.116L725.984 714.454L727.732 717.398L729.105 719.708L730.411 721.908L731.787 724.226L733.536 727.169L735.606 730.620L737.928 734.375L740.204 737.869L742.317 740.847L744.066 743.087L745.795 745.111L747.396 746.883L749.285 748.920L751.048 750.789L752.974 752.818L754.633 754.564L756.427 756.455L758.064 758.183L759.960 760.185L761.716 762.038L763.701 764.131L765.473 766L767.468 768.102L769.240 769.970L771.239 772.076L773.016 773.949L774.949 775.985L776.607 777.734L778.399 779.627L780.032 781.356L781.924 783.360L783.682 785.223L785.717 787.375L787.773 789.549L790.048 791.956L792.308 794.349L794.308 796.469L796.319 798.599L798.074 800.457L800.073 802.573L801.856 804.460L803.798 806.516L805.461 808.277L807.253 810.168L808.885 811.882L810.772 813.861L812.520 815.702L814.493 817.796L816.253 819.676L818.229 821.797L819.981 823.686L821.956 825.823L823.715 827.730L825.627 829.809L827.263 831.591L829.023 833.514L830.620 835.264L832.468 837.292L834.182 839.172L836.124 841.301L837.862 843.203L839.826 845.347L841.576 847.255L843.482 849.327L845.118 851.102L846.886 853.016L848.501 854.758L850.375 856.771L852.116 858.632L854.092 860.731L855.864 862.598L857.872 864.688L859.663 866.522L861.737 868.609L863.837 870.661L866.223 872.939L868.662 875.162L870.885 877.098L873.130 878.919L875.302 880.485L877.700 882.011L880.175 883.288L882.708 884.255L885.194 884.993L887.671 885.416L889.765 885.621L891.976 885.568L893.894 885.309L896.142 884.851L898.198 884.195L900.644 883.079L902.280 882.189L904.056 880.982" stroke="url(&quot;#theme-accent-gradient-linear&quot;) rgb(90, 110, 216)" stroke-width="45" fill="none" stroke-linecap="round" stroke-linejoin="round"/><path id="path-2-0" d="M678.791 613.266L679.823 611.925L681.166 610.149L683.330 607.230L685.771 603.831L688.358 600.101L690.945 596.224L693.381 592.429L695.514 588.996L697.288 586.038L698.660 583.682L699.932 581.430L700.992 579.523L702.109 577.464L703.011 575.760L704.065 573.715L705.010 571.838L706.081 569.693L707.012 567.798L707.973 565.773L708.808 563.957L709.692 561.872L710.560 559.710L711.539 557.141L712.483 554.590L713.307 552.287L714.045 550.118L714.695 548.111L715.428 545.615L715.928 543.866L716.428 541.914" stroke="url(&quot;#theme-accent-gradient-linear&quot;) rgb(90, 110, 216)" stroke-width="45" fill="none" stroke-linecap="round" stroke-linejoin="round"/><path id="path-3-0" d="M266.612 359.794L267.739 360.408L269.314 361.267L271.549 362.485L274.023 363.833L276.562 365.217L279.089 366.592L281.632 367.969L284.181 369.335L286.723 370.681L289.283 372.021L291.822 373.339L293.997 374.463L296.113 375.550L297.815 376.421L299.915 377.490L301.723 378.410L303.821 379.477L305.525 380.347L307.615 381.422L309.453 382.377L311.680 383.549L313.816 384.682L316.339 386.032L318.831 387.367L321.129 388.601L323.384 389.807L325.628 391.004L328.118 392.335L330.606 393.669L332.844 394.872L335.093 396.077L337.332 397.271L339.820 398.602L342.310 399.937L344.554 401.142L346.807 402.341L349.048 403.520L351.539 404.822L354.099 406.153L356.650 407.479L359.222 408.814L361.733 410.117L363.998 411.293L366.262 412.468L368.503 413.634L370.989 414.931L373.543 416.269L376.087 417.607L378.644 418.955L381.204 420.306L383.879 421.717L386.843 423.280L389.865 424.876L392.814 426.434L395.476 427.841L398.028 429.190L400.583 430.539L403.126 431.881L405.681 433.230L408.237 434.580L410.779 435.922L413.335 437.272L415.891 438.623L418.560 440.038L421.514 441.608L424.531 443.216L427.478 444.788L430.138 446.208L432.687 447.569L435.237 448.929L437.774 450.283L440.324 451.643L442.875 453.003L445.537 454.423L448.487 455.995L451.505 457.601L454.458 459.166L457.128 460.573L459.688 461.913L462.250 463.250L464.799 464.579L467.361 465.915L469.923 467.251L472.472 468.580L475.032 469.916L477.527 471.219L479.774 472.393L482.037 473.573L484.291 474.746L486.792 476.048L489.357 477.384L491.900 478.711L494.460 480.047L497.097 481.436L499.837 482.939L502.714 484.623L504.803 485.914L506.433 486.999" stroke="url(&quot;#theme-accent-gradient-linear&quot;) rgb(90, 110, 216)" stroke-width="45" fill="none" stroke-linecap="round" stroke-linejoin="round"/><path id="path-4-0" d="M227.628 420.598L228.923 421.841L230.223 423.100L232.266 425.104L234.085 426.915L236.121 428.976L237.918 430.819L239.928 432.907L241.702 434.773L243.688 436.884L245.444 438.769L247.410 440.900L249.148 442.799L251.136 444.988L253.117 447.185L255.323 449.646L257.563 452.159L259.785 454.661L262.014 457.177L264.200 459.645L266.153 461.851L268.151 464.106L270.115 466.322L272.308 468.797L274.497 471.268L276.452 473.473L278.453 475.726L280.422 477.938L282.622 480.407L284.822 482.871L286.789 485.069L288.695 487.192L290.299 488.976L292.040 490.916L293.630 492.692L295.474 494.755L297.179 496.664L299.109 498.817L300.835 500.731L302.714 502.802L304.333 504.577L306.092 506.500L307.704 508.260L309.577 510.304L311.307 512.193L313.259 514.327L314.997 516.228L316.883 518.292L318.503 520.065L320.262 521.988L321.875 523.749L323.748 525.792L325.478 527.682L327.431 529.816L329.168 531.717L331.053 533.780L332.673 535.553L334.432 537.476L336.045 539.237L337.919 541.281L339.650 543.171L341.602 545.305L343.339 547.206L345.224 549.269L346.843 551.041L348.602 552.964L350.216 554.725L352.090 556.770L353.821 558.660L355.774 560.793L357.513 562.694L359.468 564.832L361.203 566.729L363.084 568.783L364.707 570.546L366.476 572.459L368.103 574.214L369.990 576.257L371.726 578.149L373.681 580.285L375.425 582.185L377.449 584.354L379.534 586.493L381.948 588.810L384.479 590.956L387.140 592.734L389.760 594.144L392.475 595.184L395.039 595.950L397.656 596.528L400.156 596.921L402.340 597.201L404.532 597.371L406.380 597.454L408.557 597.475L410.770 597.401L413.256 597.252L415.770 597.023L417.872 596.788L420.020 596.476L421.763 596.180L423.962 595.749L426.133 595.247L428.767 594.574L431.469 593.792L434.250 592.882L436.925 591.911L439.472 590.876L441.618 589.942L443.765 588.911L445.683 587.919L447.823 586.736L449.753 585.592L451.809 584.287L453.680 583.025L455.755 581.526L457.676 580.049L459.771 578.327L461.587 576.734L463.452 574.987L465.063 573.382L466.819 571.525L468.428 569.722L470.167 567.667L471.679 565.787L473.324 563.656L475.050 561.330L477.202 558.357L479.595 554.982L481.944 551.627L484.021 548.603L485.607 546.249L487.031 544.071L488.240 542.188L489.544 540.135L490.738 538.239L492.069 536.115L493.504 533.808L495.311 530.900L497.355 527.592L499.389 524.282L501.171 521.358L502.562 519.062L503.880 516.868L505.266 514.544L506.957 511.686L508.711 508.681L510.005 506.455L510.903 504.866" stroke="url(&quot;#theme-accent-gradient-linear&quot;) rgb(90, 110, 216)" stroke-width="45" fill="none" stroke-linecap="round" stroke-linejoin="round"/><path id="path-5-0" d="M225.610 404.856L226.437 403.230L227.398 401.337L228.459 399.241L229.536 397.113L230.394 395.410L231.484 393.258L232.371 391.502L233.444 389.395L234.313 387.696L235.419 385.553L236.326 383.806L237.434 381.683L238.481 379.684L239.798 377.174L241.135 374.628L242.353 372.309L243.504 370.117L244.482 368.254L245.302 366.695L245.899 365.559" stroke="url(&quot;#theme-accent-gradient-linear&quot;) rgb(90, 110, 216)" stroke-width="45" fill="none" stroke-linecap="round" stroke-linejoin="round"/><path id="path-6-0" d="M288.853 284.140L290.326 281.359L291.875 278.424L293.771 274.846L295.373 271.833L296.754 269.245L298.118 266.692L299.480 264.143L300.835 261.607L302.193 259.063L303.513 256.587L304.702 254.358L305.905 252.107L307.108 249.857L308.443 247.361L309.811 244.806L311.169 242.272L312.536 239.734L313.869 237.267L315.071 235.046L316.287 232.802L317.504 230.556L318.851 228.071L320.194 225.594L321.400 223.370L322.617 221.127L323.832 218.884L325.179 216.398L326.545 213.878L327.734 211.685L328.948 209.446L330.101 207.319L331.466 204.801L332.848 202.251L334.253 199.658L335.630 197.118L336.969 194.649L338.175 192.426L339.391 190.182L340.607 187.940L341.955 185.457L343.302 182.980L344.515 180.756L345.743 178.518L346.973 176.287L348.337 173.814L349.699 171.346L350.923 169.126L352.158 166.893L353.393 164.665L354.762 162.193L356.147 159.684L357.351 157.498L358.576 155.264L359.737 153.143L361.108 150.628L362.490 148.079L363.891 145.470L365.257 142.910L366.551 140.473L367.685 138.349L368.754 136.355L369.727 134.537L370.846 132.423L372.016 130.132L373.294 127.598L374.516 125.100L375.568 122.923L376.537 120.814L377.361 118.950L378.280 116.743L379.156 114.495L380.106 111.923L380.964 109.424L381.663 107.238L382.289 105.048L382.780 103.174L383.323 100.970L383.817 98.836L384.365 96.356L384.889 93.844L385.334 91.594L385.735 89.408L386.035 87.669L386.365 85.613L386.628 83.860L386.927 81.722L387.158 79.938L387.404 77.870L387.594 76.116L387.793 74.091L387.949 72.324L388.111 70.237L388.236 68.390L388.356 66.291L388.440 64.471L388.512 62.422L388.557 60.602L388.580 58.554L388.568 56.734L388.516 54.685L388.432 52.865L388.306 50.767L388.174 48.919L388.004 46.805L387.848 45.065L387.642 43.048L387.441 41.328L387.134 39.231L386.813 37.425L386.346 35.285L385.888 33.487L385.471 31.932L385.173 30.962" stroke="url(&quot;#theme-accent-gradient-linear&quot;) rgb(90, 110, 216)" stroke-width="45" fill="none" stroke-linecap="round" stroke-linejoin="round"/><path id="path-7-0" d="M254.373 349.533L255.237 347.893L255.902 346.633L256.947 344.658L257.720 343.195L258.674 341.392L259.542 339.736L260.637 337.644L261.599 335.798L262.684 333.725L263.571 332.029L264.639 329.989L265.617 328.116L266.731 325.983L267.658 324.209L268.673 322.270L269.612 320.476L270.749 318.306L271.752 316.395L272.851 314.311L273.744 312.626L274.780 310.681L275.742 308.886L276.864 306.794L277.915 304.836L279.112 302.604L279.919 301.100L280.758 299.532" stroke="url(&quot;#theme-accent-gradient-linear&quot;) rgb(90, 110, 216)" stroke-width="45" fill="none" stroke-linecap="round" stroke-linejoin="round"/><path id="path-8-0" d="M299.250 296.652L300.474 297.155L302.111 297.827L304.121 298.650L306.328 299.555L308.502 300.445L311.055 301.495L313.566 302.527L315.834 303.460L318.018 304.356L320.331 305.305L323.202 306.481L326.195 307.707L329.050 308.877L331.347 309.818L333.532 310.712L335.846 311.656L338.717 312.826L341.712 314.048L344.586 315.218L346.895 316.158L348.981 317.001L350.809 317.737L352.751 318.511L354.568 319.232L356.594 320.031L358.446 320.761L360.526 321.578L362.311 322.277L364.463 323.119L366.337 323.851L368.507 324.697L370.573 325.500L372.957 326.427L375.502 327.412L378.223 328.463L381.328 329.656L384.753 330.967L388.413 332.362L391.806 333.651L394.809 334.785L397.136 335.662L399.297 336.470L401.023 337.115L403.016 337.856L404.767 338.507L406.831 339.272L408.685 339.958L410.692 340.697L412.523 341.368L414.563 342.113L416.434 342.795L418.533 343.556L420.338 344.206L422.510 344.987L424.399 345.662L426.600 346.447L428.781 347.220L431.634 348.227L434.956 349.391L438.637 350.673L442.071 351.860L445.074 352.890L447.428 353.694L449.560 354.416L451.427 355.044L453.466 355.727L455.312 356.341L457.322 357.008L459.104 357.596L461.131 358.264L462.993 358.872L465.046 359.540L466.919 360.144L468.931 360.788L470.804 361.384L472.865 362.035L474.744 362.625L476.868 363.289L479.079 363.973L481.976 364.862L485.265 365.862L488.561 366.857L491.459 367.724L493.677 368.380L495.803 369.004L497.693 369.555L499.768 370.156L501.662 370.701L503.745 371.296L505.648 371.836L507.789 372.437L510.022 373.054L512.940 373.850L516.253 374.747L519.570 375.645L522.538 376.444L524.789 377.048L527.053 377.648L529.307 378.246L532.186 379.007L535.085 379.775L537.966 380.534L540.224 381.129L542.481 381.720L544.736 382.309L547.613 383.059L550.514 383.814L553.343 384.549L555.591 385.132L557.791 385.702L559.714 386.198L561.921 386.768L564.079 387.322L566.497 387.943L568.956 388.573L571.124 389.128L573.374 389.706L575.631 390.283L578.505 391.017L581.426 391.758L584.315 392.493L586.585 393.068L588.834 393.642L591.091 394.215L593.965 394.944L596.888 395.681L599.779 396.411L602.051 396.983L604.299 397.554L606.556 398.126L609.429 398.862L612.353 399.613L615.240 400.362L617.510 400.952L619.749 401.536L621.992 402.121L624.935 402.891L628.345 403.789L632.178 404.823L636.108 405.929L640.003 407.116L643.794 408.381L647.212 409.627L650.148 410.786L652.431 411.759L654.527 412.720L656.336 413.601L658.379 414.643L660.210 415.629L662.409 416.862L664.308 417.986L666.493 419.332L668.572 420.718L671.039 422.414L673.504 424.205L675.715 425.861L677.798 427.523L679.632 429.054L681.730 430.877L683.634 432.598L685.741 434.581L687.577 436.385L689.603 438.453L691.363 440.324L693.230 442.391L694.798 444.200L696.458 446.208L697.944 448.086L699.564 450.218L700.961 452.140L702.421 454.243L703.869 456.487L705.579 459.270L707.300 462.226L708.855 465.026L710.043 467.296L711.074 469.421L712.093 471.700L713.287 474.554L714.462 477.571L715.534 480.480L716.349 482.841L717.055 484.955L717.645 486.822L718.254 488.831L718.815 490.703L719.396 492.780L719.943 494.645L720.492 496.726L720.971 498.433L721.456 500.460L721.861 502.186L722.198 503.735L722.428 504.716" stroke="url(&quot;#theme-accent-gradient-linear&quot;) rgb(90, 110, 216)" stroke-width="45" fill="none" stroke-linecap="round" stroke-linejoin="round"/><path id="path-9-0" d="M475.067 747.840L477.432 746.885L479.813 745.919L482.822 744.698L485.132 743.758L487.322 742.874L489.630 741.953L492.575 740.791L495.969 739.460L499.625 738.033L503.031 736.709L505.990 735.561L508.317 734.659L510.517 733.803L512.832 732.899L515.780 731.744L519.173 730.410L522.823 728.968L526.216 727.618L529.160 726.438L531.471 725.503L533.655 724.609L535.889 723.691L538.430 722.631L540.964 721.562L543.187 720.595L545.338 719.627L547.525 718.598L550.007 717.406L552.604 716.124L555.239 714.791L557.816 713.462L560.352 712.132L562.490 711L564.733 709.795L566.921 708.595L569.421 707.206L571.936 705.780L574.494 704.301L577.100 702.767L579.769 701.168L582.464 699.520L585.441 697.663L588.448 695.751L591.445 693.814L594.197 691.992L597.029 690.076L599.845 688.140L602.605 686.214L604.934 684.565L607.297 682.855L609.656 681.114L612.297 679.142L614.835 677.214L617.054 675.511L619.161 673.862L621.044 672.368L623.133 670.689L624.989 669.179L627.012 667.514L628.869 665.966L631.028 664.145L632.984 662.469L635.203 660.538L637.379 658.604L639.830 656.406L642.282 654.178L644.481 652.160L646.682 650.099L648.800 648.067L651.169 645.777L653.533 643.461L655.660 641.369L657.757 639.267L659.061 637.948L660.359 636.617" stroke="url(&quot;#theme-accent-gradient-linear&quot;) rgb(90, 110, 216)" stroke-width="45" fill="none" stroke-linecap="round" stroke-linejoin="round"/><path id="path-10-0" d="M360.644 28.050L359.585 29.618L358.294 31.525L356.579 34.070L355.130 36.239L353.680 38.420L352.417 40.326L351.032 42.387L349.789 44.217L348.428 46.184L347.149 48.011L345.753 49.989L344.465 51.810L343.059 53.802L341.771 55.637L340.273 57.773L338.646 60.096L336.552 63.072L334.454 66.047L332.383 68.970L330.800 71.197L329.266 73.351L327.951 75.194L326.465 77.277L324.898 79.472L322.944 82.213L320.863 85.140L318.698 88.189L316.684 91.030L314.539 94.054L312.548 96.866L310.640 99.571L309.180 101.654L307.649 103.849L306.031 106.179L303.950 109.182L301.826 112.259L299.791 115.218L298.177 117.575L296.693 119.754L295.182 121.988L293.313 124.767L291.333 127.726L289.394 130.640L287.825 133.013L286.425 135.146L285.214 137L283.903 139.004L282.676 140.866L281.338 142.883L280.102 144.738L278.758 146.751L277.521 148.606L276.178 150.619L274.940 152.473L273.597 154.486L272.359 156.341L271.016 158.354L269.778 160.209L268.435 162.221L267.196 164.075L265.852 166.088L264.613 167.941L263.268 169.953L262.028 171.806L260.682 173.818L259.441 175.670L258.094 177.681L256.853 179.532L255.504 181.542L254.261 183.393L252.911 185.401L251.666 187.251L250.314 189.258L249.067 191.107L247.713 193.112L246.463 194.959L245.107 196.964L243.858 198.810L242.501 200.815L241.252 202.661L239.895 204.666L238.646 206.512L237.290 208.516L236.040 210.363L234.684 212.367L233.434 214.214L232.078 216.218L230.828 218.065L229.472 220.069L228.222 221.916L226.866 223.920L225.616 225.767L224.260 227.771L223.011 229.618L221.654 231.622L220.405 233.469L219.048 235.473L217.799 237.320L216.443 239.324L215.193 241.171L213.828 243.187L212.573 245.041L211.112 247.198L209.522 249.548L207.469 252.580L205.146 255.997L202.856 259.353L200.790 262.353L199.227 264.613L197.716 266.782L196.423 268.639L195.012 270.659L193.747 272.473L192.379 274.435L191.104 276.265L189.706 278.242L188.406 280.055L186.969 282.025L185.656 283.841L184.137 285.962L182.510 288.259L180.690 290.830L178.863 293.409L177.320 295.590L175.800 297.737L174.492 299.584L173.068 301.594L171.789 303.400L170.406 305.352L169.117 307.173L167.718 309.149L166.429 310.969L165.021 312.958L163.726 314.787L162.220 316.916L160.593 319.213L158.772 321.785L156.946 324.363L155.403 326.545L153.883 328.691L152.576 330.539L151.154 332.550L149.878 334.358L148.498 336.312L147.212 338.135L145.816 340.113L144.530 341.935L143.126 343.927L141.834 345.759L140.331 347.891L138.709 350.191L136.896 352.769L135.023 355.444L133.245 358.015L131.263 360.938L129.401 363.732L127.596 366.518L126.252 368.647L124.983 370.786L123.950 372.577L122.844 374.634L121.980 376.355L121.083 378.341L120.349 380.103L119.610 382.041L118.935 383.864L118.266 385.846L117.662 387.704L117.102 389.664L116.629 391.434L116.147 393.435L115.759 395.202L115.357 397.264L115.056 399.025L114.752 401.098L114.543 402.868L114.354 404.966L114.239 406.763L114.137 408.937L114.100 411.091L114.091 413.569L114.165 416.036L114.271 418.194L114.465 420.392L114.740 422.603L115.105 425.102L115.559 427.667L116.089 430.189L116.814 433.067L117.793 436.352L118.868 439.638L119.954 442.622L120.795 444.729L121.701 446.793L122.749 448.933L124.071 451.502L125.600 454.225L127.249 456.916L129.204 459.900L131.424 463.160L133.677 466.454L135.745 469.459L137.355 471.799L138.829 473.940L140.098 475.782L141.477 477.784L142.741 479.621L144.113 481.614L145.378 483.451L146.750 485.445L148.014 487.281L149.375 489.259L150.632 491.086L152.078 493.188L153.715 495.537L155.822 498.524L158.235 501.881L160.644 505.197L162.810 508.156L164.491 510.448L166.028 512.547L167.352 514.353L168.777 516.298L170.089 518.086L171.592 520.131L173.243 522.383L175.123 524.945L177.028 527.547L178.672 529.787L180.212 531.892L181.535 533.698L182.961 535.643L184.272 537.431L185.777 539.488L187.458 541.796L189.571 544.702L191.756 547.714L193.871 550.627L195.542 552.931L197.059 555.021L198.369 556.822L199.872 558.886L201.519 561.141L203.394 563.708L205.296 566.310L206.936 568.555L208.472 570.657L209.792 572.464L211.215 574.411L212.523 576.203L214.023 578.255L215.670 580.510L217.546 583.077L219.447 585.679L221.087 587.924L222.612 590.011L223.926 591.809L225.439 593.880L227.122 596.184L229.243 599.086L231.438 602.091L233.561 604.997L235.241 607.296L236.763 609.380L238.077 611.177L239.585 613.242L241.232 615.496L243.111 618.068L245.009 620.665L246.650 622.911L248.181 625.007L249.500 626.812L250.922 628.759L252.232 630.552L253.741 632.618L255.425 634.922L257.545 637.824L259.740 640.828L261.864 643.734L263.544 646.034L265.075 648.129L266.394 649.935L267.817 651.882L269.126 653.675L270.628 655.731L272.275 657.985L274.153 660.555L276.052 663.154L277.692 665.399L279.225 667.497L280.545 669.303L281.967 671.250L283.277 673.043L284.785 675.106L286.470 677.410L288.593 680.309L290.792 683.311L292.920 686.214L294.604 688.510L296.129 690.591L297.446 692.387L298.963 694.455L300.650 696.757L302.775 699.655L304.976 702.656L307.104 705.559L308.788 707.855L310.324 709.951L311.647 711.756L313.073 713.700L314.385 715.489L315.888 717.539L317.539 719.791L319.420 722.355L321.325 724.954L322.978 727.209L324.607 729.446L326.108 731.753L327.647 734.723L328.774 737.770L329.464 740.832L329.726 743.157L329.803 745.368L329.818 747.174L329.824 749.243L329.827 751.063L329.841 753.111L329.857 754.932L329.875 756.980L329.888 758.800L329.903 760.849L329.916 762.669L329.931 764.718L329.944 766.538L329.959 768.586L329.972 770.407L329.987 772.455L330 774.275L330.015 776.324L330.028 778.144L330.043 780.193L330.056 782.013L330.071 784.062L330.084 785.882L330.099 787.930L330.112 789.750L330.127 791.799L330.140 793.619L330.155 795.668L330.168 797.488L330.183 799.537L330.196 801.357L330.211 803.405L330.224 805.225L330.239 807.274L330.252 809.094L330.267 811.143L330.280 812.963L330.295 815.012L330.308 816.832L330.323 818.880L330.336 820.701L330.351 822.749L330.364 824.569L330.379 826.618L330.392 828.438L330.407 830.487L330.420 832.307L330.435 834.356L330.448 836.176L330.463 838.224L330.476 840.044L330.491 842.093L330.504 843.913L330.519 845.962L330.532 847.782L330.547 849.831L330.560 851.651L330.575 853.699L330.588 855.519L330.603 857.568L330.616 859.388L330.631 861.437L330.644 863.257L330.657 865.306L330.665 867.126L330.671 869.174L330.673 870.995L330.675 873.043L330.676 874.863L330.678 876.912L330.679 878.732L330.681 880.781L330.682 882.601L330.684 884.649L330.685 886.470L330.687 888.518L330.688 890.338L330.689 892.387L330.691 894.207L330.692 896.256L330.694 898.076L330.695 900.125L330.697 901.945L330.698 903.993L330.700 905.813L330.701 907.862L330.703 909.682L330.704 911.731L330.706 913.551L330.707 915.600L330.709 917.420L330.710 919.468L330.712 921.288L330.713 923.337L330.714 925.157L330.716 927.206L330.717 929.026L330.719 931.075L330.720 932.895L330.722 934.943L330.723 936.764L330.725 938.812L330.726 940.632L330.728 942.681L330.729 944.501L330.731 946.550L330.732 948.370L330.734 950.419L330.735 952.239L330.737 954.287L330.738 956.107L330.740 958.156L330.741 959.976L330.742 962.085L330.742 964.283L330.743 966.764L330.757 969.283L330.789 971.445L330.905 973.645L331.147 975.798L331.534 978.199L332.054 980.519L332.581 982.468L333.258 984.431L333.972 986.232L334.949 988.388L335.947 990.383L337.245 992.641L338.774 994.969L340.655 997.538L342.787 1000.123L345.054 1002.547L347.475 1004.869L349.977 1007L352.285 1008.805L354.522 1010.378L356.393 1011.588L358.405 1012.788L360.528 1013.909L362.985 1015.074L365.586 1016.169L368.257 1017.117L371.199 1017.994L374.129 1018.720L376.976 1019.295L379.201 1019.637L381.355 1019.847L383.182 1019.954L385.265 1020L387.085 1019.965L389.192 1019.829L391.410 1019.538L394.352 1018.977L397.781 1018.093L401.592 1016.877L405.069 1015.529L408.209 1014.040L411.046 1012.434L414.139 1010.422L417.187 1008.251L420.129 1005.938L422.450 1003.924L424.529 1001.897L426.191 1000.109L427.915 998.033L429.591 995.686L431.474 992.685L433.204 989.518L434.663 986.433L435.710 983.605L436.590 980.653L437.305 977.668L437.933 974.716L438.415 972.039L438.845 969.452L439.241 966.944L439.584 964.727L439.919 962.523L440.258 960.270L440.637 957.761L441.026 955.185L441.350 953.037L441.678 950.860L442.005 948.692L442.381 946.204L442.774 943.587L443.153 941.033L443.529 938.440L443.886 935.899L444.180 933.728L444.460 931.535L444.723 929.354L445.018 926.858L445.327 924.233L445.630 921.667L445.938 919.062L446.241 916.516L446.500 914.352L446.762 912.168L447.021 909.987L447.316 907.480L447.627 904.844L447.931 902.273L448.234 899.719L448.541 897.138L448.833 894.685L449.144 892.073L449.438 889.596L449.709 887.322L449.971 885.113L450.234 882.907L450.522 880.460L450.826 877.888L451.122 875.382L451.435 872.740L451.733 870.209L451.995 867.990L452.243 865.890L452.453 864.127L452.700 862.042L452.918 860.197L453.172 858.030L453.430 855.815L453.720 853.312L454.014 850.782L454.265 848.627L454.518 846.455L454.776 844.241L455.066 841.726L455.372 839.077L455.663 836.557L455.953 834.036L456.235 831.585L456.482 829.431L456.741 827.168L457 824.899L457.286 822.379L457.583 819.761L457.862 817.292L458.152 814.713L458.430 812.236L458.676 810.039L458.926 807.792L459.172 805.576L459.450 803.074L459.726 800.577L459.962 798.433L460.197 796.257L460.396 794.420L460.630 792.258L460.866 790.094L461.137 787.615L461.407 785.133L461.646 782.913L461.881 780.700L462.115 778.483L462.376 776.040L462.639 773.542L462.863 771.396L463.094 769.126L463.321 766.949L463.590 764.424L463.889 761.880L464.221 759.438L464.492 757.639L464.734 756.300" stroke="url(&quot;#theme-accent-gradient-linear&quot;) rgb(90, 110, 216)" stroke-width="45" fill="none" stroke-linecap="round" stroke-linejoin="round"/><path id="path-extension-1" d="M739.412 544.055L724.709 509.611" stroke="url(&quot;#theme-accent-gradient-linear&quot;) rgb(90, 110, 216)" stroke-width="45" fill="none" stroke-linecap="round" stroke-linejoin="round"/><path id="path-extension-2" d="M909.194 870.484L908.046 878.269" stroke="url(&quot;#theme-accent-gradient-linear&quot;) rgb(90, 110, 216)" stroke-width="45" fill="none" stroke-linecap="round" stroke-linejoin="round"/><path id="path-extension-3" d="M681.694 639.388L671.656 622.305" stroke="url(&quot;#theme-accent-gradient-linear&quot;) rgb(90, 110, 216)" stroke-width="45" fill="none" stroke-linecap="round" stroke-linejoin="round"/><path id="path-extension-4" d="M904.056 880.982L908.046 878.269" stroke="url(&quot;#theme-accent-gradient-linear&quot;) rgb(90, 110, 216)" stroke-width="45" fill="none" stroke-linecap="round" stroke-linejoin="round"/><path id="path-extension-5" d="M716.428 541.914L724.120 511.906" stroke="url(&quot;#theme-accent-gradient-linear&quot;) rgb(90, 110, 216)" stroke-width="45" fill="none" stroke-linecap="round" stroke-linejoin="round"/><path id="path-extension-6" d="M266.612 359.794L252.899 352.321" stroke="url(&quot;#theme-accent-gradient-linear&quot;) rgb(90, 110, 216)" stroke-width="45" fill="none" stroke-linecap="round" stroke-linejoin="round"/><path id="path-extension-7" d="M506.433 486.999L517.021 494.042" stroke="url(&quot;#theme-accent-gradient-linear&quot;) rgb(90, 110, 216)" stroke-width="45" fill="none" stroke-linecap="round" stroke-linejoin="round"/><path id="path-extension-8" d="M227.628 420.598L220.894 414.134" stroke="url(&quot;#theme-accent-gradient-linear&quot;) rgb(90, 110, 216)" stroke-width="45" fill="none" stroke-linecap="round" stroke-linejoin="round"/><path id="path-extension-9" d="M510.903 504.866L517.021 494.042" stroke="url(&quot;#theme-accent-gradient-linear&quot;) rgb(90, 110, 216)" stroke-width="45" fill="none" stroke-linecap="round" stroke-linejoin="round"/><path id="path-extension-10" d="M225.610 404.856L220.894 414.134" stroke="url(&quot;#theme-accent-gradient-linear&quot;) rgb(90, 110, 216)" stroke-width="45" fill="none" stroke-linecap="round" stroke-linejoin="round"/><path id="path-extension-11" d="M385.173 30.962L376.878 4" stroke="url(&quot;#theme-accent-gradient-linear&quot;) rgb(90, 110, 216)" stroke-width="45" fill="none" stroke-linecap="round" stroke-linejoin="round"/><path id="path-extension-12" d="M299.250 296.652L285.288 290.918" stroke="url(&quot;#theme-accent-gradient-linear&quot;) rgb(90, 110, 216)" stroke-width="45" fill="none" stroke-linecap="round" stroke-linejoin="round"/><path id="path-extension-13" d="M722.428 504.716L724.120 511.906" stroke="url(&quot;#theme-accent-gradient-linear&quot;) rgb(90, 110, 216)" stroke-width="45" fill="none" stroke-linecap="round" stroke-linejoin="round"/><path id="path-extension-14" d="M475.067 747.840L465.569 751.674" stroke="url(&quot;#theme-accent-gradient-linear&quot;) rgb(90, 110, 216)" stroke-width="45" fill="none" stroke-linecap="round" stroke-linejoin="round"/><path id="path-extension-15" d="M360.644 28.050L376.878 4" stroke="url(&quot;#theme-accent-gradient-linear&quot;) rgb(90, 110, 216)" stroke-width="45" fill="none" stroke-linecap="round" stroke-linejoin="round"/><path id="path-extension-16" d="M464.734 756.300L465.569 751.674" stroke="url(&quot;#theme-accent-gradient-linear&quot;) rgb(90, 110, 216)" stroke-width="45" fill="none" stroke-linecap="round" stroke-linejoin="round"/><path id="path-connection-1" d="M678.791 613.266L660.359 636.617" stroke="url(&quot;#theme-accent-gradient-linear&quot;) rgb(90, 110, 216)" stroke-width="45" fill="none" stroke-linecap="round" stroke-linejoin="round"/><path id="path-connection-2" d="M245.899 365.559L254.373 349.533" stroke="url(&quot;#theme-accent-gradient-linear&quot;) rgb(90, 110, 216)" stroke-width="45" fill="none" stroke-linecap="round" stroke-linejoin="round"/><path id="path-connection-3" d="M288.853 284.140L280.758 299.532" stroke="url(&quot;#theme-accent-gradient-linear&quot;) rgb(90, 110, 216)" stroke-width="45" fill="none" stroke-linecap="round" stroke-linejoin="round"/><path id="path-connection-4" d="M908.046 878.269L908.046 878.269" stroke="url(&quot;#theme-accent-gradient-linear&quot;) rgb(90, 110, 216)" stroke-width="45" fill="none" stroke-linecap="round" stroke-linejoin="round"/><path id="path-connection-5" d="M724.120 511.906L724.120 511.906" stroke="url(&quot;#theme-accent-gradient-linear&quot;) rgb(90, 110, 216)" stroke-width="45" fill="none" stroke-linecap="round" stroke-linejoin="round"/><path id="path-connection-6" d="M517.021 494.042L517.021 494.042" stroke="url(&quot;#theme-accent-gradient-linear&quot;) rgb(90, 110, 216)" stroke-width="45" fill="none" stroke-linecap="round" stroke-linejoin="round"/><path id="path-connection-7" d="M220.894 414.134L220.894 414.134" stroke="url(&quot;#theme-accent-gradient-linear&quot;) rgb(90, 110, 216)" stroke-width="45" fill="none" stroke-linecap="round" stroke-linejoin="round"/><path id="path-connection-8" d="M376.878 4L376.878 4" stroke="url(&quot;#theme-accent-gradient-linear&quot;) rgb(90, 110, 216)" stroke-width="45" fill="none" stroke-linecap="round" stroke-linejoin="round"/><path id="path-connection-9" d="M465.569 751.674L465.569 751.674" stroke="url(&quot;#theme-accent-gradient-linear&quot;) rgb(90, 110, 216)" stroke-width="45" fill="none" stroke-linecap="round" stroke-linejoin="round"/></g><g id="skeleton-paths" stroke-width="45.0" fill="rgb(0, 0, 0)" stroke="none"><path id="path-0-0" d="M583.717 182.883L582.739 184.512L581.981 185.817L580.826 187.847L579.968 189.451L578.972 191.396L578.090 193.215L577.140 195.274L576.298 197.208L575.441 199.284L574.695 201.181L573.963 203.163L573.347 204.946L572.694 206.984L572.081 209.080L571.417 211.475L570.801 213.930L570.288 216.113L569.839 218.293L569.515 220.030L569.188 221.990L568.943 223.643L568.679 225.755L568.466 227.987L568.270 230.570L568.138 232.995L568.058 235.025L568.025 237L568.022 238.854L568.050 241.039L568.096 242.939L568.188 245.022L568.306 246.818L568.492 248.890L568.692 250.679L568.969 252.738L569.237 254.504L569.598 256.603L569.931 258.349L570.373 260.442L570.890 262.565L571.663 265.432L572.677 268.762L573.901 272.409L575.143 275.768L576.330 278.692L577.358 281.031L578.452 283.326L579.625 285.609L580.969 288.102L582.358 290.529L583.642 292.671L585.050 294.850L586.625 297.118L588.497 299.689L590.513 302.293L592.367 304.571L594.306 306.795L596.050 308.682L598.073 310.757L599.919 312.546L602.095 314.542L604.387 316.495L607.262 318.805L610.218 321.040L613.190 323.162L615.821 324.906L618.340 326.475L620.769 327.899L622.980 329.139L625.112 330.261L626.978 331.190L629.048 332.162L631.265 333.134L633.790 334.181L636.392 335.198L638.635 336.025L640.850 336.792L643.048 337.468L645.890 338.275L648.801 339.021L651.733 339.703L654.016 340.176L656.248 340.572L658.006 340.853L660.014 341.136L661.701 341.341L663.762 341.556L665.594 341.714L667.685 341.859L669.505 341.950L671.554 342.016L673.374 342.040L675.423 342.029L677.243 341.986L679.334 341.897L681.173 341.789L683.271 341.628L685 341.464L687.063 341.220L688.815 340.975L691.053 340.614L693.322 340.182L696.270 339.547L699.185 338.853L702.076 338.090L704.273 337.455L706.418 336.772L708.203 336.167L710.270 335.437L712.101 334.743L714.211 333.891L716.423 332.919L718.921 331.765L721.516 330.486L724.134 329.106L726.783 327.613L729.409 326.041L731.703 324.597L733.973 323.065L736.215 321.433L738.766 319.491L741.258 317.492L743.413 315.693L745.418 313.904L747.185 312.242L749.117 310.339L750.801 308.606L752.576 306.681L754.152 304.878L755.880 302.813L757.383 300.928L758.922 298.908L760.235 297.087L761.612 295.089L762.837 293.226L764.123 291.175L765.269 289.259L766.467 287.150L767.527 285.183L768.617 283.030L769.526 281.139L770.432 279.129L771.187 277.403L772.039 275.310L772.921 273.009L773.946 270.055L774.906 267.099L775.758 264.193L776.359 261.967L776.897 259.688L777.346 257.518L777.824 255.013L778.236 252.533L778.562 250.368L778.836 248.186L779.023 246.347L779.197 244.254L779.311 242.434L779.401 240.386L779.447 238.566L779.459 236.517L779.432 234.697L779.359 232.648L779.258 230.828L779.102 228.779L778.924 226.959L778.682 224.878L778.441 223.056L778.124 220.913L777.736 218.690L777.139 215.720L776.328 212.277L775.294 208.423L774.086 204.527L772.722 200.687L771.241 196.973L769.780 193.625L768.356 190.645L766.958 187.966L765.482 185.338L763.888 182.675L762.221 180.075L760.475 177.498L758.628 174.952L756.898 172.671L755.116 170.463L753.564 168.644L751.823 166.703L750.176 164.957L748.210 162.974L746.356 161.193L744.295 159.314L742.481 157.746L740.411 156.055L738.140 154.329L735.160 152.203L731.741 149.934L728.379 147.819L725.385 146.075L723.135 144.849L720.859 143.711L718.536 142.638L715.618 141.372L712.627 140.162L709.698 139.056L707.340 138.234L705.135 137.534L702.926 136.902L700.124 136.165L697.227 135.464L694.405 134.852L692.222 134.430L690.133 134.089L688.334 133.825L686.189 133.564L683.969 133.371L681.421 133.215L678.872 133.133L676.678 133.095L674.626 133.098L672.807 133.117L670.806 133.151L668.841 133.196L666.997 133.248L665.199 133.328L663.598 133.427L661.678 133.607L659.914 133.802L657.867 134.076L656.195 134.331L654.214 134.677L652.473 135.017L650.284 135.481L648.024 136.036L645.182 136.806L642.321 137.659L639.452 138.587L636.779 139.539L633.839 140.691L630.885 141.934L627.941 143.269L625.314 144.569L622.786 145.906L620.380 147.259L618.251 148.509L616.070 149.892L613.843 151.405L611.397 153.143L609 154.940L606.912 156.570L604.739 158.376L602.824 160.051L600.746 161.962L599.134 163.514L597.472 165.192L596.076 166.667L594.322 168.620L592.728 170.479L590.936 172.672L589.890 173.996L588.849 175.347" stroke="url(&quot;#theme-accent-gradient-linear&quot;) rgb(90, 110, 216)" stroke-width="45" fill="none" stroke-linecap="round" stroke-linejoin="round"/><path id="path-extension-1" d="M583.717 182.883L586.106 178.906" stroke="url(&quot;#theme-accent-gradient-linear&quot;) rgb(90, 110, 216)" stroke-width="45" fill="none" stroke-linecap="round" stroke-linejoin="round"/><path id="path-extension-2" d="M588.849 175.347L586.106 178.906" stroke="url(&quot;#theme-accent-gradient-linear&quot;) rgb(90, 110, 216)" stroke-width="45" fill="none" stroke-linecap="round" stroke-linejoin="round"/><path id="path-connection-1" d="M586.106 178.906L586.106 178.906" stroke="url(&quot;#theme-accent-gradient-linear&quot;) rgb(90, 110, 216)" stroke-width="45" fill="none" stroke-linecap="round" stroke-linejoin="round"/></g></svg>