<svg xmlns="http://www.w3.org/2000/svg" viewBox="-41 103.96499633789062 1106 816.070068359375" width="1024" height="1024" class="colorable-icon reset-top-left-margin" data-export-recolorable-svg="true" overflow="visible" xmlns:xlink="http://www.w3.org/1999/xlink" fill="rgb(0, 0, 0)" stroke="none"><g id="skeleton-paths" stroke-width="45.0" fill="rgb(0, 0, 0)" stroke="none"><path id="path-0-0" d="M495.343 230.553L497.480 229.196L499.382 227.996L502.268 226.226L504.731 224.774L507.432 223.227L509.744 221.925L512.314 220.490L514.483 219.297L517.179 217.834L519.512 216.592L522.317 215.126L524.636 213.945L527.357 212.608L530.108 211.316L533.739 209.654L537.460 207.996L541.199 206.370L544.088 205.165L546.812 204.096L548.969 203.287L551.600 202.348L553.774 201.593L556.525 200.696L558.730 200.007L561.464 199.214L563.757 198.585L566.507 197.880L568.833 197.308L571.415 196.714L573.671 196.222L576.408 195.671L579.319 195.132L582.540 194.563L585.750 194.070L588.473 193.699L591.334 193.403L594.179 193.189L597.421 192.994L600.645 192.866L603.398 192.790L606.127 192.764L608.440 192.762L611.195 192.786L614.002 192.850L617.187 192.956L620.389 193.077L623.188 193.172L625.964 193.240L628.283 193.314L631 193.460L633.830 193.710L637.003 194.031L640.258 194.407L642.952 194.737L645.799 195.106L648.667 195.480L652.343 195.971L656.126 196.517L659.879 197.128L663.340 197.765L666.590 198.408L669.769 199.087L672.479 199.693L675.348 200.381L678.325 201.122L682.172 202.104L686.485 203.239L690.689 204.368L694.482 205.418L697.237 206.198L700.037 207.020L702.253 207.686L704.984 208.526L707.251 209.237L710.058 210.133L712.868 211.039L716.104 212.092L719.296 213.142L722.168 214.105L724.861 215.022L727.257 215.846L729.854 216.748L732.219 217.576L734.779 218.483L737.026 219.277L739.661 220.210L741.986 221.031L744.673 221.990L746.853 222.768L749.543 223.729L751.732 224.507L754.605 225.524L757.416 226.509L761.193 227.815L764.890 229.076L768.661 230.334L772.009 231.410L775.421 232.461L778.676 233.403L781.621 234.211L784.444 234.942L787.343 235.626L790.459 236.332L793.657 236.937L796.378 237.388L799.169 237.734L801.524 237.960L804.199 238.149L806.529 238.247L809.151 238.287L811.480 238.258L814.201 238.115L817.034 237.821L820.185 237.383L823.426 236.785L826.144 236.188L829.018 235.393L831.435 234.554L834.353 233.380L836.932 232.134L839.787 230.645L842.347 229.195L845.217 227.505L847.817 225.908L850.650 224.029L853.005 222.312L855.398 220.178L857.373 218.263L859.235 216.087L860.884 214.851L862.623 213.308L865.045 211.229L867.369 209.023L870.120 206.369L872.472 204.071L875.012 201.589L877.138 199.524L879.522 197.228L881.739 195.114L884.361 192.616L886.763 190.325L889.450 187.757L891.830 185.479L894.510 182.915L896.891 180.636L899.571 178.072L901.940 175.799L904.495 173.312L906.611 171.236L908.939 168.931L911.061 166.871L913.680 164.325L916.082 161.997L918.794 159.341L921.149 157.028L923.792 154.427L926.142 152.118L928.025 150.265L929.354 148.965" stroke="url(&quot;#theme-accent-gradient-linear&quot;) rgb(90, 110, 216)" stroke-width="45" fill="none" stroke-linecap="round" stroke-linejoin="round"/><path id="path-1-0" d="M99.670 149.671L101.022 150.948L102.932 152.774L105.303 155.063L107.955 157.655L110.311 159.958L112.967 162.546L115.333 164.839L117.994 167.415L120.351 169.695L122.908 172.164L125.102 174.284L127.498 176.606L129.696 178.741L132.261 181.226L134.627 183.510L137.304 186.075L139.690 188.349L142.378 190.901L144.767 193.161L147.361 195.611L149.587 197.712L152.013 200.003L154.238 202.097L156.850 204.517L159.284 206.722L161.968 209.086L164.308 211.082L166.959 213.222L169.697 215.314L172.845 217.604L175.966 219.792L178.791 221.651L181.619 223.333L184.112 224.670L186.925 226.053L189.202 227.090L191.870 228.237L194.019 229.094L196.632 230.089L198.847 230.810L201.586 231.626L204.019 232.232L206.810 232.903L209.064 233.396L211.665 233.975L213.853 234.451L216.538 234.978L218.870 235.321L221.551 235.570L223.881 235.663L226.503 235.682L228.833 235.611L231.460 235.427L233.767 235.183L236.363 234.838L238.687 234.482L241.454 234.005L244.362 233.462L247.539 232.835L250.706 232.146L253.428 231.509L256.331 230.760L258.831 230.100L261.750 229.283L264.040 228.613L266.822 227.737L268.993 227.027L271.701 226.121L273.742 225.429L276.264 224.564L278.368 223.836L280.987 222.923L283.357 222.091L286.169 221.110L288.632 220.252L291.445 219.285L293.686 218.514L296.351 217.609L298.407 216.910L300.949 216.055L303.096 215.332L305.749 214.446L308.161 213.646L310.814 212.781L313.244 212.005L315.869 211.186L318.260 210.452L320.910 209.660L323.734 208.838L327.460 207.789L331.291 206.738L335.116 205.727L337.873 205.025L340.633 204.361L343.291 203.764L346.493 203.069L349.716 202.418L352.476 201.886L355.230 201.419L357.531 201.077L360.229 200.705L362.576 200.390L365.173 200.039L367.446 199.759L370.054 199.485L372.400 199.292L375.100 199.132L377.451 199.052L380.140 199.007L382.392 198.985L385.026 198.973L387.247 198.978L389.915 199.017L392.134 199.068L394.770 199.138L397.028 199.212L399.730 199.324L402.089 199.471L404.800 199.702L407.133 199.962L409.860 200.314L412.103 200.632L414.722 201.042L416.853 201.408L419.552 201.903L421.936 202.352L424.636 202.890L426.885 203.375L429.421 203.984L431.726 204.552L434.366 205.247L436.677 205.884L439.302 206.673L441.694 207.421L444.320 208.282L446.713 209.095L449.398 210.062L452.490 211.245L456.446 212.857L460.637 214.646L463.790 216.036L465.845 216.977" stroke="url(&quot;#theme-accent-gradient-linear&quot;) rgb(90, 110, 216)" stroke-width="45" fill="none" stroke-linecap="round" stroke-linejoin="round"/><path id="path-2-0" d="M467.309 251.411L465.904 252.636L463.920 254.387L461.457 256.584L458.709 259.083L456.283 261.326L453.656 263.777L451.403 265.880L448.957 268.149L446.726 270.207L444.126 272.606L441.724 274.825L439.005 277.343L436.581 279.592L433.945 282.041L431.685 284.141L429.236 286.408L427.008 288.463L424.402 290.856L421.978 293.070L419.312 295.488L417.017 297.560L414.539 299.795L412.292 301.824L409.674 304.188L407.251 306.376L404.501 308.862L402.050 311.087L399.392 313.518L397.122 315.612L394.678 317.885L392.466 319.953L389.883 322.367L387.482 324.610L384.843 327.070L382.574 329.185L380.135 331.462L377.933 333.521L375.372 335.924L373.004 338.156L370.320 340.699L367.931 342.969L365.237 345.518L362.834 347.775L360.120 350.305L357.702 352.546L354.981 355.069L352.565 357.313L349.857 359.848L347.461 362.117L344.748 364.727L342.168 367.265L339.383 370.058L336.742 372.824L334.360 375.430L332.091 378.086L330.208 380.455L328.296 383.084L326.601 385.804L324.903 388.932L323.500 392.099L322.499 394.846L321.823 397.424L321.402 399.591L321.022 402.194L320.747 404.496L320.544 407.191L320.471 409.489L320.541 412.128L320.686 414.340L320.967 416.857L321.293 419.071L321.894 421.876L322.905 424.990L324.668 428.969L327.132 433.265L329.934 437.332L332.867 440.815L335.962 443.743L339.770 446.694L344.203 449.580L348.591 452.086L352.569 453.962L355.492 455.130L358.426 456.137L360.724 456.864L363.457 457.622L365.704 458.117L368.395 458.607L370.737 458.989L373.403 459.363L375.733 459.586L378.358 459.641L380.663 459.556L383.276 459.379L385.608 459.192L388.295 458.948L390.656 458.703L393.277 458.372L395.500 458.039L398.108 457.545L400.327 457.041L403.076 456.286L405.455 455.527L408.333 454.525L410.788 453.600L413.488 452.526L415.767 451.572L418.304 450.418L420.575 449.316L423.300 447.891L425.805 446.507L428.583 444.888L431.027 443.384L433.635 441.703L436.008 440.115L438.556 438.347L440.892 436.674L443.466 434.739L445.738 432.978L448.307 430.911L450.567 429.088L453.352 426.816L455.849 424.771L458.627 422.471L460.956 420.532L463.517 418.401L465.878 416.438L468.518 414.243L470.861 412.294L473.429 410.158L475.790 408.195L478.430 406L480.766 404.056L483.288 401.955L485.464 400.143L487.973 398.055L490.193 396.210L492.842 394.009L495.164 392.080L497.803 389.888L500.182 387.911L502.856 385.685L505.159 383.764L507.689 381.658L509.950 379.795L512.647 377.598L515.052 375.674L517.719 373.586L519.995 371.863L522.599 369.913L524.845 368.230L527.491 366.279L529.695 364.724L532.217 363.170L534.276 362.073L536.781 360.977L539.385 360.163L542.554 359.451L545.899 359.094L548.856 359.033L551.789 359.277L554.142 359.645L556.870 360.236L559.019 360.866L561.639 361.844L563.868 362.837L566.637 364.253L569.050 365.724L571.736 367.650L573.998 369.441L576.535 371.568L578.724 373.445L581.391 375.816L583.772 377.989L586.545 380.551L588.960 382.789L591.663 385.270L593.926 387.324L596.428 389.615L598.529 391.581L601.115 394.042L603.447 396.273L606.086 398.782L608.313 400.891L610.735 403.187L612.945 405.285L615.520 407.730L617.898 409.986L620.586 412.534L622.978 414.802L625.663 417.360L628.039 419.643L630.699 422.228L633.049 424.537L635.688 427.142L638.030 429.459L640.666 432.068L643.008 434.385L645.643 436.994L647.985 439.311L650.621 441.919L652.963 444.237L655.599 446.845L657.940 449.163L660.576 451.771L662.918 454.088L665.554 456.697L667.896 459.014L670.532 461.622L672.875 463.938L675.515 466.542L677.861 468.855L680.502 471.458L682.849 473.770L685.491 476.373L687.838 478.685L690.480 481.288L692.827 483.600L695.468 486.202L697.815 488.515L700.457 491.117L702.804 493.429L705.446 496.032L707.792 498.344L710.432 500.948L712.775 503.265L715.407 505.877L717.743 508.201L720.369 510.818L722.703 513.144L725.329 515.762L727.662 518.088L730.288 520.706L732.621 523.032L735.248 525.650L737.581 527.976L740.207 530.594L742.540 532.920L745.166 535.538L747.500 537.864L750.126 540.482L752.459 542.808L755.085 545.426L757.418 547.752L760.044 550.370L762.378 552.696L765.004 555.314L767.337 557.640L769.963 560.258L772.296 562.584L774.923 565.202L777.256 567.528L779.882 570.146L782.215 572.472L784.841 575.090L787.174 577.416L789.801 580.034L792.131 582.357L794.737 584.956L796.914 587.128L799.332 589.539L801.366 591.567L803.880 594.072L806.151 596.334L808.813 598.989L811.142 601.314L813.011 603.181L814.326 604.496" stroke="url(&quot;#theme-accent-gradient-linear&quot;) rgb(90, 110, 216)" stroke-width="45" fill="none" stroke-linecap="round" stroke-linejoin="round"/><path id="path-3-0" d="M781.440 731.640L784.422 732.077L787.984 732.368L792.968 732.556L797.955 732.365L802.977 731.871L807.989 731.046L813.144 729.826L818.371 728.107L823.707 725.839L828.920 722.985L833.934 719.539L838.589 715.528L842.775 711.032L846.337 706.104L849.219 700.866L851.425 695.484L853.017 690.179L854.058 685.031L854.633 679.960L854.816 674.902L854.599 669.843L854.010 664.790L853.007 659.777L851.573 654.657L849.620 649.501L848.005 645.714L846.408 642.540" stroke="url(&quot;#theme-accent-gradient-linear&quot;) rgb(90, 110, 216)" stroke-width="45" fill="none" stroke-linecap="round" stroke-linejoin="round"/><path id="path-4-0" d="M645.093 615.007L648.105 617.965L651.666 621.475L656.651 626.383L661.640 631.298L666.620 636.200L671.500 641.004L676.308 645.738L681.027 650.384L685.853 655.135L690.751 659.956L695.742 664.869L700.732 669.782L705.723 674.694L710.713 679.607L715.704 684.519L720.693 689.434L725.678 694.353L730.665 699.269L735.635 704.202L739.192 707.725L742.172 710.739" stroke="url(&quot;#theme-accent-gradient-linear&quot;) rgb(90, 110, 216)" stroke-width="45" fill="none" stroke-linecap="round" stroke-linejoin="round"/><path id="path-5-0" d="M663.665 798.352L665.724 799.933L667.552 800.998L670.251 802.668L672.566 803.756L675.223 804.905L677.645 805.799L680.373 806.668L682.632 807.312L685.311 807.942L687.649 808.404L690.375 808.843L692.687 809.120L695.294 809.317L697.572 809.386L700.260 809.328L702.640 809.175L705.501 808.858L707.892 808.500L710.707 807.920L712.906 807.365L715.588 806.552L717.833 805.769L720.680 804.638L723.283 803.456L726.318 801.867L728.955 800.303L731.842 798.305L734.582 796.025L737.622 793.190L740.530 790.076L742.898 787.295L744.915 784.524L746.400 782.134L747.964 779.258L749.351 776.195L750.733 772.681L751.919 769.119L752.813 766.011L753.529 763.025L753.993 760.600L754.396 757.847L754.622 755.539L754.750 752.850L754.741 750.450L754.677 748.442L754.575 746.923" stroke="url(&quot;#theme-accent-gradient-linear&quot;) rgb(90, 110, 216)" stroke-width="45" fill="none" stroke-linecap="round" stroke-linejoin="round"/><path id="path-6-0" d="M552.504 697.282L555.401 700.073L558.803 703.300L563.737 707.942L568.747 712.640L573.854 717.433L578.951 722.239L584.024 727.048L588.978 731.777L593.836 736.459L598.596 741.062L603.464 745.775L608.400 750.558L613.423 755.440L618.407 760.360L623.303 765.367L626.758 768.992L629.607 772.137" stroke="url(&quot;#theme-accent-gradient-linear&quot;) rgb(90, 110, 216)" stroke-width="45" fill="none" stroke-linecap="round" stroke-linejoin="round"/><path id="path-7-0" d="M537.061 844.962L538.685 846.369L540.291 847.720L542.954 849.820L545.245 851.534L548.003 853.535L550.361 855.151L553.159 856.961L555.441 858.291L558.142 859.774L560.391 860.839L563.069 861.991L565.448 862.801L568.159 863.668L570.572 864.308L573.202 864.940L575.481 865.377L578.060 865.776L580.346 866.032L583 866.235L585.331 866.326L588.010 866.341L590.341 866.266L593.095 866.035L595.951 865.587L599.284 864.900L602.742 863.978L605.715 863.081L608.570 862.020L610.886 861.031L613.638 859.653L616.146 858.222L619.018 856.316L621.589 854.336L624.317 851.954L626.549 849.768L628.837 847.213L630.958 844.271L633.446 840.201L635.653 835.893L637.457 831.670L638.477 828.599L639.136 825.729L639.483 823.354L639.767 820.392L639.865 817.623L639.906 815.341L639.861 813.722" stroke="url(&quot;#theme-accent-gradient-linear&quot;) rgb(90, 110, 216)" stroke-width="45" fill="none" stroke-linecap="round" stroke-linejoin="round"/><path id="path-8-0" d="M463.705 777.751L465.442 779.388L467.678 781.508L470.748 784.412L473.495 787.014L476.246 789.609L478.641 791.867L481.341 794.412L483.739 796.673L486.438 799.218L488.837 801.479L491.528 804.018L493.900 806.261L496.466 808.688L498.672 810.773L500.363 812.365L501.574 813.501" stroke="url(&quot;#theme-accent-gradient-linear&quot;) rgb(90, 110, 216)" stroke-width="45" fill="none" stroke-linecap="round" stroke-linejoin="round"/><path id="path-9-0" d="M4 426.903L5.370 428.162L7.302 429.966L9.696 432.225L12.417 434.849L15.117 437.491L18.124 440.455L21.133 443.413L23.829 446.062L26.533 448.702L28.889 451L31.547 453.588L33.908 455.885L36.567 458.471L38.928 460.769L41.586 463.355L43.948 465.652L46.606 468.239L48.966 470.538L51.621 473.127L53.979 475.428L56.632 478.019L58.990 480.320L61.644 482.911L64.001 485.212L66.655 487.803L69.012 490.105L71.666 492.695L74.024 494.997L76.676 497.589L79.028 499.896L81.676 502.498L84.034 504.818L86.611 507.355L88.831 509.559L91.127 511.883L93.107 513.951L95.045 516.479L96.732 518.720L98.136 523.060L99.971 522.230L100.493 524.648L102.383 527.119L104.089 529.910L106.018 533.027L107.696 536.215L109.155 539.125L110.479 541.929L111.573 544.383L112.747 547.047L113.769 549.379L114.977 552.143L116.219 554.986L117.857 558.737L119.569 562.626L121.293 566.478L122.759 569.587L124.165 572.358L125.439 574.732L126.790 577.232L128.049 579.565L129.514 582.155L130.976 584.575L132.667 587.167L134.287 589.517L136.275 592.171L138.519 594.952L141.202 598.070L143.992 601.203L146.546 603.970L149.124 606.705L151.409 609.076L153.991 611.738L156.295 614.094L158.897 616.736L161.215 619.077L163.826 621.710L166.147 624.048L168.760 626.680L171.081 629.018L173.693 631.650L176.014 633.988L178.626 636.620L180.946 638.958L183.614 641.657L186.278 644.357L189.247 647.377L192.196 650.378L194.830 653.067L197.460 655.758L199.754 658.114L202.342 660.770L204.642 663.130L207.229 665.787L209.529 668.146L212.116 670.803L214.416 673.163L217.010 675.813L219.322 678.160L221.938 680.788L224.269 683.116L226.896 685.733L229.230 688.058L231.857 690.675L234.191 693L236.819 695.618L239.153 697.943L241.780 700.560L244.114 702.885L246.741 705.502L249.075 707.827L251.705 710.442L254.047 712.758L256.698 715.352L259.069 717.640L261.744 720.200L264.116 722.455L266.687 724.896L268.892 726.991L271.308 729.292L273.530 731.415L276.121 733.890L278.505 736.166L281.190 738.726L283.575 741L286.260 743.559L288.646 745.832L291.328 748.387L293.702 750.645L296.273 753.093L298.471 755.197L300.771 757.424L302.798 759.413L305.074 761.670L307.226 763.824L309.725 766.345L312.024 768.679L314.617 771.321L316.924 773.673L319.521 776.320L321.828 778.672L324.425 781.320L326.732 783.672L329.329 786.319L331.636 788.671L334.239 791.313L336.560 793.651L339.187 796.268L341.531 798.583L344.171 801.181L346.509 803.481L349.045 805.975L351.222 808.114L353.610 810.444L355.812 812.573L358.388 815.043L360.768 817.311L363.457 819.864L365.848 822.130L368.532 824.659L370.779 826.769L373.272 829.110L375.353 831.085L377.928 833.521L380.270 835.705L383.059 838.230L385.534 840.407L388.319 842.827L390.644 844.846L393.218 847.088L395.384 848.975L397.986 851.208L400.290 853.130L402.852 855.193L405.119 856.936L407.616 858.772L409.964 860.409L412.662 862.152L415.487 863.834L418.661 865.600L421.953 867.286L425.385 868.821L428.826 870.194L432.331 871.377L435.590 872.362L438.905 873.193L442.089 873.843L444.967 874.308L447.746 874.624L450.062 874.811L452.755 874.961L455.117 875.035L457.846 875.034L460.036 874.956L462.662 874.715L464.866 874.404L467.657 873.865L469.888 873.339L472.643 872.553L475.013 871.761L478.014 870.637L480.708 869.508L483.707 868.081L486.231 866.715L488.905 865.058L491.204 863.471L493.776 861.474L495.994 859.624L498.451 857.315L499.873 855.937L501.394 854.287" stroke="url(&quot;#theme-accent-gradient-linear&quot;) rgb(90, 110, 216)" stroke-width="45" fill="none" stroke-linecap="round" stroke-linejoin="round"/><path id="path-10-0" d="M853.407 598.207L856.428 595.234L859.996 591.723L864.980 586.779L869.843 581.887L874.604 577.032L879.212 572.275L883.879 567.440L888.619 562.533L893.485 557.538L898.394 552.544L903.326 547.572L908.253 542.630L913.085 537.800L917.852 533.049L922.545 528.376L927.346 523.577L932.203 518.681L937.041 513.767L941.798 508.925L946.440 504.202L951.162 499.404L955.949 494.527L960.826 489.533L965.714 484.518L970.605 479.505L975.520 474.517L980.442 469.536L985.359 464.549L990.255 459.542L995.148 454.515L999.959 449.580L1004.706 444.722L1009.331 440.006L1013.944 435.364L1017.239 432.069L1020 429.391" stroke="url(&quot;#theme-accent-gradient-linear&quot;) rgb(90, 110, 216)" stroke-width="45" fill="none" stroke-linecap="round" stroke-linejoin="round"/><path id="path-extension-1" d="M495.343 230.553L480.200 240.174" stroke="url(&quot;#theme-accent-gradient-linear&quot;) rgb(90, 110, 216)" stroke-width="45" fill="none" stroke-linecap="round" stroke-linejoin="round"/><path id="path-extension-2" d="M465.845 216.977L492.699 229.278" stroke="url(&quot;#theme-accent-gradient-linear&quot;) rgb(90, 110, 216)" stroke-width="45" fill="none" stroke-linecap="round" stroke-linejoin="round"/><path id="path-extension-3" d="M467.309 251.411L480.200 240.174" stroke="url(&quot;#theme-accent-gradient-linear&quot;) rgb(90, 110, 216)" stroke-width="45" fill="none" stroke-linecap="round" stroke-linejoin="round"/><path id="path-extension-4" d="M814.326 604.496L830.535 620.709" stroke="url(&quot;#theme-accent-gradient-linear&quot;) rgb(90, 110, 216)" stroke-width="45" fill="none" stroke-linecap="round" stroke-linejoin="round"/><path id="path-extension-5" d="M781.440 731.640L759.689 728.457" stroke="url(&quot;#theme-accent-gradient-linear&quot;) rgb(90, 110, 216)" stroke-width="45" fill="none" stroke-linecap="round" stroke-linejoin="round"/><path id="path-extension-6" d="M846.408 642.540L840.375 630.551" stroke="url(&quot;#theme-accent-gradient-linear&quot;) rgb(90, 110, 216)" stroke-width="45" fill="none" stroke-linecap="round" stroke-linejoin="round"/><path id="path-extension-7" d="M742.172 710.739L752.870 721.559" stroke="url(&quot;#theme-accent-gradient-linear&quot;) rgb(90, 110, 216)" stroke-width="45" fill="none" stroke-linecap="round" stroke-linejoin="round"/><path id="path-extension-8" d="M663.665 798.352L638.908 779.344" stroke="url(&quot;#theme-accent-gradient-linear&quot;) rgb(90, 110, 216)" stroke-width="45" fill="none" stroke-linecap="round" stroke-linejoin="round"/><path id="path-extension-9" d="M754.575 746.923L753.270 727.517" stroke="url(&quot;#theme-accent-gradient-linear&quot;) rgb(90, 110, 216)" stroke-width="45" fill="none" stroke-linecap="round" stroke-linejoin="round"/><path id="path-extension-10" d="M629.607 772.137L629.805 772.356" stroke="url(&quot;#theme-accent-gradient-linear&quot;) rgb(90, 110, 216)" stroke-width="45" fill="none" stroke-linecap="round" stroke-linejoin="round"/><path id="path-extension-11" d="M639.861 813.722L638.995 782.498" stroke="url(&quot;#theme-accent-gradient-linear&quot;) rgb(90, 110, 216)" stroke-width="45" fill="none" stroke-linecap="round" stroke-linejoin="round"/><path id="path-extension-12" d="M853.407 598.207L833.804 617.492" stroke="url(&quot;#theme-accent-gradient-linear&quot;) rgb(90, 110, 216)" stroke-width="45" fill="none" stroke-linecap="round" stroke-linejoin="round"/><path id="path-connection-1" d="M480.200 240.174L480.200 240.174" stroke="url(&quot;#theme-accent-gradient-linear&quot;) rgb(90, 110, 216)" stroke-width="45" fill="none" stroke-linecap="round" stroke-linejoin="round"/><path id="path-connection-2" d="M501.574 813.501L521.817 832.116" stroke="url(&quot;#theme-accent-gradient-linear&quot;) rgb(90, 110, 216)" stroke-width="45" fill="none" stroke-linecap="round" stroke-linejoin="round"/><path id="path-connection-3" d="M501.394 854.287L521.817 832.116" stroke="url(&quot;#theme-accent-gradient-linear&quot;) rgb(90, 110, 216)" stroke-width="45" fill="none" stroke-linecap="round" stroke-linejoin="round"/><path id="path-connection-4" d="M537.061 844.962L521.817 832.116" stroke="url(&quot;#theme-accent-gradient-linear&quot;) rgb(90, 110, 216)" stroke-width="45" fill="none" stroke-linecap="round" stroke-linejoin="round"/></g></svg>