<svg xmlns="http://www.w3.org/2000/svg" viewBox="-13.788999557495117 -41 1051.5780029296875 1106" width="1024" height="1024" class="colorable-icon reset-top-left-margin" data-export-recolorable-svg="true" overflow="visible" xmlns:xlink="http://www.w3.org/1999/xlink" fill="rgb(0, 0, 0)" stroke="none"><g id="skeleton-paths" stroke-width="45.0" fill="rgb(0, 0, 0)" stroke="none"><path id="path-0-0" d="M294.584 257.945L294.576 255.754L294.571 253.155L294.558 250.298L294.540 247.610L294.520 245.473L294.496 243.068L294.475 240.931L294.451 238.525L294.431 236.388L294.408 233.983L294.389 231.846L294.369 229.441L294.352 227.304L294.336 224.899L294.323 222.762L294.311 220.356L294.304 218.219L294.299 215.814L294.297 213.677L294.300 211.272L294.306 209.135L294.316 206.730L294.331 204.593L294.352 202.187L294.376 200.050L294.409 197.645L294.444 195.508L294.504 193.108L294.569 191.026L294.668 188.629L294.748 186.546L294.832 184.064L294.879 181.948L294.956 179.485L295.061 177.363L295.257 174.900L295.474 172.783L295.760 170.357L296.018 168.319L296.346 165.928L296.655 163.860L297.042 161.437L297.405 159.320L297.843 156.899L298.346 154.363L299.071 150.994L300.009 147.025L301.024 142.989L302 139.375L302.765 136.728L303.517 134.256L304.292 131.905L305.223 129.147L306.260 126.265L307.220 123.670L308.265 121.027L309.335 118.476L310.631 115.505L311.984 112.540L313.213 109.934L314.406 107.516L315.469 105.458L316.745 103.072L317.936 100.932L319.338 98.496L320.804 96.083L322.618 93.183L324.588 90.156L326.429 87.404L328.216 84.858L329.776 82.722L331.483 80.463L333.071 78.428L334.880 76.200L336.646 74.102L338.748 71.697L340.750 69.487L343.066 67.028L345.183 64.871L347.599 62.509L349.776 60.467L352.160 58.307L354.237 56.485L356.587 54.497L359.004 52.539L361.793 50.344L364.647 48.180L367.313 46.211L369.954 44.338L372.231 42.776L374.694 41.146L377.315 39.496L380.735 37.426L384.673 35.139L388.626 32.923L392.186 31.016L395.365 29.401L398.774 27.756L402.148 26.183L405.455 24.694L408.041 23.575L410.504 22.550L412.656 21.692L414.995 20.783L417.147 19.979L419.618 19.092L422.355 18.148L425.729 17.035L429.083 15.961L432.382 14.951L434.967 14.194L437.642 13.448L439.862 12.862L442.518 12.175L445.165 11.535L448.478 10.754L451.815 10.013L455.150 9.310L458.173 8.723L461.153 8.183L464.189 7.672L467.170 7.201L470.276 6.749L473.214 6.355L475.813 6.031L478.365 5.742L480.895 5.477L483.852 5.178L486.778 4.901L489.388 4.680L491.957 4.500L494.208 4.382L496.819 4.265L499.368 4.180L502.216 4.094L505.037 4.039L507.516 4.005L510.024 4L512.128 4.011L514.617 4.033L516.709 4.054L519.136 4.080L521.232 4.105L523.648 4.154L525.785 4.221L528.190 4.337L530.327 4.466L532.773 4.644L534.903 4.817L537.357 5.037L539.420 5.237L541.837 5.487L543.899 5.716L546.330 6.005L548.444 6.275L550.910 6.611L553.015 6.915L555.497 7.296L557.553 7.628L560.043 8.052L562.589 8.522L565.939 9.175L569.425 9.892L572.820 10.623L575.546 11.241L578.087 11.856L580.299 12.417L582.830 13.083L585.446 13.812L588.856 14.807L592.674 15.981L596.541 17.213L599.897 18.335L602.545 19.259L604.990 20.161L607.155 20.979L609.626 21.951L612.137 22.973L615.092 24.220L618.063 25.519L620.810 26.754L623.375 27.951L625.591 29.019L627.974 30.208L630.065 31.283L632.379 32.511L634.341 33.580L636.687 34.891L638.820 36.114L641.280 37.562L643.497 38.904L646.052 40.508L648.857 42.340L652.270 44.655L655.700 47.059L658.957 49.436L661.604 51.439L664.256 53.560L666.899 55.779L669.822 58.322L672.684 60.924L675.194 63.281L677.557 65.610L679.512 67.615L681.602 69.850L683.485 71.940L685.555 74.311L687.376 76.456L689.364 78.880L691.387 81.454L693.658 84.445L695.879 87.479L697.764 90.149L699.455 92.653L700.866 94.841L702.402 97.310L703.923 99.875L705.575 102.738L707.220 105.707L708.803 108.689L710.338 111.714L711.812 114.770L713.252 117.917L714.755 121.400L716.181 124.896L717.519 128.327L718.516 131.049L719.431 133.656L720.260 136.214L721.282 139.470L722.282 142.860L723.227 146.200L723.943 148.931L724.563 151.506L725.066 153.755L725.609 156.320L726.107 158.914L726.645 161.854L727.148 164.898L727.598 167.862L728.008 170.883L728.350 173.776L728.616 176.361L728.807 178.853L728.923 180.990L729.027 183.395L729.104 185.532L729.184 187.938L729.251 190.075L729.319 192.480L729.374 194.617L729.431 197.022L729.477 199.159L729.523 201.565L729.559 203.701L729.595 206.107L729.621 208.244L729.647 210.649L729.666 212.786L729.681 215.217L729.691 217.343L729.697 219.856L729.700 222.377L729.700 225.334L729.692 228.262L729.682 230.864L729.666 233.360L729.649 235.497L729.627 237.903L729.605 240.040L729.577 242.445L729.549 244.582L729.521 246.994L729.500 249.143L729.485 251.641L729.470 253.911L729.462 255.803L729.450 257.124" stroke="url(&quot;#theme-accent-gradient-linear&quot;) rgb(90, 110, 216)" stroke-width="45" fill="none" stroke-linecap="round" stroke-linejoin="round"/><path id="path-1-0" d="M717.514 406.742L718.919 406.088L720.754 405.165L723.082 403.914L725.683 402.320L728.358 400.412L731.364 398.056L734.233 395.536L736.674 393.223L738.850 390.901L740.620 388.857L742.552 386.402L744.393 383.767L746.662 380.149L748.752 376.495L750.721 372.725L752.151 369.635L753.444 366.488L754.576 363.429L755.663 360.197L756.739 356.623L757.777 352.705L758.723 348.762L759.453 345.250L759.948 342.516L760.349 339.924L760.686 337.330L761.021 334.463L761.316 331.530L761.552 329.009L761.771 326.432L761.943 324.263L762.109 321.800L762.218 319.663L762.292 317.258L762.316 315.121L762.296 312.716L762.235 310.579L762.075 308.085L761.765 305.404L761.142 301.939L760.125 297.901L758.770 293.811L757.144 289.964L755.293 286.725L753.234 283.683L750.901 280.910L748.684 278.567L746.262 276.467L743.965 274.749L741.184 272.915L739.292 271.757L737.326 270.655" stroke="url(&quot;#theme-accent-gradient-linear&quot;) rgb(90, 110, 216)" stroke-width="45" fill="none" stroke-linecap="round" stroke-linejoin="round"/><path id="path-2-0" d="M320.994 417.972L321.492 419.863L321.987 421.675L322.789 424.569L323.502 427.054L324.272 429.666L324.964 431.918L325.720 434.298L326.441 436.491L327.233 438.840L327.991 441.022L328.814 443.324L329.602 445.472L330.515 447.878L331.552 450.535L332.745 453.514L333.985 456.536L335.088 459.151L336.136 461.563L337.067 463.643L338.094 465.883L339.114 468.054L340.287 470.493L341.382 472.726L342.632 475.205L343.897 477.639L345.366 480.409L346.864 483.153L348.253 485.652L349.797 488.325L351.439 491.087L353.349 494.220L355.203 497.180L356.851 499.746L358.546 502.291L360.392 504.966L362.558 508.021L364.773 511.061L366.722 513.666L368.637 516.141L370.386 518.334L372.377 520.769L374.182 522.924L376.176 525.237L378.035 527.334L380.225 529.742L382.278 531.940L384.626 534.389L386.751 536.538L389.171 538.919L391.346 540.998L393.732 543.218L395.812 545.100L398.109 547.116L400.249 548.938L402.674 550.943L404.861 552.702L407.336 554.622L410.012 556.603L413.360 558.989L416.803 561.358L420.084 563.538L422.747 565.239L425.246 566.761L427.490 568.080L430.026 569.515L432.644 570.932L435.567 572.464L438.444 573.911L440.998 575.152L443.513 576.311L446.196 577.477L449.550 578.866L453.085 580.258L456.491 581.539L459.234 582.507L461.787 583.355L464.449 584.166L467.875 585.149L471.827 586.195L475.723 587.164L479.183 587.944L481.721 588.466L484.217 588.920L486.267 589.260L488.763 589.645L490.864 589.940L493.340 590.259L495.472 590.497L497.909 590.736L500.046 590.909L502.451 591.070L504.588 591.182L506.993 591.274L509.130 591.322L511.535 591.341L513.672 591.327L516.078 591.276L518.215 591.203L520.708 591.079L523.296 590.903L526.197 590.671L529.134 590.393L531.652 590.125L534.187 589.812L536.349 589.505L538.804 589.122L540.912 588.761L543.258 588.326L545.325 587.910L547.850 587.362L550.564 586.714L554.079 585.809L558.095 584.679L562.454 583.358L566.530 582.026L570.046 580.793L572.793 579.765L575.369 578.737L577.981 577.630L580.944 576.323L584.003 574.910L586.613 573.663L589.117 572.410L591.109 571.370L593.570 570.036L596.160 568.563L599.226 566.767L602.300 564.899L604.980 563.215L607.551 561.530L610.066 559.795L612.905 557.785L615.807 555.662L618.366 553.742L620.851 551.804L623.059 550.026L625.599 547.921L627.898 545.961L630.487 543.669L633.010 541.332L635.811 538.661L638.571 535.924L641.024 533.429L643.336 530.982L645.246 528.899L647.284 526.607L649.124 524.481L651.160 522.067L652.958 519.885L654.823 517.566L656.449 515.494L658.184 513.231L659.755 511.133L661.422 508.856L662.939 506.739L664.653 504.279L666.531 501.491L668.881 497.884L671.435 493.825L673.885 489.812L675.901 486.394L677.390 483.792L678.747 481.324L680.154 478.693L681.756 475.628L683.373 472.453L684.909 469.338L686.376 466.263L687.745 463.309L688.920 460.713L689.975 458.314L690.879 456.199L691.841 453.879L692.716 451.735L693.698 449.256L694.706 446.633L695.977 443.212L697.243 439.681L698.487 436.103L699.531 432.942L700.506 429.875L701.435 426.806L702.276 423.938L702.873 421.853L703.297 420.334" stroke="url(&quot;#theme-accent-gradient-linear&quot;) rgb(90, 110, 216)" stroke-width="45" fill="none" stroke-linecap="round" stroke-linejoin="round"/><path id="path-3-0" d="M284.888 271.273L283.339 272.140L281.182 273.504L278.277 275.599L275.013 278.410L271.990 281.490L269.310 284.662L267.423 287.354L265.948 290.003L264.831 292.631L263.788 295.471L262.978 298.277L262.386 300.645L261.952 303.108L261.687 305.188L261.461 307.675L261.347 309.753L261.275 312.194L261.303 314.716L261.379 317.594L261.501 320.607L261.608 323.156L261.739 325.712L261.881 327.832L262.085 330.314L262.345 332.895L262.660 335.785L263.052 338.843L263.513 341.852L264.155 345.325L264.880 348.772L265.671 352.203L266.375 354.863L267.068 357.288L267.732 359.367L268.429 361.593L269.149 363.653L269.992 365.922L270.913 368.150L272.055 370.706L273.416 373.462L275.038 376.512L276.828 379.602L278.508 382.270L280.311 384.834L282.043 387.061L284.165 389.568L286.220 391.792L288.711 394.227L291.421 396.539L294.888 399.179L298.536 401.644L302.290 403.918L305.481 405.629L308.556 407.132L310.478 408.021L312.257 408.842" stroke="url(&quot;#theme-accent-gradient-linear&quot;) rgb(90, 110, 216)" stroke-width="45" fill="none" stroke-linecap="round" stroke-linejoin="round"/><path id="path-extension-1" d="M294.584 257.945L294.611 265.830" stroke="url(&quot;#theme-accent-gradient-linear&quot;) rgb(90, 110, 216)" stroke-width="45" fill="none" stroke-linecap="round" stroke-linejoin="round"/><path id="path-extension-2" d="M729.450 257.124L729.372 266.197" stroke="url(&quot;#theme-accent-gradient-linear&quot;) rgb(90, 110, 216)" stroke-width="45" fill="none" stroke-linecap="round" stroke-linejoin="round"/><path id="path-extension-3" d="M717.514 406.742L705.535 412.321" stroke="url(&quot;#theme-accent-gradient-linear&quot;) rgb(90, 110, 216)" stroke-width="45" fill="none" stroke-linecap="round" stroke-linejoin="round"/><path id="path-extension-4" d="M737.326 270.655L729.372 266.197" stroke="url(&quot;#theme-accent-gradient-linear&quot;) rgb(90, 110, 216)" stroke-width="45" fill="none" stroke-linecap="round" stroke-linejoin="round"/><path id="path-extension-5" d="M320.994 417.972L319.463 412.168" stroke="url(&quot;#theme-accent-gradient-linear&quot;) rgb(90, 110, 216)" stroke-width="45" fill="none" stroke-linecap="round" stroke-linejoin="round"/><path id="path-extension-6" d="M703.297 420.334L705.535 412.321" stroke="url(&quot;#theme-accent-gradient-linear&quot;) rgb(90, 110, 216)" stroke-width="45" fill="none" stroke-linecap="round" stroke-linejoin="round"/><path id="path-extension-7" d="M284.888 271.273L294.611 265.830" stroke="url(&quot;#theme-accent-gradient-linear&quot;) rgb(90, 110, 216)" stroke-width="45" fill="none" stroke-linecap="round" stroke-linejoin="round"/><path id="path-extension-8" d="M312.257 408.842L319.463 412.168" stroke="url(&quot;#theme-accent-gradient-linear&quot;) rgb(90, 110, 216)" stroke-width="45" fill="none" stroke-linecap="round" stroke-linejoin="round"/><path id="path-connection-1" d="M294.611 265.830L294.611 265.830" stroke="url(&quot;#theme-accent-gradient-linear&quot;) rgb(90, 110, 216)" stroke-width="45" fill="none" stroke-linecap="round" stroke-linejoin="round"/><path id="path-connection-2" d="M729.372 266.197L729.372 266.197" stroke="url(&quot;#theme-accent-gradient-linear&quot;) rgb(90, 110, 216)" stroke-width="45" fill="none" stroke-linecap="round" stroke-linejoin="round"/><path id="path-connection-3" d="M705.535 412.321L705.535 412.321" stroke="url(&quot;#theme-accent-gradient-linear&quot;) rgb(90, 110, 216)" stroke-width="45" fill="none" stroke-linecap="round" stroke-linejoin="round"/><path id="path-connection-4" d="M319.463 412.168L319.463 412.168" stroke="url(&quot;#theme-accent-gradient-linear&quot;) rgb(90, 110, 216)" stroke-width="45" fill="none" stroke-linecap="round" stroke-linejoin="round"/></g><g id="skeleton-paths" stroke-width="45.0" fill="rgb(0, 0, 0)" stroke="none"><path id="path-0-0" d="M502.822 832.674L505.571 832.673L508.819 832.671L513.361 832.670L517.903 832.668L521.151 832.667L523.900 832.666" stroke="url(&quot;#theme-accent-gradient-linear&quot;) rgb(90, 110, 216)" stroke-width="45" fill="none" stroke-linecap="round" stroke-linejoin="round"/><path id="path-1-0" d="M544.890 847.114L545.021 848.496L545.256 850.583L545.525 852.939L545.886 855.590L546.187 857.625L546.563 859.999L546.891 862.052L547.307 864.573L547.676 866.777L548.125 869.332L548.578 871.869L549.108 874.787L549.663 877.794L550.239 880.854L550.913 884.349L551.599 887.856L552.298 891.383L552.939 894.551L553.657 898.044L554.384 901.535L555.124 905.061L555.769 908.101L556.395 911.037L557.004 913.872L557.553 916.424L558.110 918.994L558.599 921.244L559.144 923.753L559.614 925.913L560.150 928.374L560.711 930.948L561.437 934.268L562.184 937.686L562.936 941.098L563.527 943.772L564.127 946.465L564.696 949.020L565.345 951.933L565.993 954.836L566.566 957.396L567.169 960.088L567.741 962.643L568.394 965.556L569.044 968.458L569.619 971.018L570.224 973.709L570.797 976.264L571.451 979.177L572.101 982.079L572.676 984.640L573.281 987.329L573.854 989.885L574.521 992.865L575.174 995.790L575.625 997.809L576 999.494" stroke="url(&quot;#theme-accent-gradient-linear&quot;) rgb(90, 110, 216)" stroke-width="45" fill="none" stroke-linecap="round" stroke-linejoin="round"/><path id="path-2-0" d="M457.381 1019.994L459.399 1019.994L461.347 1019.994L464.216 1019.993L466.588 1019.994L469.102 1019.993L471.267 1019.993L473.683 1019.991L475.820 1019.990L478.226 1019.989L480.363 1019.988L482.768 1019.987L484.905 1019.985L487.310 1019.984L489.447 1019.983L491.852 1019.982L493.989 1019.981L496.395 1019.979L498.532 1019.978L500.937 1019.977L503.074 1019.976L505.479 1019.974L507.616 1019.973L510.021 1019.972L512.158 1019.971L514.564 1019.969L516.701 1019.968L519.106 1019.967L521.243 1019.966L523.648 1019.965L525.785 1019.963L528.190 1019.962L530.327 1019.961L532.733 1019.960L534.870 1019.959L537.275 1019.957L539.412 1019.956L541.817 1019.955L543.954 1019.954L546.359 1019.952L548.496 1019.951L550.902 1019.950L553.048 1019.949L555.499 1019.949L557.754 1019.949L560.629 1019.949L562.586 1019.949L564.887 1019.948" stroke="url(&quot;#theme-accent-gradient-linear&quot;) rgb(90, 110, 216)" stroke-width="45" fill="none" stroke-linecap="round" stroke-linejoin="round"/><path id="path-3-0" d="M449.451 998.297L450.020 995.654L450.702 992.514L451.675 988.069L452.677 983.554L453.693 979.015L454.715 974.477L455.742 969.936L456.771 965.400L457.803 960.865L458.836 956.324L459.869 951.788L460.900 947.253L461.930 942.711L462.956 938.173L463.977 933.636L464.994 929.091L466.003 924.549L467.003 920.007L467.996 915.456L468.967 910.938L469.925 906.379L470.855 901.794L471.750 897.145L472.579 892.512L473.348 887.929L474.072 883.386L474.767 878.909L475.448 874.383L476.108 869.879L476.759 865.296L477.384 860.752L477.942 856.159L478.316 852.903L478.560 850.105" stroke="url(&quot;#theme-accent-gradient-linear&quot;) rgb(90, 110, 216)" stroke-width="45" fill="none" stroke-linecap="round" stroke-linejoin="round"/><path id="path-4-0" d="M501.046 727.987L502.252 727.985L503.965 727.983L506.102 727.980L508.507 727.976L510.644 727.973L513.050 727.970L515.187 727.967L517.592 727.963L519.729 727.960L521.442 727.958L522.648 727.956" stroke="url(&quot;#theme-accent-gradient-linear&quot;) rgb(90, 110, 216)" stroke-width="45" fill="none" stroke-linecap="round" stroke-linejoin="round"/><path id="path-5-0" d="M551.080 746.675L552.234 747.929L553.922 749.763L556.279 752.324L558.238 754.452L559.973 756.338" stroke="url(&quot;#theme-accent-gradient-linear&quot;) rgb(90, 110, 216)" stroke-width="45" fill="none" stroke-linecap="round" stroke-linejoin="round"/><path id="path-6-0" d="M546.999 819.863L547.551 818.385L548.398 816.378L549.640 813.541L551.051 810.484L552.505 807.383L553.928 804.344L555.349 801.289L556.777 798.127L557.760 795.934L558.674 793.807" stroke="url(&quot;#theme-accent-gradient-linear&quot;) rgb(90, 110, 216)" stroke-width="45" fill="none" stroke-linecap="round" stroke-linejoin="round"/><path id="path-7-0" d="M465.393 794.504L466.705 797.501L468.204 800.929L470.247 805.624L472.255 810.280L473.698 813.643L474.957 816.579" stroke="url(&quot;#theme-accent-gradient-linear&quot;) rgb(90, 110, 216)" stroke-width="45" fill="none" stroke-linecap="round" stroke-linejoin="round"/><path id="path-8-0" d="M466.187 754.033L468.806 751.222L470.679 749.213L473.314 746.386" stroke="url(&quot;#theme-accent-gradient-linear&quot;) rgb(90, 110, 216)" stroke-width="45" fill="none" stroke-linecap="round" stroke-linejoin="round"/><path id="path-9-0" d="M734.338 658.314L737.143 659.481L740.343 660.814L744.878 662.701L749.385 664.576L753.985 666.491L758.514 668.377L762.995 670.243L767.464 672.103L771.966 673.975L776.565 675.890L781.104 677.780L785.587 679.647L790.054 681.505L794.546 683.374L799.146 685.288L803.669 687.170L808.219 689.062L812.720 690.931L817.322 692.841L821.871 694.729L826.360 696.593L830.825 698.446L835.310 700.307L839.888 702.207L844.479 704.112L849.067 706.016L853.663 707.924L858.253 709.829L862.841 711.733L867.437 713.642L872.025 715.550L876.611 717.461L881.211 719.379L885.737 721.266L890.215 723.134L894.680 725.004L899.173 726.906L903.732 728.878L908.255 730.909L912.801 733.069L917.420 735.419L922.098 737.986L926.694 740.712L931.216 743.637L935.682 746.795L940.249 750.290L944.817 754.099L949.207 758.070L953.442 762.287L957.323 766.490L961.078 770.917L964.494 775.289L967.778 779.828L970.757 784.316L973.521 788.850L976.050 793.406L978.375 797.991L980.501 802.606L982.408 807.205L984.126 811.824L985.650 816.445L986.995 821.016L988.189 825.631L989.221 830.163L990.108 834.755L990.831 839.275L991.419 843.849L991.880 848.390L992.220 852.923L992.456 857.461L992.608 861.994L992.704 866.568L992.756 871.107L992.779 875.657L992.782 880.186L992.777 884.729L992.773 889.271L992.773 893.813L992.775 898.355L992.777 902.898L992.779 907.440L992.779 911.982L992.780 916.524L992.781 921.067L992.781 925.609L992.782 930.151L992.782 934.693L992.783 939.236L992.784 943.778L992.784 948.320L992.785 952.862L992.785 957.405L992.786 961.947L992.787 966.489L992.787 971.031L992.788 975.574L992.788 980.116L992.789 984.658L992.789 989.189L992.789 993.765L992.776 998.468L992.764 1001.914L992.735 1004.960" stroke="url(&quot;#theme-accent-gradient-linear&quot;) rgb(90, 110, 216)" stroke-width="45" fill="none" stroke-linecap="round" stroke-linejoin="round"/><path id="path-10-0" d="M591.484 1019.842L594.562 1019.843L597.969 1019.843L602.677 1019.845L607.234 1019.846L611.777 1019.848L616.319 1019.850L620.861 1019.852L625.403 1019.854L629.946 1019.856L634.488 1019.858L639.030 1019.860L643.572 1019.862L648.115 1019.864L652.657 1019.866L657.199 1019.868L661.741 1019.870L666.284 1019.872L670.826 1019.873L675.368 1019.875L679.910 1019.877L684.453 1019.879L688.995 1019.881L693.537 1019.883L698.079 1019.885L702.622 1019.887L707.164 1019.889L711.706 1019.891L716.248 1019.893L720.791 1019.895L725.333 1019.897L729.875 1019.899L734.418 1019.901L738.960 1019.903L743.502 1019.905L748.044 1019.907L752.587 1019.909L757.129 1019.911L761.671 1019.912L766.213 1019.914L770.756 1019.916L775.298 1019.918L779.840 1019.920L784.382 1019.922L788.925 1019.924L793.467 1019.926L798.009 1019.928L802.551 1019.930L807.094 1019.932L811.636 1019.934L816.178 1019.936L820.720 1019.938L825.263 1019.940L829.805 1019.942L834.347 1019.944L838.889 1019.946L843.432 1019.948L847.974 1019.949L852.516 1019.951L857.058 1019.953L861.601 1019.955L866.143 1019.957L870.685 1019.959L875.227 1019.961L879.770 1019.963L884.312 1019.965L888.854 1019.967L893.397 1019.969L897.939 1019.971L902.481 1019.973L907.023 1019.975L911.566 1019.977L916.108 1019.979L920.650 1019.981L925.192 1019.983L929.735 1019.985L934.277 1019.986L938.819 1019.988L943.361 1019.990L947.904 1019.992L952.446 1019.994L956.988 1019.996L961.530 1019.998L966.083 1020L970.751 1019.988L974.118 1019.977L977.117 1019.949" stroke="url(&quot;#theme-accent-gradient-linear&quot;) rgb(90, 110, 216)" stroke-width="45" fill="none" stroke-linecap="round" stroke-linejoin="round"/><path id="path-11-0" d="M593.148 791.573L594.713 793.280L596.198 794.900L598.530 797.444L600.564 799.662L602.865 802.172L604.910 804.401L606.549 806.189L607.702 807.447" stroke="url(&quot;#theme-accent-gradient-linear&quot;) rgb(90, 110, 216)" stroke-width="45" fill="none" stroke-linecap="round" stroke-linejoin="round"/><path id="path-12-0" d="M639.115 807.956L640.450 805.149L641.790 802.336L643.291 799.180L644.579 796.476L645.571 794.393L646.767 791.886L647.795 789.733L648.983 787.247L649.955 785.211L651.145 782.721L652.172 780.569L653.371 778.057L654.349 776.006L655.493 773.607L656.505 771.489L657.667 769.057L658.678 766.941L659.798 764.598L660.765 762.574L661.945 760.108L662.973 757.955L664.160 755.470L665.132 753.433L666.322 750.943L667.350 748.790L668.549 746.278L669.527 744.227L670.672 741.827L671.683 739.709L672.845 737.278L673.856 735.161L674.976 732.819L675.943 730.795L677.122 728.330L678.150 726.177L679.338 723.692L680.310 721.654L681.499 719.165L682.527 717.012L683.715 714.526L684.687 712.490L685.856 710.042L686.876 707.902L688.088 705.362L689.261 702.902L690.650 699.997L692.064 697.040L693.317 694.421L694.515 691.914L695.487 689.876L696.677 687.387L697.704 685.234L698.893 682.748L699.864 680.712L701.050 678.231L702.098 676.039L703.333 673.460L704.065 671.927L704.853 670.284" stroke="url(&quot;#theme-accent-gradient-linear&quot;) rgb(90, 110, 216)" stroke-width="45" fill="none" stroke-linecap="round" stroke-linejoin="round"/><path id="path-13-0" d="M31.412 1008.200L31.319 1006.686L31.268 1004.700L31.218 1002.380L31.211 999.870L31.211 997.776L31.211 995.438L31.211 993.382L31.212 991.026L31.213 988.889L31.214 986.484L31.215 984.347L31.216 981.942L31.217 979.805L31.218 977.399L31.219 975.262L31.220 972.857L31.221 970.720L31.222 968.315L31.222 966.178L31.223 963.772L31.224 961.636L31.225 959.230L31.226 957.093L31.227 954.688L31.228 952.551L31.229 950.146L31.230 948.009L31.231 945.603L31.232 943.467L31.233 941.031L31.234 938.924L31.234 936.568L31.235 934.624L31.235 932.304L31.236 930.204L31.238 927.657L31.239 925.402L31.240 922.910L31.242 920.755L31.243 918.350L31.244 916.213L31.245 913.808L31.245 911.671L31.246 909.265L31.247 907.128L31.248 904.723L31.249 902.586L31.251 900.181L31.253 898.044L31.256 895.639L31.259 893.502L31.261 891.096L31.262 888.959L31.260 886.554L31.257 884.417L31.254 882.012L31.251 879.875L31.249 877.470L31.249 875.333L31.252 872.927L31.257 870.790L31.267 868.385L31.280 866.248L31.302 863.843L31.329 861.706L31.374 859.301L31.431 857.164L31.520 854.758L31.627 852.621L31.779 850.216L31.945 848.079L32.166 845.675L32.384 843.589L32.677 841.153L33.031 838.649L33.480 835.735L34.016 832.701L34.609 829.705L35.277 826.695L35.986 823.748L36.743 820.873L37.516 818.100L38.427 815.202L39.451 812.185L40.849 808.452L42.452 804.492L44.110 800.619L45.654 797.289L46.950 794.677L48.350 792.029L49.619 789.744L51.111 787.180L52.666 784.685L54.545 781.786L56.545 778.851L58.388 776.242L60.262 773.748L61.995 771.554L63.995 769.126L65.827 766.992L67.864 764.729L69.763 762.716L72.060 760.393L74.506 758.057L77.327 755.473L80.143 753.029L82.667 750.929L85.146 748.998L87.392 747.340L89.991 745.503L92.633 743.732L95.454 741.895L98.272 740.155L100.727 738.696L103.262 737.282L105.518 736.085L107.968 734.832L110.126 733.770L112.514 732.639L115.054 731.479L118.014 730.161L120.966 728.874L123.601 727.743L126.141 726.671L128.816 725.550L132.149 724.157L135.651 722.691L139.021 721.280L141.739 720.140L144.297 719.072L146.975 717.957L150.332 716.563L153.853 715.102L157.390 713.633L160.653 712.279L164.201 710.806L168.048 709.209L171.941 707.593L175.554 706.093L178.844 704.727L182.308 703.289L185.793 701.843L189.138 700.454L191.866 699.322L194.426 698.259L197.100 697.149L200.431 695.767L203.938 694.311L207.317 692.908L210.045 691.775L212.605 690.712L215.279 689.603L218.609 688.220L222.116 686.764L225.496 685.361L228.225 684.228L230.785 683.166L233.457 682.056L236.880 680.636L240.447 679.155L244.064 677.653L247.253 676.329L250.752 674.877L254.592 673.283L258.533 671.647L262.224 670.115L265.448 668.776L268.860 667.360L272.276 665.942L275.620 664.554L278.300 663.441L280.825 662.393L283.390 661.328L286.375 660.089L289.362 658.849L292.174 657.683L294.159 656.860L295.914 656.133" stroke="url(&quot;#theme-accent-gradient-linear&quot;) rgb(90, 110, 216)" stroke-width="45" fill="none" stroke-linecap="round" stroke-linejoin="round"/><path id="path-14-0" d="M321.658 673.568L322.541 675.427L323.325 677.079L324.528 679.614L325.494 681.646L326.679 684.144L327.701 686.296L328.885 688.790L329.849 690.821L331.035 693.320L332.057 695.472L333.248 697.980L334.215 700.017L335.351 702.408L336.357 704.527L337.516 706.970L338.521 709.086L339.641 711.446L340.602 713.471L341.782 715.958L342.804 718.110L343.988 720.605L344.952 722.635L346.153 725.164L347.396 727.778L348.843 730.822L350.235 733.746L351.455 736.310L352.629 738.778L353.635 740.894L354.757 743.253L355.720 745.278L356.902 747.764L357.926 749.916L359.112 752.409L360.078 754.438L361.281 756.966L362.519 759.568L363.962 762.603L365.422 765.670L366.913 768.801L368.544 772.228L370.171 775.648L371.778 779.028L373.045 781.693L374.243 784.210L375.209 786.239L376.411 788.767L377.644 791.360L379.084 794.388L380.581 797.539L382.235 801.020L383.540 803.768L384.819 806.462" stroke="url(&quot;#theme-accent-gradient-linear&quot;) rgb(90, 110, 216)" stroke-width="45" fill="none" stroke-linecap="round" stroke-linejoin="round"/><path id="path-15-0" d="M415.676 808.320L416.974 806.906L418.352 805.407L420.536 803.030L422.555 800.835L424.842 798.346L426.888 796.118L429.191 793.611L431.237 791.383L432.877 789.597L434.032 788.339" stroke="url(&quot;#theme-accent-gradient-linear&quot;) rgb(90, 110, 216)" stroke-width="45" fill="none" stroke-linecap="round" stroke-linejoin="round"/><path id="path-16-0" d="M43.017 1019.763L44.441 1019.868L46.371 1019.911L48.706 1019.959L51.217 1019.959L53.380 1019.959L55.796 1019.959L57.933 1019.959L60.338 1019.958L62.475 1019.958L64.880 1019.958L67.017 1019.958L69.422 1019.957L71.559 1019.957L73.965 1019.957L76.102 1019.957L78.507 1019.956L80.644 1019.956L83.049 1019.956L85.186 1019.956L87.591 1019.955L89.728 1019.955L92.134 1019.955L94.271 1019.955L96.676 1019.954L98.813 1019.954L101.218 1019.954L103.355 1019.954L105.761 1019.953L107.897 1019.953L110.303 1019.953L112.440 1019.953L114.845 1019.953L116.982 1019.952L119.387 1019.952L121.524 1019.952L123.930 1019.952L126.066 1019.951L128.472 1019.951L130.609 1019.951L133.014 1019.951L135.151 1019.950L137.556 1019.950L139.693 1019.950L142.099 1019.950L144.236 1019.949L146.641 1019.949L148.778 1019.949L151.183 1019.949L153.320 1019.948L155.725 1019.948L157.862 1019.948L160.268 1019.948L162.405 1019.947L164.810 1019.947L166.947 1019.947L169.352 1019.947L171.489 1019.946L173.894 1019.946L176.031 1019.946L178.437 1019.946L180.574 1019.945L182.979 1019.945L185.116 1019.945L187.521 1019.945L189.658 1019.945L192.063 1019.944L194.200 1019.944L196.606 1019.944L198.743 1019.944L201.148 1019.943L203.285 1019.943L205.690 1019.943L207.827 1019.943L210.232 1019.942L212.369 1019.942L214.775 1019.942L216.912 1019.942L219.317 1019.941L221.454 1019.941L223.859 1019.941L225.996 1019.941L228.401 1019.940L230.538 1019.940L232.944 1019.940L235.081 1019.940L237.486 1019.939L239.623 1019.939L242.028 1019.939L244.165 1019.939L246.570 1019.938L248.707 1019.938L251.113 1019.938L253.250 1019.938L255.655 1019.937L257.792 1019.937L260.197 1019.937L262.334 1019.937L264.740 1019.937L266.876 1019.936L269.282 1019.936L271.419 1019.936L273.824 1019.936L275.961 1019.935L278.366 1019.935L280.503 1019.935L282.909 1019.935L285.045 1019.934L287.451 1019.934L289.588 1019.934L291.993 1019.934L294.130 1019.933L296.535 1019.933L298.672 1019.933L301.078 1019.933L303.215 1019.932L305.620 1019.932L307.757 1019.932L310.162 1019.932L312.299 1019.931L314.704 1019.931L316.841 1019.931L319.247 1019.931L321.384 1019.930L323.789 1019.930L325.926 1019.930L328.331 1019.930L330.468 1019.929L332.873 1019.929L335.010 1019.929L337.416 1019.929L339.553 1019.929L341.958 1019.928L344.095 1019.928L346.500 1019.928L348.637 1019.928L351.042 1019.927L353.179 1019.927L355.585 1019.927L357.722 1019.927L360.127 1019.926L362.264 1019.926L364.669 1019.926L366.806 1019.926L369.211 1019.925L371.348 1019.925L373.754 1019.925L375.891 1019.925L378.296 1019.924L380.433 1019.924L382.838 1019.924L384.975 1019.924L387.380 1019.923L389.517 1019.923L391.923 1019.923L394.060 1019.923L396.465 1019.922L398.602 1019.922L401.007 1019.922L403.144 1019.922L405.549 1019.921L407.686 1019.921L410.092 1019.921L412.229 1019.921L414.634 1019.921L416.771 1019.920L419.176 1019.920L421.313 1019.920L423.822 1019.920L426.548 1019.919L429.713 1019.919L433.165 1019.920L436.313 1019.920L438.723 1019.920L440.432 1019.920" stroke="url(&quot;#theme-accent-gradient-linear&quot;) rgb(90, 110, 216)" stroke-width="45" fill="none" stroke-linecap="round" stroke-linejoin="round"/><path id="path-17-0" d="M682.596 621.019L684.747 623.946L687.444 627.367L691.352 632.021L695.524 636.428L698.645 639.523L701.429 642.037" stroke="url(&quot;#theme-accent-gradient-linear&quot;) rgb(90, 110, 216)" stroke-width="45" fill="none" stroke-linecap="round" stroke-linejoin="round"/><path id="path-18-0" d="M554.005 710.317L556.826 707.910L560.129 705.095L564.626 701.253L569.184 697.349L573.713 693.466L578.343 689.485L582.931 685.501L587.490 681.446L592.102 677.219L596.701 672.900L601.250 668.580L605.707 664.332L610.105 660.141L614.610 655.849L619.078 651.591L623.558 647.322L627.956 643.132L632.472 638.828L637.054 634.463L641.707 630.011L645.024 626.833L647.819 624.130" stroke="url(&quot;#theme-accent-gradient-linear&quot;) rgb(90, 110, 216)" stroke-width="45" fill="none" stroke-linecap="round" stroke-linejoin="round"/><path id="path-19-0" d="M372.114 619.795L373.326 620.995L375.052 622.697L377.207 624.815L379.640 627.192L381.808 629.299L384.252 631.665L386.427 633.764L388.878 636.124L391.057 638.218L393.510 640.576L395.690 642.670L398.145 645.026L400.329 647.115L402.795 649.461L404.988 651.541L407.452 653.875L409.634 655.945L411.992 658.188L414.022 660.126L416.230 662.245L418.258 664.201L420.613 666.476L422.782 668.574L425.227 670.937L427.401 673.036L429.852 675.397L432.031 677.491L434.483 679.843L436.661 681.927L439.029 684.177L441.079 686.099L443.330 688.174L445.414 690.063L447.757 692.168L449.856 694.040L452.146 696.064L454.256 697.912L456.716 700.050L458.993 702.019L461.474 704.157L463.616 705.990L465.952 707.971L468.104 709.780L470.610 711.881L472.270 713.274L473.941 714.680" stroke="url(&quot;#theme-accent-gradient-linear&quot;) rgb(90, 110, 216)" stroke-width="45" fill="none" stroke-linecap="round" stroke-linejoin="round"/><path id="path-20-0" d="M325.614 639.441L328.173 636.748L331.051 633.582L335.102 628.939L337.949 625.543L340.369 622.525" stroke="url(&quot;#theme-accent-gradient-linear&quot;) rgb(90, 110, 216)" stroke-width="45" fill="none" stroke-linecap="round" stroke-linejoin="round"/><path id="path-extension-1" d="M502.822 832.674L481.859 832.681" stroke="url(&quot;#theme-accent-gradient-linear&quot;) rgb(90, 110, 216)" stroke-width="45" fill="none" stroke-linecap="round" stroke-linejoin="round"/><path id="path-extension-2" d="M576 999.494L580.549 1019.886" stroke="url(&quot;#theme-accent-gradient-linear&quot;) rgb(90, 110, 216)" stroke-width="45" fill="none" stroke-linecap="round" stroke-linejoin="round"/><path id="path-extension-3" d="M449.451 998.297L444.794 1019.939" stroke="url(&quot;#theme-accent-gradient-linear&quot;) rgb(90, 110, 216)" stroke-width="45" fill="none" stroke-linecap="round" stroke-linejoin="round"/><path id="path-extension-4" d="M478.560 850.105L480.076 832.681" stroke="url(&quot;#theme-accent-gradient-linear&quot;) rgb(90, 110, 216)" stroke-width="45" fill="none" stroke-linecap="round" stroke-linejoin="round"/><path id="path-extension-5" d="M474.957 816.579L480.377 829.222" stroke="url(&quot;#theme-accent-gradient-linear&quot;) rgb(90, 110, 216)" stroke-width="45" fill="none" stroke-linecap="round" stroke-linejoin="round"/><path id="path-extension-6" d="M734.338 658.314L714.536 650.074" stroke="url(&quot;#theme-accent-gradient-linear&quot;) rgb(90, 110, 216)" stroke-width="45" fill="none" stroke-linecap="round" stroke-linejoin="round"/><path id="path-extension-7" d="M992.735 1004.960L992.595 1019.801" stroke="url(&quot;#theme-accent-gradient-linear&quot;) rgb(90, 110, 216)" stroke-width="45" fill="none" stroke-linecap="round" stroke-linejoin="round"/><path id="path-extension-8" d="M977.117 1019.949L992.595 1019.801" stroke="url(&quot;#theme-accent-gradient-linear&quot;) rgb(90, 110, 216)" stroke-width="45" fill="none" stroke-linecap="round" stroke-linejoin="round"/><path id="path-extension-9" d="M607.702 807.447L628.542 830.176" stroke="url(&quot;#theme-accent-gradient-linear&quot;) rgb(90, 110, 216)" stroke-width="45" fill="none" stroke-linecap="round" stroke-linejoin="round"/><path id="path-extension-10" d="M639.115 807.956L628.542 830.176" stroke="url(&quot;#theme-accent-gradient-linear&quot;) rgb(90, 110, 216)" stroke-width="45" fill="none" stroke-linecap="round" stroke-linejoin="round"/><path id="path-extension-11" d="M704.853 670.284L713.265 652.727" stroke="url(&quot;#theme-accent-gradient-linear&quot;) rgb(90, 110, 216)" stroke-width="45" fill="none" stroke-linecap="round" stroke-linejoin="round"/><path id="path-extension-12" d="M31.412 1008.200L32.071 1018.955" stroke="url(&quot;#theme-accent-gradient-linear&quot;) rgb(90, 110, 216)" stroke-width="45" fill="none" stroke-linecap="round" stroke-linejoin="round"/><path id="path-extension-13" d="M295.914 656.133L310.507 650.087" stroke="url(&quot;#theme-accent-gradient-linear&quot;) rgb(90, 110, 216)" stroke-width="45" fill="none" stroke-linecap="round" stroke-linejoin="round"/><path id="path-extension-14" d="M321.658 673.568L312.169 653.588" stroke="url(&quot;#theme-accent-gradient-linear&quot;) rgb(90, 110, 216)" stroke-width="45" fill="none" stroke-linecap="round" stroke-linejoin="round"/><path id="path-extension-15" d="M384.819 806.462L395.924 829.847" stroke="url(&quot;#theme-accent-gradient-linear&quot;) rgb(90, 110, 216)" stroke-width="45" fill="none" stroke-linecap="round" stroke-linejoin="round"/><path id="path-extension-16" d="M415.676 808.320L395.924 829.847" stroke="url(&quot;#theme-accent-gradient-linear&quot;) rgb(90, 110, 216)" stroke-width="45" fill="none" stroke-linecap="round" stroke-linejoin="round"/><path id="path-extension-17" d="M43.017 1019.763L32.071 1018.955" stroke="url(&quot;#theme-accent-gradient-linear&quot;) rgb(90, 110, 216)" stroke-width="45" fill="none" stroke-linecap="round" stroke-linejoin="round"/><path id="path-extension-18" d="M682.596 621.019L669.486 603.171" stroke="url(&quot;#theme-accent-gradient-linear&quot;) rgb(90, 110, 216)" stroke-width="45" fill="none" stroke-linecap="round" stroke-linejoin="round"/><path id="path-extension-19" d="M701.429 642.037L706.733 646.828" stroke="url(&quot;#theme-accent-gradient-linear&quot;) rgb(90, 110, 216)" stroke-width="45" fill="none" stroke-linecap="round" stroke-linejoin="round"/><path id="path-extension-20" d="M647.819 624.130L669.486 603.171" stroke="url(&quot;#theme-accent-gradient-linear&quot;) rgb(90, 110, 216)" stroke-width="45" fill="none" stroke-linecap="round" stroke-linejoin="round"/><path id="path-extension-21" d="M372.114 619.795L355.639 603.482" stroke="url(&quot;#theme-accent-gradient-linear&quot;) rgb(90, 110, 216)" stroke-width="45" fill="none" stroke-linecap="round" stroke-linejoin="round"/><path id="path-extension-22" d="M325.614 639.441L318.737 646.677" stroke="url(&quot;#theme-accent-gradient-linear&quot;) rgb(90, 110, 216)" stroke-width="45" fill="none" stroke-linecap="round" stroke-linejoin="round"/><path id="path-extension-23" d="M340.369 622.525L355.639 603.482" stroke="url(&quot;#theme-accent-gradient-linear&quot;) rgb(90, 110, 216)" stroke-width="45" fill="none" stroke-linecap="round" stroke-linejoin="round"/><path id="path-connection-1" d="M457.381 1019.994L440.432 1019.920" stroke="url(&quot;#theme-accent-gradient-linear&quot;) rgb(90, 110, 216)" stroke-width="45" fill="none" stroke-linecap="round" stroke-linejoin="round"/><path id="path-connection-2" d="M564.887 1019.948L591.484 1019.842" stroke="url(&quot;#theme-accent-gradient-linear&quot;) rgb(90, 110, 216)" stroke-width="45" fill="none" stroke-linecap="round" stroke-linejoin="round"/><path id="path-connection-3" d="M992.595 1019.801L992.595 1019.801" stroke="url(&quot;#theme-accent-gradient-linear&quot;) rgb(90, 110, 216)" stroke-width="45" fill="none" stroke-linecap="round" stroke-linejoin="round"/><path id="path-connection-4" d="M628.542 830.176L628.542 830.176" stroke="url(&quot;#theme-accent-gradient-linear&quot;) rgb(90, 110, 216)" stroke-width="45" fill="none" stroke-linecap="round" stroke-linejoin="round"/><path id="path-connection-5" d="M32.071 1018.955L32.071 1018.955" stroke="url(&quot;#theme-accent-gradient-linear&quot;) rgb(90, 110, 216)" stroke-width="45" fill="none" stroke-linecap="round" stroke-linejoin="round"/><path id="path-connection-6" d="M395.924 829.847L395.924 829.847" stroke="url(&quot;#theme-accent-gradient-linear&quot;) rgb(90, 110, 216)" stroke-width="45" fill="none" stroke-linecap="round" stroke-linejoin="round"/><path id="path-connection-7" d="M669.486 603.171L669.486 603.171" stroke="url(&quot;#theme-accent-gradient-linear&quot;) rgb(90, 110, 216)" stroke-width="45" fill="none" stroke-linecap="round" stroke-linejoin="round"/><path id="path-connection-8" d="M355.639 603.482L355.639 603.482" stroke="url(&quot;#theme-accent-gradient-linear&quot;) rgb(90, 110, 216)" stroke-width="45" fill="none" stroke-linecap="round" stroke-linejoin="round"/><path id="path-connection-9" d="M523.900 832.666L542.870 832.660" stroke="url(&quot;#theme-accent-gradient-linear&quot;) rgb(90, 110, 216)" stroke-width="45" fill="none" stroke-linecap="round" stroke-linejoin="round"/><path id="path-connection-10" d="M544.890 847.114L542.870 832.660" stroke="url(&quot;#theme-accent-gradient-linear&quot;) rgb(90, 110, 216)" stroke-width="45" fill="none" stroke-linecap="round" stroke-linejoin="round"/><path id="path-connection-11" d="M546.999 819.863L542.870 832.660" stroke="url(&quot;#theme-accent-gradient-linear&quot;) rgb(90, 110, 216)" stroke-width="45" fill="none" stroke-linecap="round" stroke-linejoin="round"/><path id="path-connection-12" d="M473.314 746.386L489.950 728.043" stroke="url(&quot;#theme-accent-gradient-linear&quot;) rgb(90, 110, 216)" stroke-width="45" fill="none" stroke-linecap="round" stroke-linejoin="round"/><path id="path-connection-13" d="M473.941 714.680L489.950 728.043" stroke="url(&quot;#theme-accent-gradient-linear&quot;) rgb(90, 110, 216)" stroke-width="45" fill="none" stroke-linecap="round" stroke-linejoin="round"/><path id="path-connection-14" d="M501.046 727.987L489.950 728.043" stroke="url(&quot;#theme-accent-gradient-linear&quot;) rgb(90, 110, 216)" stroke-width="45" fill="none" stroke-linecap="round" stroke-linejoin="round"/><path id="path-connection-15" d="M434.032 788.339L489.950 728.043" stroke="url(&quot;#theme-accent-gradient-linear&quot;) rgb(90, 110, 216)" stroke-width="45" fill="none" stroke-linecap="round" stroke-linejoin="round"/><path id="path-connection-16" d="M554.005 710.317L533.600 727.863" stroke="url(&quot;#theme-accent-gradient-linear&quot;) rgb(90, 110, 216)" stroke-width="45" fill="none" stroke-linecap="round" stroke-linejoin="round"/><path id="path-connection-17" d="M522.648 727.956L533.600 727.863" stroke="url(&quot;#theme-accent-gradient-linear&quot;) rgb(90, 110, 216)" stroke-width="45" fill="none" stroke-linecap="round" stroke-linejoin="round"/><path id="path-connection-18" d="M551.080 746.675L533.600 727.863" stroke="url(&quot;#theme-accent-gradient-linear&quot;) rgb(90, 110, 216)" stroke-width="45" fill="none" stroke-linecap="round" stroke-linejoin="round"/><path id="path-connection-19" d="M593.148 791.573L570.168 767.054" stroke="url(&quot;#theme-accent-gradient-linear&quot;) rgb(90, 110, 216)" stroke-width="45" fill="none" stroke-linecap="round" stroke-linejoin="round"/><path id="path-connection-20" d="M559.973 756.338L570.168 767.054" stroke="url(&quot;#theme-accent-gradient-linear&quot;) rgb(90, 110, 216)" stroke-width="45" fill="none" stroke-linecap="round" stroke-linejoin="round"/><path id="path-connection-21" d="M558.674 793.807L570.168 767.054" stroke="url(&quot;#theme-accent-gradient-linear&quot;) rgb(90, 110, 216)" stroke-width="45" fill="none" stroke-linecap="round" stroke-linejoin="round"/><path id="path-connection-22" d="M466.187 754.033L453.536 767.410" stroke="url(&quot;#theme-accent-gradient-linear&quot;) rgb(90, 110, 216)" stroke-width="45" fill="none" stroke-linecap="round" stroke-linejoin="round"/><path id="path-connection-23" d="M465.393 794.504L453.536 767.410" stroke="url(&quot;#theme-accent-gradient-linear&quot;) rgb(90, 110, 216)" stroke-width="45" fill="none" stroke-linecap="round" stroke-linejoin="round"/></g></svg>