<svg xmlns="http://www.w3.org/2000/svg" viewBox="-41 -36.157999992370605 1106 1096.3160400390625" width="1024" height="1024" class="colorable-icon reset-top-left-margin" data-export-recolorable-svg="true" overflow="visible" xmlns:xlink="http://www.w3.org/1999/xlink" fill="rgb(0, 0, 0)" stroke="none"><g id="skeleton-paths" stroke-width="45.0" fill="rgb(0, 0, 0)" stroke="none"><path id="path-0-0" d="M641.768 303.531L645 306.811L648.966 310.837L654.527 316.484L660.171 322.217L665.812 327.948L671.453 333.679L677.094 339.409L682.735 345.139L688.270 350.761L693.726 356.302L699.060 361.721L704.494 367.244L710.010 372.849L715.639 378.569L721.279 384.299L726.920 390.030L732.561 395.760L738.202 401.491L743.842 407.222L749.483 412.952L755.124 418.683L760.765 424.414L766.405 430.144L772.046 435.875L777.690 441.608L783.229 447.234L788.689 452.778L794.023 458.197L799.453 463.716L804.965 469.317L810.591 475.034L816.232 480.765L821.918 486.498L825.990 490.597L829.501 494.071" stroke="rgb(255, 255, 255)" stroke-width="45" fill="none" stroke-linecap="round" stroke-linejoin="round"/><path id="path-1-0" d="M641.833 710.040L645.131 706.779L648.937 703.014L654.422 697.588L659.988 692.081L665.681 686.449L671.398 680.795L677.114 675.140L682.831 669.485L688.548 663.831L694.265 658.176L699.981 652.522L705.669 646.895L711.232 641.392L716.711 635.971L722.117 630.624L727.675 625.128L733.312 619.552L739.046 613.882L744.763 608.227L750.479 602.572L756.196 596.918L761.913 591.263L767.630 585.608L773.346 579.954L779.063 574.299L784.780 568.644L790.497 562.990L796.213 557.335L801.930 551.681L807.647 546.026L813.364 540.371L819.080 534.717L824.903 528.934L829.084 524.779L832.774 521.079" stroke="rgb(255, 255, 255)" stroke-width="45" fill="none" stroke-linecap="round" stroke-linejoin="round"/><path id="path-extension-1" d="M829.501 494.071L844.707 509.115" stroke="rgb(255, 255, 255)" stroke-width="45" fill="none" stroke-linecap="round" stroke-linejoin="round"/><path id="path-extension-2" d="M832.774 521.079L844.707 509.115" stroke="rgb(255, 255, 255)" stroke-width="45" fill="none" stroke-linecap="round" stroke-linejoin="round"/><path id="path-connection-1" d="M844.707 509.115L844.707 509.115" stroke="rgb(255, 255, 255)" stroke-width="45" fill="none" stroke-linecap="round" stroke-linejoin="round"/></g><g id="skeleton-paths" stroke-width="45.0" fill="rgb(0, 0, 0)" stroke="none"><path id="path-0-0" d="M251.388 78.694L249.148 80.045L246.502 81.657L242.311 84.231L238.122 86.825L234.110 89.353L230.916 91.408L227.840 93.449L225.125 95.283L222.153 97.304L219.494 99.122L216.528 101.173L213.690 103.170L210.492 105.473L207.624 107.583L204.638 109.812L202.006 111.793L199.006 114.071L195.689 116.643L191.573 119.910L187.366 123.321L183.254 126.711L179.914 129.506L176.560 132.375L173.256 135.266L169.616 138.509L166.037 141.760L162.899 144.648L159.767 147.585L157.051 150.171L153.992 153.133L151.297 155.789L148.316 158.786L145.709 161.457L142.923 164.359L140.525 166.882L137.903 169.674L135.480 172.281L132.703 175.336L130.195 178.150L127.527 181.202L125.251 183.840L122.774 186.735L120.500 189.420L117.980 192.447L115.761 195.176L113.381 198.176L111.218 200.950L108.806 204.064L106.658 206.852L104.338 209.905L102.233 212.728L99.926 215.882L97.901 218.686L95.810 221.600L93.944 224.212L91.914 227.079L90.044 229.770L87.976 232.830L85.835 236.093L83.572 239.586L81.341 243.081L79.519 245.966L77.590 249.076L75.581 252.377L73.004 256.679L70.421 261.054L67.984 265.262L66.101 268.562L64.261 271.881L62.407 275.315L60.406 279.083L58.478 282.793L56.917 285.830L55.302 289.033L53.970 291.709L52.457 294.810L51.282 297.283L49.858 300.352L48.661 302.981L47.215 306.173L46.042 308.793L44.696 311.840L43.563 314.467L42.273 317.547L40.950 320.803L39.213 325.153L37.272 330.134L35.169 335.690L33.131 341.297L31.149 346.954L29.236 352.633L27.394 358.337L25.676 363.890L24.188 368.839L22.971 373.035L22.076 376.185L21.231 379.332L20.400 382.507L19.450 386.227L18.536 389.888L17.777 392.982L17.049 396.067L16.462 398.634L15.770 401.746L15.210 404.346L14.538 407.543L13.894 410.751L13.150 414.527L12.445 418.234L11.865 421.369L11.314 424.494L10.884 427.066L10.380 430.193L9.981 432.774L9.513 435.878L9.135 438.462L8.690 441.566L8.330 444.202L7.930 447.281L7.615 449.939L7.270 452.987L6.991 455.576L6.668 458.588L6.397 461.154L6.092 464.235L5.857 466.867L5.612 469.987L5.427 472.624L5.218 475.725L5.046 478.333L4.851 481.347L4.691 483.963L4.532 486.975L4.418 489.649L4.319 492.660L4.249 495.335L4.176 498.346L4.113 501.021L4.053 504.032L4.014 506.706L4 509.717L4.013 512.392L4.051 515.403L4.095 518.078L4.151 521.089L4.207 523.764L4.283 526.774L4.372 529.449L4.499 532.526L4.671 535.765L4.880 539.397L5.121 543.170L5.331 546.351L5.558 549.526L5.766 552.168L6.034 555.270L6.348 558.506L6.717 562.133L7.124 565.896L7.476 569.076L7.856 572.322L8.252 575.526L8.722 579.170L9.230 582.929L9.679 586.111L10.158 589.355L10.657 592.535L11.242 596.138L11.900 599.922L12.583 603.661L13.412 607.997L14.255 612.311L15.142 616.726L15.983 620.642L16.986 624.997L18.169 629.869L19.409 634.876L20.569 639.467L21.606 643.398L22.792 647.680L24.202 652.479L25.822 657.854L27.379 662.896L28.781 667.346L29.907 670.811L30.967 673.929L31.926 676.640L33.033 679.687L34.270 683.035L35.679 686.803L37.129 690.623L38.401 693.938L39.610 697.028L40.682 699.718L41.852 702.557L42.980 705.201L44.279 708.162L45.719 711.402L47.345 715.054L49.081 718.914L50.840 722.728L52.663 726.562L54.536 730.371L56.428 734.146L58.340 737.922L60.213 741.585L61.916 744.875L63.683 748.182L65.503 751.473L67.537 755.095L69.590 758.684L71.437 761.887L73.274 765.016L74.932 767.816L76.765 770.868L78.471 773.669L80.359 776.685L82.128 779.445L84.137 782.516L86.326 785.833L89.123 790.014L92.447 794.890L96.160 800.192L99.715 805.150L103.018 809.659L106.013 813.663L109.012 817.597L111.912 821.311L114.463 824.516L116.997 827.631L119.611 830.788L122.604 834.380L125.718 838.066L128.516 841.328L131.377 844.570L133.910 847.370L136.857 850.581L139.831 853.783L143.150 857.332L146.484 860.825L149.471 863.893L152.386 866.810L154.867 869.262L157.605 871.943L160.141 874.406L163.113 877.245L165.869 879.840L168.992 882.723L171.785 885.251L174.830 887.959L177.469 890.272L180.357 892.779L183.022 895.075L186.020 897.629L188.718 899.884L191.687 902.303L194.440 904.493L197.531 906.925L200.291 909.086L203.185 911.341L205.768 913.335L208.792 915.612L212.092 918.030L215.905 920.762L219.803 923.516L223.707 926.234L228.040 929.193L232.900 932.423L237.863 935.645L242.437 938.539L245.836 940.649L248.887 942.518L251.272 943.962L254.263 945.744L257.383 947.551L261.044 949.629L264.763 951.689L268.473 953.718L272.211 955.741L275.960 957.737L279.901 959.770L284.293 961.956L288.810 964.148L293.044 966.180L296.442 967.804L299.576 969.292L302.901 970.835L307.042 972.698L311.398 974.588L315.774 976.428L319.879 978.114L324.274 979.903L328.675 981.689L333.085 983.451L337.226 985.029L341.774 986.660L346.822 988.371L352.378 990.209L357.921 992.008L362.853 993.606L367.079 994.931L370.217 995.887L373.397 996.764L376.706 997.631L381.089 998.744L385.486 999.850L389.741 1000.920L392.930 1001.713L396.135 1002.504L399.466 1003.267L403.879 1004.226L408.311 1005.111L412.591 1005.931L415.781 1006.509L418.890 1007.067L421.457 1007.524L424.552 1008.079L427.174 1008.543L430.244 1009.075L432.865 1009.504L435.886 1009.962L438.454 1010.317L441.489 1010.702L444.107 1011.009L447.223 1011.361L449.876 1011.649L452.937 1011.984L455.508 1012.264L458.547 1012.603L461.150 1012.886L464.248 1013.204L466.928 1013.447L470 1013.691L472.602 1013.867L475.606 1014.038L478.191 1014.165L481.300 1014.309L483.948 1014.431L487.041 1014.577L489.698 1014.700L492.739 1014.839L495.414 1014.950L498.425 1015.055L501.100 1015.121L504.111 1015.158L506.785 1015.158L509.796 1015.126L512.471 1015.081L515.482 1015.020L518.157 1014.965L521.168 1014.904L523.843 1014.850L526.954 1014.779L530.218 1014.671L533.910 1014.522L537.656 1014.324L540.830 1014.138L544.048 1013.913L547.200 1013.671L550.871 1013.376L554.552 1013.072L557.745 1012.804L560.954 1012.522L564.083 1012.216L567.821 1011.822L571.540 1011.384L574.882 1010.964L578.124 1010.520L581.357 1010.053L584.936 1009.533L588.695 1008.975L592.391 1008.417L596.196 1007.815L599.878 1007.200L603.106 1006.629L606.438 1006.011L609.715 1005.361L613.453 1004.600L617.221 1003.806L621.115 1002.974L625.429 1002.039L629.801 1001.067L634.111 1000.069L638.130 999.072L642.555 997.905L647.584 996.529L653.182 994.964L658.935 993.311L664.680 991.593L670.398 989.796L676.090 987.920L681.761 985.979L687.409 983.989L692.933 981.991L697.962 980.114L702.465 978.374L705.928 977L709.171 975.672L711.766 974.592L714.781 973.309L717.474 972.161L720.429 970.895L723.077 969.758L725.887 968.524L728.527 967.339L731.505 965.953L734.722 964.422L738.358 962.646L742.163 960.760L745.936 958.861L749.717 956.939L753.386 955.040L756.683 953.297L759.897 951.563L762.769 949.992L765.891 948.263L768.731 946.655L771.885 944.823L775.174 942.872L778.737 940.750L782.340 938.583L785.388 936.720L788.488 934.782L791.193 933.049L794.236 931.080L796.971 929.271L800.125 927.151L803.496 924.837L807.374 922.145L811.202 919.441L814.530 917.049L817.566 914.827L820.202 912.865L823.160 910.624L825.966 908.458L829.079 906.015L831.835 903.829L834.817 901.427L837.535 899.198L840.557 896.677L843.242 894.406L846.165 891.901L848.845 889.569L851.949 886.817L854.777 884.264L857.925 881.369L860.686 878.780L863.763 875.835L866.474 873.196L869.508 870.209L872.193 867.544L875.200 864.529L877.853 861.833L880.825 858.783L883.450 856.058L886.389 852.975L888.980 850.217L891.886 847.080L894.453 844.265L897.222 841.178L899.570 838.512L902.082 835.618L904.357 832.951L907.027 829.764L909.791 826.378L912.844 822.580L915.791 818.847L918.312 815.606L920.631 812.573L922.602 809.942L924.708 807.093L926.614 804.446L928.778 801.392L931.112 798.020L933.761 794.154L936.399 790.228L938.658 786.819L940.734 783.633L942.494 780.872L944.435 777.765L946.492 774.373L948.972 770.236L951.537 765.895L953.964 761.722L955.842 758.424L957.563 755.301L959.169 752.307L961.048 748.764L962.911 745.210L964.633 741.900L966.321 738.563L967.992 735.175L969.812 731.407L971.640 727.547L973.412 723.716L975.163 719.850L976.884 715.963L978.613 711.977L980.509 707.483L982.540 702.510L984.664 697.147L986.583 692.151L988.219 687.779L989.486 684.346L990.603 681.241L991.567 678.516L992.610 675.459L993.728 672.105L995.089 667.845L996.602 662.988L998.059 658.191L999.326 653.943L1000.276 650.682L1001.157 647.554L1001.924 644.759L1002.781 641.558L1003.674 638.116L1004.758 633.778L1005.962 628.755L1007.126 623.753L1008.153 619.159L1008.997 615.219L1009.773 611.432L1010.524 607.615L1011.237 603.821L1012.004 599.541L1012.743 595.250L1013.450 590.998L1014.002 587.584L1014.495 584.338L1014.972 581.025L1015.464 577.401L1015.954 573.551L1016.382 569.960L1016.814 566.118L1017.206 562.469L1017.544 559.194L1017.847 556.097L1018.086 553.492L1018.354 550.416L1018.569 547.697L1018.786 544.611L1018.945 541.936L1019.117 538.837L1019.278 535.624L1019.454 532.039L1019.610 528.364L1019.731 525.203L1019.832 521.975L1019.902 519.263L1019.963 516.183L1019.993 513.508L1020 510.497L1019.987 507.822L1019.960 504.811L1019.931 502.136L1019.892 499.126L1019.843 496.451L1019.762 493.326L1019.647 490.120L1019.496 486.434L1019.312 482.735L1019.133 479.529L1018.935 476.436L1018.762 473.849L1018.540 470.679L1018.293 467.436L1017.984 463.671L1017.647 459.967L1017.337 456.762L1016.992 453.561L1016.618 450.411L1016.158 446.730L1015.678 443.029L1015.251 439.812L1014.820 436.647L1014.428 433.939L1013.948 430.738L1013.416 427.441L1012.809 423.795L1012.161 420.132L1011.604 417.092L1011.002 413.969L1010.493 411.413L1009.862 408.289L1009.306 405.616L1008.618 402.345L1007.865 398.918L1006.878 394.603L1005.840 390.259L1004.797 386.093L1003.940 382.798L1003.094 379.639L1002.333 376.837L1001.494 373.766L1000.713 370.976L999.812 367.870L998.785 364.489L997.438 360.234L995.822 355.275L993.974 349.780L992.013 344.132L989.977 338.495L987.905 332.989L985.952 327.984L984.203 323.665L982.800 320.280L981.452 317.084L980.057 313.814L978.446 310.101L976.722 306.213L974.970 302.368L973.176 298.525L971.432 294.892L969.869 291.695L968.313 288.595L966.589 285.242L964.406 281.070L962.043 276.633L959.694 272.313L957.535 268.435L955.436 264.739L953.363 261.157L951.475 257.937L949.602 254.808L947.909 252.016L946.043 248.986L944.305 246.206L942.392 243.207L940.614 240.464L938.608 237.412L936.463 234.204L934.026 230.606L931.489 226.919L929.225 223.668L927.044 220.590L925.131 217.935L922.893 214.892L920.435 211.615L917.591 207.863L914.626 204.017L911.962 200.613L909.296 197.291L906.716 194.140L903.869 190.698L900.906 187.168L898.183 183.968L895.446 180.814L893.117 178.172L890.561 175.318L888.198 172.718L885.431 169.720L882.859 166.965L879.935 163.881L877.310 161.156L874.326 158.118L871.654 155.441L868.617 152.456L865.895 149.838L862.737 146.863L859.554 143.917L855.980 140.636L852.377 137.387L849.125 134.511L845.958 131.782L843.276 129.504L840.344 127.038L837.640 124.788L834.588 122.296L831.841 120.099L828.945 117.824L826.361 115.819L823.366 113.519L820.094 111.053L816.317 108.250L812.511 105.484L809.181 103.104L806.084 100.939L803.391 99.080L800.261 96.948L796.883 94.695L793.135 92.237L789.443 89.874L786.337 87.906L783.244 85.975L780.520 84.289L777.343 82.367L774.040 80.427L770.450 78.351L766.796 76.271L763.697 74.520L760.422 72.710L757.195 70.972L753.473 69.002L749.777 67.085L746.436 65.372L743.122 63.703L740.358 62.323L737.331 60.835L734.806 59.618L731.652 58.137L728.340 56.619L724.588 54.918L720.919 53.274L717.814 51.905L714.755 50.583L712.076 49.459L708.977 48.186L705.604 46.835L701.291 45.136L696.307 43.221L690.805 41.165L685.179 39.144L679.517 37.176L673.833 35.275L668.128 33.438L662.543 31.712L657.573 30.221L653.315 28.979L650.042 28.049L646.764 27.158L643.327 26.259L639.058 25.174L634.762 24.103L630.623 23.096L627.441 22.343L624.341 21.640L621.787 21.082L618.717 20.432L616.071 19.886L612.812 19.228L609.499 18.577L605.781 17.862L602.110 17.186L599.022 16.637L595.884 16.114L593.317 15.699L590.229 15.213L587.686 14.819L584.581 14.357L581.994 13.985L578.851 13.553L576.207 13.209L573.100 12.826L570.457 12.518L567.414 12.175L564.839 11.889L561.778 11.564L559.214 11.302L556.077 11.011L553.455 10.786L550.303 10.532L547.688 10.333L544.653 10.113L542.025 9.936L539.004 9.743L536.329 9.585L533.319 9.429L530.644 9.315L527.633 9.212L524.958 9.134L521.947 9.052L519.272 8.983L516.262 8.914L513.587 8.870L510.576 8.842L507.901 8.842L504.890 8.862L502.215 8.897L499.204 8.950L496.530 9.005L493.519 9.072L490.844 9.136L487.833 9.229L485.158 9.337L482.147 9.491L479.473 9.644L476.368 9.834L473.216 10.042L469.692 10.293L466.068 10.579L462.877 10.854L459.521 11.168L456.781 11.437L453.633 11.751L451.040 12.018L448.035 12.345L445.388 12.655L442.290 13.045L439.037 13.488L435.406 14.004L431.552 14.573L427.819 15.143L424.008 15.743L420.271 16.372L416.493 17.054L412.162 17.890L407.795 18.760L403.302 19.673L399.353 20.513L394.955 21.510L390.104 22.671L385.122 23.896L380.570 25.044L376.647 26.074L372.328 27.264L367.442 28.675L362.019 30.293L357.037 31.814L352.781 33.148L349.557 34.186L346.498 35.209L343.789 36.147L340.806 37.197L338.083 38.167L335.216 39.199L332.534 40.175L329.545 41.298L326.240 42.563L322.538 44.014L318.703 45.545L315.416 46.882L312.126 48.254L308.993 49.592L305.293 51.202L301.583 52.844L298.279 54.330L295.053 55.815L291.976 57.274L288.341 59.016L284.608 60.844L280.789 62.736L277.010 64.647L273.252 66.592L269.372 68.659L266.472 70.228L263.736 71.733" stroke="rgb(255, 255, 255)" stroke-width="45" fill="none" stroke-linecap="round" stroke-linejoin="round"/><path id="path-extension-1" d="M251.388 78.694L254.533 76.798" stroke="rgb(255, 255, 255)" stroke-width="45" fill="none" stroke-linecap="round" stroke-linejoin="round"/><path id="path-extension-2" d="M263.736 71.733L254.533 76.798" stroke="rgb(255, 255, 255)" stroke-width="45" fill="none" stroke-linecap="round" stroke-linejoin="round"/><path id="path-connection-1" d="M254.533 76.798L254.533 76.798" stroke="rgb(255, 255, 255)" stroke-width="45" fill="none" stroke-linecap="round" stroke-linejoin="round"/></g><g id="skeleton-paths" stroke-width="45.0" fill="rgb(0, 0, 0)" stroke="none"><path id="path-0-0" d="M194.662 494.311L196.112 492.862L198.231 490.742L200.878 488.095L203.888 485.083L206.563 482.408L209.573 479.396L212.247 476.721L215.257 473.709L217.931 471.034L220.942 468.022L223.616 465.347L226.626 462.336L229.300 459.660L232.311 456.649L234.985 453.973L237.995 450.962L240.669 448.286L243.679 445.275L246.354 442.599L249.364 439.588L252.038 436.912L255.048 433.901L257.723 431.225L260.733 428.214L263.407 425.538L266.417 422.527L269.091 419.851L272.102 416.840L274.776 414.164L277.786 411.153L280.460 408.477L283.470 405.466L286.145 402.790L289.155 399.779L291.829 397.103L294.839 394.092L297.514 391.417L300.524 388.405L303.198 385.730L306.208 382.718L308.882 380.043L311.893 377.031L314.567 374.356L317.577 371.344L320.251 368.669L323.261 365.657L325.936 362.982L328.946 359.970L331.620 357.295L334.630 354.283L337.305 351.608L340.315 348.596L342.989 345.921L346 342.909L348.673 340.234L351.684 337.222L354.358 334.547L357.368 331.535L360.042 328.860L363.052 325.848L365.727 323.173L368.737 320.162L371.411 317.486L374.421 314.475L377.096 311.799L380.106 308.788L382.025 306.867L383.957 304.935" stroke="rgb(255, 255, 255)" stroke-width="45" fill="none" stroke-linecap="round" stroke-linejoin="round"/><path id="path-1-0" d="M191.979 519.997L193.917 521.939L195.843 523.869L198.849 526.898L201.513 529.589L204.507 532.617L207.170 535.304L210.170 538.325L212.838 541.007L215.843 544.023L218.516 546.701L221.526 549.712L224.202 552.386L227.217 555.393L229.897 558.062L232.916 561.065L235.599 563.731L238.622 566.730L241.309 569.393L244.335 572.389L247.025 575.049L250.054 578.041L252.747 580.698L255.778 583.688L258.473 586.343L261.507 589.331L264.204 591.984L267.240 594.969L269.938 597.621L272.976 600.604L275.676 603.255L278.715 606.237L281.415 608.887L284.455 611.868L287.156 614.517L290.197 617.498L292.898 620.147L295.939 623.128L298.640 625.776L301.680 628.757L304.381 631.406L307.421 634.388L310.121 637.037L313.160 640.020L315.860 642.671L318.897 645.655L321.595 648.306L324.631 651.292L327.327 653.946L330.361 656.933L333.056 659.589L336.087 662.579L338.779 665.237L341.808 668.230L344.497 670.890L347.523 673.886L350.209 676.549L353.231 679.549L355.915 682.215L358.933 685.219L361.613 687.888L364.627 690.896L367.302 693.570L370.308 696.577L372.965 699.238L375.846 702.123L378.319 704.603L380.205 706.495L381.542 707.841" stroke="rgb(255, 255, 255)" stroke-width="45" fill="none" stroke-linecap="round" stroke-linejoin="round"/><path id="path-extension-1" d="M194.662 494.311L180.486 508.479" stroke="rgb(255, 255, 255)" stroke-width="45" fill="none" stroke-linecap="round" stroke-linejoin="round"/><path id="path-extension-2" d="M191.979 519.997L180.486 508.479" stroke="rgb(255, 255, 255)" stroke-width="45" fill="none" stroke-linecap="round" stroke-linejoin="round"/><path id="path-connection-1" d="M180.486 508.479L180.486 508.479" stroke="rgb(255, 255, 255)" stroke-width="45" fill="none" stroke-linecap="round" stroke-linejoin="round"/></g></svg>