<svg xmlns="http://www.w3.org/2000/svg" viewBox="-41 91.68600463867188 1106 840.6280517578125" width="1024" height="1024" class="colorable-icon reset-top-left-margin" data-export-recolorable-svg="true" overflow="visible" xmlns:xlink="http://www.w3.org/1999/xlink" fill="rgb(0, 0, 0)" stroke="none"><g id="skeleton-paths" stroke-width="45.0" fill="rgb(0, 0, 0)" stroke="none"><path id="path-0-0" d="M496.010 317.776L493.157 317.772L490.005 317.770L485.671 317.769L481.490 317.770L477.334 317.772L473.178 317.774L469.023 317.776L464.867 317.778L460.712 317.780L456.556 317.782L452.400 317.784L448.245 317.786L444.089 317.788L439.934 317.790L435.778 317.792L431.622 317.791L427.467 317.785L423.311 317.768L419.155 317.744L415 317.715L410.844 317.684L406.689 317.652L402.533 317.620L398.377 317.589L394.203 317.551L389.993 317.479L385.789 317.302L381.595 316.910L377.402 316.191L373.160 315.092L368.838 313.590L364.633 311.736L360.411 309.424L356.346 306.749L352.212 303.665L348.159 300.415L344.070 297.087L339.924 293.855L335.823 290.913L331.663 288.305L327.569 286.131L323.372 284.316L319.239 282.899L315.081 281.826L310.986 281.043L306.855 280.465L302.751 280.052L298.612 279.768L294.442 279.598L290.257 279.500L286.105 279.456L282.020 279.440L277.934 279.443L273.783 279.460L269.598 279.494L265.404 279.553L261.242 279.644L257.086 279.762L252.931 279.902L248.775 280.060L244.620 280.247L240.503 280.475L236.392 280.766L232.321 281.128L228.180 281.580L224.051 282.127L219.893 282.786L215.756 283.561L211.617 284.451L207.481 285.448L203.420 286.534L199.319 287.742L195.175 289.082L190.945 290.560L186.767 292.130L182.682 293.775L178.653 295.503L174.635 297.345L170.590 299.328L166.462 301.515L162.271 303.920L158.057 306.538L153.933 309.315L149.838 312.297L145.814 315.447L141.731 318.873L137.744 322.467L133.812 326.264L130.032 330.212L126.477 334.227L123.130 338.364L120.113 342.474L117.323 346.648L114.808 350.769L112.484 354.914L110.370 358.987L108.418 363.091L106.661 367.115L105.030 371.192L103.496 375.256L101.994 379.373L100.521 383.499L99.086 387.639L97.700 391.794L96.367 395.967L95.072 400.153L93.799 404.346L92.537 408.542L91.283 412.742L90.036 416.944L88.794 421.147L87.554 425.351L86.331 429.499L85.126 433.583L83.931 437.619L82.717 441.702L81.465 445.885L80.194 450.104L78.914 454.330L77.642 458.524L76.371 462.718L75.105 466.913L73.849 471.112L72.622 475.256L71.434 479.338L70.276 483.379L69.121 487.481L67.945 491.696L66.777 495.897L65.627 500.039L64.502 504.100L63.371 508.209L62.217 512.423L61.070 516.627L59.942 520.775L58.838 524.847L57.725 528.962L56.588 533.178L55.459 537.384L54.348 541.537L53.261 545.615L52.164 549.735L51.041 553.955L49.925 558.164L48.828 562.319L47.755 566.400L46.669 570.523L45.555 574.748L44.451 578.961L43.372 583.119L42.330 587.207L41.287 591.343L40.239 595.536L39.201 599.699L38.174 603.829L37.156 607.921L36.128 612.057L35.103 616.187L34.066 620.363L33.026 624.553L31.992 628.717L30.966 632.851L29.951 636.950L28.928 641.086L27.908 645.218L26.878 649.390L25.844 653.578L24.816 657.743L23.795 661.882L22.773 666.025L21.730 670.259L20.677 674.532L19.635 678.765L18.616 682.901L17.607 686.991L16.599 691.080L15.579 695.219L14.567 699.352L13.558 703.490L12.557 707.632L11.568 711.773L10.593 715.917L9.642 720.069L8.731 724.185L7.871 728.295L7.067 732.413L6.327 736.540L5.652 740.718L5.069 744.833L4.595 748.957L4.256 753.004L4.057 757.102L4 761.170L4.081 765.279L4.298 769.378L4.644 773.516L5.123 777.665L5.723 781.769L6.451 785.855L7.307 789.904L8.304 793.979L9.463 798.090L10.770 802.187L12.250 806.306L13.922 810.448L15.803 814.657L17.895 818.894L20.147 823.045L22.670 827.247L25.437 831.436L28.498 835.685L31.743 839.807L35.224 843.871L38.981 847.922L42.927 851.894L46.957 855.676L50.994 859.168L55.019 862.378L59.123 865.391L63.188 868.132L67.380 870.702L71.573 873.024L75.809 875.145L79.944 877.006L84.048 878.664L88.153 880.154L92.307 881.500L96.463 882.696L100.616 883.742L104.740 884.646L108.897 885.420L113.038 886.060L117.214 886.571L121.380 886.945L125.524 887.190L129.677 887.303L133.774 887.293L137.925 887.156L142.066 886.888L146.226 886.481L150.396 885.935L154.564 885.248L158.782 884.409L163.005 883.414L167.226 882.256L171.406 880.947L175.535 879.481L179.605 877.867L183.667 876.062L187.754 874.040L192.025 871.689L196.362 869.069L200.767 866.174L205.044 863.119L209.229 859.891L213.301 856.501L217.239 852.940L221.014 849.223L224.672 845.272L228.203 841.134L231.680 836.806L235.030 832.460L238.227 828.241L241.359 824.073L244.449 819.959L247.617 815.742L250.717 811.616L253.838 807.460L256.928 803.346L260.088 799.139L263.248 794.931L266.408 790.725L269.579 786.503L272.678 782.378L275.800 778.222L278.891 774.107L282.052 769.897L285.213 765.690L288.373 761.483L291.542 757.264L294.640 753.141L297.761 748.985L300.854 744.867L304.021 740.650L307.120 736.528L310.243 732.373L313.283 728.327L316.412 724.161L319.452 720.121L322.652 715.922L325.940 711.747L329.465 707.499L333.076 703.451L336.724 699.716L340.433 696.304L344.283 693.187L348.339 690.309L352.561 687.716L356.814 685.438L361.011 683.481L365.095 681.803L369.180 680.348L373.316 679.091L377.521 678.022L381.717 677.147L385.885 676.450L390.028 675.923L394.199 675.554L398.364 675.340L402.535 675.256L406.689 675.270L410.844 675.335L415 675.418L419.155 675.493L423.311 675.547L427.467 675.576L431.622 675.586L435.778 675.593L439.934 675.601L444.089 675.612L448.245 675.623L452.400 675.635L456.556 675.646L460.712 675.657L464.867 675.668L469.023 675.678L473.178 675.687L477.334 675.691L481.490 675.691L485.645 675.687L489.801 675.683L493.957 675.679L498.112 675.674L502.268 675.670L506.423 675.665L510.579 675.661L514.735 675.656L518.890 675.652L523.046 675.647L527.201 675.643L531.357 675.639L535.513 675.634L539.668 675.630L543.824 675.625L547.980 675.621L552.135 675.616L556.291 675.612L560.446 675.607L564.602 675.603L568.758 675.599L572.913 675.594L577.069 675.590L581.224 675.585L585.380 675.581L589.536 675.573L593.691 675.558L597.847 675.532L602.003 675.497L606.158 675.462L610.314 675.438L614.469 675.438L618.618 675.476L622.784 675.576L626.949 675.762L631.157 676.062L635.333 676.489L639.528 677.068L643.652 677.807L647.856 678.752L652.034 679.903L656.296 681.300L660.491 682.951L664.719 684.912L668.963 687.205L673.273 689.864L677.544 692.852L681.729 696.143L685.709 699.652L689.585 703.437L693.311 707.433L696.965 711.675L700.399 715.914L703.782 720.266L707.023 724.516L710.280 728.807L713.471 733.007L716.661 737.191L719.867 741.390L722.999 745.491L726.151 749.622L729.273 753.713L732.473 757.908L735.604 762.012L738.756 766.144L741.876 770.234L745.067 774.415L748.259 778.599L751.450 782.782L754.655 786.983L757.786 791.088L760.939 795.219L764.059 799.309L767.259 803.503L770.391 807.609L773.543 811.740L776.662 815.829L779.851 820.008L783.043 824.192L786.226 828.364L789.491 832.629L792.764 836.822L796.215 841.060L799.700 845.050L803.429 849.004L807.302 852.787L811.399 856.514L815.558 860.023L819.697 863.253L823.828 866.214L827.983 868.943L832.161 871.476L836.311 873.770L840.367 875.805L844.412 877.620L848.466 879.241L852.643 880.715L856.847 882.025L861.135 883.200L865.328 884.210L869.521 885.085L873.629 885.809L877.734 886.400L881.842 886.846L885.971 887.143L890.124 887.295L894.283 887.314L898.437 887.208L902.572 886.970L906.706 886.600L910.813 886.099L914.948 885.472L919.078 884.717L923.249 883.821L927.437 882.773L931.630 881.571L935.790 880.221L939.959 878.697L944.100 877.003L948.314 875.091L952.493 872.993L956.736 870.651L960.925 868.095L965.151 865.232L969.369 862.054L973.585 858.575L977.732 854.869L981.664 851.099L985.489 847.156L989.071 843.186L992.534 839.051L995.691 834.941L998.585 830.820L1001.201 826.718L1003.587 822.600L1005.838 818.339L1007.914 814.018L1009.809 809.699L1011.465 805.548L1012.940 801.487L1014.270 797.424L1015.476 793.290L1016.545 789.114L1017.463 784.938L1018.239 780.747L1018.873 776.547L1019.364 772.346L1019.715 768.172L1019.927 763.998L1020 759.827L1019.925 755.656L1019.703 751.483L1019.334 747.327L1018.828 743.168L1018.203 739.002L1017.491 734.859L1016.710 730.691L1015.877 726.532L1014.994 722.327L1014.080 718.141L1013.146 713.978L1012.209 709.868L1011.260 705.747L1010.300 701.616L1009.321 697.433L1008.339 693.260L1007.354 689.091L1006.369 684.937L1005.376 680.758L1004.384 676.586L1003.398 672.420L1002.421 668.282L1001.445 664.137L1000.467 659.993L999.482 655.837L998.483 651.659L997.479 647.490L996.470 643.331L995.462 639.200L994.446 635.064L993.425 630.930L992.399 626.797L991.367 622.664L990.329 618.534L989.285 614.402L988.227 610.239L987.152 606.035L986.066 601.813L984.984 597.626L983.906 593.484L982.826 589.359L981.733 585.205L980.633 581.053L979.529 576.913L978.426 572.795L977.305 568.644L976.164 564.453L975 560.231L973.831 556.025L972.668 551.866L971.514 547.750L970.366 543.654L969.214 539.548L968.061 535.444L966.908 531.343L965.747 527.221L964.573 523.057L963.384 518.853L962.188 514.634L960.991 510.416L959.797 506.214L958.613 502.053L957.439 497.937L956.270 493.839L955.089 489.706L953.895 485.532L952.690 481.323L951.487 477.124L950.294 472.966L949.112 468.851L947.935 464.756L946.746 460.627L945.543 456.456L944.334 452.261L943.134 448.096L941.945 443.975L940.762 439.882L939.569 435.763L938.359 431.602L937.136 427.406L935.907 423.198L934.678 418.990L933.441 414.799L932.198 410.648L930.942 406.559L929.650 402.434L928.329 398.283L926.965 394.051L925.610 389.922L924.238 385.831L922.842 381.801L921.365 377.669L919.798 373.501L918.114 369.278L916.303 365.115L914.323 360.939L912.190 356.777L909.908 352.616L907.446 348.436L904.776 344.217L901.859 339.941L898.746 335.721L895.458 331.610L892.004 327.643L888.392 323.837L884.542 320.119L880.482 316.502L876.211 312.972L871.994 309.712L867.772 306.685L863.696 303.992L859.555 301.496L855.388 299.237L851.210 297.172L847.007 295.249L842.835 293.450L838.635 291.710L834.413 290.033L830.257 288.441L826.101 286.933L821.967 285.549L817.801 284.309L813.661 283.264L809.565 282.406L805.479 281.710L801.367 281.126L797.227 280.644L793.107 280.250L788.978 279.933L784.850 279.702L780.694 279.563L776.538 279.518L772.383 279.526L768.227 279.555L764.072 279.585L759.916 279.614L755.760 279.644L751.605 279.673L747.449 279.703L743.293 279.732L739.138 279.762L734.982 279.791L730.827 279.850L726.694 279.952L722.565 280.175L718.468 280.530L714.330 281.098L710.248 281.855L706.115 282.812L702.054 283.987L697.908 285.472L693.822 287.382L689.717 289.736L685.614 292.543L681.583 295.588L677.502 298.851L673.553 302.047L669.426 305.219L665.276 308.096L661.022 310.621L656.753 312.659L652.504 314.268L648.133 315.524L643.830 316.488L639.514 317.189L635.300 317.672L631.105 317.972L626.936 318.146L622.781 318.244L618.625 318.307L614.469 318.356L610.314 318.392L606.158 318.417L602.003 318.432L597.847 318.438L593.691 318.436L589.536 318.427L585.380 318.413L581.224 318.395L577.069 318.374L572.913 318.352L568.758 318.329L564.602 318.306L560.446 318.286L556.291 318.269L552.135 318.256L547.980 318.249L543.824 318.248L539.668 318.255L535.513 318.272L531.215 318.286L526.589 318.302L523.076 318.303L519.830 318.315" stroke="rgb(207, 208, 216)" stroke-width="45" fill="none" stroke-linecap="round" stroke-linejoin="round"/><path id="path-1-0" d="M510.565 301.509L510.566 300.405L510.566 298.838L510.566 296.883L510.566 294.682L510.567 292.727L510.567 290.526L510.567 288.571L510.567 286.371L510.568 284.416L510.568 282.215L510.568 280.260L510.568 278.060L510.569 276.105L510.569 273.904L510.569 271.949L510.569 269.748L510.570 267.793L510.570 265.593L510.570 263.638L510.570 261.437L510.571 259.482L510.571 257.282L510.571 255.326L510.578 253.114L510.591 251.183L510.630 248.948L510.678 247.016L510.768 244.747L510.871 242.832L511.044 240.607L511.255 238.668L511.557 236.481L511.874 234.583L512.255 232.456L512.614 230.534L513.073 228.268L513.516 226.323L514.114 224.034L514.663 222.169L515.370 219.956L516.035 218.113L516.893 215.897L517.731 213.953L518.665 211.829L519.508 210.037L520.471 208.054L521.472 206.177L522.771 203.952L524.132 201.816L525.757 199.440L527.272 197.358L529.009 195.153L530.673 193.207L532.760 190.994L535.057 188.831L537.728 186.525L540.496 184.402L543.352 182.449L546.483 180.567L549.621 178.842L552.644 177.319L555.070 176.229L557.425 175.315L559.440 174.619L561.702 173.893L563.623 173.345L565.911 172.738L567.890 172.265L570.187 171.746L572.019 171.397L574.155 171.041L575.972 170.799L578.166 170.543L580.106 170.368L582.413 170.200L584.798 170.068L587.491 169.926L590.191 169.824L592.463 169.764L594.719 169.744L596.630 169.716L598.928 169.658L600.933 169.585L603.228 169.511L605.122 169.464L607.309 169.416L609.178 169.371L611.397 169.293L613.346 169.195L615.659 169.035L618.040 168.805L620.723 168.502L623.507 168.111L626.324 167.632L629.647 166.921L633.370 165.943L637.104 164.832L640.475 163.633L642.988 162.607L645.428 161.395L647.511 160.200L649.930 158.599L652.097 156.956L654.490 154.818L656.729 152.290L659.108 148.944L661.115 145.437L662.700 142L663.623 139.449L664.142 137.700L664.384 136.686" stroke="rgb(207, 208, 216)" stroke-width="45" fill="none" stroke-linecap="round" stroke-linejoin="round"/><path id="path-extension-1" d="M496.010 317.776L510.563 317.794" stroke="rgb(207, 208, 216)" stroke-width="45" fill="none" stroke-linecap="round" stroke-linejoin="round"/><path id="path-extension-2" d="M519.830 318.315L510.563 318.349" stroke="rgb(207, 208, 216)" stroke-width="45" fill="none" stroke-linecap="round" stroke-linejoin="round"/><path id="path-extension-3" d="M510.565 301.509L510.563 317.794" stroke="rgb(207, 208, 216)" stroke-width="45" fill="none" stroke-linecap="round" stroke-linejoin="round"/><path id="path-connection-1" d="M510.563 317.794L510.563 317.794" stroke="rgb(207, 208, 216)" stroke-width="45" fill="none" stroke-linecap="round" stroke-linejoin="round"/></g><g id="skeleton-paths" stroke-width="45.0" fill="rgb(0, 0, 0)" stroke="none"><path id="path-0-0" d="M778.339 458.817L775.672 459.905L772.611 460.759L768.376 461.662L764.206 461.866L759.970 461.533L755.735 460.488L751.480 458.638L747.384 455.934L743.560 452.369L740.390 448.325L737.994 443.945L736.507 439.676L735.771 435.522L735.664 431.604L736.126 427.674L737.154 423.675L738.860 419.523L741.251 415.472L744.356 411.743L747.994 408.578L751.919 406.135L755.455 404.502L758.440 403.606L760.887 403.228L763.612 403.136L766.850 403.346L770.711 403.997L774.914 405.366L779.292 407.613L783.571 410.758L787.305 414.577L790.160 418.742L792.070 423.008L793.180 427.251L793.669 431.494L793.553 435.793L792.770 440.202L791.182 444.681L789.716 447.872L788.117 450.503" stroke="rgb(207, 208, 216)" stroke-width="45" fill="none" stroke-linecap="round" stroke-linejoin="round"/><path id="path-extension-1" d="M778.339 458.817L784.619 456.255" stroke="rgb(207, 208, 216)" stroke-width="45" fill="none" stroke-linecap="round" stroke-linejoin="round"/><path id="path-extension-2" d="M788.117 450.503L784.619 456.255" stroke="rgb(207, 208, 216)" stroke-width="45" fill="none" stroke-linecap="round" stroke-linejoin="round"/><path id="path-connection-1" d="M784.619 456.255L784.619 456.255" stroke="rgb(207, 208, 216)" stroke-width="45" fill="none" stroke-linecap="round" stroke-linejoin="round"/></g><g id="skeleton-paths" stroke-width="45.0" fill="rgb(0, 0, 0)" stroke="none"><path id="path-0-0" d="M268.785 414.725L268.786 415.828L268.786 417.395L268.787 419.351L268.788 421.551L268.789 423.506L268.790 425.707L268.791 427.662L268.792 429.862L268.793 431.817L268.794 434.018L268.795 435.973L268.796 438.174L268.796 440.129L268.797 442.329L268.798 444.284L268.799 446.485L268.800 448.440L268.801 450.640L268.802 452.595L268.803 454.796L268.804 456.751L268.805 458.952L268.806 460.907L268.807 463.107L268.808 465.062L268.809 467.263L268.809 469.218L268.810 471.418L268.811 473.374L268.812 475.574L268.813 477.529L268.814 479.730L268.815 481.685L268.816 483.885L268.817 485.840L268.818 487.408L268.818 488.511" stroke="rgb(207, 208, 216)" stroke-width="45" fill="none" stroke-linecap="round" stroke-linejoin="round"/><path id="path-1-0" d="M173.789 505.377L174.892 505.431L176.460 505.466L178.415 505.488L180.615 505.478L182.570 505.454L184.771 505.428L186.726 505.405L188.926 505.379L190.881 505.356L193.082 505.330L195.037 505.306L197.238 505.280L199.193 505.257L201.393 505.231L203.348 505.208L205.549 505.182L207.504 505.159L209.705 505.132L211.660 505.109L213.860 505.083L215.815 505.060L218.016 505.034L219.971 505.011L222.171 504.985L224.126 504.961L226.413 504.936L228.796 504.910L231.486 504.883L234.195 504.852L236.505 504.825L238.793 504.793L240.732 504.766L242.949 504.738L244.905 504.715L247.105 504.689L249.060 504.666L250.628 504.647L251.731 504.634" stroke="rgb(207, 208, 216)" stroke-width="45" fill="none" stroke-linecap="round" stroke-linejoin="round"/><path id="path-2-0" d="M268.765 520.426L268.767 521.838L268.768 523.241L268.769 525.442L268.771 527.397L268.772 529.597L268.774 531.552L268.776 533.753L268.777 535.708L268.779 537.908L268.780 539.863L268.782 542.064L268.784 544.019L268.785 546.220L268.787 548.175L268.789 550.374L268.790 552.286L268.793 554.445L268.794 556.263L268.796 558.441L268.797 560.347L268.798 562.689L268.800 564.712L268.801 566.998L268.803 568.953L268.805 571.153L268.806 573.108L268.808 575.309L268.809 577.264L268.811 579.465L268.812 581.420L268.814 583.620L268.816 585.575L268.817 587.780L268.819 589.717L268.820 591.908L268.821 593.277L268.822 594.701" stroke="rgb(207, 208, 216)" stroke-width="45" fill="none" stroke-linecap="round" stroke-linejoin="round"/><path id="path-3-0" d="M284.605 504.668L285.708 504.672L287.276 504.679L289.231 504.686L291.432 504.695L293.387 504.703L295.587 504.712L297.542 504.720L299.743 504.729L301.698 504.736L303.898 504.745L305.854 504.753L308.054 504.762L310.009 504.770L312.224 504.778L314.178 504.785L316.364 504.793L318.281 504.800L320.548 504.808L322.925 504.818L325.638 504.830L328.348 504.842L330.702 504.853L332.988 504.862L334.943 504.870L337.143 504.879L339.098 504.887L341.299 504.895L343.254 504.903L345.455 504.912L347.410 504.920L349.610 504.929L351.565 504.937L353.133 504.943L354.236 504.947" stroke="rgb(207, 208, 216)" stroke-width="45" fill="none" stroke-linecap="round" stroke-linejoin="round"/><path id="path-connection-1" d="M268.818 488.511L268.765 520.426" stroke="rgb(207, 208, 216)" stroke-width="45" fill="none" stroke-linecap="round" stroke-linejoin="round"/><path id="path-connection-2" d="M251.731 504.634L284.605 504.668" stroke="rgb(207, 208, 216)" stroke-width="45" fill="none" stroke-linecap="round" stroke-linejoin="round"/></g><g id="skeleton-paths" stroke-width="45.0" fill="rgb(0, 0, 0)" stroke="none"><path id="path-0-0" d="M866.511 528.648L864.318 530.755L861.414 533.016L857.265 535.671L852.905 537.604L848.612 538.701L844.398 539.082L840.259 538.758L836.088 537.782L831.922 536.157L827.770 533.747L823.944 530.586L820.615 526.774L818.106 522.677L816.366 518.501L815.368 514.413L814.939 510.404L815.041 506.476L815.665 502.523L816.866 498.556L818.770 494.577L821.374 490.755L824.648 487.250L828.369 484.345L832.204 482.164L835.725 480.732L838.638 479.915L841.163 479.542L843.922 479.481L847.298 479.797L851.295 480.599L855.454 482.135L859.555 484.422L863.310 487.472L866.640 491.023L869.370 494.994L871.433 499.124L872.820 503.416L873.450 507.683L873.337 511.949L872.919 514.985L872.284 517.536" stroke="rgb(207, 208, 216)" stroke-width="45" fill="none" stroke-linecap="round" stroke-linejoin="round"/><path id="path-extension-1" d="M866.511 528.648L870.464 524.848" stroke="rgb(207, 208, 216)" stroke-width="45" fill="none" stroke-linecap="round" stroke-linejoin="round"/><path id="path-extension-2" d="M872.284 517.536L870.464 524.848" stroke="rgb(207, 208, 216)" stroke-width="45" fill="none" stroke-linecap="round" stroke-linejoin="round"/><path id="path-connection-1" d="M870.464 524.848L870.464 524.848" stroke="rgb(207, 208, 216)" stroke-width="45" fill="none" stroke-linecap="round" stroke-linejoin="round"/></g><g id="skeleton-paths" stroke-width="45.0" fill="rgb(0, 0, 0)" stroke="none"><path id="path-0-0" d="M694.585 481.544L693.023 481.225L691.311 480.998L688.652 480.770L686.145 480.742L683.663 480.810L681.230 481.128L678.492 481.848L675.128 483.221L671.702 485.010L668.445 487.118L665.992 489.093L663.914 491.251L662.386 493.265L661.010 495.522L659.958 497.813L659.024 500.249L658.282 502.774L657.726 505.020L657.344 507.353L657.170 509.355L657.185 511.556L657.389 513.489L657.762 515.568L658.236 517.457L658.860 519.526L659.600 521.544L660.600 523.799L661.734 525.892L663.239 528.121L664.862 530.104L666.862 532.169L668.793 533.851L671.039 535.463L673.510 536.803L676.612 538.104L679.840 539.121L683.023 539.794L685.493 540.098L687.874 540.137L690.123 539.926L692.844 539.490L695.742 538.691L698.756 537.543L701.770 536.014L704.699 534.095L707.215 532.117L709.471 529.886L711.159 527.836L712.728 525.527L713.871 523.358L714.924 520.906L715.655 518.710L716.328 516.376L716.732 514.401L716.998 512.131L717.027 510.146L716.852 507.764L716.418 505.347L715.526 502.089L714.004 498.385L711.707 494.305L708.671 490.494L706.221 487.900L703.921 485.951" stroke="rgb(207, 208, 216)" stroke-width="45" fill="none" stroke-linecap="round" stroke-linejoin="round"/><path id="path-extension-1" d="M694.585 481.544L700.033 482.656" stroke="rgb(207, 208, 216)" stroke-width="45" fill="none" stroke-linecap="round" stroke-linejoin="round"/><path id="path-extension-2" d="M703.921 485.951L700.033 482.656" stroke="rgb(207, 208, 216)" stroke-width="45" fill="none" stroke-linecap="round" stroke-linejoin="round"/><path id="path-connection-1" d="M700.033 482.656L700.033 482.656" stroke="rgb(207, 208, 216)" stroke-width="45" fill="none" stroke-linecap="round" stroke-linejoin="round"/></g><g id="skeleton-paths" stroke-width="45.0" fill="rgb(0, 0, 0)" stroke="none"><path id="path-0-0" d="M787.443 566.753L785.085 564.626L782.077 562.428L777.926 559.881L773.717 558.134L769.599 557.139L765.576 556.774L761.732 556.942L758.048 557.635L754.451 558.866L750.752 560.840L747.116 563.547L743.732 566.957L741.032 570.680L739.022 574.583L737.741 578.519L736.993 582.529L736.801 586.562L737.184 590.621L738.216 594.735L740.068 598.961L742.709 603.116L746.156 606.973L750.059 610.129L754.259 612.496L758.472 614.032L762.680 614.870L766.891 614.999L771.205 614.446L775.624 613.126L780.085 610.963L784.274 607.921L787.994 604.066L790.895 599.791L792.986 595.326L794.218 590.966L794.727 586.669L794.797 583.644L794.582 581.084" stroke="rgb(207, 208, 216)" stroke-width="45" fill="none" stroke-linecap="round" stroke-linejoin="round"/><path id="path-extension-1" d="M787.443 566.753L793.869 572.553" stroke="rgb(207, 208, 216)" stroke-width="45" fill="none" stroke-linecap="round" stroke-linejoin="round"/><path id="path-extension-2" d="M794.582 581.084L793.869 572.553" stroke="rgb(207, 208, 216)" stroke-width="45" fill="none" stroke-linecap="round" stroke-linejoin="round"/><path id="path-connection-1" d="M793.869 572.553L793.869 572.553" stroke="rgb(207, 208, 216)" stroke-width="45" fill="none" stroke-linecap="round" stroke-linejoin="round"/></g></svg>