<svg xmlns="http://www.w3.org/2000/svg" viewBox="-41 -2.6139984130859375 1106 1029.22802734375" width="1024" height="1024" class="colorable-icon reset-top-left-margin" data-export-recolorable-svg="true" overflow="visible" xmlns:xlink="http://www.w3.org/1999/xlink" fill="rgb(0, 0, 0)" stroke="none"><g id="skeleton-paths" stroke-width="45.0" fill="rgb(0, 0, 0)" stroke="none"><path id="path-0-0" d="M166.440 350.594L165.309 348.470L164.157 346.219L162.632 343.169L161.260 340.293L159.956 337.445L158.901 335.062L157.873 332.647L157.069 330.696L156.154 328.442L155.386 326.489L154.497 324.188L153.715 322.074L152.848 319.625L151.969 316.974L150.909 313.591L149.799 309.834L148.774 306.186L147.909 302.881L147.184 299.875L146.428 296.483L145.731 293.162L145.077 289.820L144.565 286.926L144.089 283.985L143.676 281.183L143.332 278.722L143.028 276.225L142.775 273.776L142.508 270.870L142.288 268.069L142.106 265.571L141.953 263.197L141.830 261.135L141.708 258.814L141.618 256.752L141.540 254.432L141.492 252.370L141.466 250.049L141.470 247.988L141.507 245.667L141.571 243.605L141.682 241.284L141.816 239.223L141.992 236.867L142.156 234.820L142.347 232.466L142.514 230.486L142.730 228.161L142.940 226.165L143.218 223.793L143.481 221.732L143.808 219.356L144.102 217.366L144.478 215.018L144.820 213.038L145.261 210.640L145.724 208.327L146.304 205.565L146.938 202.749L147.585 200.038L148.263 197.364L148.958 194.800L149.675 192.226L150.462 189.559L151.325 186.790L152.445 183.407L153.634 179.989L154.849 176.637L155.850 174.010L156.802 171.624L157.663 169.555L158.598 167.378L159.502 165.360L160.516 163.154L161.479 161.123L162.581 158.832L163.558 156.850L164.758 154.457L165.792 152.449L167.070 150.037L168.406 147.654L170.071 144.771L171.883 141.756L173.480 139.164L175.080 136.662L176.540 134.470L178.318 131.848L180.183 129.195L182.027 126.635L183.896 124.139L185.553 121.991L187.377 119.692L189.075 117.615L191.085 115.227L192.988 113.032L195.149 110.613L197.016 108.580L199.109 106.363L201.206 104.225L203.689 101.749L206.315 99.212L208.767 96.900L211.251 94.645L213.428 92.734L215.782 90.723L217.828 89.028L220 87.274L221.979 85.717L224.257 83.975L226.455 82.338L228.916 80.557L231.106 79.014L233.455 77.410L235.528 76.036L237.887 74.522L240.216 73.077L242.878 71.466L245.633 69.853L248.472 68.247L251.347 66.676L254.248 65.158L257.144 63.701L260.083 62.282L262.885 60.980L265.377 59.853L267.673 58.859L269.721 58.007L272.074 57.068L274.676 56.085L277.621 55.009L280.638 53.958L283.610 52.958L286.968 51.885L290.806 50.729L295.093 49.525L299.391 48.415L303.142 47.520L306.490 46.786L309.386 46.207L312.310 45.663L315.237 45.167L318.117 44.717L321.068 44.298L323.858 43.938L326.367 43.641L328.781 43.398L330.874 43.212L333.255 43.030L335.288 42.893L337.630 42.743L339.600 42.627L341.990 42.498L344.093 42.432L346.533 42.387L348.541 42.386L350.771 42.389L352.728 42.412L355.029 42.454L357.064 42.511L359.421 42.598L361.445 42.701L363.835 42.852L365.844 43.002L368.207 43.202L370.215 43.395L372.598 43.652L374.623 43.886L377.007 44.185L379.005 44.459L381.350 44.809L383.340 45.127L385.701 45.520L388.162 45.973L391.466 46.632L395.313 47.477L399.204 48.383L402.694 49.254L405.241 49.929L407.678 50.612L410.010 51.311L412.795 52.173L415.662 53.106L418.199 53.964L420.614 54.808L422.613 55.548L424.914 56.412L426.959 57.226L429.209 58.130L431.152 58.950L433.421 59.917L435.503 60.834L438.004 61.974L440.479 63.162L443.382 64.602L446.231 66.069L448.841 67.449L451.379 68.849L453.883 70.293L456.636 71.920L459.356 73.580L461.781 75.094L464.119 76.608L466.190 77.992L468.515 79.593L470.721 81.152L473.178 82.931L475.357 84.550L477.702 86.346L479.831 88.026L482.191 89.934L484.277 91.666L486.525 93.582L488.565 95.374L490.912 97.491L493.049 99.472L495.424 101.735L497.504 103.779L499.815 106.110L501.835 108.213L504.076 110.609L506.031 112.767L508.124 115.135L509.893 117.197L511.725 119.382L513.324 121.344L515.025 123.481L516.570 125.476L518.313 127.796L520.165 130.355L522.245 133.310L524.334 136.383L526.265 139.331L528.071 142.193L529.748 144.968L531.181 147.402L532.598 149.908L533.916 152.318L535.449 155.180L536.958 158.073L538.255 160.618L539.450 163.056L540.373 165.026L541.447 167.367L542.366 169.449L543.361 171.745L544.205 173.795L545.127 176.130L546.119 178.789L547.328 182.179L548.655 186.120L550.027 190.443L551.325 194.882L552.522 199.335L553.602 203.741L554.495 207.662L555.224 211.155L555.788 214.132L556.300 217.058L556.767 219.993L557.186 222.842L557.570 225.741L557.898 228.505L558.171 230.983L558.401 233.379L558.576 235.441L558.746 237.762L558.876 239.824L558.996 242.183L559.081 244.254L559.147 246.675L559.186 248.736L559.207 251.174L559.208 253.161L559.181 255.580L559.124 257.936L559.034 260.761L558.912 263.550L558.777 266.041L558.605 268.493L558.431 270.584L558.196 273.064L557.931 275.499L557.607 278.269L557.232 281.118L556.818 283.975L556.352 286.913L555.843 289.837L555.285 292.788L554.672 295.798L554.018 298.801L553.315 301.804L552.469 305.166L551.539 308.601L550.584 311.978L549.762 314.700L549.006 317.086L548.309 319.181L547.539 321.414L546.786 323.511L545.948 325.753L545.138 327.831L544.232 330.052L543.355 332.109L542.327 334.450L541.187 336.952L539.861 339.819L538.475 342.731L537.194 345.380L535.916 347.930L534.757 350.158L533.425 352.600L532.023 355.047L530.408 357.784L528.732 360.531L527.170 363.034L525.505 365.590L523.689 368.263L521.293 371.655L518.543 375.398L515.712 379.126L513.137 382.386L511.071 384.909L509.092 387.230L507.281 389.289L505.147 391.651L503.155 393.797L500.883 396.176L498.837 398.253L496.493 400.563L494.374 402.586L492.040 404.757L490.013 406.590L487.798 408.543L485.752 410.298L483.346 412.304L481.089 414.132L478.594 416.096L476.416 417.755L474.083 419.485L472.081 420.914L469.852 422.466L467.868 423.775L465.452 425.322L463.361 426.588L461.014 427.983L459.131 429.070L456.872 430.378L454.806 431.562L452.387 432.922L450.186 434.131L447.695 435.475L445.135 436.839L442.296 438.322L439.450 439.784L436.874 441.067L434.426 442.264L432.294 443.254L429.934 444.300L427.329 445.366L423.988 446.664L420.107 448.081L415.831 449.550L411.570 450.910L407.716 452.064L404.348 453.008L401.747 453.699L399.210 454.330L396.796 454.884L393.985 455.500L391.110 456.086L388.063 456.664L384.711 457.241L381.340 457.775L378.054 458.253L375.460 458.597L373.024 458.880L371.026 459.087L368.642 459.306L366.174 459.498L363.329 459.699L360.492 459.864L358.024 459.985L355.616 460.066L353.555 460.108L351.234 460.133L349.172 460.134L346.851 460.112L344.790 460.066L342.469 459.991L340.407 459.906L338.045 459.783L335.971 459.653L333.518 459.463L331.090 459.241L328.256 458.955L325.418 458.632L322.913 458.326L320.386 457.978L317.976 457.607L315.146 457.143L312.291 456.631L309.735 456.150L307.177 455.623L304.710 455.069L301.900 454.410L299.022 453.694L296.113 452.927L292.732 451.969L288.923 450.794L284.733 449.413L280.848 448.028L277.361 446.686L274.196 445.381L270.759 443.898L267.063 442.263L263.386 440.610L260.032 439.067L257.453 437.860L255.027 436.700L253.085 435.751L250.750 434.580L248.626 433.475L246.104 432.116L243.465 430.589L240.151 428.568L236.317 426.097L232.158 423.304L228.285 420.596L224.930 418.152L222.352 416.206L220.054 414.407L218.096 412.830L215.927 411.034L213.879 409.295L211.523 407.240L209.364 405.308L206.957 403.091L204.843 401.081L202.498 398.786L200.446 396.714L198.169 394.350L196.183 392.226L193.941 389.757L191.760 387.254L189.348 384.417L187.059 381.628L185.084 379.166L183.198 376.714L181.290 374.118L178.939 370.804L176.570 367.344L174.294 363.905L172.928 361.781L171.822 360.010" stroke="rgb(255, 255, 255)" stroke-width="45" fill="none" stroke-linecap="round" stroke-linejoin="round"/><path id="path-extension-1" d="M166.440 350.594L169.314 355.996" stroke="rgb(255, 255, 255)" stroke-width="45" fill="none" stroke-linecap="round" stroke-linejoin="round"/><path id="path-extension-2" d="M171.822 360.010L169.314 355.996" stroke="rgb(255, 255, 255)" stroke-width="45" fill="none" stroke-linecap="round" stroke-linejoin="round"/><path id="path-connection-1" d="M169.314 355.996L169.314 355.996" stroke="rgb(255, 255, 255)" stroke-width="45" fill="none" stroke-linecap="round" stroke-linejoin="round"/></g><g id="skeleton-paths" stroke-width="45.0" fill="rgb(0, 0, 0)" stroke="none"><path id="path-0-0" d="M539.009 550.620L536.350 549.754L533.225 548.775L528.879 547.457L524.554 546.226L520.209 545.071L515.811 543.983L511.405 542.972L507.015 542.044L502.667 541.204L498.290 540.438L493.941 539.752L489.573 539.142L485.262 538.631L480.915 538.221L476.564 537.927L472.151 537.731L467.780 537.612L463.384 537.551L459.066 537.528L454.670 537.526L450.299 537.531L445.886 537.535L441.504 537.537L437.122 537.537L432.739 537.537L428.357 537.538L423.974 537.538L419.592 537.538L415.209 537.539L410.827 537.539L406.444 537.539L402.062 537.539L397.680 537.540L393.297 537.540L388.915 537.540L384.532 537.541L380.150 537.541L375.767 537.541L371.385 537.542L367.002 537.542L362.620 537.542L358.238 537.542L353.855 537.543L349.473 537.543L345.090 537.543L340.708 537.544L336.325 537.544L331.943 537.544L327.560 537.544L323.178 537.545L318.795 537.545L314.413 537.545L310.031 537.546L305.648 537.546L301.266 537.546L296.883 537.546L292.501 537.547L288.118 537.547L283.736 537.547L279.353 537.548L274.971 537.548L270.589 537.548L266.206 537.548L261.824 537.549L257.441 537.549L253.059 537.549L248.676 537.550L244.294 537.549L239.911 537.546L235.496 537.546L231.125 537.555L226.735 537.601L222.608 537.696L218.883 537.837L215.785 538.009L213.322 538.180L210.971 538.381L208.923 538.574L206.547 538.821L204.522 539.049L202.110 539.346L200.120 539.609L197.718 539.951L195.731 540.250L193.312 540.638L191.336 540.972L188.925 541.408L186.583 541.865L183.829 542.425L181.036 543.029L178.567 543.586L175.985 544.206L173.428 544.862L170.165 545.741L166.895 546.670L163.656 547.629L161.122 548.415L158.611 549.230L156.138 550.085L153.014 551.206L149.793 552.415L146.482 553.705L143.403 554.968L140.389 556.256L137.518 557.524L135.024 558.658L132.609 559.802L130.148 561.012L127.409 562.387L124.624 563.829L122.154 565.139L119.719 566.477L117.543 567.707L115.169 569.088L112.994 570.395L110.571 571.892L108.094 573.477L105.455 575.194L102.865 576.922L100.622 578.443L98.265 580.093L96.094 581.661L93.607 583.508L91.426 585.172L89.163 586.938L87.195 588.508L85.038 590.269L83.005 591.967L80.662 593.973L78.500 595.876L76.082 598.065L73.945 600.052L71.571 602.318L69.489 604.360L67.181 606.694L65.156 608.792L62.907 611.184L60.936 613.337L58.767 615.773L56.882 617.948L54.878 620.311L53.189 622.358L51.325 624.680L49.450 627.098L47.379 629.817L45.408 632.494L43.750 634.799L42.164 637.105L40.765 639.191L39.237 641.540L37.878 643.689L36.447 646.029L35.154 648.203L33.778 650.580L32.536 652.788L31.236 655.167L30.057 657.386L28.882 659.654L27.846 661.684L26.837 663.710L25.881 665.650L24.787 667.936L23.591 670.510L22.307 673.336L21.054 676.180L20.010 678.597L18.967 681.107L18.108 683.237L17.171 685.649L16.418 687.686L15.579 690.046L14.873 692.132L14.102 694.474L13.343 696.924L12.414 700.050L11.484 703.316L10.609 706.564L9.884 709.458L9.215 712.310L8.578 715.214L7.988 718.100L7.434 721.019L6.929 723.946L6.471 726.856L6.053 729.801L5.694 732.624L5.409 735.051L5.170 737.407L4.994 739.422L4.817 741.743L4.688 743.805L4.574 746.126L4.503 748.187L4.457 750.508L4.436 752.570L4.426 754.891L4.422 756.952L4.420 759.273L4.419 761.335L4.418 763.655L4.417 765.717L4.415 768.038L4.414 770.100L4.413 772.420L4.412 774.482L4.411 776.803L4.410 778.865L4.409 781.185L4.408 783.247L4.407 785.568L4.406 787.629L4.405 789.950L4.404 792.012L4.402 794.333L4.401 796.394L4.400 798.715L4.399 800.777L4.398 803.097L4.397 805.159L4.396 807.480L4.395 809.542L4.394 811.862L4.393 813.924L4.392 816.245L4.391 818.307L4.390 820.627L4.389 822.689L4.387 825.010L4.386 827.071L4.385 829.392L4.384 831.454L4.383 833.775L4.382 835.836L4.381 838.157L4.380 840.219L4.379 842.539L4.378 844.601L4.377 846.922L4.376 848.984L4.374 851.304L4.373 853.366L4.372 855.687L4.371 857.749L4.370 860.069L4.369 862.131L4.368 864.452L4.367 866.513L4.366 868.834L4.365 870.896L4.364 873.217L4.363 875.278L4.361 877.599L4.360 879.661L4.358 881.982L4.353 884.043L4.342 886.364L4.329 888.426L4.310 890.746L4.293 892.808L4.273 895.129L4.255 897.191L4.236 899.511L4.218 901.573L4.198 903.894L4.181 905.955L4.161 908.276L4.144 910.338L4.124 912.659L4.106 914.720L4.087 917.041L4.069 919.103L4.051 921.531L4.029 924.072L4.006 926.954L4 929.747L4.022 932.074L4.113 934.353L4.231 936.381L4.447 938.823L4.683 940.902L5.081 943.228L5.478 945.050L6.131 947.349L6.943 949.680L8.121 952.686L9.477 955.613L10.871 958.258L12.465 960.684L14.092 962.831L16.150 965.218L18.166 967.311L20.477 969.462L22.570 971.181L24.935 972.897L27.523 974.449L30.356 975.996L33.328 977.372L35.652 978.347L38.034 979.153L39.973 979.706L42.376 980.268L44.432 980.660L46.758 980.984L48.743 981.177L51.093 981.306L53.175 981.356L55.548 981.376L57.610 981.376L59.931 981.376L61.992 981.376L64.313 981.376L66.375 981.375L68.696 981.375L70.757 981.375L73.078 981.375L75.140 981.375L77.460 981.375L79.522 981.375L81.843 981.375L83.905 981.375L86.225 981.374L88.287 981.374L90.608 981.374L92.670 981.374L94.990 981.374L97.052 981.374L99.373 981.374L101.434 981.374L103.755 981.373L105.817 981.373L108.138 981.373L110.199 981.373L112.520 981.373L114.582 981.373L116.902 981.373L118.964 981.373L121.285 981.372L123.347 981.372L125.667 981.372L127.729 981.372L130.050 981.372L132.112 981.372L134.432 981.372L136.494 981.372L138.815 981.372L140.876 981.371L143.197 981.371L145.259 981.371L147.580 981.371L149.641 981.371L151.962 981.371L154.024 981.371L156.344 981.371L158.406 981.370L160.727 981.370L162.789 981.370L165.109 981.370L167.171 981.370L169.492 981.370L171.554 981.370L173.874 981.370L175.936 981.370L178.257 981.369L180.318 981.369L182.639 981.369L184.701 981.369L187.022 981.369L189.083 981.369L191.404 981.369L193.466 981.369L195.787 981.368L197.848 981.368L200.169 981.368L202.231 981.368L204.551 981.368L206.613 981.368L208.934 981.368L210.996 981.368L213.316 981.367L215.378 981.367L217.699 981.367L219.761 981.367L222.081 981.367L224.143 981.367L226.464 981.367L228.525 981.367L230.846 981.367L232.908 981.366L235.229 981.366L237.290 981.366L239.611 981.366L241.673 981.366L243.993 981.366L246.055 981.366L248.376 981.366L250.438 981.365L252.758 981.365L254.820 981.365L257.141 981.365L259.203 981.365L261.523 981.365L263.585 981.365L265.906 981.365L267.967 981.365L270.288 981.364L272.350 981.364L274.671 981.364L276.732 981.364L279.053 981.364L281.115 981.364L283.435 981.364L285.497 981.364L287.818 981.363L289.880 981.363L292.200 981.363L294.262 981.363L296.583 981.363L298.645 981.363L300.965 981.363L303.027 981.363L305.348 981.362L307.409 981.362L309.730 981.362L311.792 981.362L314.113 981.362L316.174 981.362L318.495 981.362L320.557 981.362L322.877 981.362L324.939 981.361L327.260 981.361L329.322 981.361L331.642 981.361L333.704 981.361L336.025 981.361L338.087 981.361L340.407 981.361L342.469 981.360L344.790 981.360L346.851 981.360L349.172 981.360L351.234 981.360L353.555 981.360L355.616 981.360L357.937 981.360L359.999 981.359L362.319 981.360L364.381 981.360L366.702 981.361L368.764 981.362L371.084 981.363L373.146 981.365L375.467 981.366L377.529 981.367L379.849 981.369L381.911 981.370L384.232 981.371L386.293 981.373L388.614 981.374L390.676 981.375L392.997 981.377L395.058 981.378L397.379 981.379L399.441 981.381L401.762 981.382L403.823 981.383L406.144 981.385L408.206 981.386L410.526 981.387L412.588 981.388L414.909 981.390L416.971 981.391L419.291 981.392L421.353 981.394L423.674 981.395L425.735 981.396L428.056 981.398L430.118 981.399L432.439 981.400L434.500 981.402L436.821 981.403L438.883 981.404L441.204 981.406L443.265 981.407L445.586 981.408L447.648 981.409L449.968 981.411L452.030 981.412L454.351 981.414L456.413 981.415L458.733 981.416L460.795 981.417L463.116 981.419L465.178 981.420L467.498 981.421L469.560 981.423L471.881 981.424L473.942 981.425L476.263 981.427L478.325 981.428L480.646 981.429L482.707 981.431L485.028 981.432L487.090 981.433L489.410 981.435L491.472 981.436L493.793 981.437L495.855 981.438L498.175 981.440L500.237 981.441L502.558 981.442L504.620 981.444L506.940 981.445L509.002 981.446L511.323 981.448L513.384 981.449L515.705 981.450L517.767 981.452L520.088 981.453L522.149 981.454L524.470 981.456L526.532 981.457L528.852 981.458L530.914 981.460L533.235 981.461L535.297 981.462L537.617 981.464L539.679 981.465L542 981.466L544.062 981.467L546.382 981.469L548.444 981.470L550.762 981.471L553.241 981.472L555.260 981.473L557.338 981.473" stroke="rgb(255, 255, 255)" stroke-width="45" fill="none" stroke-linecap="round" stroke-linejoin="round"/><path id="path-1-0" d="M561.421 566.271L561.420 567.981L561.419 569.642L561.417 572.168L561.416 574.317L561.416 576.671L561.415 578.733L561.415 581.053L561.415 583.115L561.415 585.436L561.415 587.498L561.415 589.818L561.415 591.880L561.415 594.201L561.415 596.263L561.415 598.583L561.415 600.645L561.415 602.966L561.415 605.027L561.415 607.348L561.415 609.410L561.414 611.731L561.414 613.792L561.414 616.113L561.414 618.175L561.414 620.496L561.414 622.557L561.414 624.878L561.414 626.940L561.414 629.260L561.414 631.322L561.414 633.643L561.414 635.705L561.414 638.025L561.414 640.087L561.413 642.408L561.413 644.470L561.417 646.790L561.426 648.852L561.448 651.173L561.479 653.234L561.521 655.555L561.562 657.617L561.609 659.938L561.650 662L561.696 664.320L561.737 666.382L561.783 668.702L561.824 670.764L561.867 673.117L561.897 675.157L561.922 677.441L561.936 679.324L561.950 681.562L561.959 683.582L561.966 686.034L561.968 688.201L561.968 690.601L561.969 692.676L561.970 694.997L561.970 697.059L561.971 699.380L561.972 701.441L561.973 703.762L561.974 705.824L561.975 708.144L561.975 710.206L561.976 712.527L561.977 714.589L561.978 716.909L561.979 718.971L561.980 721.292L561.980 723.354L561.981 725.674L561.982 727.736L561.983 730.057L561.984 732.118L561.985 734.439L561.985 736.501L561.986 738.822L561.987 740.883L561.988 743.204L561.989 745.266L561.989 747.586L561.990 749.648L561.991 751.969L561.992 754.031L561.993 756.351L561.994 758.413L561.994 760.734L561.995 762.796L561.996 765.116L561.997 767.178L561.998 769.499L561.998 771.560L562 773.881L562 775.943L562.001 778.264L562.002 780.325L562.003 782.646L562.003 784.708L562.004 787.028L562.005 789.090L562.006 791.411L562.007 793.473L562.007 795.793L562.007 797.855L562.006 800.176L562.004 802.238L562.002 804.558L562 806.620L561.998 808.941L561.996 811.002L561.994 813.323L561.992 815.385L561.990 817.706L561.988 819.767L561.986 822.088L561.984 824.150L561.982 826.471L561.980 828.532L561.977 830.853L561.976 832.915L561.973 835.235L561.971 837.297L561.969 839.618L561.967 841.680L561.965 844L561.963 846.062L561.961 848.383L561.959 850.445L561.957 852.765L561.955 854.827L561.953 857.161L561.952 859.190L561.950 861.541L561.948 863.569L561.946 865.972L561.944 867.999L561.941 870.336L561.939 872.355L561.937 874.677L561.935 876.739L561.933 879.060L561.931 881.122L561.929 883.442L561.927 885.504L561.925 887.825L561.923 889.887L561.920 892.207L561.919 894.269L561.913 896.590L561.903 898.651L561.879 900.972L561.849 903.034L561.807 905.355L561.767 907.416L561.723 909.737L561.683 911.799L561.638 914.119L561.598 916.181L561.553 918.502L561.513 920.564L561.469 922.884L561.429 924.946L561.400 927.234L561.399 929.243L561.463 931.591L561.634 934.102L561.904 936.981L562.305 939.967L562.811 942.773L563.415 945.577L564.187 948.320L564.926 950.803L565.927 953.374L566.536 954.897L567.317 956.551" stroke="rgb(255, 255, 255)" stroke-width="45" fill="none" stroke-linecap="round" stroke-linejoin="round"/><path id="path-2-0" d="M561.491 538.303L561.493 536.871L561.494 535.132L561.496 532.904L561.497 530.560L561.499 528.464L561.500 526.143L561.501 524.082L561.502 521.761L561.503 519.699L561.504 517.379L561.505 515.317L561.506 512.996L561.507 510.934L561.508 508.614L561.509 506.552L561.510 504.231L561.511 502.169L561.513 499.849L561.514 497.787L561.515 495.466L561.516 493.405L561.517 491.084L561.518 489.022L561.519 486.701L561.520 484.640L561.521 482.319L561.522 480.257L561.523 477.937L561.524 475.875L561.525 473.554L561.526 471.492L561.527 469.172L561.528 467.110L561.530 464.789L561.531 462.727L561.532 460.407L561.533 458.345L561.534 456.024L561.535 453.963L561.536 451.642L561.537 449.580L561.540 447.259L561.552 445.198L561.605 442.874L561.703 440.854L561.922 438.511L562.274 436.292L562.803 433.694L563.500 431.146L564.283 428.601L565.248 426.047L566.268 423.688L567.528 421.227L568.822 419.054L570.358 416.819L571.894 414.861L573.656 412.864L575.378 411.092L577.333 409.272L579.247 407.668L581.532 406.028L583.690 404.657L586.197 403.306L588.310 402.308L590.785 401.294L593.181 400.476L595.893 399.614L598.604 398.921L600.929 398.393L603.182 398.008L604.946 397.769L606.980 397.568L609.124 397.447L611.718 397.353L614.553 397.307L617.467 397.291L620.424 397.297L623.291 397.310L625.776 397.320L628.188 397.329L630.250 397.335L632.570 397.343L634.632 397.350L636.953 397.358L639.015 397.364L641.335 397.372L643.397 397.379L645.715 397.387L648.195 397.396L650.216 397.405L652.294 397.413" stroke="rgb(255, 255, 255)" stroke-width="45" fill="none" stroke-linecap="round" stroke-linejoin="round"/><path id="path-3-0" d="M666.318 415.074L666.326 416.563L666.333 418.043L666.345 420.364L666.356 422.426L666.369 424.768L666.380 426.815L666.394 429.233L666.407 431.664L666.422 434.519L666.435 437.351L666.447 439.865L666.466 442.334L666.490 444.430L666.606 447.022L666.703 448.635L666.899 450.563" stroke="rgb(255, 255, 255)" stroke-width="45" fill="none" stroke-linecap="round" stroke-linejoin="round"/><path id="path-4-0" d="M674.207 463.377L677.031 465.102L680.094 466.518L683.997 467.913L686.943 468.513L689.525 468.676L691.604 468.710L693.925 468.710L695.986 468.709L698.307 468.709L700.369 468.709L702.690 468.709L704.751 468.708L707.072 468.708L709.134 468.708L711.454 468.707L713.516 468.707L715.837 468.707L717.899 468.706L720.219 468.706L722.281 468.706L724.602 468.705L726.664 468.705L728.984 468.705L731.046 468.704L733.367 468.704L735.428 468.704L737.749 468.703L739.811 468.703L742.132 468.703L744.193 468.703L746.514 468.702L748.576 468.702L750.896 468.702L752.958 468.701L755.279 468.701L757.341 468.701L759.661 468.700L761.723 468.700L764.044 468.700L766.106 468.699L768.426 468.699L770.488 468.699L772.809 468.698L774.870 468.698L777.191 468.698L779.253 468.697L781.574 468.697L783.635 468.697L785.956 468.697L788.018 468.696L790.338 468.696L792.400 468.696L794.721 468.695L796.783 468.695L799.103 468.695L801.165 468.694L803.486 468.694L805.548 468.694L807.868 468.693L809.930 468.693L812.251 468.693L814.312 468.692L816.633 468.692L818.695 468.692L821.016 468.691L823.077 468.691L825.398 468.691L827.460 468.691L829.780 468.690L831.842 468.690L834.163 468.690L836.225 468.689L838.545 468.689L840.607 468.689L842.928 468.688L844.990 468.688L847.310 468.688L849.372 468.687L851.693 468.687L853.754 468.687L856.075 468.686L858.137 468.686L860.458 468.686L862.519 468.685L864.840 468.685L866.902 468.685L869.222 468.684L871.284 468.684L873.605 468.684L875.667 468.684L877.987 468.683L880.049 468.683L882.370 468.683L884.432 468.682L886.770 468.650L888.774 468.529L891.135 468.287L893.666 467.651L895.925 467.125L898.186 466.269" stroke="rgb(255, 255, 255)" stroke-width="45" fill="none" stroke-linecap="round" stroke-linejoin="round"/><path id="path-5-0" d="M909.318 448.615L909.360 447.452L909.409 445.799L909.462 443.737L909.504 441.416L909.527 439.354L909.542 437.030L909.547 435.009L909.548 432.724L909.543 430.732L909.530 428.389L909.512 426.303L909.490 423.919L909.476 421.837L909.470 419.504L909.475 417.442L909.482 415.789L909.491 414.625" stroke="rgb(255, 255, 255)" stroke-width="45" fill="none" stroke-linecap="round" stroke-linejoin="round"/><path id="path-6-0" d="M599.426 981.074L602.027 981.145L605.139 981.281L609.498 981.398L613.880 981.460L618.263 981.439L622.645 981.394L627.028 981.361L631.410 981.349L635.792 981.348L640.175 981.350L644.557 981.350L648.940 981.350L653.322 981.350L657.705 981.351L662.087 981.351L666.470 981.351L670.852 981.351L675.234 981.351L679.617 981.351L684 981.351L688.382 981.351L692.764 981.351L697.147 981.351L701.529 981.352L705.912 981.352L710.294 981.352L714.677 981.352L719.059 981.352L723.441 981.352L727.824 981.352L732.206 981.352L736.589 981.352L740.971 981.352L745.354 981.353L749.736 981.353L754.119 981.353L758.501 981.353L762.883 981.353L767.266 981.353L771.648 981.353L776.031 981.353L780.413 981.353L784.796 981.353L789.178 981.354L793.561 981.354L797.943 981.354L802.325 981.354L806.708 981.354L811.090 981.354L815.473 981.354L819.855 981.354L824.238 981.354L828.620 981.355L833.003 981.355L837.385 981.355L841.767 981.355L846.150 981.355L850.532 981.355L854.915 981.356L859.297 981.358L863.680 981.362L868.062 981.369L872.445 981.378L876.827 981.388L881.209 981.398L885.592 981.408L889.974 981.417L894.357 981.427L898.739 981.437L903.122 981.447L907.504 981.456L911.887 981.466L916.269 981.476L920.652 981.486L925.034 981.495L929.416 981.505L933.799 981.515L938.181 981.525L942.564 981.534L946.946 981.544L951.329 981.554L955.711 981.571L960.094 981.593L964.476 981.614L968.848 981.565L973.234 981.371L977.635 980.913L982.076 980.118L986.565 978.875L991.073 977.129L995.580 974.805L999.944 971.934L1004.061 968.554L1007.803 964.760L1011.092 960.586L1013.870 956.155L1016.089 951.547L1017.736 946.940L1018.844 942.368L1019.506 937.868L1019.836 933.429L1019.969 929.023L1020 924.646L1019.999 920.263L1019.995 915.881L1019.993 911.498L1019.994 907.116L1019.994 902.733L1019.994 898.351L1019.994 893.968L1019.994 889.586L1019.994 885.204L1019.993 880.821L1019.993 876.439L1019.993 872.056L1019.993 867.674L1019.993 863.291L1019.993 858.909L1019.993 854.526L1019.993 850.144L1019.993 845.762L1019.993 841.379L1019.993 836.997L1019.993 832.614L1019.993 828.232L1019.993 823.849L1019.993 819.467L1019.992 815.084L1019.992 810.702L1019.992 806.320L1019.992 801.937L1019.992 797.555L1019.992 793.172L1019.992 788.790L1019.992 784.407L1019.992 780.025L1019.992 775.642L1019.992 771.260L1019.992 766.878L1019.992 762.495L1019.992 758.113L1019.992 753.730L1019.992 749.348L1019.991 744.965L1019.991 740.583L1019.991 736.200L1019.991 731.818L1019.991 727.436L1019.991 723.053L1019.991 718.671L1019.991 714.288L1019.991 709.906L1019.991 705.523L1019.991 701.141L1019.991 696.758L1019.991 692.376L1019.991 687.994L1019.991 683.611L1019.990 679.229L1019.990 674.846L1019.990 670.464L1019.990 666.081L1019.990 661.699L1019.990 657.316L1019.990 652.934L1019.990 648.551L1019.990 644.169L1019.990 639.787L1019.990 635.404L1019.990 631.022L1019.990 626.639L1019.990 622.257L1019.990 617.874L1019.990 613.492L1019.989 609.109L1019.989 604.727L1019.989 600.345L1019.989 595.962L1019.989 591.580L1019.989 587.197L1019.989 582.815L1019.989 578.432L1019.989 574.050L1019.989 569.667L1019.989 565.285L1019.989 560.903L1019.989 556.520L1019.989 552.138L1019.989 547.755L1019.989 543.373L1019.988 538.990L1019.988 534.608L1019.988 530.225L1019.988 525.843L1019.988 521.461L1019.988 517.078L1019.988 512.696L1019.988 508.313L1019.988 503.931L1019.988 499.548L1019.988 495.166L1019.988 490.783L1019.988 486.401L1019.988 482.019L1019.988 477.636L1019.987 473.254L1019.987 468.871L1019.987 464.489L1019.987 460.106L1019.987 455.724L1019.985 451.341L1019.936 446.969L1019.749 442.583L1019.311 438.180L1018.515 433.736L1017.275 429.245L1015.495 424.752L1013.110 420.295L1010.156 416.039L1006.589 412.029L1002.554 408.423L998.117 405.286L993.610 402.786L989.141 400.899L984.771 399.540L980.436 398.573L976.106 397.920L971.759 397.538L967.398 397.364L963.015 397.306L958.633 397.299L954.250 397.297L949.868 397.294L945.485 397.292L941.103 397.290L936.720 397.288L933.587 397.286L930.935 397.285" stroke="rgb(255, 255, 255)" stroke-width="45" fill="none" stroke-linecap="round" stroke-linejoin="round"/><path id="path-7-0" d="M720.511 381.950L720.546 380.539L720.603 378.806L720.700 376.591L720.856 374.252L721.040 372.210L721.319 369.883L721.700 367.468L722.214 364.648L722.837 361.756L723.441 359.299L724.132 356.910L724.961 354.587L726.238 351.441L727.962 347.789L729.934 343.953L731.869 340.617L733.506 338.064L735.181 335.787L736.819 333.742L738.837 331.424L740.789 329.347L742.994 327.178L744.984 325.372L747.286 323.466L749.448 321.829L751.984 320.061L754.469 318.500L757.132 316.934L759.819 315.538L762.152 314.437L764.624 313.428L766.999 312.608L769.686 311.722L772.449 310.975L774.880 310.392L777.484 309.940L779.940 309.625L782.747 309.349L785.535 309.190L787.991 309.125L790.400 309.176L792.371 309.294L794.649 309.500L796.702 309.761L799.049 310.140L801.075 310.552L803.283 311.067L805.219 311.588L807.605 312.306L810.157 313.215L813.104 314.379L816.010 315.702L818.588 317.002L821.120 318.474L823.403 319.946L825.887 321.716L828.032 323.393L830.206 325.253L832.075 326.987L834.099 329.019L835.946 331.025L837.913 333.347L839.591 335.495L841.344 337.982L842.993 340.605L844.730 343.625L846.323 346.704L847.745 349.833L849.058 353.209L850.191 356.583L851.139 359.873L851.774 362.494L852.252 364.942L852.589 366.947L852.928 369.222L853.197 371.265L853.480 373.588L853.697 375.660L853.922 377.989L854.081 380.168L854.210 381.940L854.275 383.285" stroke="rgb(255, 255, 255)" stroke-width="45" fill="none" stroke-linecap="round" stroke-linejoin="round"/><path id="path-8-0" d="M867.590 397.256L869.474 397.256L871.058 397.256L873.577 397.257L875.637 397.257L877.987 397.258L880.049 397.259L882.370 397.259L884.432 397.260L886.773 397.261L888.819 397.262L891.204 397.263L892.678 397.264L894.312 397.265" stroke="rgb(255, 255, 255)" stroke-width="45" fill="none" stroke-linecap="round" stroke-linejoin="round"/><path id="path-9-0" d="M681.159 397.442L683.799 397.452L686.930 397.459L691.344 397.469L695.752 397.476L700.358 397.484L703.630 397.491L706.680 397.495" stroke="rgb(255, 255, 255)" stroke-width="45" fill="none" stroke-linecap="round" stroke-linejoin="round"/><path id="path-extension-1" d="M539.009 550.620L561.442 557.925" stroke="rgb(255, 255, 255)" stroke-width="45" fill="none" stroke-linecap="round" stroke-linejoin="round"/><path id="path-extension-2" d="M666.318 415.074L666.226 397.427" stroke="rgb(255, 255, 255)" stroke-width="45" fill="none" stroke-linecap="round" stroke-linejoin="round"/><path id="path-extension-3" d="M666.899 450.563L667.807 459.467" stroke="rgb(255, 255, 255)" stroke-width="45" fill="none" stroke-linecap="round" stroke-linejoin="round"/><path id="path-extension-4" d="M674.207 463.377L667.807 459.467" stroke="rgb(255, 255, 255)" stroke-width="45" fill="none" stroke-linecap="round" stroke-linejoin="round"/><path id="path-extension-5" d="M898.186 466.269L908.826 462.239" stroke="rgb(255, 255, 255)" stroke-width="45" fill="none" stroke-linecap="round" stroke-linejoin="round"/><path id="path-extension-6" d="M909.318 448.615L908.826 462.239" stroke="rgb(255, 255, 255)" stroke-width="45" fill="none" stroke-linecap="round" stroke-linejoin="round"/><path id="path-extension-7" d="M720.511 381.950L720.121 397.513" stroke="rgb(255, 255, 255)" stroke-width="45" fill="none" stroke-linecap="round" stroke-linejoin="round"/><path id="path-extension-8" d="M854.275 383.285L854.957 397.253" stroke="rgb(255, 255, 255)" stroke-width="45" fill="none" stroke-linecap="round" stroke-linejoin="round"/><path id="path-extension-9" d="M867.590 397.256L854.957 397.253" stroke="rgb(255, 255, 255)" stroke-width="45" fill="none" stroke-linecap="round" stroke-linejoin="round"/><path id="path-extension-10" d="M706.680 397.495L720.121 397.513" stroke="rgb(255, 255, 255)" stroke-width="45" fill="none" stroke-linecap="round" stroke-linejoin="round"/><path id="path-connection-1" d="M561.421 566.271L561.491 538.303" stroke="rgb(255, 255, 255)" stroke-width="45" fill="none" stroke-linecap="round" stroke-linejoin="round"/><path id="path-connection-2" d="M652.294 397.413L681.159 397.442" stroke="rgb(255, 255, 255)" stroke-width="45" fill="none" stroke-linecap="round" stroke-linejoin="round"/><path id="path-connection-3" d="M667.807 459.467L667.807 459.467" stroke="rgb(255, 255, 255)" stroke-width="45" fill="none" stroke-linecap="round" stroke-linejoin="round"/><path id="path-connection-4" d="M908.826 462.239L908.826 462.239" stroke="rgb(255, 255, 255)" stroke-width="45" fill="none" stroke-linecap="round" stroke-linejoin="round"/><path id="path-connection-5" d="M720.121 397.513L720.121 397.513" stroke="rgb(255, 255, 255)" stroke-width="45" fill="none" stroke-linecap="round" stroke-linejoin="round"/><path id="path-connection-6" d="M854.957 397.253L854.957 397.253" stroke="rgb(255, 255, 255)" stroke-width="45" fill="none" stroke-linecap="round" stroke-linejoin="round"/><path id="path-connection-7" d="M557.338 981.473L578.803 980.893" stroke="rgb(255, 255, 255)" stroke-width="45" fill="none" stroke-linecap="round" stroke-linejoin="round"/><path id="path-connection-8" d="M567.317 956.551L578.803 980.893" stroke="rgb(255, 255, 255)" stroke-width="45" fill="none" stroke-linecap="round" stroke-linejoin="round"/><path id="path-connection-9" d="M599.426 981.074L578.803 980.893" stroke="rgb(255, 255, 255)" stroke-width="45" fill="none" stroke-linecap="round" stroke-linejoin="round"/><path id="path-connection-10" d="M894.312 397.265L909.630 397.274" stroke="rgb(255, 255, 255)" stroke-width="45" fill="none" stroke-linecap="round" stroke-linejoin="round"/><path id="path-connection-11" d="M909.491 414.625L909.630 397.274" stroke="rgb(255, 255, 255)" stroke-width="45" fill="none" stroke-linecap="round" stroke-linejoin="round"/><path id="path-connection-12" d="M930.935 397.285L909.630 397.274" stroke="rgb(255, 255, 255)" stroke-width="45" fill="none" stroke-linecap="round" stroke-linejoin="round"/></g><g id="skeleton-paths" stroke-width="45.0" fill="rgb(0, 0, 0)" stroke="none"><path id="path-0-0" d="M883.989 621.892L882.606 620.297L881.186 618.757L878.917 616.386L876.832 614.346L874.427 612.113L872.239 610.186L869.818 608.146L867.699 606.444L865.445 604.712L863.411 603.224L861.086 601.613L858.962 600.199L856.580 598.688L854.546 597.445L852.188 596.072L850.050 594.883L847.534 593.558L844.901 592.267L841.601 590.764L837.896 589.204L834.125 587.727L830.747 586.509L828.053 585.619L825.601 584.883L823.473 584.298L821.172 583.719L819.248 583.268L816.985 582.787L814.650 582.348L811.822 581.856L808.873 581.418L805.932 581.051L802.963 580.755L800.114 580.534L797.664 580.376L795.290 580.267L793.266 580.204L790.939 580.164L788.878 580.165L786.606 580.213L784.510 580.298L782.279 580.425L780.099 580.582L778.082 580.753L776 580.968L774.183 581.185L771.916 581.499L769.566 581.879L766.792 582.368L763.986 582.928L761.511 583.464L758.947 584.081L756.423 584.768L753.194 585.719L749.873 586.787L746.588 587.915L743.946 588.895L741.600 589.836L739.562 590.716L737.288 591.756L734.831 592.956L732.099 594.338L729.325 595.814L726.871 597.172L724.480 598.585L722.361 599.905L720.086 601.399L718.026 602.812L715.758 604.446L713.612 606.055L711.096 608.032L708.516 610.177L705.693 612.623L702.941 615.147L700.543 617.441L698.221 619.803L696.257 621.903L694.175 624.224L692.425 626.267L690.564 628.541L688.919 630.653L687.085 633.116L685.303 635.647L683.371 638.504L681.479 641.458L679.867 644.084L678.396 646.622L677.315 648.587L676.122 650.857L675.164 652.772L673.980 655.250L672.865 657.753L671.484 661.054L670.108 664.646L668.810 668.259L667.764 671.493L667.018 674.001L666.355 676.524L665.770 678.990L665.153 681.781L664.602 684.630L664.118 687.482L663.696 690.410L663.350 693.229L663.089 695.647L662.893 697.985L662.766 699.988L662.661 702.301L662.598 704.363L662.555 706.684L662.535 708.745L662.553 711.068L662.598 713.087L662.701 715.415L662.813 717.429L662.984 719.820L663.156 721.849L663.400 724.222L663.641 726.227L663.965 728.577L664.281 730.574L664.701 732.946L665.093 734.923L665.604 737.288L666.194 739.689L667.062 742.915L668.158 746.589L669.365 750.350L670.594 753.846L671.828 757.023L673.260 760.393L674.766 763.707L676.303 766.886L677.629 769.471L678.971 771.909L680.230 774.074L681.655 776.406L683.014 778.527L684.640 780.934L686.478 783.496L688.646 786.391L690.964 789.326L693.092 791.905L695.301 794.421L697.279 796.563L699.562 798.921L701.639 800.968L704.030 803.214L706.201 805.156L708.598 807.212L710.697 808.931L713.081 810.792L715.678 812.689L718.938 814.949L722.303 817.163L725.595 819.208L728.554 820.910L731.439 822.461L734.364 823.935L737.384 825.358L740.740 826.814L744.138 828.180L747.474 829.420L750.128 830.336L752.640 831.118L755.039 831.806L757.767 832.543L760.590 833.239L763.045 833.803L765.556 834.312L767.530 834.673L769.853 835.057L771.831 835.342L774.240 835.653L776.316 835.889L778.652 836.120L780.631 836.284L782.971 836.439L785.047 836.540L787.417 836.614L789.479 836.642L791.799 836.636L793.861 836.598L796.220 836.512L798.288 836.404L800.644 836.239L802.594 836.077L804.933 835.841L806.929 835.609L809.357 835.288L811.373 834.984L813.748 834.583L815.800 834.192L818.258 833.681L820.790 833.078L824.122 832.200L827.960 831.052L832.230 829.620L836.110 828.170L839.541 826.739L842.117 825.577L844.693 824.338L846.797 823.291L849.171 822.078L851.110 821.069L853.426 819.812L855.547 818.614L857.946 817.154L860.075 815.779L862.492 814.106L865.042 812.236L867.943 810.016L870.911 807.614L873.799 805.135L876.634 802.561L879.273 800.029L881.531 797.782L883.622 795.572L885.442 793.551L887.436 791.238L889.180 789.129L890.959 786.883L892.476 784.873L894.119 782.586L895.642 780.364L897.356 777.739L899.014 775.050L900.667 772.269L902.243 769.443L903.670 766.719L905.159 763.691L906.497 760.786L907.654 758.138L908.635 755.700L909.422 753.586L910.267 751.210L911.072 748.709L912.047 745.445L913.064 741.604L914.017 737.708L914.780 734.126L915.273 731.532L915.667 729.103L915.936 727.243L916.221 725L916.440 723.012L916.671 720.592L916.841 718.449L916.986 716.022L917.072 713.945L917.117 711.545L917.119 709.509L917.085 707.124L917.037 705.177L916.959 702.885L916.861 700.935L916.695 698.519L916.506 696.410L916.243 694L915.987 692.001L915.645 689.658L915.310 687.590L914.864 685.098L914.358 682.644L913.744 679.853L913.063 677.097L912.423 674.661L911.703 672.201L911.049 670.115L910.275 667.764L909.563 665.751L908.690 663.387L907.806 661.154L906.751 658.600L906.026 656.913L905.319 655.306" stroke="rgb(255, 255, 255)" stroke-width="45" fill="none" stroke-linecap="round" stroke-linejoin="round"/><path id="path-1-0" d="M797.126 736.866L799.801 734.162L802.934 731L807.314 726.581L811.679 722.181L816.043 717.780L820.415 713.374L824.709 709.046L828.941 704.780L833.068 700.619L837.262 696.389L841.519 692.097L845.868 687.712L850.233 683.311L854.597 678.911L858.962 674.511L863.327 670.111L867.691 665.710L872.056 661.310L875.176 658.164L877.818 655.501" stroke="rgb(255, 255, 255)" stroke-width="45" fill="none" stroke-linecap="round" stroke-linejoin="round"/><path id="path-2-0" d="M744.601 709.801L747.058 712.154L750.035 715.056L754.158 719.097L758.418 723.313L762.732 727.591L765.877 730.709L768.541 733.349" stroke="rgb(255, 255, 255)" stroke-width="45" fill="none" stroke-linecap="round" stroke-linejoin="round"/><path id="path-3-0" d="M909.578 623.261L910.721 622.077L912.346 620.395L914.372 618.298L916.656 615.933L918.695 613.824L920.924 611.518L922.843 609.533L924.302 608.023L925.316 606.974" stroke="rgb(255, 255, 255)" stroke-width="45" fill="none" stroke-linecap="round" stroke-linejoin="round"/><path id="path-extension-1" d="M905.319 655.306L897.450 637.415" stroke="rgb(255, 255, 255)" stroke-width="45" fill="none" stroke-linecap="round" stroke-linejoin="round"/><path id="path-extension-2" d="M797.126 736.866L784.732 749.397" stroke="rgb(255, 255, 255)" stroke-width="45" fill="none" stroke-linecap="round" stroke-linejoin="round"/><path id="path-extension-3" d="M768.541 733.349L784.732 749.397" stroke="rgb(255, 255, 255)" stroke-width="45" fill="none" stroke-linecap="round" stroke-linejoin="round"/><path id="path-connection-1" d="M784.732 749.397L784.732 749.397" stroke="rgb(255, 255, 255)" stroke-width="45" fill="none" stroke-linecap="round" stroke-linejoin="round"/><path id="path-connection-2" d="M883.989 621.892L896.795 636.422" stroke="rgb(255, 255, 255)" stroke-width="45" fill="none" stroke-linecap="round" stroke-linejoin="round"/><path id="path-connection-3" d="M877.818 655.501L896.795 636.422" stroke="rgb(255, 255, 255)" stroke-width="45" fill="none" stroke-linecap="round" stroke-linejoin="round"/><path id="path-connection-4" d="M909.578 623.261L896.795 636.422" stroke="rgb(255, 255, 255)" stroke-width="45" fill="none" stroke-linecap="round" stroke-linejoin="round"/><path id="path-connection-5" d="M897.450 637.415L897.450 637.415" stroke="rgb(255, 255, 255)" stroke-width="45" fill="none" stroke-linecap="round" stroke-linejoin="round"/></g></svg>