<svg xmlns="http://www.w3.org/2000/svg" viewBox="-41 -40.02500009536743 1106 1104.050048828125" width="1024" height="1024" class="colorable-icon reset-top-left-margin" data-export-recolorable-svg="true" overflow="visible" xmlns:xlink="http://www.w3.org/1999/xlink" fill="rgb(0, 0, 0)" stroke="none"><g id="skeleton-paths" stroke-width="45.0" fill="rgb(0, 0, 0)" stroke="none"><path id="path-0-0" d="M489.866 727.237L487.180 727.237L484.122 727.237L479.885 727.237L475.731 727.237L471.592 727.237L467.453 727.237L463.314 727.237L459.175 727.237L455.035 727.237L450.896 727.237L446.757 727.238L442.618 727.238L438.479 727.238L434.340 727.238L430.200 727.238L426.061 727.238L421.922 727.238L417.783 727.238L413.644 727.238L409.505 727.238L405.365 727.239L401.226 727.239L397.087 727.239L392.948 727.239L388.809 727.239L384.670 727.239L380.530 727.239L376.391 727.239L372.252 727.239L368.113 727.239L363.974 727.240L359.834 727.240L355.695 727.240L351.556 727.240L347.417 727.240L343.278 727.240L339.139 727.240L335 727.240L330.860 727.240L326.721 727.241L322.582 727.241L318.443 727.241L314.304 727.241L310.164 727.241L306.025 727.241L301.886 727.241L297.747 727.241L293.608 727.241L289.469 727.241L285.329 727.242L281.190 727.242L277.051 727.242L272.912 727.242L268.773 727.242L264.634 727.242L260.494 727.242L256.355 727.242L252.216 727.242L248.077 727.242L243.938 727.243L239.798 727.243L235.659 727.243L231.520 727.243L227.381 727.243L223.242 727.243L219.103 727.243L214.963 727.243L210.824 727.243L206.685 727.243L202.546 727.244L198.407 727.244L194.268 727.244L190.128 727.244L185.989 727.244L181.850 727.244L177.711 727.244L173.572 727.244L169.433 727.244L165.293 727.244L161.154 727.245L157.015 727.245L152.876 727.245L148.737 727.245L144.597 727.245L140.458 727.245L136.319 727.245L132.180 727.245L128.041 727.245L123.902 727.245L119.762 727.246L115.623 727.246L111.484 727.246L107.345 727.246L103.206 727.246L99.067 727.246L94.927 727.246L90.788 727.246L86.649 727.246L82.510 727.246L78.371 727.247L74.232 727.247L70.092 727.233L65.971 727.202L61.840 727.110L57.724 726.947L53.557 726.643L49.436 726.151L45.248 725.372L41.119 724.248L36.888 722.709L32.743 720.735L28.529 718.217L24.474 715.217L20.561 711.763L17.064 708.061L13.925 704.044L11.244 699.893L8.950 695.583L7.173 691.471L5.838 687.423L4.952 683.502L4.404 679.524L4.142 675.484L4.048 671.389L4.031 667.250L4.031 663.111L4.031 658.971L4.031 654.832L4.031 650.693L4.031 646.554L4.031 642.415L4.031 638.275L4.031 634.136L4.031 629.997L4.031 625.858L4.031 621.719L4.031 617.580L4.031 613.440L4.031 609.301L4.031 605.162L4.031 601.023L4.031 596.884L4.031 592.745L4.031 588.605L4.031 584.466L4.031 580.327L4.031 576.188L4.031 572.049L4.031 567.910L4.031 563.770L4.031 559.631L4.031 555.492L4.031 551.353L4.031 547.214L4.031 543.074L4.031 538.935L4.031 534.796L4.031 530.657L4.031 526.518L4.031 522.379L4.031 518.239L4.031 514.100L4.031 509.961L4.031 505.822L4.031 501.683L4.031 497.544L4.031 493.404L4.031 489.265L4.031 485.126L4.031 480.987L4.031 476.848L4.031 472.709L4.031 468.569L4.031 464.430L4.031 460.291L4.031 456.152L4.031 452.013L4.031 447.874L4.031 443.734L4.031 439.595L4.031 435.456L4.031 431.317L4.031 427.178L4.031 423.038L4.031 418.899L4.031 414.760L4.031 410.621L4.031 406.482L4.031 402.343L4.031 398.203L4.031 394.064L4.031 389.925L4.031 385.786L4.031 381.647L4.031 377.508L4.031 373.368L4.031 369.229L4.031 365.090L4.031 360.951L4.031 356.812L4.031 352.673L4.031 348.533L4.031 344.394L4.031 340.255L4.031 336.116L4.031 331.977L4.031 327.837L4.031 323.698L4.031 319.559L4.031 315.420L4.031 311.281L4.031 307.142L4.031 303.002L4.031 298.863L4.031 294.724L4.031 290.585L4.031 286.446L4.031 282.307L4.031 278.167L4.031 274.028L4.031 269.889L4.031 265.750L4.031 261.611L4.031 257.472L4.031 253.332L4.031 249.193L4.031 245.054L4.031 240.915L4.031 236.776L4.031 232.637L4.031 228.497L4.031 224.358L4.031 220.219L4.031 216.080L4.031 211.941L4.031 207.801L4.031 203.662L4.031 199.523L4.031 195.384L4.031 191.245L4.031 187.106L4.031 182.966L4.031 178.827L4.031 174.688L4.031 170.549L4.031 166.410L4.031 162.271L4.031 158.131L4.031 153.992L4.031 149.853L4.031 145.714L4.031 141.575L4.031 137.436L4.031 133.296L4.031 129.157L4.031 125.018L4.031 120.879L4.031 116.740L4.031 112.600L4.031 108.461L4.031 104.322L4.031 100.183L4.031 96.044L4.031 91.905L4.031 87.765L4.031 83.626L4.031 79.487L4.030 75.348L4.025 71.209L4.012 67.070L4 62.930L4.032 58.831L4.210 54.772L4.635 50.753L5.380 46.697L6.442 42.596L7.815 38.561L9.603 34.541L11.835 30.625L14.653 26.592L17.873 22.726L21.486 19.014L25.299 15.750L29.234 12.962L32.867 10.803L36.070 9.248L38.896 8.095L41.865 7.142L44.856 6.319L47.788 5.706L50.423 5.335L53.009 5.134L55.585 5.038L57.888 4.991L60.151 4.982L62.098 4.982L64.290 4.982L66.237 4.982L68.429 4.982L70.376 4.982L72.568 4.982L74.515 4.982L76.707 4.982L78.655 4.982L80.846 4.982L82.794 4.982L84.986 4.982L86.933 4.982L89.125 4.982L91.072 4.982L93.264 4.982L95.211 4.982L97.403 4.982L99.350 4.982L101.542 4.982L103.490 4.982L105.681 4.982L107.629 4.982L109.821 4.982L111.768 4.982L113.960 4.982L115.907 4.982L118.099 4.982L120.046 4.981L122.238 4.981L124.185 4.981L126.377 4.981L128.325 4.981L130.516 4.981L132.464 4.981L134.656 4.981L136.603 4.981L138.795 4.981L140.742 4.981L142.934 4.981L144.881 4.981L147.073 4.981L149.020 4.981L151.212 4.981L153.160 4.981L155.351 4.981L157.299 4.981L159.491 4.981L161.438 4.981L163.630 4.981L165.577 4.981L167.769 4.981L169.716 4.981L171.908 4.981L173.855 4.981L176.047 4.981L177.995 4.981L180.187 4.981L182.134 4.981L184.326 4.981L186.273 4.981L188.465 4.981L190.412 4.981L192.604 4.981L194.551 4.981L196.743 4.981L198.691 4.981L200.882 4.981L202.830 4.981L205.022 4.981L206.969 4.981L209.161 4.981L211.108 4.981L213.300 4.981L215.247 4.981L217.439 4.981L219.386 4.981L221.578 4.981L223.526 4.981L225.717 4.981L227.665 4.981L229.857 4.981L231.804 4.981L233.996 4.981L235.943 4.981L238.135 4.981L240.082 4.981L242.274 4.981L244.221 4.981L246.413 4.981L248.361 4.981L250.552 4.981L252.500 4.980L254.692 4.980L256.639 4.980L258.831 4.980L260.778 4.980L262.970 4.980L264.917 4.980L267.109 4.980L269.056 4.980L271.248 4.980L273.196 4.980L275.388 4.980L277.335 4.980L279.527 4.980L281.474 4.980L283.666 4.980L285.613 4.980L287.805 4.980L289.752 4.980L291.944 4.980L293.892 4.980L296.083 4.980L298.031 4.980L300.223 4.980L302.170 4.980L304.362 4.980L306.309 4.980L308.501 4.980L310.448 4.980L312.640 4.980L314.587 4.980L316.779 4.980L318.727 4.980L320.918 4.980L322.866 4.980L325.058 4.980L327.005 4.980L329.197 4.980L331.144 4.980L333.336 4.980L335.283 4.980L337.475 4.980L339.422 4.980L341.614 4.980L343.562 4.980L345.753 4.980L347.701 4.980L349.893 4.980L351.840 4.980L354.032 4.980L355.979 4.980L358.171 4.980L360.118 4.980L362.310 4.980L364.257 4.980L366.449 4.980L368.397 4.980L370.588 4.980L372.536 4.980L374.728 4.980L376.675 4.980L378.867 4.980L380.814 4.980L383.006 4.980L384.953 4.979L387.145 4.979L389.092 4.979L391.284 4.979L393.232 4.979L395.424 4.979L397.371 4.979L399.563 4.979L401.510 4.979L403.702 4.979L405.649 4.979L407.841 4.979L409.788 4.979L411.980 4.979L413.928 4.979L416.119 4.979L418.067 4.979L420.259 4.979L422.206 4.979L424.398 4.979L426.345 4.979L428.537 4.979L430.484 4.979L432.676 4.979L434.623 4.979L436.815 4.979L438.763 4.979L440.954 4.979L442.902 4.979L445.094 4.979L447.041 4.979L449.233 4.979L451.180 4.979L453.372 4.979L455.319 4.979L457.511 4.979L459.458 4.979L461.650 4.979L463.598 4.979L465.789 4.979L467.737 4.979L469.929 4.979L471.876 4.979L474.068 4.979L476.015 4.979L478.207 4.979L480.154 4.979L482.346 4.979L484.293 4.979L486.485 4.979L488.433 4.979L490.625 4.979L492.572 4.979L494.764 4.979L496.711 4.979L498.903 4.979L500.850 4.979L503.042 4.979L504.989 4.979L507.181 4.979L509.129 4.979L511.320 4.979L513.268 4.979L515.460 4.979L517.407 4.978L519.599 4.978L521.546 4.978L523.738 4.978L525.685 4.978L527.877 4.978L529.824 4.978L532.016 4.978L533.964 4.978L536.155 4.978L538.103 4.978L540.295 4.978L542.242 4.978L544.434 4.978L546.381 4.978L548.573 4.978L550.520 4.978L552.712 4.978L554.659 4.978L556.851 4.978L558.799 4.978L560.990 4.978L562.938 4.978L565.130 4.978L567.077 4.978L569.269 4.978L571.216 4.978L573.408 4.978L575.355 4.978L577.547 4.978L579.494 4.978L581.686 4.978L583.634 4.978L585.825 4.978L587.773 4.978L589.965 4.978L591.912 4.978L594.104 4.978L596.051 4.978L598.243 4.978L600.190 4.978L602.382 4.978L604.329 4.978L606.521 4.978L608.469 4.978L610.661 4.978L612.608 4.978L614.800 4.978L616.747 4.978L618.939 4.978L620.886 4.978L623.078 4.978L625.025 4.978L627.217 4.978L629.165 4.978L631.356 4.978L633.304 4.978L635.496 4.978L637.443 4.978L639.635 4.978L641.582 4.978L643.774 4.978L645.721 4.978L647.913 4.978L649.860 4.977L652.052 4.977L654 4.977L656.191 4.977L658.139 4.977L660.331 4.977L662.278 4.977L664.470 4.977L666.417 4.977L668.609 4.977L670.556 4.977L672.748 4.977L674.695 4.977L676.887 4.977L678.835 4.977L681.026 4.977L682.974 4.977L685.166 4.977L687.113 4.977L689.305 4.977L691.252 4.977L693.444 4.977L695.391 4.977L697.583 4.977L699.530 4.977L701.722 4.977L703.670 4.977L705.862 4.977L707.809 4.977L710 4.977L711.948 4.977L714.140 4.977L716.087 4.977L718.279 4.977L720.226 4.977L722.418 4.977L724.366 4.977L726.557 4.977L728.505 4.977L730.697 4.977L732.644 4.977L734.836 4.977L736.783 4.977L738.975 4.977L740.922 4.977L743.114 4.977L745.061 4.977L747.253 4.977L749.201 4.977L751.392 4.977L753.340 4.977L755.532 4.977L757.479 4.977L759.671 4.977L761.618 4.977L763.810 4.977L765.757 4.977L767.949 4.977L769.896 4.977L772.088 4.977L774.036 4.977L776.227 4.977L778.175 4.977L780.367 4.977L782.314 4.976L784.506 4.976L786.453 4.976L788.645 4.976L790.592 4.976L792.784 4.976L794.731 4.976L796.923 4.976L798.871 4.976L801.062 4.976L803.010 4.976L805.202 4.976L807.149 4.976L809.341 4.976L811.288 4.976L813.480 4.976L815.427 4.976L817.619 4.976L819.566 4.976L821.758 4.976L823.706 4.976L825.898 4.976L827.845 4.976L830.037 4.976L831.984 4.976L834.176 4.976L836.123 4.976L838.315 4.976L840.262 4.976L842.454 4.976L844.402 4.976L846.593 4.976L848.541 4.976L850.733 4.976L852.680 4.976L854.872 4.976L856.819 4.976L859.011 4.976L860.958 4.976L863.150 4.976L865.097 4.976L867.289 4.976L869.237 4.976L871.428 4.976L873.376 4.976L875.568 4.976L877.515 4.976L879.707 4.976L881.654 4.976L883.846 4.976L885.793 4.976L887.985 4.976L889.932 4.976L892.124 4.976L894.072 4.976L896.263 4.976L898.211 4.976L900.403 4.976L902.350 4.976L904.542 4.976L906.489 4.976L908.681 4.976L910.628 4.976L912.820 4.976L914.767 4.975L916.959 4.975L918.907 4.975L921.099 4.975L923.046 4.975L925.238 4.975L927.185 4.975L929.377 4.975L931.324 4.975L933.516 4.975L935.463 4.975L937.655 4.975L939.603 4.975L941.794 4.975L943.742 4.975L945.934 4.975L947.881 4.975L950.073 4.975L952.020 4.975L954.212 4.975L956.159 4.975L958.351 4.975L960.298 4.975L962.505 4.990L964.428 5.018L966.660 5.088L968.579 5.167L970.880 5.298L972.786 5.428L975.085 5.638L976.976 5.863L979.246 6.220L981.065 6.604L983.317 7.199L985.634 7.988L988.864 9.267L992.460 11.007L996.154 13.061L999.376 15.225L1002.073 17.392L1004.475 19.626L1006.815 22.112L1008.983 24.697L1011.050 27.470L1012.806 30.185L1014.203 32.571L1015.383 35.023L1016.308 37.374L1017.258 40.154L1018.048 42.914L1018.722 45.721L1019.238 48.457L1019.604 51.136L1019.835 53.471L1019.940 55.748L1019.966 57.695L1019.964 59.887L1019.955 61.834L1019.950 64.026L1019.950 65.974L1019.950 68.166L1019.950 70.113L1019.950 72.305L1019.950 74.252L1019.950 76.444L1019.950 78.391L1019.950 80.583L1019.950 82.530L1019.950 84.722L1019.950 86.670L1019.949 88.861L1019.949 90.809L1019.949 93L1019.949 94.948L1019.949 97.140L1019.949 99.087L1019.949 101.279L1019.949 103.226L1019.949 105.418L1019.949 107.365L1019.949 109.557L1019.949 111.505L1019.949 113.696L1019.949 115.644L1019.949 117.836L1019.949 119.783L1019.949 121.975L1019.949 123.922L1019.949 126.114L1019.949 128.061L1019.949 130.253L1019.949 132.200L1019.949 134.392L1019.949 136.340L1019.949 138.531L1019.949 140.479L1019.949 142.671L1019.949 144.618L1019.949 146.810L1019.949 148.757L1019.949 150.949L1019.949 152.896L1019.949 155.088L1019.949 157.035L1019.949 159.227L1019.949 161.175L1019.949 163.366L1019.949 165.314L1019.949 167.506L1019.949 169.453L1019.949 171.645L1019.949 173.592L1019.949 175.784L1019.949 177.731L1019.948 179.923L1019.948 181.870L1019.948 184.062L1019.948 186.010L1019.948 188.202L1019.948 190.149L1019.948 192.341L1019.948 194.288L1019.948 196.480L1019.948 198.427L1019.948 200.619L1019.948 202.566L1019.948 204.758L1019.948 206.706L1019.948 208.897L1019.948 210.845L1019.948 213.037L1019.948 214.984L1019.948 217.176L1019.948 219.123L1019.948 221.315L1019.948 223.262L1019.948 225.454L1019.948 227.401L1019.948 229.593L1019.948 231.541L1019.948 233.732L1019.948 235.680L1019.948 237.872L1019.948 239.819L1019.948 242.011L1019.948 243.958L1019.948 246.150L1019.948 248.097L1019.948 250.289L1019.948 252.236L1019.948 254.428L1019.948 256.376L1019.948 258.567L1019.948 260.515L1019.948 262.707L1019.948 264.654L1019.948 266.846L1019.947 268.793L1019.947 270.985L1019.947 272.932L1019.947 275.124L1019.947 277.071L1019.947 279.263L1019.947 281.211L1019.947 283.403L1019.947 285.350L1019.947 287.542L1019.947 289.489L1019.947 291.681L1019.947 293.628L1019.947 295.820L1019.947 297.767L1019.947 299.959L1019.947 301.907L1019.947 304.098L1019.947 306.046L1019.947 308.238L1019.947 310.185L1019.947 312.377L1019.947 314.324L1019.947 316.516L1019.947 318.463L1019.947 320.655L1019.947 322.602L1019.947 324.794L1019.947 326.742L1019.947 328.933L1019.947 330.881L1019.947 333.073L1019.947 335.020L1019.947 337.212L1019.947 339.159L1019.947 341.351L1019.947 343.298L1019.947 345.490L1019.947 347.437L1019.947 349.629L1019.947 351.577L1019.947 353.768L1019.947 355.716L1019.947 357.908L1019.946 359.855L1019.946 362.047L1019.946 363.994L1019.946 366.186L1019.946 368.133L1019.946 370.325L1019.946 372.272L1019.946 374.464L1019.946 376.412L1019.946 378.603L1019.946 380.551L1019.946 382.743L1019.946 384.690L1019.946 386.882L1019.946 388.829L1019.946 391.021L1019.946 392.968L1019.946 395.160L1019.946 397.107L1019.946 399.299L1019.946 401.247L1019.946 403.439L1019.946 405.386L1019.946 407.578L1019.946 409.525L1019.946 411.717L1019.946 413.664L1019.946 415.856L1019.946 417.803L1019.946 419.995L1019.946 421.943L1019.946 424.134L1019.946 426.082L1019.946 428.274L1019.946 430.221L1019.946 432.413L1019.946 434.360L1019.946 436.552L1019.946 438.499L1019.946 440.691L1019.946 442.638L1019.946 444.830L1019.946 446.778L1019.946 448.969L1019.945 450.917L1019.945 453.109L1019.945 455.056L1019.945 457.248L1019.945 459.195L1019.945 461.387L1019.945 463.334L1019.945 465.526L1019.945 467.473L1019.945 469.665L1019.945 471.613L1019.945 473.804L1019.945 475.752L1019.945 477.944L1019.945 479.891L1019.945 482.083L1019.945 484.030L1019.945 486.222L1019.945 488.169L1019.945 490.361L1019.945 492.308L1019.945 494.500L1019.945 496.448L1019.945 498.640L1019.945 500.587L1019.945 502.779L1019.945 504.726L1019.945 506.918L1019.945 508.865L1019.945 511.057L1019.945 513.004L1019.945 515.196L1019.945 517.144L1019.945 519.335L1019.945 521.283L1019.945 523.475L1019.945 525.422L1019.945 527.614L1019.945 529.561L1019.945 531.753L1019.945 533.700L1019.945 535.892L1019.945 537.839L1019.944 540.031L1019.944 541.979L1019.944 544.170L1019.944 546.118L1019.944 548.310L1019.944 550.257L1019.944 552.449L1019.944 554.396L1019.944 556.588L1019.944 558.535L1019.944 560.727L1019.944 562.674L1019.944 564.866L1019.944 566.814L1019.944 569.005L1019.944 570.953L1019.944 573.145L1019.944 575.092L1019.944 577.284L1019.944 579.231L1019.944 581.423L1019.944 583.370L1019.944 585.562L1019.944 587.509L1019.944 589.701L1019.944 591.649L1019.944 593.840L1019.944 595.788L1019.944 597.980L1019.944 599.927L1019.944 602.119L1019.944 604.066L1019.944 606.258L1019.944 608.205L1019.944 610.397L1019.944 612.344L1019.944 614.536L1019.944 616.484L1019.944 618.676L1019.944 620.623L1019.940 622.815L1019.934 624.762L1019.922 626.954L1019.912 628.901L1019.903 631.093L1019.899 633.040L1019.900 635.232L1019.904 637.180L1019.911 639.371L1019.920 641.319L1019.932 643.511L1019.943 645.458L1019.956 647.650L1019.967 649.597L1019.979 651.789L1019.988 653.736L1019.996 655.928L1020 657.875L1020 660.067L1019.997 662.015L1019.988 664.206L1019.975 666.154L1019.954 668.346L1019.928 670.293L1019.891 672.485L1019.851 674.432L1019.796 676.624L1019.732 678.574L1019.613 680.764L1019.434 682.749L1019.131 684.968L1018.736 687.011L1018.188 689.218L1017.565 691.246L1016.770 693.477L1015.912 695.607L1014.842 697.961L1013.732 700.105L1012.391 702.343L1011.038 704.308L1009.438 706.370L1007.858 708.211L1006.057 710.155L1004.331 711.868L1002.311 713.687L1000.302 715.291L997.923 716.999L995.800 718.370L993.400 719.768L990.994 720.954L987.774 722.347L984.102 723.668L980.076 724.901L976.395 725.808L973.135 726.425L970.282 726.807L967.544 727.057L964.887 727.200L962.568 727.271L960.298 727.285L958.351 727.276L956.159 727.270L954.212 727.266L952.020 727.266L950.073 727.265L947.881 727.265L945.934 727.264L943.742 727.264L941.794 727.264L939.603 727.263L937.655 727.263L935.463 727.262L933.516 727.262L931.324 727.261L929.377 727.261L927.185 727.261L925.238 727.260L923.046 727.260L921.099 727.259L918.907 727.259L916.959 727.259L914.767 727.258L912.820 727.258L910.628 727.257L908.681 727.257L906.489 727.256L904.542 727.256L902.350 727.256L900.403 727.255L898.211 727.255L896.263 727.254L894.072 727.254L892.124 727.254L889.932 727.253L887.985 727.253L885.793 727.252L883.846 727.252L881.654 727.252L879.707 727.251L877.515 727.251L875.568 727.250L873.376 727.250L871.428 727.249L869.237 727.249L867.289 727.249L865.097 727.248L863.150 727.248L860.958 727.247L859.011 727.247L856.819 727.247L854.872 727.246L852.680 727.246L850.733 727.245L848.541 727.245L846.593 727.245L844.402 727.244L842.454 727.244L840.262 727.243L838.315 727.243L836.123 727.242L834.176 727.242L831.984 727.242L830.037 727.241L827.845 727.241L825.898 727.240L823.706 727.240L821.758 727.240L819.566 727.239L817.619 727.239L815.427 727.238L813.480 727.238L811.288 727.238L809.341 727.237L807.149 727.237L805.202 727.236L803.010 727.236L801.062 727.235L798.871 727.235L796.923 727.235L794.731 727.234L792.784 727.234L790.592 727.233L788.645 727.233L786.453 727.233L784.506 727.232L782.314 727.232L780.367 727.231L778.175 727.231L776.227 727.231L774.036 727.230L772.088 727.230L769.896 727.229L767.949 727.229L765.757 727.228L763.810 727.228L761.618 727.228L759.671 727.227L757.479 727.227L755.532 727.226L753.340 727.226L751.392 727.226L749.201 727.225L747.253 727.225L745.061 727.224L743.114 727.224L740.922 727.223L738.975 727.223L736.783 727.223L734.836 727.222L732.644 727.222L730.697 727.221L728.505 727.221L726.557 727.221L724.366 727.220L722.418 727.220L720.226 727.219L718.279 727.219L716.087 727.219L714.140 727.218L711.948 727.218L710 727.217L707.809 727.217L705.862 727.217L703.670 727.216L701.722 727.216L699.530 727.215L697.583 727.215L695.391 727.214L693.444 727.214L691.252 727.214L689.305 727.213L687.113 727.213L685.166 727.212L682.974 727.212L681.026 727.212L678.835 727.211L676.887 727.211L674.695 727.210L672.748 727.210L670.556 727.209L668.609 727.209L666.417 727.209L664.470 727.208L662.278 727.208L660.331 727.207L658.139 727.207L656.191 727.207L654 727.206L652.052 727.206L649.860 727.205L647.913 727.205L645.721 727.205L643.774 727.204L641.582 727.204L639.635 727.203L637.443 727.203L635.496 727.202L633.304 727.202L631.356 727.202L629.165 727.201L627.217 727.201L625.025 727.200L623.078 727.200L620.886 727.200L618.939 727.199L616.747 727.199L614.800 727.198L612.608 727.198L610.661 727.198L608.469 727.197L606.521 727.197L604.329 727.196L602.382 727.196L600.190 727.195L598.243 727.195L596.051 727.195L594.104 727.194L591.912 727.194L589.965 727.193L587.773 727.193L585.825 727.193L583.634 727.192L581.686 727.192L579.494 727.191L577.547 727.191L575.355 727.190L573.408 727.190L571.216 727.190L569.269 727.189L567.077 727.189L565.130 727.188L562.938 727.188L560.990 727.188L558.799 727.187L556.851 727.187L554.659 727.186L552.712 727.186L550.520 727.186L548.573 727.185L546.381 727.185L544.434 727.184L542.242 727.184L540.295 727.184L538.103 727.183L536.139 727.183L533.873 727.182L531.777 727.182L530.055 727.182L528.809 727.182" stroke="rgb(255, 255, 255)" stroke-width="45" fill="none" stroke-linecap="round" stroke-linejoin="round"/><path id="path-1-0" d="M309.541 1015.068L311.277 1012.602L313.338 1009.700L316.222 1005.641L319.105 1001.584L321.983 997.524L324.848 993.476L327.768 989.347L330.721 985.173L333.753 980.888L336.728 976.684L339.669 972.528L342.546 968.461L345.420 964.399L348.285 960.350L351.206 956.221L354.159 952.047L357.191 947.761L360.165 943.558L363.106 939.402L365.983 935.336L368.857 931.273L371.722 927.224L374.643 923.095L377.597 918.920L380.629 914.635L383.602 910.432L386.543 906.276L389.420 902.210L392.294 898.148L395.159 894.098L398.080 889.969L401.034 885.793L404.066 881.508L407.040 877.305L409.980 873.150L412.857 869.085L415.731 865.022L418.596 860.972L421.518 856.843L424.472 852.667L427.504 848.382L430.477 844.179L433.417 840.024L436.294 835.959L439.168 831.896L442.033 827.846L444.955 823.716L447.910 819.540L450.941 815.255L453.913 811.052L456.851 806.896L459.724 802.829L462.594 798.763L465.455 794.710L468.373 790.576L471.324 786.396L474.352 782.108L477.325 777.908L480.264 773.765L483.203 769.633L486.176 765.456L488.378 762.366L490.212 759.790" stroke="rgb(255, 255, 255)" stroke-width="45" fill="none" stroke-linecap="round" stroke-linejoin="round"/><path id="path-2-0" d="M511.847 772.163L511.847 774.668L511.848 777.628L511.849 781.767L511.849 785.906L511.850 790.045L511.851 794.184L511.852 798.323L511.853 802.463L511.853 806.602L511.854 810.741L511.855 814.880L511.856 819.019L511.856 823.159L511.857 827.298L511.858 831.437L511.859 835.576L511.860 839.715L511.860 843.854L511.861 847.994L511.862 852.133L511.863 856.272L511.863 860.411L511.864 864.550L511.865 868.689L511.866 872.829L511.867 876.968L511.867 881.107L511.868 885.246L511.869 889.385L511.870 893.524L511.870 897.664L511.871 901.803L511.872 905.942L511.873 910.081L511.874 914.220L511.874 918.360L511.875 922.499L511.876 926.638L511.877 930.777L511.878 934.916L511.878 939.055L511.879 943.195L511.880 947.334L511.881 951.473L511.881 955.612L511.882 959.751L511.883 963.890L511.884 968.030L511.885 972.169L511.885 976.308L511.886 980.447L511.887 984.586L511.888 988.725L511.888 992.865L511.889 997.004L511.890 1001.143L511.891 1005.282L511.892 1009.421L511.892 1013.560L511.893 1016.520L511.893 1019.025" stroke="rgb(255, 255, 255)" stroke-width="45" fill="none" stroke-linecap="round" stroke-linejoin="round"/><path id="path-3-0" d="M532.864 760.414L533.898 761.853L534.989 763.372L536.676 765.720L538.178 767.810L539.849 770.137L541.634 772.620L543.877 775.743L546.215 778.996L548.460 782.121L550.243 784.603L551.849 786.838L553.243 788.778L554.750 790.876L556.138 792.807L557.735 795.030L559.512 797.503L561.755 800.624L564.092 803.878L566.337 807.001L568.120 809.483L569.724 811.717L571.118 813.656L572.627 815.757L574.020 817.696L575.530 819.797L576.923 821.735L578.433 823.837L579.825 825.775L581.331 827.871L582.715 829.797L584.306 832.014L586.077 834.485L588.312 837.608L590.643 840.867L592.882 843.998L594.663 846.488L596.268 848.731L597.661 850.679L599.163 852.779L600.544 854.711L602.132 856.933L603.899 859.409L606.129 862.536L608.454 865.800L610.686 868.935L612.461 871.427L614.058 873.672L615.445 875.620L616.946 877.728L618.331 879.673L619.828 881.775L621.205 883.710L622.793 885.940L624.514 888.357L626.498 891.143L628.489 893.940L630.224 896.376L631.827 898.628L633.212 900.574L634.713 902.682L636.097 904.626L637.594 906.729L638.974 908.666L640.565 910.901L642.289 913.322L644.274 916.111L646.264 918.905L647.995 921.337L649.595 923.585L650.979 925.528L652.479 927.635L653.863 929.579L655.361 931.684L656.742 933.623L658.331 935.855L660.100 938.338L662.329 941.470L664.653 944.734L666.884 947.867L668.655 950.354L670.249 952.590L671.636 954.530L673.139 956.631L674.527 958.568L676.125 960.798L677.902 963.278L680.142 966.403L682.476 969.659L684.717 972.784L686.495 975.263L688.094 977.492L689.483 979.429L690.989 981.529L692.379 983.469L693.887 985.572L695.278 987.512L696.783 989.612L698.170 991.546L699.765 993.772L701.538 996.245L703.725 999.296L705.966 1002.425L708.049 1005.346L709.704 1007.689L711.285 1009.987L712.884 1012.370L714.689 1015.093L715.996 1017.074L717.017 1018.611" stroke="rgb(255, 255, 255)" stroke-width="45" fill="none" stroke-linecap="round" stroke-linejoin="round"/><path id="path-extension-1" d="M489.866 727.237L509.030 727.236" stroke="rgb(255, 255, 255)" stroke-width="45" fill="none" stroke-linecap="round" stroke-linejoin="round"/><path id="path-extension-2" d="M528.809 727.182L513.427 727.180" stroke="rgb(255, 255, 255)" stroke-width="45" fill="none" stroke-linecap="round" stroke-linejoin="round"/><path id="path-connection-1" d="M490.212 759.790L511.632 730.569" stroke="rgb(255, 255, 255)" stroke-width="45" fill="none" stroke-linecap="round" stroke-linejoin="round"/><path id="path-connection-2" d="M511.847 772.163L511.632 730.569" stroke="rgb(255, 255, 255)" stroke-width="45" fill="none" stroke-linecap="round" stroke-linejoin="round"/><path id="path-connection-3" d="M532.864 760.414L511.632 730.569" stroke="rgb(255, 255, 255)" stroke-width="45" fill="none" stroke-linecap="round" stroke-linejoin="round"/></g><g id="skeleton-paths" stroke-width="45.0" fill="rgb(0, 0, 0)" stroke="none"><path id="path-0-0" d="M232.244 463L230.180 463.328L228.323 463.689L225.543 464.270L222.978 464.941L220.285 465.750L217.456 466.727L214.714 467.787L212.305 468.810L210.029 469.905L207.768 471.125L205.322 472.528L202.796 474.109L200.524 475.624L198.151 477.343L196.128 478.911L193.958 480.716L192.065 482.406L189.952 484.423L188.062 486.342L186.085 488.491L184.430 490.412L182.697 492.578L181.162 494.632L179.547 496.939L178.225 498.938L176.963 500.981L175.935 502.774L174.769 504.992L173.688 507.230L172.511 509.860L171.543 512.255L170.653 514.594L169.907 516.864L169.210 519.282L168.539 521.955L167.973 524.600L167.549 526.866L167.231 529.082L167.007 530.978L166.770 533.247L166.606 535.279L166.438 537.610L166.363 539.560L166.327 541.597L166.390 543.367L166.564 545.496L166.874 547.896L167.374 550.904L167.951 553.984L168.595 556.960L169.170 559.325L169.807 561.551L170.438 563.499L171.213 565.657L172.015 567.702L172.952 569.925L173.872 571.960L174.906 574.074L175.938 576.031L177.144 578.166L178.354 580.177L179.842 582.459L181.568 584.883L183.628 587.598L185.872 590.310L187.956 592.652L190.154 594.869L192.023 596.628L194.094 598.448L195.817 599.890L197.993 601.565L200.295 603.201L203.049 605.025L205.825 606.704L208.741 608.282L212.033 609.853L215.713 611.413L219.249 612.791L222.381 613.859L224.725 614.558L227.114 615.143L229.493 615.627L232.223 616.105L234.922 616.477L237.247 616.733L239.567 616.876L241.846 616.910L244.499 616.879L247.194 616.766L249.540 616.617L251.866 616.394L253.842 616.148L256.166 615.796L258.506 615.344L261.159 614.771L263.907 614.063L266.709 613.242L269.580 612.272L272.436 611.180L274.867 610.171L277.182 609.098L279.025 608.163L281.211 606.970L283.201 605.801L285.449 604.400L287.432 603.061L289.531 601.542L291.420 600.070L293.497 598.328L295.418 596.599L297.507 594.595L299.313 592.746L301.240 590.607L303.091 588.354L305.094 585.760L307.024 583.032L308.832 580.254L310.535 577.375L312.048 574.573L313.261 572.159L314.320 569.782L315.251 567.388L316.361 564.156L317.437 560.513L318.392 556.873L319.086 553.677L319.518 551.276L319.840 548.946L320.049 546.977L320.222 544.738L320.313 542.791L320.359 540.599L320.358 538.652L320.311 536.460L320.230 534.512L320.075 532.239L319.818 529.791L319.352 526.589L318.658 522.958L317.839 519.388L316.963 516.271L316.199 513.919L315.306 511.559L314.278 509.107L312.792 505.921L310.900 502.305L308.586 498.333L306.213 494.643L303.869 491.366L301.866 488.812L299.782 486.420L297.885 484.420L295.658 482.262L293.600 480.427L291.291 478.511L289.256 476.931L287.076 475.340L285.107 473.993L282.925 472.602L280.882 471.385L278.692 470.168L276.709 469.142L274.492 468.118L272.010 467.151L268.896 466.119L265.704 465.186L262.643 464.387L260.228 463.815L257.737 463.312L255.550 462.927L252.884 462.569L250.365 462.463L248.159 462.406L246.304 462.566" stroke="rgb(255, 255, 255)" stroke-width="45" fill="none" stroke-linecap="round" stroke-linejoin="round"/><path id="path-1-0" d="M773.942 462.395L772.138 462.594L769.788 462.901L766.764 463.372L764.231 463.853L761.807 464.428L759.515 465.089L756.872 465.916L754.257 466.838L751.906 467.747L749.659 468.729L747.731 469.659L745.579 470.774L743.650 471.851L741.390 473.194L739.364 474.492L737.159 475.995L735.241 477.409L733.097 479.118L730.865 481.061L728.399 483.335L726.037 485.684L724.062 487.777L722.250 489.911L720.686 491.912L718.972 494.253L717.537 496.324L716.081 498.552L714.983 500.331L713.807 502.347L712.865 504.071L711.780 506.173L710.852 508.098L709.845 510.357L708.873 512.801L707.798 515.845L706.813 518.929L705.978 521.971L705.376 524.686L704.892 527.415L704.516 530.072L704.245 532.354L704.060 534.568L703.959 536.464L703.899 538.681L703.902 540.607L703.958 542.759L704.052 544.531L704.212 546.628L704.416 548.528L704.714 550.838L705.031 552.859L705.436 555.127L705.948 557.415L706.711 560.360L707.641 563.469L708.666 566.537L709.600 569.002L710.571 571.268L711.489 573.236L712.611 575.485L713.892 577.796L715.488 580.505L717.245 583.234L718.897 585.651L720.612 587.918L722.226 589.886L724.181 592.106L726.055 594.089L728.166 596.172L730.050 597.903L732.087 599.655L733.948 601.148L736.018 602.699L737.973 604.066L740.143 605.479L742.185 606.707L744.445 607.908L746.458 608.865L748.635 609.737L750.528 610.442L752.699 611.161L754.675 611.814L756.869 612.504L758.865 613.136L761.022 613.809L763.026 614.399L765.289 614.972L767.712 615.411L770.380 615.782L773.070 616.031L775.342 616.186L777.581 616.270L779.466 616.303L781.688 616.309L783.615 616.288L785.927 616.208L787.819 616.096L790.091 615.883L791.943 615.630L794.171 615.241L796.074 614.825L798.261 614.286L800.179 613.753L802.504 613.048L805.021 612.170L808.154 610.953L811.330 609.575L814.385 608.105L816.881 606.786L819.329 605.322L821.825 603.679L824.649 601.679L827.477 599.505L829.953 597.462L832.322 595.310L834.308 593.350L836.388 591.152L838.100 589.208L839.877 587.038L841.425 584.986L843.112 582.584L844.512 580.452L845.965 578.063L847.266 575.672L848.839 572.496L850.434 568.876L852.027 564.807L853.376 560.674L854.401 556.916L855.093 553.584L855.462 551.138L855.664 548.844L855.775 546.939L855.887 544.738L855.981 542.791L856.082 540.599L856.171 538.652L856.256 536.460L856.304 534.512L856.296 532.320L856.230 530.373L856.082 528.181L855.878 526.234L855.541 524.014L855.155 522.083L854.634 519.904L854.114 518.007L853.413 515.681L852.543 513.168L851.300 509.961L849.688 506.340L847.724 502.418L845.656 498.712L843.595 495.402L841.612 492.562L839.594 489.916L837.442 487.338L835.414 485.055L833.163 482.767L830.830 480.650L828.130 478.379L825.418 476.298L822.998 474.563L820.703 473.070L818.679 471.860L816.520 470.658L814.558 469.644L812.364 468.610L809.922 467.592L806.855 466.462L803.716 465.423L800.688 464.566L798.282 463.980L795.777 463.523L793.557 463.179L790.837 462.891L789.215 462.754L787.359 462.661" stroke="rgb(255, 255, 255)" stroke-width="45" fill="none" stroke-linecap="round" stroke-linejoin="round"/><path id="path-2-0" d="M503.454 462.741L500.468 463.096L497.241 463.671L492.816 464.634L488.634 465.887L484.607 467.364L480.581 469.131L476.573 471.191L472.379 473.679L468.295 476.447L464.360 479.470L460.650 482.705L457.098 486.200L453.677 490.029L450.604 494.027L447.902 498.140L445.547 502.265L443.458 506.363L441.578 510.506L439.995 514.607L438.682 518.744L437.648 522.808L436.820 526.851L436.215 530.740L435.793 534.317L435.575 537.462L435.513 540.394L435.630 543.553L435.968 547.154L436.521 551.077L437.304 555.155L438.291 559.277L439.510 563.427L440.951 567.513L442.643 571.508L444.657 575.543L447.035 579.672L449.847 584.034L453.019 588.378L456.648 592.696L460.585 596.671L464.759 600.289L468.874 603.391L472.977 606.104L477.069 608.462L481.271 610.556L485.484 612.351L489.625 613.841L493.728 615.063L497.826 616.026L501.970 616.742L506.105 617.193L510.237 617.412L514.354 617.436L518.492 617.268L522.596 616.877L526.777 616.209L530.945 615.264L535.197 614.026L539.315 612.541L543.514 610.712L547.696 608.566L552.040 606.007L556.307 603.090L560.457 599.815L564.439 596.156L568.191 592.198L571.733 587.933L574.910 583.572L577.659 579.304L579.988 575.149L581.969 571.075L583.733 566.885L585.257 562.665L586.526 558.433L587.509 554.229L588.216 550.058L588.681 545.868L588.926 541.712L588.974 537.559L588.814 533.414L588.440 529.278L587.835 525.127L586.995 521.001L585.912 516.869L584.554 512.708L582.937 508.559L581.016 504.369L578.825 500.263L576.302 496.163L573.401 492.124L570.078 488.098L566.374 484.164L562.441 480.461L558.335 477.091L554.176 474.128L549.873 471.504L545.709 469.311L541.547 467.453L537.552 465.981L533.467 464.731L529.243 463.752L526.149 463.115L523.389 462.726" stroke="rgb(255, 255, 255)" stroke-width="45" fill="none" stroke-linecap="round" stroke-linejoin="round"/><path id="path-3-0" d="M437.401 111.969L439.406 110.585L441.263 109.740L443.961 108.743L446.390 108.339L448.924 108.085L451.124 107.973L453.372 107.938L455.319 107.945L457.511 107.954L459.458 107.961L461.650 107.964L463.598 107.965L465.789 107.965L467.737 107.965L469.929 107.965L471.876 107.965L474.068 107.965L476.015 107.964L478.207 107.964L480.154 107.964L482.346 107.964L484.293 107.964L486.485 107.964L488.433 107.964L490.625 107.963L492.572 107.963L494.764 107.963L496.711 107.963L498.903 107.963L500.850 107.963L503.042 107.963L504.989 107.963L507.181 107.962L509.129 107.962L511.320 107.962L513.268 107.962L515.460 107.962L517.407 107.962L519.599 107.962L521.546 107.962L523.738 107.961L525.685 107.961L527.877 107.961L529.824 107.961L532.016 107.961L533.964 107.961L536.155 107.961L538.103 107.961L540.295 107.960L542.242 107.960L544.434 107.960L546.381 107.960L548.573 107.960L550.520 107.960L552.712 107.960L554.659 107.959L556.851 107.959L558.799 107.959L560.990 107.964L562.938 107.977L565.130 108.008L567.077 108.051L569.310 108.111L571.258 108.170L573.368 108.242L575.172 108.318L577.491 108.625L580.155 109.399L583.419 111.109L586.245 113.326L588.428 116.087L589.577 118.341L590.297 120.749L590.645 122.595L590.944 124.794L591.080 126.673L591.161 128.873L591.178 130.821L591.181 133.013L591.182 134.960L591.182 137.152L591.183 139.099L591.183 141.291L591.184 143.238L591.184 145.430L591.184 147.377L591.185 149.569L591.185 151.517L591.186 153.708L591.186 155.656L591.187 157.848L591.187 159.795L591.188 161.987L591.188 163.934L591.189 166.126L591.189 168.073L591.190 170.265L591.190 172.212L591.191 174.404L591.191 176.352L591.192 178.575L591.192 180.523L591.193 182.830L591.193 185.129L591.194 187.819L591.195 190.470L591.195 192.831L591.196 195.100L591.196 197.047L591.197 199.239L591.197 201.187L591.198 203.379L591.198 205.326L591.198 207.518L591.199 209.465L591.199 211.657L591.200 213.604L591.200 215.796L591.201 217.743L591.201 219.935L591.202 221.882L591.202 224.074L591.203 226.022L591.203 228.214L591.204 230.161L591.204 232.353L591.205 234.300L591.205 236.543L591.206 238.515L591.175 240.719L591.107 242.601L590.925 244.901L590.558 247.456L590.200 249.684L589.739 251.773" stroke="rgb(255, 255, 255)" stroke-width="45" fill="none" stroke-linecap="round" stroke-linejoin="round"/><path id="path-4-0" d="M519.251 263.701L520.982 263.702L522.588 263.703L525.016 263.703L527.037 263.704L529.257 263.703L531.204 263.702L533.396 263.702L535.343 263.701L537.535 263.700L539.482 263.699L541.674 263.698L543.622 263.697L545.813 263.696L547.761 263.695L549.953 263.695L551.900 263.694L554.092 263.690L556.039 263.680L558.302 263.661L560.652 263.632L563.281 263.597L565.962 263.549L568.262 263.504L570.675 263.414L573.079 263.267L575.146 263.112L577.037 262.935" stroke="rgb(255, 255, 255)" stroke-width="45" fill="none" stroke-linecap="round" stroke-linejoin="round"/><path id="path-5-0" d="M431.875 124.005L431.765 125.343L431.700 126.713L431.626 128.873L431.607 130.821L431.599 133.013L431.598 134.960L431.598 137.152L431.597 139.099L431.597 141.291L431.596 143.238L431.596 145.430L431.595 147.377L431.595 149.569L431.595 151.517L431.594 153.708L431.594 155.656L431.593 157.848L431.593 159.795L431.592 161.987L431.592 163.934L431.591 166.126L431.591 168.073L431.590 170.265L431.590 172.212L431.589 174.404L431.589 176.352L431.588 178.543L431.588 180.491L431.587 182.683L431.587 184.630L431.587 186.822L431.586 188.769L431.586 190.961L431.585 192.908L431.585 195.100L431.584 197.047L431.584 199.239L431.583 201.187L431.583 203.379L431.582 205.326L431.582 207.518L431.581 209.465L431.581 211.657L431.580 213.604L431.580 215.796L431.580 217.743L431.579 219.935L431.579 221.882L431.578 224.074L431.578 226.022L431.577 228.214L431.577 230.161L431.576 232.353L431.576 234.300L431.575 236.492L431.575 238.439L431.577 240.669L431.581 242.611L431.650 244.666L431.747 246.421L432.025 248.437L432.616 250.874L433.694 253.638L435.348 256.517L437.201 258.726L439.364 260.507L441.755 261.688L444.376 262.640L447.193 263.229L449.538 263.535L451.936 263.642L453.894 263.659L456.131 263.666L458.079 263.665L460.271 263.665L462.218 263.665L464.410 263.664L466.357 263.664L468.549 263.664L470.496 263.663L472.688 263.663L474.635 263.663L476.827 263.663L478.775 263.662L480.966 263.662L482.914 263.662L485.106 263.661L487.053 263.661L489.245 263.661L491.192 263.660L493.451 263.660L495.457 263.660L497.817 263.660L499.895 263.661L501.651 263.661L502.895 263.662" stroke="rgb(255, 255, 255)" stroke-width="45" fill="none" stroke-linecap="round" stroke-linejoin="round"/><path id="path-6-0" d="M511.910 276.603L511.912 277.702L511.914 279.263L511.916 281.211L511.919 283.403L511.922 285.350L511.924 287.542L511.927 289.489L511.930 291.681L511.932 293.628L511.935 295.820L511.938 297.767L511.941 299.959L511.943 301.907L511.946 304.098L511.949 306.046L511.951 308.238L511.954 310.185L511.957 312.377L511.959 314.324L511.962 316.516L511.965 318.463L511.968 320.655L511.970 322.602L511.973 324.794L511.976 326.742L511.978 328.933L511.981 330.881L511.984 333.073L511.986 335.020L511.989 337.212L511.992 339.159L511.995 341.351L511.997 343.298L512 345.490L512.003 347.437L512.005 348.999L512.006 350.098" stroke="rgb(255, 255, 255)" stroke-width="45" fill="none" stroke-linecap="round" stroke-linejoin="round"/><path id="path-7-0" d="M250.724 365.086L252.317 365.084L253.792 365.084L256.070 365.083L258.018 365.084L260.211 365.084L262.158 365.084L264.350 365.084L266.297 365.084L268.489 365.084L270.436 365.084L272.628 365.084L274.575 365.084L276.767 365.084L278.715 365.084L280.906 365.084L282.854 365.084L285.046 365.084L286.993 365.084L289.185 365.084L291.132 365.084L293.324 365.084L295.271 365.085L297.463 365.085L299.410 365.085L301.602 365.085L303.550 365.085L305.741 365.085L307.689 365.085L309.881 365.085L311.828 365.085L314.020 365.085L315.967 365.085L318.159 365.085L320.106 365.085L322.298 365.085L324.245 365.085L326.437 365.085L328.385 365.085L330.576 365.085L332.524 365.086L334.716 365.086L336.663 365.086L338.855 365.086L340.802 365.086L342.994 365.086L344.941 365.086L347.133 365.086L349.080 365.086L351.272 365.086L353.220 365.086L355.412 365.086L357.359 365.086L359.551 365.086L361.498 365.086L363.690 365.086L365.637 365.086L367.829 365.086L369.776 365.087L371.968 365.087L373.916 365.087L376.107 365.087L378.055 365.087L380.247 365.087L382.194 365.087L384.386 365.087L386.333 365.087L388.525 365.087L390.472 365.087L392.664 365.087L394.611 365.087L396.803 365.087L398.751 365.087L400.942 365.087L402.890 365.087L405.082 365.087L407.029 365.088L409.221 365.088L411.168 365.088L413.360 365.088L415.307 365.088L417.499 365.088L419.446 365.088L421.638 365.088L423.586 365.088L425.777 365.088L427.725 365.088L429.917 365.088L431.864 365.088L434.056 365.088L436.003 365.088L438.195 365.088L440.142 365.088L442.334 365.088L444.281 365.089L446.473 365.089L448.421 365.089L450.613 365.089L452.560 365.089L454.752 365.089L456.699 365.089L458.891 365.089L460.838 365.089L463.030 365.089L464.977 365.089L467.169 365.089L469.117 365.089L471.308 365.089L473.256 365.089L475.448 365.089L477.395 365.089L479.587 365.089L481.534 365.090L483.726 365.090L485.673 365.090L487.865 365.090L489.812 365.090L492.004 365.090L493.952 365.090L496.143 365.090L497.541 365.090L498.947 365.090" stroke="rgb(255, 255, 255)" stroke-width="45" fill="none" stroke-linecap="round" stroke-linejoin="round"/><path id="path-8-0" d="M243.291 449.438L243.292 448.339L243.294 446.778L243.296 444.830L243.298 442.638L243.300 440.691L243.302 438.499L243.304 436.552L243.307 434.360L243.309 432.413L243.311 430.221L243.313 428.274L243.315 426.082L243.317 424.134L243.320 421.943L243.322 419.995L243.324 417.803L243.326 415.856L243.328 413.664L243.330 411.717L243.333 409.525L243.335 407.578L243.337 405.386L243.339 403.439L243.341 401.247L243.343 399.299L243.346 397.107L243.348 395.160L243.350 392.968L243.352 391.021L243.354 388.829L243.356 386.882L243.358 384.661L243.360 382.712L243.362 380.428L243.364 378.507L243.366 376.113L243.367 374.707L243.369 372.986" stroke="rgb(255, 255, 255)" stroke-width="45" fill="none" stroke-linecap="round" stroke-linejoin="round"/><path id="path-9-0" d="M511.993 379.126L511.995 380.533L511.996 381.931L511.998 384.122L512 386.070L512.002 388.262L512.004 390.209L512.006 392.401L512.007 394.348L512.009 396.540L512.011 398.487L512.013 400.679L512.015 402.626L512.017 404.818L512.019 406.766L512.021 408.957L512.023 410.905L512.025 413.097L512.027 415.044L512.029 417.236L512.030 419.183L512.033 421.375L512.034 423.322L512.036 425.514L512.038 427.461L512.040 429.653L512.042 431.601L512.044 433.792L512.046 435.740L512.048 437.932L512.050 439.879L512.052 442.071L512.054 444.018L512.055 445.580L512.056 446.678" stroke="rgb(255, 255, 255)" stroke-width="45" fill="none" stroke-linecap="round" stroke-linejoin="round"/><path id="path-10-0" d="M525.641 365.090L527.047 365.090L528.445 365.090L530.637 365.090L532.584 365.090L534.776 365.090L536.723 365.090L538.915 365.090L540.862 365.090L543.054 365.089L545.001 365.089L547.193 365.089L549.141 365.089L551.332 365.089L553.280 365.089L555.472 365.089L557.419 365.089L559.611 365.089L561.558 365.089L563.750 365.089L565.697 365.089L567.889 365.089L569.836 365.089L572.028 365.089L573.976 365.089L576.167 365.089L578.115 365.088L580.307 365.088L582.254 365.088L584.446 365.088L586.393 365.088L588.585 365.088L590.532 365.088L592.724 365.088L594.671 365.088L596.863 365.088L598.811 365.088L601.002 365.088L602.950 365.088L605.142 365.088L607.089 365.088L609.281 365.088L611.228 365.088L613.420 365.088L615.367 365.087L617.559 365.087L619.506 365.087L621.698 365.087L623.646 365.087L625.837 365.087L627.785 365.087L629.977 365.087L631.924 365.087L634.116 365.087L636.063 365.087L638.255 365.087L640.202 365.087L642.394 365.087L644.341 365.087L646.533 365.087L648.481 365.087L650.673 365.086L652.620 365.086L654.812 365.086L656.759 365.086L658.951 365.086L660.898 365.086L663.090 365.086L665.037 365.086L667.229 365.086L669.177 365.086L671.368 365.086L673.316 365.086L675.508 365.086L677.455 365.086L679.647 365.086L681.594 365.086L683.786 365.086L685.733 365.085L687.925 365.085L689.872 365.085L692.064 365.085L694.012 365.085L696.203 365.085L698.151 365.085L700.343 365.085L702.290 365.085L704.482 365.085L706.429 365.085L708.621 365.085L710.568 365.085L712.760 365.085L714.707 365.085L716.899 365.085L718.847 365.085L721.038 365.085L722.986 365.084L725.178 365.084L727.125 365.084L729.317 365.084L731.264 365.084L733.456 365.084L735.403 365.084L737.595 365.084L739.542 365.084L741.734 365.084L743.682 365.084L745.874 365.084L747.821 365.084L750.013 365.084L751.960 365.084L754.152 365.084L756.099 365.084L758.291 365.083L760.238 365.083L762.430 365.083L764.329 365.083L766.590 365.083L768.625 365.084L770.440 365.085L771.657 365.087" stroke="rgb(255, 255, 255)" stroke-width="45" fill="none" stroke-linecap="round" stroke-linejoin="round"/><path id="path-11-0" d="M780.061 451.492L780.582 450.255L780.803 448.157L780.987 446.210L780.983 444.018L780.979 442.071L780.975 439.879L780.971 437.932L780.967 435.740L780.964 433.792L780.959 431.601L780.956 429.653L780.952 427.461L780.948 425.514L780.944 423.322L780.940 421.375L780.936 419.183L780.933 417.236L780.929 415.044L780.925 413.097L780.921 410.905L780.917 408.957L780.913 406.766L780.910 404.818L780.906 402.626L780.902 400.679L780.898 398.487L780.894 396.540L780.890 394.348L780.887 392.401L780.883 390.209L780.879 388.262L780.875 386.070L780.871 384.122L780.868 381.850L780.865 379.844L780.856 377.445L780.844 375.258L780.829 373.357L780.820 371.899" stroke="rgb(255, 255, 255)" stroke-width="45" fill="none" stroke-linecap="round" stroke-linejoin="round"/><path id="path-extension-1" d="M232.244 463L243.279 461.250" stroke="rgb(255, 255, 255)" stroke-width="45" fill="none" stroke-linecap="round" stroke-linejoin="round"/><path id="path-extension-2" d="M246.304 462.566L243.277 462.828" stroke="rgb(255, 255, 255)" stroke-width="45" fill="none" stroke-linecap="round" stroke-linejoin="round"/><path id="path-extension-3" d="M773.942 462.395L775.539 462.219" stroke="rgb(255, 255, 255)" stroke-width="45" fill="none" stroke-linecap="round" stroke-linejoin="round"/><path id="path-extension-4" d="M787.359 462.661L776.468 462.117" stroke="rgb(255, 255, 255)" stroke-width="45" fill="none" stroke-linecap="round" stroke-linejoin="round"/><path id="path-extension-5" d="M503.454 462.741L512.070 461.718" stroke="rgb(255, 255, 255)" stroke-width="45" fill="none" stroke-linecap="round" stroke-linejoin="round"/><path id="path-extension-6" d="M523.389 462.726L514.329 461.450" stroke="rgb(255, 255, 255)" stroke-width="45" fill="none" stroke-linecap="round" stroke-linejoin="round"/><path id="path-extension-7" d="M437.401 111.969L432.593 115.287" stroke="rgb(255, 255, 255)" stroke-width="45" fill="none" stroke-linecap="round" stroke-linejoin="round"/><path id="path-extension-8" d="M589.739 251.773L587.492 261.957" stroke="rgb(255, 255, 255)" stroke-width="45" fill="none" stroke-linecap="round" stroke-linejoin="round"/><path id="path-extension-9" d="M577.037 262.935L587.492 261.957" stroke="rgb(255, 255, 255)" stroke-width="45" fill="none" stroke-linecap="round" stroke-linejoin="round"/><path id="path-extension-10" d="M431.875 124.005L432.593 115.287" stroke="rgb(255, 255, 255)" stroke-width="45" fill="none" stroke-linecap="round" stroke-linejoin="round"/><path id="path-extension-11" d="M250.724 365.086L243.375 365.091" stroke="rgb(255, 255, 255)" stroke-width="45" fill="none" stroke-linecap="round" stroke-linejoin="round"/><path id="path-extension-12" d="M243.291 449.438L243.279 461.250" stroke="rgb(255, 255, 255)" stroke-width="45" fill="none" stroke-linecap="round" stroke-linejoin="round"/><path id="path-extension-13" d="M243.369 372.986L243.375 365.091" stroke="rgb(255, 255, 255)" stroke-width="45" fill="none" stroke-linecap="round" stroke-linejoin="round"/><path id="path-extension-14" d="M512.056 446.678L512.069 461.131" stroke="rgb(255, 255, 255)" stroke-width="45" fill="none" stroke-linecap="round" stroke-linejoin="round"/><path id="path-extension-15" d="M771.657 365.087L780.780 365.100" stroke="rgb(255, 255, 255)" stroke-width="45" fill="none" stroke-linecap="round" stroke-linejoin="round"/><path id="path-extension-16" d="M780.061 451.492L775.601 462.073" stroke="rgb(255, 255, 255)" stroke-width="45" fill="none" stroke-linecap="round" stroke-linejoin="round"/><path id="path-extension-17" d="M780.820 371.899L780.780 365.100" stroke="rgb(255, 255, 255)" stroke-width="45" fill="none" stroke-linecap="round" stroke-linejoin="round"/><path id="path-connection-1" d="M512.006 350.098L511.993 379.126" stroke="rgb(255, 255, 255)" stroke-width="45" fill="none" stroke-linecap="round" stroke-linejoin="round"/><path id="path-connection-2" d="M498.947 365.090L525.641 365.090" stroke="rgb(255, 255, 255)" stroke-width="45" fill="none" stroke-linecap="round" stroke-linejoin="round"/><path id="path-connection-3" d="M243.279 461.250L243.279 461.250" stroke="rgb(255, 255, 255)" stroke-width="45" fill="none" stroke-linecap="round" stroke-linejoin="round"/><path id="path-connection-4" d="M432.593 115.287L432.593 115.287" stroke="rgb(255, 255, 255)" stroke-width="45" fill="none" stroke-linecap="round" stroke-linejoin="round"/><path id="path-connection-5" d="M587.492 261.957L587.492 261.957" stroke="rgb(255, 255, 255)" stroke-width="45" fill="none" stroke-linecap="round" stroke-linejoin="round"/><path id="path-connection-6" d="M243.375 365.091L243.375 365.091" stroke="rgb(255, 255, 255)" stroke-width="45" fill="none" stroke-linecap="round" stroke-linejoin="round"/><path id="path-connection-7" d="M780.780 365.100L780.780 365.100" stroke="rgb(255, 255, 255)" stroke-width="45" fill="none" stroke-linecap="round" stroke-linejoin="round"/><path id="path-connection-8" d="M519.251 263.701L511.893 263.686" stroke="rgb(255, 255, 255)" stroke-width="45" fill="none" stroke-linecap="round" stroke-linejoin="round"/><path id="path-connection-9" d="M502.895 263.662L511.893 263.686" stroke="rgb(255, 255, 255)" stroke-width="45" fill="none" stroke-linecap="round" stroke-linejoin="round"/><path id="path-connection-10" d="M511.910 276.603L511.893 263.686" stroke="rgb(255, 255, 255)" stroke-width="45" fill="none" stroke-linecap="round" stroke-linejoin="round"/><path id="path-connection-11" d="M776.468 462.117L776.468 462.117" stroke="rgb(255, 255, 255)" stroke-width="45" fill="none" stroke-linecap="round" stroke-linejoin="round"/><path id="path-connection-12" d="M514.329 461.450L514.329 461.450" stroke="rgb(255, 255, 255)" stroke-width="45" fill="none" stroke-linecap="round" stroke-linejoin="round"/></g></svg>