<svg xmlns="http://www.w3.org/2000/svg" viewBox="57.84600067138672 -41 908.3079833984375 1106" width="1024" height="1024" class="colorable-icon reset-top-left-margin" data-export-recolorable-svg="true" overflow="visible" xmlns:xlink="http://www.w3.org/1999/xlink" fill="rgb(0, 0, 0)" stroke="none"><g id="skeleton-paths" stroke-width="45.0" fill="rgb(0, 0, 0)" stroke="none"><path id="path-0-0" d="M921.111 12.837L921.097 16.235L921.092 20.248L921.085 25.862L921.086 31.475L921.086 37.089L921.087 42.703L921.087 48.316L921.088 53.930L921.088 59.544L921.088 65.158L921.089 70.771L921.089 76.385L921.090 81.999L921.090 87.612L921.090 93.226L921.091 98.840L921.091 104.454L921.092 110.067L921.092 115.681L921.093 121.295L921.093 126.908L921.093 132.522L921.094 138.136L921.094 143.750L921.095 149.363L921.095 154.977L921.096 160.591L921.096 166.204L921.096 171.818L921.097 177.432L921.097 183.046L921.098 188.659L921.098 194.273L921.098 199.887L921.099 205.500L921.099 211.114L921.100 216.728L921.100 222.342L921.101 227.955L921.101 233.569L921.101 239.183L921.102 244.796L921.102 250.410L921.103 256.024L921.103 261.638L921.103 267.251L921.104 272.865L921.104 278.479L921.105 284.092L921.105 289.706L921.106 295.320L921.106 300.934L921.106 306.547L921.107 312.161L921.107 317.775L921.108 323.388L921.108 329.002L921.109 334.616L921.109 340.230L921.109 345.843L921.110 351.457L921.110 357.071L921.111 362.684L921.111 368.298L921.111 373.912L921.112 379.526L921.112 385.139L921.113 390.753L921.113 396.367L921.114 401.980L921.114 407.594L921.114 413.208L921.115 418.822L921.115 424.435L921.116 430.049L921.116 435.663L921.116 441.276L921.117 446.890L921.117 452.504L921.118 458.118L921.118 463.731L921.119 469.345L921.119 474.959L921.119 480.572L921.120 486.186L921.120 491.800L921.121 497.414L921.121 503.027L921.122 508.641L921.122 514.255L921.122 519.868L921.123 525.482L921.123 531.096L921.124 536.710L921.124 542.323L921.124 547.937L921.125 553.551L921.125 559.164L921.126 564.778L921.126 570.392L921.127 576.006L921.127 581.619L921.127 587.233L921.128 592.847L921.128 598.460L921.129 604.074L921.129 609.688L921.130 615.302L921.130 620.915L921.130 626.529L921.131 632.143L921.131 637.756L921.132 643.370L921.132 648.984L921.132 654.598L921.133 660.211L921.133 665.825L921.134 671.439L921.134 677.052L921.135 682.666L921.135 688.280L921.135 693.894L921.136 699.507L921.136 705.121L921.137 710.735L921.137 716.348L921.137 721.962L921.138 727.576L921.138 733.190L921.139 738.803L921.139 744.417L921.140 750.031L921.140 755.644L921.140 761.258L921.141 766.872L921.141 772.486L921.142 778.099L921.142 783.713L921.143 789.327L921.143 794.940L921.143 800.554L921.144 806.168L921.144 811.782L921.145 817.395L921.145 823.009L921.145 828.623L921.146 834.236L921.146 839.850L921.147 845.464L921.147 851.078L921.148 856.691L921.148 862.305L921.148 867.919L921.149 873.532L921.149 879.146L921.150 884.760L921.150 890.374L921.151 895.987L921.151 901.601L921.151 907.215L921.152 912.828L921.152 918.442L921.153 924.056L921.153 929.670L921.153 935.283L921.154 940.897L921.154 946.525L921.154 952.256L921.154 956.385L921.154 960.007" stroke="rgb(255, 255, 255)" stroke-width="45" fill="none" stroke-linecap="round" stroke-linejoin="round"/><path id="path-1-0" d="M140.718 49.830L143.654 53.383L147.108 57.577L151.783 63.257L156.400 68.875L160.911 74.369L165.418 79.859L170.022 85.476L174.586 91.053L179.186 96.683L183.683 102.196L188.169 107.696L192.754 113.324L197.302 118.913L201.888 124.557L206.369 130.077L210.928 135.695L215.553 141.399L220.277 147.233L224.906 152.955L229.486 158.624L233.866 164.046L238.275 169.506L242.637 174.909L247.191 180.554L251.705 186.152L256.356 191.923L260.874 197.532L265.523 203.306L270.040 208.916L274.688 214.690L279.203 220.302L283.850 226.077L288.365 231.689L292.919 237.350L297.374 242.888L301.831 248.428L306.302 253.984L310.673 259.415L315.074 264.882L319.427 270.289L323.976 275.936L328.487 281.534L333.139 287.306L337.660 292.912L342.314 298.681L346.838 304.285L351.496 310.051L356.023 315.653L360.684 321.416L365.213 327.020L369.776 332.676L374.233 338.215L378.681 343.753L383.226 349.419L387.733 355.037L392.280 360.706L396.730 366.252L401.174 371.792L405.718 377.457L410.225 383.076L414.773 388.745L419.222 394.291L423.666 399.831L428.210 405.496L432.718 411.115L437.265 416.784L441.715 422.331L446.159 427.870L450.703 433.535L455.210 439.153L459.758 444.823L464.208 450.370L468.651 455.909L473.195 461.573L477.698 467.187L482.337 472.970L486.845 478.590L491.392 484.258L495.841 489.803L500.286 495.344L504.830 501.010L509.337 506.628L513.885 512.297L518.334 517.843L522.778 523.383L527.323 529.048L531.830 534.667L536.377 540.336L540.826 545.882L545.271 551.422L549.815 557.087L554.322 562.706L558.870 568.375L563.319 573.921L567.763 579.461L572.307 585.126L576.814 590.744L581.362 596.414L585.812 601.961L590.256 607.500L594.799 613.164L599.306 618.783L603.855 624.453L608.305 630L612.748 635.539L617.292 641.203L621.799 646.822L626.347 652.492L630.798 658.040L635.241 663.578L639.784 669.242L644.291 674.860L648.840 680.531L653.291 686.079L657.733 691.617L662.276 697.281L666.783 702.899L671.332 708.570L675.784 714.119L680.225 719.656L684.768 725.319L689.275 730.938L693.825 736.609L698.277 742.158L702.718 747.695L707.261 753.358L711.768 758.976L716.317 764.647L720.770 770.198L725.210 775.734L729.753 781.397L734.254 787.008L738.893 792.790L743.403 798.413L747.951 804.083L752.402 809.630L756.845 815.169L761.388 820.833L765.895 826.452L770.444 832.121L774.895 837.670L779.337 843.208L783.880 848.872L788.388 854.490L792.936 860.160L797.388 865.709L801.830 871.247L806.373 876.910L810.880 882.529L815.429 888.199L819.881 893.749L824.322 899.286L828.865 904.949L833.372 910.568L837.921 916.238L842.373 921.788L846.815 927.325L851.357 932.988L855.864 938.606L860.414 944.277L864.866 949.828L869.307 955.364L873.848 961.025L877.067 965.037L879.914 968.587" stroke="rgb(255, 255, 255)" stroke-width="45" fill="none" stroke-linecap="round" stroke-linejoin="round"/><path id="path-2-0" d="M102.847 49.370L102.847 51.744L102.847 54.018L102.847 57.315L102.847 60.033L102.847 62.960L102.847 65.559L102.847 68.515L102.847 71.156L102.848 74.129L102.848 76.770L102.848 79.743L102.848 82.384L102.848 85.356L102.849 87.997L102.849 90.970L102.849 93.611L102.849 96.584L102.850 99.225L102.850 102.197L102.850 104.839L102.850 107.811L102.851 110.452L102.851 113.425L102.851 116.066L102.851 119.039L102.852 121.680L102.852 124.652L102.852 127.293L102.852 130.266L102.852 132.907L102.853 135.880L102.853 138.521L102.853 141.493L102.853 144.135L102.854 147.107L102.854 149.748L102.854 152.721L102.854 155.362L102.855 158.335L102.855 160.976L102.855 163.948L102.855 166.589L102.856 169.562L102.856 172.203L102.856 175.176L102.856 177.817L102.857 180.789L102.857 183.431L102.857 186.403L102.857 189.044L102.857 192.017L102.858 194.658L102.858 197.631L102.858 200.272L102.858 203.244L102.859 205.885L102.859 208.858L102.859 211.499L102.859 214.472L102.860 217.113L102.860 220.085L102.860 222.727L102.860 225.699L102.861 228.340L102.861 231.313L102.861 233.954L102.861 236.927L102.861 239.568L102.862 242.540L102.862 245.181L102.862 248.154L102.862 250.795L102.863 253.768L102.863 256.409L102.863 259.381L102.863 262.023L102.864 264.995L102.864 267.636L102.864 270.609L102.864 273.250L102.865 276.223L102.865 278.864L102.865 281.836L102.865 284.477L102.865 287.450L102.866 290.091L102.866 293.064L102.866 295.705L102.866 298.677L102.867 301.319L102.867 304.291L102.867 306.932L102.867 309.905L102.868 312.546L102.868 315.519L102.868 318.160L102.868 321.132L102.869 323.773L102.869 326.746L102.869 329.387L102.869 332.360L102.869 335L102.870 337.973L102.870 340.615L102.870 343.587L102.870 346.228L102.871 349.201L102.871 351.842L102.871 354.815L102.871 357.456L102.872 360.428L102.872 363.069L102.872 366.042L102.872 368.683L102.873 371.656L102.873 374.297L102.873 377.269L102.873 379.911L102.874 382.883L102.874 385.524L102.874 388.497L102.874 391.138L102.874 394.111L102.875 396.752L102.875 399.724L102.875 402.365L102.875 405.338L102.876 407.979L102.876 410.952L102.876 413.593L102.876 416.565L102.877 419.207L102.877 422.179L102.877 424.820L102.877 427.793L102.878 430.434L102.878 433.407L102.878 436.048L102.878 439.020L102.878 441.661L102.879 444.634L102.879 447.275L102.879 450.248L102.879 452.889L102.880 455.861L102.880 458.503L102.880 461.475L102.880 464.116L102.881 467.089L102.881 469.730L102.881 472.703L102.881 475.344L102.882 478.316L102.882 480.957L102.882 483.930L102.882 486.571L102.882 489.544L102.883 492.185L102.883 495.158L102.883 497.799L102.883 500.771L102.884 503.412L102.884 506.385L102.884 509.026L102.884 511.999L102.885 514.640L102.885 517.612L102.885 520.253L102.885 523.226L102.886 525.867L102.886 528.840L102.886 531.481L102.886 534.454L102.886 537.095L102.887 540.067L102.887 542.708L102.887 545.681L102.887 548.322L102.888 551.295L102.888 553.936L102.888 556.908L102.888 559.549L102.889 562.522L102.889 565.163L102.889 568.136L102.889 570.777L102.890 573.750L102.890 576.391L102.890 579.363L102.890 582.004L102.891 584.977L102.891 587.618L102.891 590.591L102.891 593.232L102.891 596.204L102.892 598.845L102.892 601.818L102.892 604.459L102.892 607.432L102.893 610.073L102.893 613.046L102.893 615.687L102.893 618.659L102.894 621.300L102.894 624.273L102.894 626.914L102.894 629.887L102.895 632.528L102.895 635.500L102.895 638.141L102.895 641.114L102.895 643.755L102.896 646.728L102.896 649.369L102.896 652.342L102.896 654.983L102.897 657.955L102.897 660.596L102.897 663.569L102.897 666.210L102.898 669.183L102.898 671.824L102.898 674.796L102.898 677.437L102.899 680.410L102.899 683.051L102.899 686.024L102.899 688.665L102.899 691.638L102.900 694.279L102.900 697.251L102.900 699.892L102.900 702.865L102.901 705.506L102.901 708.479L102.901 711.120L102.901 714.092L102.902 716.733L102.902 719.706L102.902 722.347L102.902 725.320L102.903 727.961L102.903 730.934L102.903 733.575L102.903 736.547L102.903 739.188L102.904 742.161L102.904 744.802L102.904 747.775L102.904 750.416L102.905 753.388L102.905 756.029L102.905 759.002L102.905 761.643L102.906 764.616L102.906 767.257L102.906 770.230L102.906 772.871L102.907 775.843L102.907 778.484L102.907 781.457L102.907 784.098L102.908 787.071L102.908 789.712L102.908 792.684L102.908 795.325L102.908 798.298L102.909 800.939L102.909 803.912L102.909 806.553L102.909 809.526L102.910 812.167L102.910 815.139L102.910 817.780L102.910 820.753L102.911 823.394L102.911 826.367L102.911 829.008L102.911 831.980L102.912 834.621L102.912 837.594L102.912 840.235L102.912 843.208L102.912 845.849L102.913 848.822L102.913 851.463L102.913 854.435L102.913 857.076L102.914 860.049L102.914 862.690L102.914 865.663L102.914 868.304L102.915 871.276L102.915 873.917L102.915 876.890L102.915 879.531L102.916 882.504L102.916 885.145L102.916 888.118L102.916 890.759L102.916 893.731L102.917 896.372L102.917 899.345L102.917 901.986L102.917 904.959L102.918 907.600L102.918 910.572L102.918 913.213L102.918 916.186L102.919 918.827L102.919 921.800L102.919 924.441L102.919 927.414L102.920 930.055L102.920 933.027L102.920 935.668L102.920 938.641L102.920 941.282L102.921 944.255L102.921 946.896L102.921 949.868L102.921 952.509L102.922 954.627L102.922 956.117" stroke="rgb(255, 255, 255)" stroke-width="45" fill="none" stroke-linecap="round" stroke-linejoin="round"/><path id="path-extension-1" d="M921.154 960.007L921.151 1020" stroke="rgb(255, 255, 255)" stroke-width="45" fill="none" stroke-linecap="round" stroke-linejoin="round"/><path id="path-extension-2" d="M140.718 49.830L102.846 4" stroke="rgb(255, 255, 255)" stroke-width="45" fill="none" stroke-linecap="round" stroke-linejoin="round"/><path id="path-extension-3" d="M879.914 968.587L921.151 1020" stroke="rgb(255, 255, 255)" stroke-width="45" fill="none" stroke-linecap="round" stroke-linejoin="round"/><path id="path-extension-4" d="M102.847 49.370L102.846 4" stroke="rgb(255, 255, 255)" stroke-width="45" fill="none" stroke-linecap="round" stroke-linejoin="round"/><path id="path-connection-1" d="M921.151 1020L921.151 1020" stroke="rgb(255, 255, 255)" stroke-width="45" fill="none" stroke-linecap="round" stroke-linejoin="round"/><path id="path-connection-2" d="M102.846 4L102.846 4" stroke="rgb(255, 255, 255)" stroke-width="45" fill="none" stroke-linecap="round" stroke-linejoin="round"/></g></svg>