<svg xmlns="http://www.w3.org/2000/svg" viewBox="-41 -34.14500045776367 1106 1092.2900390625" width="1024" height="1024" class="colorable-icon reset-top-left-margin" data-export-recolorable-svg="true" overflow="visible" xmlns:xlink="http://www.w3.org/1999/xlink" fill="rgb(0, 0, 0)" stroke="none"><g id="skeleton-paths" stroke-width="45.0" fill="rgb(0, 0, 0)" stroke="none"><path id="path-0-0" d="M511.572 151.921L511.573 150.498L511.573 148.476L511.573 145.955L511.573 143.117L511.573 140.595L511.573 137.757L511.573 135.236L511.573 132.397L511.573 129.876L511.573 127.038L511.574 124.516L511.574 121.678L511.574 119.157L511.574 116.319L511.574 113.797L511.574 110.959L511.574 108.438L511.574 105.599L511.574 103.078L511.575 100.240L511.575 97.718L511.575 94.880L511.575 92.359L511.575 89.520L511.575 87L511.575 84.161L511.575 81.639L511.575 78.801L511.575 76.280L511.576 73.442L511.576 70.920L511.576 68.082L511.576 65.561L511.576 62.722L511.576 60.201L511.576 57.363L511.576 54.841L511.576 52.003L511.577 49.482L511.577 46.643L511.577 44.122L511.577 41.284L511.577 38.762L511.577 35.924L511.577 33.403L511.577 30.565L511.577 28.043L511.578 25.205L511.578 22.683L511.578 19.845L511.578 17.324L511.579 14.486L511.580 12.676L511.583 10.855" stroke="rgb(207, 208, 216)" stroke-width="45" fill="none" stroke-linecap="round" stroke-linejoin="round"/></g><g id="skeleton-paths" stroke-width="45.0" fill="rgb(0, 0, 0)" stroke="none"><path id="path-0-0" d="M339.138 69.639L341.975 72.834L345.414 76.653L350.222 81.987L355.037 87.298L359.953 92.720L364.838 98.109L369.753 103.530L374.570 108.844L379.486 114.266L384.372 119.655L389.285 125.076L394.102 130.390L399.020 135.813L403.905 141.202L408.815 146.619L413.531 151.823L418.072 156.833L421.195 160.277L423.653 162.986" stroke="rgb(207, 208, 216)" stroke-width="45" fill="none" stroke-linecap="round" stroke-linejoin="round"/></g><g id="skeleton-paths" stroke-width="45.0" fill="rgb(0, 0, 0)" stroke="none"><path id="path-0-0" d="M599.441 163.199L600.789 161.697L602.752 159.510L605.097 156.898L607.684 154.016L609.765 151.697L612.214 148.965L614.426 146.499L616.993 143.637L619.220 141.156L621.632 138.467L623.825 136.022L626.384 133.168L628.756 130.523L631.355 127.628L633.588 125.140L636 122.451L638.195 120.003L640.814 117.084L643.213 114.413L645.849 111.478L647.987 109.096L650.362 106.445L652.526 104.031L655.042 101.225L657.279 98.733L659.691 96.044L661.871 93.613L664.417 90.774L666.789 88.129L669.401 85.219L671.610 82.758L673.999 80.096L675.477 78.448L677.070 76.671" stroke="rgb(207, 208, 216)" stroke-width="45" fill="none" stroke-linecap="round" stroke-linejoin="round"/></g><g id="skeleton-paths" stroke-width="45.0" fill="rgb(0, 0, 0)" stroke="none"><path id="path-0-0" d="M638.356 452.784L635.343 449.732L631.612 445.954L626.380 440.651L621.054 435.249L615.734 429.849L610.414 424.450L605.105 419.058L599.908 413.766L594.922 408.462L590.451 403.275L586.675 397.782L583.835 392.446L581.890 386.892L580.704 381.745L580.198 376.520L580.250 371.572L580.934 366.450L582.185 361.357L584.138 355.869L586.798 350.419L590.199 344.855L594.236 339.632L598.776 334.467L603.740 329.325L608.945 324.058L614.287 318.703L619.641 313.338L624.995 307.972L630.349 302.607L635.703 297.242L641.057 291.877L646.411 286.512L651.765 281.146L657.119 275.781L662.483 270.406L667.753 265.124L672.948 259.918L678.011 254.844L683.152 249.692L688.372 244.463L693.704 239.119L699.058 233.753L704.412 228.388L709.766 223.023L715.121 217.658L720.475 212.292L725.829 206.927L731.183 201.562L736.537 196.197L741.891 190.831L747.245 185.466L752.599 180.101L757.953 174.736L763.307 169.370L768.661 164.005L774.015 158.640L779.371 153.278L784.708 147.934L789.933 142.705L795.100 137.598L800.173 132.809L805.388 128.387L810.628 124.648L815.368 121.800L819.759 119.780L823.348 118.568L827.099 117.675L830.439 117.179L833.510 116.874L836.364 116.889L838.886 117.107L841.858 117.585L845.003 118.364L849.080 119.680L853.303 121.424L857.490 123.584L860.735 125.690L863.538 127.931L865.826 130.024L868.331 132.445L870.695 134.787L873.422 137.513L875.934 140.025L878.765 142.858L881.286 145.380L884.124 148.219L886.645 150.741L889.482 153.580L892.003 156.102L894.840 158.941L897.361 161.463L900.199 164.302L902.719 166.824L905.557 169.663L908.078 172.185L910.915 175.023L913.436 177.546L916.274 180.384L918.794 182.906L921.632 185.745L924.153 188.267L926.990 191.106L929.511 193.628L932.348 196.467L934.869 198.989L937.707 201.828L940.228 204.350L943.065 207.189L945.586 209.711L948.423 212.550L950.944 215.072L953.782 217.911L956.303 220.433L959.140 223.272L961.661 225.794L964.498 228.633L967.019 231.155L969.857 233.994L972.377 236.516L975.215 239.355L977.736 241.877L980.573 244.716L983.094 247.238L985.932 250.077L988.452 252.599L991.290 255.438L993.805 257.953L996.693 260.843L999.580 263.742L1002.811 266.994L1005.925 270.194L1008.603 273.014L1010.958 275.739L1012.839 278.217L1014.627 281.084L1016.012 283.714L1017.265 286.766L1018.222 289.843L1019.077 293.481L1019.652 297.054L1019.975 300.213L1020 303.180L1019.842 305.643L1019.440 308.602L1018.809 311.658L1017.852 315.440L1016.651 319.248L1015.355 322.754L1013.887 325.966L1012.389 328.705L1010.581 331.565L1008.744 334.076L1006.460 336.911L1003.869 339.808L1000.788 343.123L997.519 346.406L994.511 349.313L991.487 352.127L988.873 354.582L985.991 357.376L983.458 359.886L980.616 362.720L978.091 365.238L975.249 368.072L972.724 370.590L969.882 373.425L967.357 375.943L964.515 378.777L961.990 381.295L959.148 384.129L956.623 386.647L953.781 389.482L951.256 392L948.414 394.834L945.889 397.352L943.047 400.186L940.523 402.704L937.680 405.538L935.156 408.056L932.313 410.891L929.789 413.409L926.947 416.243L924.422 418.761L921.580 421.595L919.055 424.113L916.213 426.947L913.688 429.465L910.846 432.300L908.321 434.818L905.479 437.652L902.954 440.170L900.112 443.004L897.587 445.522L894.745 448.357L892.220 450.875L889.378 453.709L886.853 456.227L884.011 459.061L881.486 461.579L878.644 464.413L876.119 466.931L873.277 469.766L870.752 472.284L867.910 475.118L865.385 477.636L862.543 480.470L860.018 482.988L857.176 485.822L854.651 488.341L851.809 491.175L849.284 493.693L846.442 496.527L843.917 499.045L841.075 501.879L838.550 504.397L835.708 507.232L833.183 509.750L830.341 512.584L827.816 515.102L824.974 517.936L822.449 520.454L819.607 523.288L817.082 525.806L814.235 528.645L811.703 531.170L808.949 533.916L806.583 536.276L804.006 538.838L801.632 541.171L798.931 543.730L796.430 545.947L793.468 548.213L790.237 550.268L786.455 552.274L782.661 553.994L779.403 555.205L776.266 556.186L773.228 556.797L769.719 557.356L766.161 557.622L763.089 557.742L760.056 557.641L757.261 557.309L753.911 556.753L750.574 555.909L747.291 554.987L744.118 553.758L741.292 552.419L738.257 550.504L735.213 548.138L731.835 545.227L728.584 542.194L725.785 539.500L723.158 536.892L720.813 534.551L718.097 531.840L715.587 529.336L712.755 526.510L710.230 523.992L707.388 521.158L704.863 518.640L702.021 515.805L699.496 513.287L696.654 510.453L694.129 507.935L691.287 505.101L688.762 502.583L685.920 499.748L683.395 497.230L680.553 494.396L678.028 491.878L676.004 489.859L674.579 488.438" stroke="rgb(207, 208, 216)" stroke-width="45" fill="none" stroke-linecap="round" stroke-linejoin="round"/><path id="path-1-0" d="M349.937 488.005L348.508 489.422L346.477 491.435L343.936 493.952L341.010 496.851L338.068 499.763L334.809 502.992L331.570 506.206L328.704 509.052L325.825 511.910L323.313 514.403L320.462 517.229L317.930 519.740L315.080 522.566L312.548 525.077L309.697 527.903L307.165 530.414L304.315 533.240L301.783 535.751L298.917 538.595L296.355 541.128L293.502 543.882L290.983 546.180L288.214 548.452L285.658 550.255L282.728 551.990L279.906 553.367L276.794 554.652L273.965 555.616L271.002 556.440L268.313 556.985L265.301 557.384L262.129 557.565L258.688 557.609L255.183 557.439L251.789 557.028L248.223 556.330L244.598 555.312L241.229 554.165L238.006 552.767L235.274 551.300L232.456 549.482L229.998 547.601L227.441 545.406L225.162 543.277L222.655 540.821L220.300 538.461L217.578 535.721L215.069 533.203L212.239 530.367L209.719 527.844L206.882 525.005L204.361 522.482L201.525 519.643L199.004 517.120L196.168 514.281L193.647 511.758L190.810 508.918L188.290 506.396L185.453 503.556L182.933 501.034L180.096 498.194L177.576 495.672L174.739 492.832L172.219 490.309L169.382 487.470L166.862 484.947L164.025 482.108L161.505 479.585L158.668 476.746L156.147 474.223L153.311 471.383L150.790 468.861L147.954 466.021L145.433 463.499L142.596 460.659L140.076 458.137L137.239 455.297L134.719 452.774L131.882 449.935L129.362 447.412L126.525 444.573L124.005 442.050L121.168 439.211L118.648 436.688L115.811 433.848L113.291 431.326L110.454 428.486L107.934 425.964L105.097 423.124L102.576 420.601L99.740 417.762L97.219 415.239L94.382 412.400L91.862 409.877L89.025 407.038L86.505 404.515L83.668 401.676L81.148 399.153L78.311 396.313L75.791 393.791L72.954 390.951L70.434 388.429L67.597 385.589L65.077 383.066L62.240 380.227L59.720 377.704L56.883 374.865L54.362 372.342L51.526 369.503L49.005 366.980L46.169 364.141L43.648 361.618L40.811 358.778L38.291 356.256L35.454 353.416L32.934 350.894L30.097 348.054L27.577 345.531L24.747 342.698L22.237 340.187L19.529 337.456L17.223 335.077L14.827 332.380L12.798 329.834L10.694 326.737L8.908 323.523L7.120 319.418L5.690 314.924L4.640 310.035L4.100 305.612L4 301.622L4.079 298.382L4.411 295.200L5.019 292.057L6.214 288.075L8.118 283.565L10.484 278.915L13.109 274.819L15.464 271.700L17.965 268.905L20.166 266.617L22.720 264.038L24.860 261.896L27.496 259.262L29.841 256.919L32.676 254.087L35.173 251.592L38.012 248.755L40.535 246.235L43.374 243.398L45.897 240.877L48.736 238.040L51.258 235.520L54.098 232.683L56.620 230.162L59.460 227.325L61.982 224.805L64.796 221.993L67.277 219.515L69.947 216.847L72.262 214.534L74.818 211.980L77.198 209.602L79.976 206.826L82.522 204.282L85.375 201.431L87.898 198.911L90.737 196.074L93.259 193.553L96.099 190.716L98.621 188.196L101.461 185.359L103.983 182.838L106.822 180.001L109.345 177.481L112.184 174.644L114.707 172.123L117.546 169.286L120.068 166.766L122.908 163.929L125.430 161.409L128.270 158.572L130.792 156.051L133.631 153.214L136.154 150.694L138.993 147.857L141.516 145.336L144.355 142.499L146.878 139.979L149.702 137.157L152.202 134.662L154.916 131.983L157.279 129.705L160 127.345L162.477 125.406L165.422 123.461L168.350 121.899L172.120 120.332L176.467 119.072L181.359 118.152L186.474 117.788L191.617 118.086L196.964 119.041L202.370 120.826L207.914 123.559L213.289 127.192L218.596 131.625L223.708 136.446L228.918 141.588L234.180 146.823L239.547 152.162L244.920 157.508L250.293 162.854L255.666 168.200L261.039 173.547L266.412 178.893L271.785 184.239L277.158 189.585L282.531 194.931L287.905 200.277L293.278 205.624L298.651 210.970L304.024 216.316L309.397 221.662L314.773 227.012L320.051 232.264L325.252 237.440L330.333 242.495L335.505 247.640L340.754 252.862L346.113 258.194L351.486 263.540L356.859 268.886L362.232 274.233L367.606 279.579L372.979 284.925L378.352 290.271L383.725 295.617L389.098 300.963L394.459 306.297L399.713 311.524L404.889 316.673L409.971 321.728L415.077 326.811L420.070 331.815L424.902 336.828L429.397 341.933L433.456 347.287L436.837 352.864L439.416 358.487L441.240 364.122L442.316 369.641L442.741 375.074L442.354 380.547L441.199 386.118L439.179 391.880L436.399 397.535L432.905 402.955L428.792 408.135L424.177 413.244L419.122 418.460L413.828 423.731L408.395 429.029L402.953 434.306L397.535 439.608L392.176 444.968L388.372 448.827L385.192 452.136" stroke="rgb(207, 208, 216)" stroke-width="45" fill="none" stroke-linecap="round" stroke-linejoin="round"/><path id="path-2-0" d="M385.346 490.657L388.575 493.915L392.390 497.764L397.726 503.147L403.063 508.530L408.399 513.913L413.735 519.296L419.071 524.679L424.407 530.062L429.743 535.445L435.079 540.829L440.416 546.212L445.752 551.595L451.088 556.978L456.424 562.361L461.760 567.744L467.096 573.127L472.432 578.510L477.768 583.894L483.105 589.277L486.920 593.125L490.149 596.383" stroke="rgb(207, 208, 216)" stroke-width="45" fill="none" stroke-linecap="round" stroke-linejoin="round"/><path id="path-3-0" d="M113.719 1012.800L116.617 1009.896L120.119 1006.384L125.188 1001.300L130.417 996.057L135.757 990.707L141.113 985.343L146.470 979.981L151.829 974.621L157.189 969.262L162.550 963.903L167.912 958.546L173.276 953.190L178.640 947.835L184.005 942.481L189.371 937.128L194.738 931.776L200.106 926.425L205.475 921.074L210.844 915.724L216.214 910.375L221.584 905.026L226.955 899.678L232.327 894.330L237.699 888.983L243.071 883.636L248.444 878.289L253.817 872.943L259.190 867.597L264.563 862.251L269.937 856.905L275.310 851.559L280.683 846.213L286.057 840.867L291.430 835.521L296.803 830.175L302.176 824.829L307.549 819.482L312.921 814.135L318.293 808.788L323.665 803.440L329.036 798.092L334.387 792.762L339.626 787.544L344.787 782.403L349.864 777.343L355.068 772.154L360.347 766.890L365.721 761.529L371.086 756.175L376.450 750.820L381.814 745.464L387.176 740.107L392.538 734.750L397.898 729.390L403.257 724.030L408.614 718.668L413.971 713.305L419.325 707.941L424.679 702.575L430.031 697.208L435.381 691.839L440.730 686.468L446.077 681.096L451.422 675.722L456.766 670.347L462.108 664.969L467.455 659.585L472.705 654.296L477.878 649.082L482.922 643.989L486.549 640.323L489.634 637.203" stroke="rgb(207, 208, 216)" stroke-width="45" fill="none" stroke-linecap="round" stroke-linejoin="round"/><path id="path-4-0" d="M529.919 634.884L531.339 636.310L533.357 638.335L535.874 640.861L538.707 643.705L541.224 646.231L544.057 649.074L546.574 651.600L549.407 654.443L551.924 656.969L554.757 659.812L557.274 662.338L560.107 665.182L562.624 667.708L565.457 670.551L567.974 673.077L570.807 675.920L573.324 678.446L576.157 681.290L578.674 683.816L581.507 686.659L584.024 689.185L586.857 692.028L589.374 694.554L592.207 697.398L594.724 699.924L597.557 702.767L600.074 705.293L602.907 708.136L605.424 710.662L608.257 713.505L610.774 716.032L613.607 718.875L616.124 721.401L618.957 724.244L621.474 726.770L624.307 729.613L626.824 732.139L629.657 734.983L632.173 737.509L635.006 740.352L637.523 742.878L640.356 745.721L642.873 748.247L645.706 751.091L648.223 753.617L651.056 756.460L653.573 758.986L656.406 761.829L658.923 764.355L661.756 767.199L664.273 769.725L667.106 772.568L669.623 775.094L672.456 777.937L674.973 780.463L677.806 783.306L680.323 785.832L683.156 788.676L685.673 791.202L688.506 794.045L691.023 796.571L693.856 799.414L696.373 801.940L699.206 804.784L701.723 807.310L704.556 810.153L707.073 812.679L709.906 815.522L712.423 818.048L715.256 820.892L717.773 823.418L720.606 826.261L723.123 828.787L725.958 831.632L728.482 834.165L731.230 836.924L733.588 839.290L736.138 841.850L738.452 844.172L741.147 846.876L743.638 849.377L746.464 852.212L748.981 854.739L751.814 857.582L754.331 860.108L757.164 862.951L759.681 865.477L762.514 868.320L765.031 870.846L767.864 873.690L770.380 876.216L773.213 879.059L775.730 881.585L778.563 884.428L781.080 886.954L783.913 889.798L786.430 892.324L789.263 895.167L791.780 897.693L794.613 900.536L797.130 903.062L799.963 905.906L802.480 908.432L805.313 911.275L807.830 913.801L810.663 916.644L813.180 919.170L816.013 922.013L818.530 924.539L821.363 927.383L823.880 929.909L826.713 932.752L829.230 935.278L832.063 938.121L834.580 940.647L837.413 943.491L839.930 946.017L842.763 948.860L845.280 951.386L848.113 954.229L850.630 956.755L853.463 959.599L855.980 962.125L858.813 964.968L861.330 967.494L864.163 970.337L866.680 972.863L869.513 975.706L872.029 978.233L874.863 981.076L877.379 983.602L880.212 986.445L882.729 988.971L885.562 991.814L888.079 994.340L890.912 997.184L893.429 999.710L896.256 1002.547L898.754 1005.054L901.459 1007.769L903.782 1010.100L905.554 1011.878L906.816 1013.145" stroke="rgb(207, 208, 216)" stroke-width="45" fill="none" stroke-linecap="round" stroke-linejoin="round"/><path id="path-5-0" d="M527.970 599.105L529.414 597.704L531.465 595.711L534.020 593.224L536.892 590.419L539.439 587.923L542.302 585.110L544.842 582.607L547.697 579.786L550.231 577.277L553.079 574.448L555.607 571.934L558.449 569.099L560.972 566.580L563.810 563.740L566.329 561.216L569.162 558.373L571.677 555.846L574.507 552.999L577.019 550.468L579.846 547.619L582.357 545.087L585.186 542.231L587.711 539.684L590.547 536.821L592.963 534.383L595.593 531.725L597.799 529.494L600.417 526.846L602.809 524.429L605.624 521.587L608.134 519.054L610.961 516.205L613.473 513.674L616.303 510.827L618.818 508.300L621.651 505.456L624.170 502.932L627.007 500.093L629.530 497.573L632.369 494.736L634.887 492.211L636.904 490.184L638.317 488.751" stroke="rgb(207, 208, 216)" stroke-width="45" fill="none" stroke-linecap="round" stroke-linejoin="round"/><path id="path-extension-1" d="M638.356 452.784L656.084 470.741" stroke="rgb(207, 208, 216)" stroke-width="45" fill="none" stroke-linecap="round" stroke-linejoin="round"/><path id="path-extension-2" d="M674.579 488.438L656.456 470.364" stroke="rgb(207, 208, 216)" stroke-width="45" fill="none" stroke-linecap="round" stroke-linejoin="round"/><path id="path-extension-3" d="M349.937 488.005L366.468 471.613" stroke="rgb(207, 208, 216)" stroke-width="45" fill="none" stroke-linecap="round" stroke-linejoin="round"/><path id="path-extension-4" d="M385.192 452.136L366.541 471.541" stroke="rgb(207, 208, 216)" stroke-width="45" fill="none" stroke-linecap="round" stroke-linejoin="round"/><path id="path-extension-5" d="M385.346 490.657L366.470 471.615" stroke="rgb(207, 208, 216)" stroke-width="45" fill="none" stroke-linecap="round" stroke-linejoin="round"/><path id="path-extension-6" d="M638.317 488.751L656.084 470.741" stroke="rgb(207, 208, 216)" stroke-width="45" fill="none" stroke-linecap="round" stroke-linejoin="round"/><path id="path-connection-1" d="M656.084 470.741L656.084 470.741" stroke="rgb(207, 208, 216)" stroke-width="45" fill="none" stroke-linecap="round" stroke-linejoin="round"/><path id="path-connection-2" d="M490.149 596.383L510.691 615.889" stroke="rgb(207, 208, 216)" stroke-width="45" fill="none" stroke-linecap="round" stroke-linejoin="round"/><path id="path-connection-3" d="M489.634 637.203L510.691 615.889" stroke="rgb(207, 208, 216)" stroke-width="45" fill="none" stroke-linecap="round" stroke-linejoin="round"/><path id="path-connection-4" d="M529.919 634.884L510.691 615.889" stroke="rgb(207, 208, 216)" stroke-width="45" fill="none" stroke-linecap="round" stroke-linejoin="round"/><path id="path-connection-5" d="M527.970 599.105L510.691 615.889" stroke="rgb(207, 208, 216)" stroke-width="45" fill="none" stroke-linecap="round" stroke-linejoin="round"/><path id="path-connection-6" d="M366.541 471.541L366.541 471.541" stroke="rgb(207, 208, 216)" stroke-width="45" fill="none" stroke-linecap="round" stroke-linejoin="round"/></g></svg>